<svg width="18" height="18" viewBox="0 0 18 18" fill="none" xmlns="http://www.w3.org/2000/svg">
    <path fill-rule="evenodd" clip-rule="evenodd" d="M9.00527 0C6.85842 0.00096674 4.78492 0.781291 3.17004 2.19598C1.53272 3.63173 0.451931 5.59719 0.116531 7.74894C-0.226283 9.90974 0.192707 12.1225 1.30176 14.0084C2.39457 15.8719 4.11853 17.2824 6.16145 17.9846C6.61502 18.07 6.77611 17.7839 6.77611 17.54C6.77611 17.3195 6.76711 16.5932 6.76351 15.8228C4.26167 16.3808 3.7343 14.7338 3.7343 14.7338C3.57156 14.1797 3.2176 13.7014 2.73537 13.3838C1.91912 12.8105 2.79836 12.8249 2.79836 12.8249C3.08364 12.8645 3.35633 12.9716 3.59481 13.1363C3.8342 13.301 4.03308 13.5197 4.17708 13.7753C4.29857 14.003 4.46326 14.2037 4.66125 14.3648C4.95605 14.6088 5.31859 14.7565 5.69997 14.7881C6.08135 14.8196 6.46323 14.7334 6.79411 14.5412C6.83461 14.0732 7.0371 13.6358 7.36558 13.3082C5.3686 13.0751 3.26723 12.284 3.26723 8.74523C3.25349 7.83277 3.58489 6.94878 4.19507 6.27025C3.91969 5.47386 3.95049 4.6035 4.28147 3.82857C4.28147 3.82857 5.03652 3.58107 6.75541 4.77356C8.22807 4.36026 9.78607 4.36026 11.2587 4.77356C12.974 3.58107 13.7246 3.82857 13.7246 3.82857C14.0576 4.60076 14.09 5.47375 13.8155 6.27025C14.4254 6.94882 14.7562 7.83293 14.7415 8.74523C14.7415 12.2903 12.6365 13.0697 10.6342 13.2974C10.8502 13.5231 11.0163 13.7917 11.1216 14.0859C11.2269 14.3801 11.269 14.6931 11.2452 15.0047C11.2452 16.2395 11.2344 17.234 11.2344 17.5373C11.2344 17.7821 11.3964 18.0701 11.8527 17.9801C13.8918 17.2746 15.6116 15.8634 16.7016 14.0012C17.8084 12.1168 18.2261 9.90638 17.8832 7.74804C17.5475 5.59828 16.4678 3.63461 14.8324 2.19958C13.2204 0.785627 11.1504 0.00414128 9.00617 0H9.00527Z" fill="#A07D5A"/>
</svg>
