<svg width="30" height="30" viewBox="0 0 30 30" fill="none" xmlns="http://www.w3.org/2000/svg">
    <g clip-path="url(#clip0_52_175)">
        <path fill-rule="evenodd" clip-rule="evenodd" d="M20.485 5.0625C20.764 5.04088 21.0422 5.11351 21.275 5.26874L22.975 6.4025L9.2275 7.45875L7.80625 6.03749L20.485 5.0625ZM6.25 8.0175V19.1675C6.25 19.438 6.33772 19.7011 6.5 19.9175L7.5 21.25V9.2675L6.25 8.0175ZM23.75 22.5925L10 23.65V9.9075L23.75 8.84999V22.5925ZM26.25 22.5925C26.25 23.2224 26.0121 23.8291 25.5841 24.2912C25.156 24.7533 24.5693 25.0368 23.9412 25.085L9.53 26.1937C9.11076 26.2259 8.69017 26.1519 8.30715 25.9784C7.92414 25.8049 7.59106 25.5376 7.33875 25.2012L4.5 21.4162C4.01317 20.7671 3.75 19.9776 3.75 19.1662V6.1575C3.75004 5.52759 3.98787 4.92092 4.41592 4.4588C4.84397 3.99668 5.43069 3.71318 6.05875 3.66499L20.2938 2.56999C21.1299 2.50572 21.9635 2.72357 22.6612 3.18874L25.1362 4.83874C25.4788 5.06697 25.7596 5.37624 25.9539 5.73909C26.1482 6.10194 26.2499 6.50715 26.25 6.91874V22.5925ZM21.25 11.875C21.25 11.5435 21.1183 11.2255 20.8839 10.9911C20.6495 10.7567 20.3315 10.625 20 10.625C19.6685 10.625 19.3505 10.7567 19.1161 10.9911C18.8817 11.2255 18.75 11.5435 18.75 11.875V17.225L15.44 11.845C15.3281 11.6631 15.1715 11.5129 14.985 11.4088C14.7986 11.3046 14.5886 11.2499 14.375 11.25H13.75C13.4185 11.25 13.1005 11.3817 12.8661 11.6161C12.6317 11.8505 12.5 12.1685 12.5 12.5V21.25C12.5 21.5815 12.6317 21.8995 12.8661 22.1339C13.1005 22.3683 13.4185 22.5 13.75 22.5C14.0815 22.5 14.3995 22.3683 14.6339 22.1339C14.8683 21.8995 15 21.5815 15 21.25V15.9L18.31 21.28C18.4219 21.4619 18.5785 21.6121 18.765 21.7162C18.9514 21.8204 19.1614 21.8751 19.375 21.875H20C20.3315 21.875 20.6495 21.7433 20.8839 21.5089C21.1183 21.2745 21.25 20.9565 21.25 20.625V11.875Z" fill="black"/>
    </g>
    <defs>
        <clipPath id="clip0_52_175">
            <rect width="30" height="30" fill="white"/>
        </clipPath>
    </defs>
</svg>
