<svg width="17" height="18" viewBox="0 0 17 18" fill="none" xmlns="http://www.w3.org/2000/svg">
    <path fill-rule="evenodd" clip-rule="evenodd" d="M12.6442 1.90607C12.855 1.88962 13.0652 1.94491 13.2411 2.0631L14.5256 2.92629L4.13856 3.73047L3.06472 2.64839L12.6442 1.90607ZM1.88889 4.15587V12.645C1.88889 12.8509 1.95517 13.0512 2.07778 13.216L2.83333 14.2305V5.10756L1.88889 4.15587ZM15.1111 15.2526L4.72222 16.0577V5.59483L15.1111 4.7897V15.2526ZM17 15.2526C17 15.7322 16.8203 16.1941 16.4969 16.5459C16.1734 16.8977 15.7301 17.1136 15.2556 17.1503L4.36711 17.9944C4.05035 18.0189 3.73257 17.9625 3.44318 17.8304C3.15379 17.6984 2.90214 17.4949 2.7115 17.2388L0.566667 14.357C0.198837 13.8628 0 13.2618 0 12.644V2.73976C3.31158e-05 2.26018 0.179725 1.79828 0.50314 1.44645C0.826556 1.09461 1.26986 0.878771 1.74439 0.842083L12.4997 0.00840137C13.1315 -0.0405356 13.7613 0.125328 14.2885 0.479489L16.1585 1.73572C16.4173 1.90948 16.6295 2.14495 16.7763 2.4212C16.9231 2.69746 16.9999 3.00597 17 3.31934V15.2526ZM13.2222 7.09279C13.2222 6.84039 13.1227 6.59832 12.9456 6.41984C12.7685 6.24137 12.5283 6.1411 12.2778 6.1411C12.0273 6.1411 11.7871 6.24137 11.61 6.41984C11.4328 6.59832 11.3333 6.84039 11.3333 7.09279V11.166L8.83244 7.06995C8.74789 6.93147 8.62954 6.81712 8.48868 6.73782C8.34781 6.65851 8.18913 6.6169 8.02778 6.61695H7.55556C7.30507 6.61695 7.06485 6.71721 6.88773 6.89569C6.71061 7.07417 6.61111 7.31623 6.61111 7.56864V14.2305C6.61111 14.4829 6.71061 14.7249 6.88773 14.9034C7.06485 15.0819 7.30507 15.1822 7.55556 15.1822C7.80604 15.1822 8.04626 15.0819 8.22338 14.9034C8.4005 14.7249 8.5 14.4829 8.5 14.2305V10.1572L11.0009 14.2533C11.0854 14.3918 11.2038 14.5061 11.3447 14.5855C11.4855 14.6648 11.6442 14.7064 11.8056 14.7063H12.2778C12.5283 14.7063 12.7685 14.6061 12.9456 14.4276C13.1227 14.2491 13.2222 14.007 13.2222 13.7546V7.09279Z" fill="#A07D5A"/>
</svg>
