<svg width="724" height="400" viewBox="0 0 724 400" fill="none" xmlns="http://www.w3.org/2000/svg">
<rect width="724" height="400" fill="#EFEDED"/>
<rect y="48" width="120" height="352" fill="white"/>
<path d="M58.1663 360.417C58.1663 363.961 61.0392 366.833 64.583 366.833C66.3782 366.833 68.0013 366.096 69.1659 364.908C69.1663 364.939 69.1663 364.969 69.1663 365C69.1663 370.063 65.0622 374.167 59.9997 374.167C54.9371 374.167 50.833 370.063 50.833 365C50.833 359.937 54.9371 355.833 59.9997 355.833C60.0304 355.833 60.0611 355.833 60.0918 355.834C58.9036 356.998 58.1663 358.621 58.1663 360.417ZM52.6663 365C52.6663 369.05 55.9496 372.333 59.9997 372.333C62.8031 372.333 65.2392 370.76 66.4732 368.449C65.8613 368.592 65.2279 368.667 64.583 368.667C60.0266 368.667 56.333 364.973 56.333 360.417C56.333 359.772 56.4076 359.138 56.5511 358.527C54.2394 359.761 52.6663 362.197 52.6663 365Z" fill="#8C8C8C"/>
<path d="M43.3486 121L45.9556 112.86H47.8696L50.4766 121H48.7716L47.6056 116.765C47.3636 115.918 47.1326 114.972 46.9016 114.103H46.8576C46.6376 114.983 46.4066 115.918 46.1646 116.765L44.9986 121H43.3486ZM44.9656 118.91V117.656H48.8376V118.91H44.9656ZM53.9155 121.154C52.2215 121.154 50.9235 119.966 50.9235 117.931C50.9235 115.885 52.3865 114.697 54.0585 114.697C54.8285 114.697 55.4005 114.983 55.8515 115.379L55.0925 116.413C54.7845 116.149 54.4875 116.017 54.1575 116.017C53.2005 116.017 52.5735 116.765 52.5735 117.931C52.5735 119.086 53.2115 119.845 54.0915 119.845C54.5425 119.845 54.9605 119.625 55.3015 119.35L55.9395 120.417C55.3565 120.923 54.5975 121.154 53.9155 121.154ZM59.1706 121.154C57.7076 121.154 57.1466 120.23 57.1466 118.855V116.116H56.2886V114.917L57.2456 114.851L57.4216 113.179H58.7636V114.851H60.2926V116.116H58.7636V118.855C58.7636 119.559 59.0606 119.889 59.5996 119.889C59.8086 119.889 60.0396 119.812 60.2156 119.746L60.4796 120.923C60.1496 121.033 59.7206 121.154 59.1706 121.154ZM61.5565 121V114.851H63.1735V121H61.5565ZM62.3595 113.85C61.7985 113.85 61.4245 113.498 61.4245 112.959C61.4245 112.431 61.7985 112.09 62.3595 112.09C62.9205 112.09 63.3055 112.431 63.3055 112.959C63.3055 113.498 62.9205 113.85 62.3595 113.85ZM66.2833 121L64.1713 114.851H65.8103L66.7013 117.92C66.8663 118.525 67.0313 119.152 67.1963 119.779H67.2513C67.4163 119.152 67.5813 118.525 67.7463 117.92L68.6483 114.851H70.2103L68.1533 121H66.2833ZM73.7688 121.154C72.0418 121.154 70.6998 119.966 70.6998 117.931C70.6998 115.929 72.1078 114.697 73.5598 114.697C75.2648 114.697 76.1338 115.929 76.1338 117.634C76.1338 117.942 76.1008 118.228 76.0678 118.382H72.2618C72.4048 119.394 73.0648 119.911 73.9778 119.911C74.4728 119.911 74.9128 119.757 75.3638 119.482L75.9028 120.483C75.2978 120.901 74.5278 121.154 73.7688 121.154ZM72.2398 117.304H74.7588C74.7588 116.468 74.3848 115.94 73.5928 115.94C72.9438 115.94 72.3718 116.402 72.2398 117.304Z" fill="#8C8C8C"/>
<circle cx="26.5" cy="117.5" r="10.5" fill="#FFF2BF"/>
<path d="M42.9628 90L45.5698 81.86H47.4838L50.0908 90H48.3858L47.2198 85.765C46.9778 84.918 46.7468 83.972 46.5158 83.103H46.4718C46.2518 83.983 46.0208 84.918 45.7788 85.765L44.6128 90H42.9628ZM44.5798 87.91V86.656H48.4518V87.91H44.5798ZM52.4407 90.154C51.3077 90.154 50.9227 89.417 50.9227 88.273V81.233H52.5397V88.339C52.5397 88.724 52.7047 88.845 52.8587 88.845C52.9137 88.845 52.9577 88.845 53.0677 88.823L53.2657 90.022C53.0787 90.088 52.8257 90.154 52.4407 90.154ZM55.9104 90.154C54.7774 90.154 54.3924 89.417 54.3924 88.273V81.233H56.0094V88.339C56.0094 88.724 56.1744 88.845 56.3284 88.845C56.3834 88.845 56.4274 88.845 56.5374 88.823L56.7354 90.022C56.5484 90.088 56.2954 90.154 55.9104 90.154Z" fill="#8C8C8C"/>
<circle cx="26.5" cy="86.5" r="10.5" fill="#B6B6B5"/>
<path d="M47.6636 151.154C45.6066 151.154 43.9456 149.68 43.9456 146.963C43.9456 144.279 45.6616 142.717 47.7296 142.717C48.7636 142.717 49.5886 143.201 50.1166 143.751L49.2586 144.796C48.8406 144.389 48.3786 144.114 47.7516 144.114C46.5306 144.114 45.6066 145.17 45.6066 146.908C45.6066 148.69 46.4316 149.746 47.7296 149.746C48.4226 149.746 48.9726 149.416 49.4016 148.943L50.2596 149.966C49.5886 150.747 48.7196 151.154 47.6636 151.154ZM54.0133 151.154C52.4623 151.154 51.0543 149.966 51.0543 147.931C51.0543 145.885 52.4623 144.697 54.0133 144.697C55.5533 144.697 56.9613 145.885 56.9613 147.931C56.9613 149.966 55.5533 151.154 54.0133 151.154ZM54.0133 149.845C54.8493 149.845 55.3113 149.086 55.3113 147.931C55.3113 146.765 54.8493 146.017 54.0133 146.017C53.1663 146.017 52.7043 146.765 52.7043 147.931C52.7043 149.086 53.1663 149.845 54.0133 149.845ZM58.3251 151V144.851H59.6341L59.7661 145.665H59.7991C60.3161 145.137 60.8881 144.697 61.6801 144.697C62.5711 144.697 63.0881 145.082 63.3741 145.764C63.9461 145.181 64.5401 144.697 65.3431 144.697C66.6521 144.697 67.2461 145.621 67.2461 147.161V151H65.6291V147.37C65.6291 146.402 65.3651 146.083 64.7711 146.083C64.4191 146.083 64.0341 146.303 63.5941 146.765V151H61.9771V147.37C61.9771 146.402 61.7021 146.083 61.1081 146.083C60.7671 146.083 60.3601 146.303 59.9421 146.765V151H58.3251ZM68.9276 153.365V144.851H70.2366L70.3686 145.489H70.4016C70.9076 145.038 71.5456 144.697 72.2056 144.697C73.7236 144.697 74.6256 145.929 74.6256 147.832C74.6256 149.944 73.3606 151.154 72.0076 151.154C71.4796 151.154 70.9516 150.923 70.4896 150.494L70.5446 151.495V153.365H68.9276ZM71.6556 149.823C72.3926 149.823 72.9646 149.185 72.9646 147.854C72.9646 146.666 72.6016 146.017 71.7436 146.017C71.3366 146.017 70.9626 146.226 70.5446 146.655V149.372C70.9296 149.713 71.3256 149.823 71.6556 149.823ZM77.5247 151.154C76.3917 151.154 76.0067 150.417 76.0067 149.273V142.233H77.6237V149.339C77.6237 149.724 77.7887 149.845 77.9427 149.845C77.9977 149.845 78.0417 149.845 78.1517 149.823L78.3497 151.022C78.1627 151.088 77.9097 151.154 77.5247 151.154ZM82.1604 151.154C80.4334 151.154 79.0914 149.966 79.0914 147.931C79.0914 145.929 80.4994 144.697 81.9514 144.697C83.6564 144.697 84.5254 145.929 84.5254 147.634C84.5254 147.942 84.4924 148.228 84.4594 148.382H80.6534C80.7964 149.394 81.4564 149.911 82.3694 149.911C82.8644 149.911 83.3044 149.757 83.7554 149.482L84.2944 150.483C83.6894 150.901 82.9194 151.154 82.1604 151.154ZM80.6314 147.304H83.1504C83.1504 146.468 82.7764 145.94 81.9844 145.94C81.3354 145.94 80.7634 146.402 80.6314 147.304ZM87.9294 151.154C86.4664 151.154 85.9054 150.23 85.9054 148.855V146.116H85.0474V144.917L86.0044 144.851L86.1804 143.179H87.5224V144.851H89.0514V146.116H87.5224V148.855C87.5224 149.559 87.8194 149.889 88.3584 149.889C88.5674 149.889 88.7984 149.812 88.9744 149.746L89.2384 150.923C88.9084 151.033 88.4794 151.154 87.9294 151.154ZM92.7307 151.154C91.0037 151.154 89.6617 149.966 89.6617 147.931C89.6617 145.929 91.0697 144.697 92.5217 144.697C94.2267 144.697 95.0957 145.929 95.0957 147.634C95.0957 147.942 95.0627 148.228 95.0297 148.382H91.2237C91.3667 149.394 92.0267 149.911 92.9397 149.911C93.4347 149.911 93.8747 149.757 94.3257 149.482L94.8647 150.483C94.2597 150.901 93.4897 151.154 92.7307 151.154ZM91.2017 147.304H93.7207C93.7207 146.468 93.3467 145.94 92.5547 145.94C91.9057 145.94 91.3337 146.402 91.2017 147.304ZM98.6053 151.154C97.0653 151.154 96.0753 149.955 96.0753 147.931C96.0753 145.918 97.3403 144.697 98.6603 144.697C99.3533 144.697 99.7823 144.95 100.233 145.357L100.167 144.389V142.233H101.784V151H100.464L100.343 150.362H100.31C99.8593 150.813 99.2433 151.154 98.6053 151.154ZM99.0123 149.823C99.4523 149.823 99.8153 149.647 100.167 149.196V146.49C99.8043 146.149 99.4083 146.017 99.0233 146.017C98.3303 146.017 97.7363 146.677 97.7363 147.909C97.7363 149.196 98.2093 149.823 99.0123 149.823Z" fill="#8C8C8C"/>
<circle cx="26.5" cy="147.5" r="10.5" fill="#FFE1E4"/>
<path d="M698.314 369.656C698.441 369.788 698.513 369.966 698.513 370.152C698.513 370.338 698.441 370.516 698.314 370.648L696.897 372.115L694.179 369.305L695.596 367.838C695.724 367.706 695.897 367.632 696.077 367.632C696.257 367.632 696.43 367.706 696.557 367.838L698.314 369.655V369.656ZM695.936 373.107L693.218 370.297L683.959 379.871C683.885 379.948 683.828 380.043 683.795 380.146L682.701 383.538C682.681 383.6 682.678 383.666 682.693 383.73C682.707 383.793 682.739 383.851 682.783 383.897C682.828 383.943 682.884 383.976 682.945 383.991C683.006 384.006 683.071 384.003 683.13 383.982L686.411 382.851C686.511 382.817 686.602 382.759 686.677 382.682L695.936 373.107Z" fill="#8C8C8C"/>
<path d="M684.44 367.329C684.547 367.329 684.649 367.373 684.725 367.451C684.8 367.529 684.842 367.635 684.842 367.746V370.243H687.258C687.364 370.243 687.467 370.286 687.542 370.364C687.618 370.442 687.66 370.548 687.66 370.659C687.66 370.769 687.618 370.875 687.542 370.953C687.467 371.031 687.364 371.075 687.258 371.075H684.842V373.572C684.842 373.682 684.8 373.788 684.725 373.866C684.649 373.944 684.547 373.988 684.44 373.988C684.333 373.988 684.231 373.944 684.155 373.866C684.08 373.788 684.037 373.682 684.037 373.572V371.075H681.622C681.515 371.075 681.413 371.031 681.338 370.953C681.262 370.875 681.22 370.769 681.22 370.659C681.22 370.548 681.262 370.442 681.338 370.364C681.413 370.286 681.515 370.243 681.622 370.243H684.037V367.746C684.037 367.635 684.08 367.529 684.155 367.451C684.231 367.373 684.333 367.329 684.44 367.329Z" fill="#8C8C8C"/>
<rect width="724" height="48" fill="white"/>
<path d="M343.514 33.308C340.588 33.308 339.466 31.46 339.466 28.71V23.232H337.75V20.834L339.664 20.702L340.016 17.358H342.7V20.702H345.758V23.232H342.7V28.71C342.7 30.118 343.294 30.778 344.372 30.778C344.79 30.778 345.252 30.624 345.604 30.492L346.132 32.846C345.472 33.066 344.614 33.308 343.514 33.308ZM352.897 33.308C349.795 33.308 346.979 30.932 346.979 26.862C346.979 22.77 349.795 20.394 352.897 20.394C355.977 20.394 358.793 22.77 358.793 26.862C358.793 30.932 355.977 33.308 352.897 33.308ZM352.897 30.69C354.569 30.69 355.493 29.172 355.493 26.862C355.493 24.53 354.569 23.034 352.897 23.034C351.203 23.034 350.279 24.53 350.279 26.862C350.279 29.172 351.203 30.69 352.897 30.69ZM365.854 33.308C362.774 33.308 360.794 30.91 360.794 26.862C360.794 22.836 363.324 20.394 365.964 20.394C367.35 20.394 368.208 20.9 369.11 21.714L368.978 19.778V15.466H372.212V33H369.572L369.33 31.724H369.264C368.362 32.626 367.13 33.308 365.854 33.308ZM366.668 30.646C367.548 30.646 368.274 30.294 368.978 29.392V23.98C368.252 23.298 367.46 23.034 366.69 23.034C365.304 23.034 364.116 24.354 364.116 26.818C364.116 29.392 365.062 30.646 366.668 30.646ZM380.826 33.308C377.724 33.308 374.908 30.932 374.908 26.862C374.908 22.77 377.724 20.394 380.826 20.394C383.906 20.394 386.722 22.77 386.722 26.862C386.722 30.932 383.906 33.308 380.826 33.308ZM380.826 30.69C382.498 30.69 383.422 29.172 383.422 26.862C383.422 24.53 382.498 23.034 380.826 23.034C379.132 23.034 378.208 24.53 378.208 26.862C378.208 29.172 379.132 30.69 380.826 30.69Z" fill="#8C8C8C"/>
<path d="M17.2917 29.2768C16.9084 29.66 16.8971 30.3138 17.2917 30.7083C17.675 31.1028 18.3402 31.0916 18.7235 30.7083L24.4958 24.9259L30.2793 30.7083C30.6626 31.0916 31.3165 31.1028 31.6998 30.7083C32.1057 30.3138 32.0944 29.66 31.6998 29.2768L25.9276 23.4944L31.6998 17.7232C32.0944 17.34 32.1057 16.6749 31.6998 16.2917C31.3165 15.8972 30.6626 15.9084 30.2793 16.2917L24.4958 22.0741L18.7235 16.2917C18.3402 15.9084 17.675 15.8972 17.2917 16.2917C16.8971 16.6749 16.9084 17.34 17.2917 17.7232L23.0753 23.4944L17.2917 29.2768Z" fill="#8C8C8C"/>
<g filter="url(#filter0_d_271_1100)">
<rect x="131" y="72" width="176" height="132" rx="12" fill="white"/>
</g>
<path d="M131 84C131 77.3726 136.373 72 143 72H295C301.627 72 307 77.3726 307 84V95.2222H131V84Z" fill="#FFF2BF"/>
<path d="M298 84C298 83.2666 297.4 82.6666 296.667 82.6666C295.933 82.6666 295.333 83.2666 295.333 84C295.333 84.7333 295.933 85.3333 296.667 85.3333C297.4 85.3333 298 84.7333 298 84ZM288.667 84C288.667 83.2666 288.067 82.6666 287.333 82.6666C286.6 82.6666 286 83.2666 286 84C286 84.7333 286.6 85.3333 287.333 85.3333C288.067 85.3333 288.667 84.7333 288.667 84ZM293.333 84C293.333 83.2666 292.733 82.6666 292 82.6666C291.267 82.6666 290.667 83.2666 290.667 84C290.667 84.7333 291.267 85.3333 292 85.3333C292.733 85.3333 293.333 84.7333 293.333 84Z" fill="#8C8C8C"/>
<path d="M150.175 79.793H151.561V89.979H150.175V79.793ZM146.82 83.269H148.503V84.457H146.82V83.269ZM148.118 79.958H149.482V89.517H148.118V79.958ZM144.62 81.454H145.72V82.499C145.72 84.787 145.093 87.064 143.476 88.076L142.607 86.998C144.103 86.063 144.62 84.237 144.62 82.499V81.454ZM144.95 81.454H146.039V82.499C146.039 84.193 146.545 85.909 148.019 86.767L147.161 87.834C145.544 86.877 144.95 84.743 144.95 82.499V81.454ZM142.992 80.816H147.535V81.993H142.992V80.816ZM154.069 80.189H160.988V83.797H154.069V80.189ZM159.547 81.333H155.499V82.653H159.547V81.333ZM152.936 84.754H162.143V85.909H152.936V84.754ZM156.797 83.533H158.26V85.084H156.797V83.533ZM153.959 86.646H161.032V89.979H159.569V87.801H153.959V86.646ZM170.04 79.782H171.514V90.001H170.04V79.782ZM166.025 80.497C167.565 80.497 168.698 81.905 168.698 84.127C168.698 86.371 167.565 87.779 166.025 87.779C164.485 87.779 163.352 86.371 163.352 84.127C163.352 81.905 164.485 80.497 166.025 80.497ZM166.025 81.828C165.266 81.828 164.749 82.631 164.749 84.127C164.749 85.645 165.266 86.459 166.025 86.459C166.784 86.459 167.29 85.645 167.29 84.127C167.29 82.631 166.784 81.828 166.025 81.828ZM175.677 83.742H184.895V84.897H175.677V83.742ZM176.81 82.048H183.806V83.192H176.81V82.048ZM176.81 79.98H183.718V81.146H178.262V83.038H176.81V79.98ZM176.722 85.469H183.762V88.164H178.174V89.044H176.733V87.13H182.321V86.569H176.722V85.469ZM176.733 88.78H184.026V89.902H176.733V88.78ZM188.579 80.497C190.097 80.497 191.208 81.905 191.208 84.127C191.208 86.371 190.097 87.779 188.579 87.779C187.05 87.779 185.95 86.371 185.95 84.127C185.95 81.905 187.05 80.497 188.579 80.497ZM188.579 81.828C187.842 81.828 187.347 82.631 187.347 84.127C187.347 85.645 187.842 86.459 188.579 86.459C189.327 86.459 189.811 85.645 189.811 84.127C189.811 82.631 189.327 81.828 188.579 81.828ZM192.88 79.782H194.332V90.001H192.88V79.782ZM190.779 83.456H193.496V84.633H190.779V83.456ZM202.46 79.793H203.923V84.875H202.46V79.793ZM203.516 81.806H205.276V83.005H203.516V81.806ZM199.545 80.167H201.162C201.162 82.884 199.446 84.523 196.377 85.15L195.849 83.951C198.434 83.478 199.545 82.312 199.545 81.036V80.167ZM196.355 80.167H200.48V81.333H196.355V80.167ZM197.191 85.271H203.923V88.087H198.665V89.319H197.213V87.009H202.482V86.415H197.191V85.271ZM197.213 88.736H204.22V89.88H197.213V88.736ZM210.804 81.399H211.959V82.543C211.959 84.842 210.991 87.185 209.121 88.065L208.296 86.91C209.979 86.118 210.804 84.215 210.804 82.543V81.399ZM211.112 81.399H212.267V82.543C212.267 84.083 213.059 85.887 214.731 86.657L213.928 87.812C212.058 86.943 211.112 84.71 211.112 82.543V81.399ZM208.692 80.772H214.28V81.971H208.692V80.772ZM215.028 79.793H216.502V89.979H215.028V79.793ZM216.172 83.676H217.976V84.886H216.172V83.676ZM225.653 79.782H227.116V90.001H225.653V79.782ZM219.185 86.437H220.087C221.891 86.437 223.332 86.371 224.949 86.096L225.092 87.273C223.442 87.57 221.946 87.625 220.087 87.625H219.185V86.437ZM219.174 80.651H223.981V84.589H220.67V86.877H219.185V83.434H222.485V81.817H219.174V80.651ZM232.824 83.544H234.496V84.721H232.824V83.544ZM236.113 79.793H237.51V89.979H236.113V79.793ZM234.034 79.947H235.409V89.517H234.034V79.947ZM231.042 80.508C232.395 80.508 233.264 81.905 233.264 84.204C233.264 86.514 232.395 87.911 231.042 87.911C229.7 87.911 228.842 86.514 228.842 84.204C228.842 81.905 229.7 80.508 231.042 80.508ZM231.042 81.883C230.492 81.883 230.173 82.653 230.173 84.204C230.173 85.766 230.492 86.525 231.042 86.525C231.614 86.525 231.933 85.766 231.933 84.204C231.933 82.653 231.614 81.883 231.042 81.883ZM240.908 84.963H242.36V87.823H240.908V84.963ZM244.604 84.963H246.067V87.823H244.604V84.963ZM238.884 87.614H248.102V88.802H238.884V87.614ZM243.482 80.288C245.671 80.288 247.288 81.366 247.288 83.027C247.288 84.688 245.671 85.755 243.482 85.755C241.282 85.755 239.676 84.688 239.676 83.027C239.676 81.366 241.282 80.288 243.482 80.288ZM243.482 81.432C242.063 81.432 241.117 82.015 241.117 83.027C241.117 84.028 242.063 84.622 243.482 84.622C244.901 84.622 245.847 84.028 245.847 83.027C245.847 82.015 244.901 81.432 243.482 81.432ZM250.059 86.228L249.817 82.169L249.773 80.64H251.39L251.346 82.169L251.115 86.228H250.059ZM250.576 89.154C250.004 89.154 249.575 88.703 249.575 88.098C249.575 87.493 250.004 87.053 250.576 87.053C251.159 87.053 251.588 87.493 251.588 88.098C251.588 88.703 251.159 89.154 250.576 89.154Z" fill="#8C8C8C"/>
<path d="M149.711 103.74H150.511V112.78H149.711V103.74ZM148.191 107.42H149.931V108.1H148.191V107.42ZM147.661 103.94H148.441V112.32H147.661V103.94ZM143.281 104.83H144.111V110.05H143.281V104.83ZM143.281 109.72H143.861C144.791 109.72 145.831 109.66 147.011 109.43L147.101 110.15C145.871 110.39 144.831 110.44 143.861 110.44H143.281V109.72ZM154.06 106.8H154.88V108.51H154.06V106.8ZM157.38 106.8H158.2V108.51H157.38V106.8ZM152.04 108.21H160.21V108.88H152.04V108.21ZM156.12 109.56C158.06 109.56 159.22 110.13 159.22 111.16C159.22 112.19 158.06 112.77 156.12 112.77C154.18 112.77 153.02 112.19 153.02 111.16C153.02 110.13 154.18 109.56 156.12 109.56ZM156.12 110.2C154.71 110.2 153.86 110.55 153.86 111.16C153.86 111.78 154.71 112.12 156.12 112.12C157.54 112.12 158.38 111.78 158.38 111.16C158.38 110.55 157.54 110.2 156.12 110.2ZM156.13 103.9C158.09 103.9 159.31 104.53 159.31 105.59C159.31 106.64 158.09 107.26 156.13 107.26C154.16 107.26 152.95 106.64 152.95 105.59C152.95 104.53 154.16 103.9 156.13 103.9ZM156.13 104.55C154.69 104.55 153.8 104.93 153.8 105.59C153.8 106.24 154.69 106.62 156.13 106.62C157.57 106.62 158.46 106.24 158.46 105.59C158.46 104.93 157.57 104.55 156.13 104.55ZM167.809 103.73H168.639V112.79H167.809V103.73ZM163.869 104.43C165.209 104.43 166.169 105.66 166.169 107.58C166.169 109.51 165.209 110.74 163.869 110.74C162.539 110.74 161.579 109.51 161.579 107.58C161.579 105.66 162.539 104.43 163.869 104.43ZM163.869 105.18C162.989 105.18 162.369 106.12 162.369 107.58C162.369 109.05 162.989 110.01 163.869 110.01C164.759 110.01 165.369 109.05 165.369 107.58C165.369 106.12 164.759 105.18 163.869 105.18ZM172.685 107.51H180.855V108.19H172.685V107.51ZM173.765 106.11H179.885V106.78H173.765V106.11ZM173.765 104.03H179.785V104.71H174.585V106.65H173.765V104.03ZM173.665 108.97H179.805V111.1H174.505V112.24H173.685V110.48H178.985V109.62H173.665V108.97ZM173.685 112.02H180.075V112.68H173.685V112.02ZM184.294 104.43C185.604 104.43 186.544 105.66 186.544 107.58C186.544 109.51 185.604 110.74 184.294 110.74C182.974 110.74 182.044 109.51 182.044 107.58C182.044 105.66 182.974 104.43 184.294 104.43ZM184.294 105.18C183.424 105.18 182.834 106.12 182.834 107.58C182.834 109.05 183.424 110.01 184.294 110.01C185.164 110.01 185.754 109.05 185.754 107.58C185.754 106.12 185.164 105.18 184.294 105.18ZM188.504 103.73H189.324V112.79H188.504V103.73ZM186.274 107.18H188.864V107.86H186.274V107.18ZM197.263 103.74H198.093V108.63H197.263V103.74ZM197.863 105.87H199.433V106.57H197.863V105.87ZM194.753 104.28H195.653C195.653 106.56 194.053 108.09 191.413 108.74L191.093 108.06C193.433 107.5 194.753 106.27 194.753 104.69V104.28ZM191.493 104.28H195.253V104.96H191.493V104.28ZM192.383 109.04H193.203V110.17H197.273V109.04H198.093V112.66H192.383V109.04ZM193.203 110.83V111.99H197.273V110.83H193.203ZM206.852 103.74H207.682V112.78H206.852V103.74ZM200.852 104.62H201.672V110.22H200.852V104.62ZM200.852 109.73H201.592C202.962 109.73 204.392 109.63 205.922 109.31L206.022 110.02C204.452 110.34 203.022 110.45 201.592 110.45H200.852V109.73ZM215.591 103.73H216.431V112.79H215.591V103.73ZM216.231 107.3H217.911V108H216.231V107.3ZM209.861 109.84H210.571C212.241 109.84 213.411 109.78 214.761 109.53L214.851 110.23C213.461 110.49 212.271 110.54 210.571 110.54H209.861V109.84ZM209.861 104.61H214.061V105.29H210.681V110.15H209.861V104.61ZM219.481 109.79L219.351 105.56L219.331 104.51H220.251L220.231 105.56L220.101 109.79H219.481ZM219.781 112.14C219.421 112.14 219.131 111.85 219.131 111.44C219.131 111.02 219.421 110.74 219.781 110.74C220.151 110.74 220.451 111.02 220.451 111.44C220.451 111.85 220.151 112.14 219.781 112.14ZM223.649 112.7H233.649V102.7H223.649V112.7Z" fill="#8C8C8C"/>
<path d="M246.479 188.49H247.309V189.86H246.479V188.49ZM246.869 185.15C248.179 185.15 249.099 185.87 249.099 186.94C249.099 188.01 248.179 188.72 246.869 188.72C245.569 188.72 244.649 188.01 244.649 186.94C244.649 185.87 245.569 185.15 246.869 185.15ZM246.869 185.79C246.019 185.79 245.429 186.26 245.429 186.94C245.429 187.63 246.019 188.09 246.869 188.09C247.729 188.09 248.319 187.63 248.319 186.94C248.319 186.26 247.729 185.79 246.869 185.79ZM250.319 184.75H251.149V191.66H250.319V184.75ZM250.799 187.8H252.469V188.49H250.799V187.8ZM245.429 192.89H251.469V193.58H245.429V192.89ZM245.429 191.07H246.259V193.19H245.429V191.07ZM244.239 190.32L244.129 189.64C245.719 189.64 247.919 189.62 249.759 189.34L249.819 189.95C247.929 190.3 245.789 190.32 244.239 190.32ZM255.629 190.04H256.449V192.26H255.629V190.04ZM258.519 190.02H259.329V192.25H258.519V190.02ZM253.349 191.98H261.539V192.67H253.349V191.98ZM254.339 185.41H260.529V188.14H255.189V189.96H254.369V187.48H259.709V186.08H254.339V185.41ZM254.369 189.59H260.739V190.27H254.369V189.59ZM267.164 185.52H267.844V187.14C267.844 189.22 266.724 191.15 265.244 191.9L264.734 191.22C266.074 190.58 267.164 188.85 267.164 187.14V185.52ZM267.304 185.52H267.984V187.14C267.984 188.79 269.064 190.45 270.404 191.07L269.904 191.73C268.434 191.01 267.304 189.15 267.304 187.14V185.52ZM271.344 184.73H272.174V193.79H271.344V184.73ZM279.9 188.31H281.61V188.99H279.9V188.31ZM278.06 187.05H278.7V187.52C278.7 189.32 277.95 191.14 276.63 191.93L276.14 191.3C277.36 190.59 278.06 189 278.06 187.52V187.05ZM278.21 187.05H278.85V187.52C278.85 188.96 279.57 190.45 280.79 191.11L280.32 191.73C278.99 190.99 278.21 189.28 278.21 187.52V187.05ZM276.39 186.4H280.52V187.09H276.39V186.4ZM278.06 185.06H278.86V186.93H278.06V185.06ZM283.09 184.74H283.89V193.78H283.09V184.74ZM281.28 184.95H282.06V193.32H281.28V184.95ZM286.389 185.66H292.129V186.34H286.389V185.66ZM285.419 191.83H293.589V192.53H285.419V191.83ZM291.769 185.66H292.579V186.77C292.579 188.1 292.579 189.33 292.199 191.18L291.379 191.1C291.769 189.36 291.769 188.07 291.769 186.77V185.66ZM291.979 188.16V188.78L286.269 189.09L286.149 188.4L291.979 188.16ZM295.418 190.79L295.288 186.56L295.268 185.51H296.188L296.168 186.56L296.038 190.79H295.418ZM295.718 193.14C295.358 193.14 295.068 192.85 295.068 192.44C295.068 192.02 295.358 191.74 295.718 191.74C296.088 191.74 296.388 192.02 296.388 192.44C296.388 192.85 296.088 193.14 295.718 193.14Z" fill="#8C8C8C"/>
<rect x="229.5" y="184.5" width="9" height="9" rx="2.5" fill="white" stroke="#8C8C8C"/>
<g filter="url(#filter1_d_271_1100)">
<rect x="332" y="72" width="176" height="132" rx="12" fill="white"/>
</g>
<path d="M332 84C332 77.3726 337.373 72 344 72H496C502.627 72 508 77.3726 508 84V95.2222H332V84Z" fill="#FFF2BF"/>
<path d="M499 84C499 83.2666 498.4 82.6666 497.667 82.6666C496.933 82.6666 496.333 83.2666 496.333 84C496.333 84.7333 496.933 85.3333 497.667 85.3333C498.4 85.3333 499 84.7333 499 84ZM489.667 84C489.667 83.2666 489.067 82.6666 488.333 82.6666C487.6 82.6666 487 83.2666 487 84C487 84.7333 487.6 85.3333 488.333 85.3333C489.067 85.3333 489.667 84.7333 489.667 84ZM494.333 84C494.333 83.2666 493.733 82.6666 493 82.6666C492.267 82.6666 491.667 83.2666 491.667 84C491.667 84.7333 492.267 85.3333 493 85.3333C493.733 85.3333 494.333 84.7333 494.333 84Z" fill="#8C8C8C"/>
<path d="M351.175 79.793H352.561V89.979H351.175V79.793ZM347.82 83.269H349.503V84.457H347.82V83.269ZM349.118 79.958H350.482V89.517H349.118V79.958ZM345.62 81.454H346.72V82.499C346.72 84.787 346.093 87.064 344.476 88.076L343.607 86.998C345.103 86.063 345.62 84.237 345.62 82.499V81.454ZM345.95 81.454H347.039V82.499C347.039 84.193 347.545 85.909 349.019 86.767L348.161 87.834C346.544 86.877 345.95 84.743 345.95 82.499V81.454ZM343.992 80.816H348.535V81.993H343.992V80.816ZM355.069 80.189H361.988V83.797H355.069V80.189ZM360.547 81.333H356.499V82.653H360.547V81.333ZM353.936 84.754H363.143V85.909H353.936V84.754ZM357.797 83.533H359.26V85.084H357.797V83.533ZM354.959 86.646H362.032V89.979H360.569V87.801H354.959V86.646ZM371.04 79.782H372.514V90.001H371.04V79.782ZM367.025 80.497C368.565 80.497 369.698 81.905 369.698 84.127C369.698 86.371 368.565 87.779 367.025 87.779C365.485 87.779 364.352 86.371 364.352 84.127C364.352 81.905 365.485 80.497 367.025 80.497ZM367.025 81.828C366.266 81.828 365.749 82.631 365.749 84.127C365.749 85.645 366.266 86.459 367.025 86.459C367.784 86.459 368.29 85.645 368.29 84.127C368.29 82.631 367.784 81.828 367.025 81.828ZM376.677 83.742H385.895V84.897H376.677V83.742ZM377.81 82.048H384.806V83.192H377.81V82.048ZM377.81 79.98H384.718V81.146H379.262V83.038H377.81V79.98ZM377.722 85.469H384.762V88.164H379.174V89.044H377.733V87.13H383.321V86.569H377.722V85.469ZM377.733 88.78H385.026V89.902H377.733V88.78ZM389.579 80.497C391.097 80.497 392.208 81.905 392.208 84.127C392.208 86.371 391.097 87.779 389.579 87.779C388.05 87.779 386.95 86.371 386.95 84.127C386.95 81.905 388.05 80.497 389.579 80.497ZM389.579 81.828C388.842 81.828 388.347 82.631 388.347 84.127C388.347 85.645 388.842 86.459 389.579 86.459C390.327 86.459 390.811 85.645 390.811 84.127C390.811 82.631 390.327 81.828 389.579 81.828ZM393.88 79.782H395.332V90.001H393.88V79.782ZM391.779 83.456H394.496V84.633H391.779V83.456ZM403.46 79.793H404.923V84.875H403.46V79.793ZM404.516 81.806H406.276V83.005H404.516V81.806ZM400.545 80.167H402.162C402.162 82.884 400.446 84.523 397.377 85.15L396.849 83.951C399.434 83.478 400.545 82.312 400.545 81.036V80.167ZM397.355 80.167H401.48V81.333H397.355V80.167ZM398.191 85.271H404.923V88.087H399.665V89.319H398.213V87.009H403.482V86.415H398.191V85.271ZM398.213 88.736H405.22V89.88H398.213V88.736ZM411.804 81.399H412.959V82.543C412.959 84.842 411.991 87.185 410.121 88.065L409.296 86.91C410.979 86.118 411.804 84.215 411.804 82.543V81.399ZM412.112 81.399H413.267V82.543C413.267 84.083 414.059 85.887 415.731 86.657L414.928 87.812C413.058 86.943 412.112 84.71 412.112 82.543V81.399ZM409.692 80.772H415.28V81.971H409.692V80.772ZM416.028 79.793H417.502V89.979H416.028V79.793ZM417.172 83.676H418.976V84.886H417.172V83.676ZM426.653 79.782H428.116V90.001H426.653V79.782ZM420.185 86.437H421.087C422.891 86.437 424.332 86.371 425.949 86.096L426.092 87.273C424.442 87.57 422.946 87.625 421.087 87.625H420.185V86.437ZM420.174 80.651H424.981V84.589H421.67V86.877H420.185V83.434H423.485V81.817H420.174V80.651ZM433.824 83.544H435.496V84.721H433.824V83.544ZM437.113 79.793H438.51V89.979H437.113V79.793ZM435.034 79.947H436.409V89.517H435.034V79.947ZM432.042 80.508C433.395 80.508 434.264 81.905 434.264 84.204C434.264 86.514 433.395 87.911 432.042 87.911C430.7 87.911 429.842 86.514 429.842 84.204C429.842 81.905 430.7 80.508 432.042 80.508ZM432.042 81.883C431.492 81.883 431.173 82.653 431.173 84.204C431.173 85.766 431.492 86.525 432.042 86.525C432.614 86.525 432.933 85.766 432.933 84.204C432.933 82.653 432.614 81.883 432.042 81.883ZM441.908 84.963H443.36V87.823H441.908V84.963ZM445.604 84.963H447.067V87.823H445.604V84.963ZM439.884 87.614H449.102V88.802H439.884V87.614ZM444.482 80.288C446.671 80.288 448.288 81.366 448.288 83.027C448.288 84.688 446.671 85.755 444.482 85.755C442.282 85.755 440.676 84.688 440.676 83.027C440.676 81.366 442.282 80.288 444.482 80.288ZM444.482 81.432C443.063 81.432 442.117 82.015 442.117 83.027C442.117 84.028 443.063 84.622 444.482 84.622C445.901 84.622 446.847 84.028 446.847 83.027C446.847 82.015 445.901 81.432 444.482 81.432ZM451.059 86.228L450.817 82.169L450.773 80.64H452.39L452.346 82.169L452.115 86.228H451.059ZM451.576 89.154C451.004 89.154 450.575 88.703 450.575 88.098C450.575 87.493 451.004 87.053 451.576 87.053C452.159 87.053 452.588 87.493 452.588 88.098C452.588 88.703 452.159 89.154 451.576 89.154Z" fill="#8C8C8C"/>
<path d="M350.711 103.74H351.511V112.78H350.711V103.74ZM349.191 107.42H350.931V108.1H349.191V107.42ZM348.661 103.94H349.441V112.32H348.661V103.94ZM344.281 104.83H345.111V110.05H344.281V104.83ZM344.281 109.72H344.861C345.791 109.72 346.831 109.66 348.011 109.43L348.101 110.15C346.871 110.39 345.831 110.44 344.861 110.44H344.281V109.72ZM355.06 106.8H355.88V108.51H355.06V106.8ZM358.38 106.8H359.2V108.51H358.38V106.8ZM353.04 108.21H361.21V108.88H353.04V108.21ZM357.12 109.56C359.06 109.56 360.22 110.13 360.22 111.16C360.22 112.19 359.06 112.77 357.12 112.77C355.18 112.77 354.02 112.19 354.02 111.16C354.02 110.13 355.18 109.56 357.12 109.56ZM357.12 110.2C355.71 110.2 354.86 110.55 354.86 111.16C354.86 111.78 355.71 112.12 357.12 112.12C358.54 112.12 359.38 111.78 359.38 111.16C359.38 110.55 358.54 110.2 357.12 110.2ZM357.13 103.9C359.09 103.9 360.31 104.53 360.31 105.59C360.31 106.64 359.09 107.26 357.13 107.26C355.16 107.26 353.95 106.64 353.95 105.59C353.95 104.53 355.16 103.9 357.13 103.9ZM357.13 104.55C355.69 104.55 354.8 104.93 354.8 105.59C354.8 106.24 355.69 106.62 357.13 106.62C358.57 106.62 359.46 106.24 359.46 105.59C359.46 104.93 358.57 104.55 357.13 104.55ZM368.809 103.73H369.639V112.79H368.809V103.73ZM364.869 104.43C366.209 104.43 367.169 105.66 367.169 107.58C367.169 109.51 366.209 110.74 364.869 110.74C363.539 110.74 362.579 109.51 362.579 107.58C362.579 105.66 363.539 104.43 364.869 104.43ZM364.869 105.18C363.989 105.18 363.369 106.12 363.369 107.58C363.369 109.05 363.989 110.01 364.869 110.01C365.759 110.01 366.369 109.05 366.369 107.58C366.369 106.12 365.759 105.18 364.869 105.18ZM373.685 107.51H381.855V108.19H373.685V107.51ZM374.765 106.11H380.885V106.78H374.765V106.11ZM374.765 104.03H380.785V104.71H375.585V106.65H374.765V104.03ZM374.665 108.97H380.805V111.1H375.505V112.24H374.685V110.48H379.985V109.62H374.665V108.97ZM374.685 112.02H381.075V112.68H374.685V112.02ZM385.294 104.43C386.604 104.43 387.544 105.66 387.544 107.58C387.544 109.51 386.604 110.74 385.294 110.74C383.974 110.74 383.044 109.51 383.044 107.58C383.044 105.66 383.974 104.43 385.294 104.43ZM385.294 105.18C384.424 105.18 383.834 106.12 383.834 107.58C383.834 109.05 384.424 110.01 385.294 110.01C386.164 110.01 386.754 109.05 386.754 107.58C386.754 106.12 386.164 105.18 385.294 105.18ZM389.504 103.73H390.324V112.79H389.504V103.73ZM387.274 107.18H389.864V107.86H387.274V107.18ZM398.263 103.74H399.093V108.63H398.263V103.74ZM398.863 105.87H400.433V106.57H398.863V105.87ZM395.753 104.28H396.653C396.653 106.56 395.053 108.09 392.413 108.74L392.093 108.06C394.433 107.5 395.753 106.27 395.753 104.69V104.28ZM392.493 104.28H396.253V104.96H392.493V104.28ZM393.383 109.04H394.203V110.17H398.273V109.04H399.093V112.66H393.383V109.04ZM394.203 110.83V111.99H398.273V110.83H394.203ZM407.852 103.74H408.682V112.78H407.852V103.74ZM401.852 104.62H402.672V110.22H401.852V104.62ZM401.852 109.73H402.592C403.962 109.73 405.392 109.63 406.922 109.31L407.022 110.02C405.452 110.34 404.022 110.45 402.592 110.45H401.852V109.73ZM416.591 103.73H417.431V112.79H416.591V103.73ZM417.231 107.3H418.911V108H417.231V107.3ZM410.861 109.84H411.571C413.241 109.84 414.411 109.78 415.761 109.53L415.851 110.23C414.461 110.49 413.271 110.54 411.571 110.54H410.861V109.84ZM410.861 104.61H415.061V105.29H411.681V110.15H410.861V104.61ZM420.481 109.79L420.351 105.56L420.331 104.51H421.251L421.231 105.56L421.101 109.79H420.481ZM420.781 112.14C420.421 112.14 420.131 111.85 420.131 111.44C420.131 111.02 420.421 110.74 420.781 110.74C421.151 110.74 421.451 111.02 421.451 111.44C421.451 111.85 421.151 112.14 420.781 112.14ZM424.649 112.7H434.649V102.7H424.649V112.7Z" fill="#8C8C8C"/>
<path d="M447.479 188.49H448.309V189.86H447.479V188.49ZM447.869 185.15C449.179 185.15 450.099 185.87 450.099 186.94C450.099 188.01 449.179 188.72 447.869 188.72C446.569 188.72 445.649 188.01 445.649 186.94C445.649 185.87 446.569 185.15 447.869 185.15ZM447.869 185.79C447.019 185.79 446.429 186.26 446.429 186.94C446.429 187.63 447.019 188.09 447.869 188.09C448.729 188.09 449.319 187.63 449.319 186.94C449.319 186.26 448.729 185.79 447.869 185.79ZM451.319 184.75H452.149V191.66H451.319V184.75ZM451.799 187.8H453.469V188.49H451.799V187.8ZM446.429 192.89H452.469V193.58H446.429V192.89ZM446.429 191.07H447.259V193.19H446.429V191.07ZM445.239 190.32L445.129 189.64C446.719 189.64 448.919 189.62 450.759 189.34L450.819 189.95C448.929 190.3 446.789 190.32 445.239 190.32ZM456.629 190.04H457.449V192.26H456.629V190.04ZM459.519 190.02H460.329V192.25H459.519V190.02ZM454.349 191.98H462.539V192.67H454.349V191.98ZM455.339 185.41H461.529V188.14H456.189V189.96H455.369V187.48H460.709V186.08H455.339V185.41ZM455.369 189.59H461.739V190.27H455.369V189.59ZM468.164 185.52H468.844V187.14C468.844 189.22 467.724 191.15 466.244 191.9L465.734 191.22C467.074 190.58 468.164 188.85 468.164 187.14V185.52ZM468.304 185.52H468.984V187.14C468.984 188.79 470.064 190.45 471.404 191.07L470.904 191.73C469.434 191.01 468.304 189.15 468.304 187.14V185.52ZM472.344 184.73H473.174V193.79H472.344V184.73ZM480.9 188.31H482.61V188.99H480.9V188.31ZM479.06 187.05H479.7V187.52C479.7 189.32 478.95 191.14 477.63 191.93L477.14 191.3C478.36 190.59 479.06 189 479.06 187.52V187.05ZM479.21 187.05H479.85V187.52C479.85 188.96 480.57 190.45 481.79 191.11L481.32 191.73C479.99 190.99 479.21 189.28 479.21 187.52V187.05ZM477.39 186.4H481.52V187.09H477.39V186.4ZM479.06 185.06H479.86V186.93H479.06V185.06ZM484.09 184.74H484.89V193.78H484.09V184.74ZM482.28 184.95H483.06V193.32H482.28V184.95ZM487.389 185.66H493.129V186.34H487.389V185.66ZM486.419 191.83H494.589V192.53H486.419V191.83ZM492.769 185.66H493.579V186.77C493.579 188.1 493.579 189.33 493.199 191.18L492.379 191.1C492.769 189.36 492.769 188.07 492.769 186.77V185.66ZM492.979 188.16V188.78L487.269 189.09L487.149 188.4L492.979 188.16ZM496.418 190.79L496.288 186.56L496.268 185.51H497.188L497.168 186.56L497.038 190.79H496.418ZM496.718 193.14C496.358 193.14 496.068 192.85 496.068 192.44C496.068 192.02 496.358 191.74 496.718 191.74C497.088 191.74 497.388 192.02 497.388 192.44C497.388 192.85 497.088 193.14 496.718 193.14Z" fill="#8C8C8C"/>
<rect x="430.5" y="184.5" width="9" height="9" rx="2.5" fill="white" stroke="#8C8C8C"/>
<g filter="url(#filter2_d_271_1100)">
<rect x="131" y="232" width="176" height="132" rx="12" fill="white"/>
</g>
<path d="M131 244C131 237.373 136.373 232 143 232H295C301.627 232 307 237.373 307 244V255.222H131V244Z" fill="#FFF2BF"/>
<path d="M298 244C298 243.267 297.4 242.667 296.667 242.667C295.933 242.667 295.333 243.267 295.333 244C295.333 244.733 295.933 245.333 296.667 245.333C297.4 245.333 298 244.733 298 244ZM288.667 244C288.667 243.267 288.067 242.667 287.333 242.667C286.6 242.667 286 243.267 286 244C286 244.733 286.6 245.333 287.333 245.333C288.067 245.333 288.667 244.733 288.667 244ZM293.333 244C293.333 243.267 292.733 242.667 292 242.667C291.267 242.667 290.667 243.267 290.667 244C290.667 244.733 291.267 245.333 292 245.333C292.733 245.333 293.333 244.733 293.333 244Z" fill="#8C8C8C"/>
<path d="M150.175 239.793H151.561V249.979H150.175V239.793ZM146.82 243.269H148.503V244.457H146.82V243.269ZM148.118 239.958H149.482V249.517H148.118V239.958ZM144.62 241.454H145.72V242.499C145.72 244.787 145.093 247.064 143.476 248.076L142.607 246.998C144.103 246.063 144.62 244.237 144.62 242.499V241.454ZM144.95 241.454H146.039V242.499C146.039 244.193 146.545 245.909 148.019 246.767L147.161 247.834C145.544 246.877 144.95 244.743 144.95 242.499V241.454ZM142.992 240.816H147.535V241.993H142.992V240.816ZM154.069 240.189H160.988V243.797H154.069V240.189ZM159.547 241.333H155.499V242.653H159.547V241.333ZM152.936 244.754H162.143V245.909H152.936V244.754ZM156.797 243.533H158.26V245.084H156.797V243.533ZM153.959 246.646H161.032V249.979H159.569V247.801H153.959V246.646ZM170.04 239.782H171.514V250.001H170.04V239.782ZM166.025 240.497C167.565 240.497 168.698 241.905 168.698 244.127C168.698 246.371 167.565 247.779 166.025 247.779C164.485 247.779 163.352 246.371 163.352 244.127C163.352 241.905 164.485 240.497 166.025 240.497ZM166.025 241.828C165.266 241.828 164.749 242.631 164.749 244.127C164.749 245.645 165.266 246.459 166.025 246.459C166.784 246.459 167.29 245.645 167.29 244.127C167.29 242.631 166.784 241.828 166.025 241.828ZM175.677 243.742H184.895V244.897H175.677V243.742ZM176.81 242.048H183.806V243.192H176.81V242.048ZM176.81 239.98H183.718V241.146H178.262V243.038H176.81V239.98ZM176.722 245.469H183.762V248.164H178.174V249.044H176.733V247.13H182.321V246.569H176.722V245.469ZM176.733 248.78H184.026V249.902H176.733V248.78ZM188.579 240.497C190.097 240.497 191.208 241.905 191.208 244.127C191.208 246.371 190.097 247.779 188.579 247.779C187.05 247.779 185.95 246.371 185.95 244.127C185.95 241.905 187.05 240.497 188.579 240.497ZM188.579 241.828C187.842 241.828 187.347 242.631 187.347 244.127C187.347 245.645 187.842 246.459 188.579 246.459C189.327 246.459 189.811 245.645 189.811 244.127C189.811 242.631 189.327 241.828 188.579 241.828ZM192.88 239.782H194.332V250.001H192.88V239.782ZM190.779 243.456H193.496V244.633H190.779V243.456ZM202.46 239.793H203.923V244.875H202.46V239.793ZM203.516 241.806H205.276V243.005H203.516V241.806ZM199.545 240.167H201.162C201.162 242.884 199.446 244.523 196.377 245.15L195.849 243.951C198.434 243.478 199.545 242.312 199.545 241.036V240.167ZM196.355 240.167H200.48V241.333H196.355V240.167ZM197.191 245.271H203.923V248.087H198.665V249.319H197.213V247.009H202.482V246.415H197.191V245.271ZM197.213 248.736H204.22V249.88H197.213V248.736ZM210.804 241.399H211.959V242.543C211.959 244.842 210.991 247.185 209.121 248.065L208.296 246.91C209.979 246.118 210.804 244.215 210.804 242.543V241.399ZM211.112 241.399H212.267V242.543C212.267 244.083 213.059 245.887 214.731 246.657L213.928 247.812C212.058 246.943 211.112 244.71 211.112 242.543V241.399ZM208.692 240.772H214.28V241.971H208.692V240.772ZM215.028 239.793H216.502V249.979H215.028V239.793ZM216.172 243.676H217.976V244.886H216.172V243.676ZM225.653 239.782H227.116V250.001H225.653V239.782ZM219.185 246.437H220.087C221.891 246.437 223.332 246.371 224.949 246.096L225.092 247.273C223.442 247.57 221.946 247.625 220.087 247.625H219.185V246.437ZM219.174 240.651H223.981V244.589H220.67V246.877H219.185V243.434H222.485V241.817H219.174V240.651ZM232.824 243.544H234.496V244.721H232.824V243.544ZM236.113 239.793H237.51V249.979H236.113V239.793ZM234.034 239.947H235.409V249.517H234.034V239.947ZM231.042 240.508C232.395 240.508 233.264 241.905 233.264 244.204C233.264 246.514 232.395 247.911 231.042 247.911C229.7 247.911 228.842 246.514 228.842 244.204C228.842 241.905 229.7 240.508 231.042 240.508ZM231.042 241.883C230.492 241.883 230.173 242.653 230.173 244.204C230.173 245.766 230.492 246.525 231.042 246.525C231.614 246.525 231.933 245.766 231.933 244.204C231.933 242.653 231.614 241.883 231.042 241.883ZM240.908 244.963H242.36V247.823H240.908V244.963ZM244.604 244.963H246.067V247.823H244.604V244.963ZM238.884 247.614H248.102V248.802H238.884V247.614ZM243.482 240.288C245.671 240.288 247.288 241.366 247.288 243.027C247.288 244.688 245.671 245.755 243.482 245.755C241.282 245.755 239.676 244.688 239.676 243.027C239.676 241.366 241.282 240.288 243.482 240.288ZM243.482 241.432C242.063 241.432 241.117 242.015 241.117 243.027C241.117 244.028 242.063 244.622 243.482 244.622C244.901 244.622 245.847 244.028 245.847 243.027C245.847 242.015 244.901 241.432 243.482 241.432ZM250.059 246.228L249.817 242.169L249.773 240.64H251.39L251.346 242.169L251.115 246.228H250.059ZM250.576 249.154C250.004 249.154 249.575 248.703 249.575 248.098C249.575 247.493 250.004 247.053 250.576 247.053C251.159 247.053 251.588 247.493 251.588 248.098C251.588 248.703 251.159 249.154 250.576 249.154Z" fill="#8C8C8C"/>
<path d="M149.711 263.74H150.511V272.78H149.711V263.74ZM148.191 267.42H149.931V268.1H148.191V267.42ZM147.661 263.94H148.441V272.32H147.661V263.94ZM143.281 264.83H144.111V270.05H143.281V264.83ZM143.281 269.72H143.861C144.791 269.72 145.831 269.66 147.011 269.43L147.101 270.15C145.871 270.39 144.831 270.44 143.861 270.44H143.281V269.72ZM154.06 266.8H154.88V268.51H154.06V266.8ZM157.38 266.8H158.2V268.51H157.38V266.8ZM152.04 268.21H160.21V268.88H152.04V268.21ZM156.12 269.56C158.06 269.56 159.22 270.13 159.22 271.16C159.22 272.19 158.06 272.77 156.12 272.77C154.18 272.77 153.02 272.19 153.02 271.16C153.02 270.13 154.18 269.56 156.12 269.56ZM156.12 270.2C154.71 270.2 153.86 270.55 153.86 271.16C153.86 271.78 154.71 272.12 156.12 272.12C157.54 272.12 158.38 271.78 158.38 271.16C158.38 270.55 157.54 270.2 156.12 270.2ZM156.13 263.9C158.09 263.9 159.31 264.53 159.31 265.59C159.31 266.64 158.09 267.26 156.13 267.26C154.16 267.26 152.95 266.64 152.95 265.59C152.95 264.53 154.16 263.9 156.13 263.9ZM156.13 264.55C154.69 264.55 153.8 264.93 153.8 265.59C153.8 266.24 154.69 266.62 156.13 266.62C157.57 266.62 158.46 266.24 158.46 265.59C158.46 264.93 157.57 264.55 156.13 264.55ZM167.809 263.73H168.639V272.79H167.809V263.73ZM163.869 264.43C165.209 264.43 166.169 265.66 166.169 267.58C166.169 269.51 165.209 270.74 163.869 270.74C162.539 270.74 161.579 269.51 161.579 267.58C161.579 265.66 162.539 264.43 163.869 264.43ZM163.869 265.18C162.989 265.18 162.369 266.12 162.369 267.58C162.369 269.05 162.989 270.01 163.869 270.01C164.759 270.01 165.369 269.05 165.369 267.58C165.369 266.12 164.759 265.18 163.869 265.18ZM172.685 267.51H180.855V268.19H172.685V267.51ZM173.765 266.11H179.885V266.78H173.765V266.11ZM173.765 264.03H179.785V264.71H174.585V266.65H173.765V264.03ZM173.665 268.97H179.805V271.1H174.505V272.24H173.685V270.48H178.985V269.62H173.665V268.97ZM173.685 272.02H180.075V272.68H173.685V272.02ZM184.294 264.43C185.604 264.43 186.544 265.66 186.544 267.58C186.544 269.51 185.604 270.74 184.294 270.74C182.974 270.74 182.044 269.51 182.044 267.58C182.044 265.66 182.974 264.43 184.294 264.43ZM184.294 265.18C183.424 265.18 182.834 266.12 182.834 267.58C182.834 269.05 183.424 270.01 184.294 270.01C185.164 270.01 185.754 269.05 185.754 267.58C185.754 266.12 185.164 265.18 184.294 265.18ZM188.504 263.73H189.324V272.79H188.504V263.73ZM186.274 267.18H188.864V267.86H186.274V267.18ZM197.263 263.74H198.093V268.63H197.263V263.74ZM197.863 265.87H199.433V266.57H197.863V265.87ZM194.753 264.28H195.653C195.653 266.56 194.053 268.09 191.413 268.74L191.093 268.06C193.433 267.5 194.753 266.27 194.753 264.69V264.28ZM191.493 264.28H195.253V264.96H191.493V264.28ZM192.383 269.04H193.203V270.17H197.273V269.04H198.093V272.66H192.383V269.04ZM193.203 270.83V271.99H197.273V270.83H193.203ZM206.852 263.74H207.682V272.78H206.852V263.74ZM200.852 264.62H201.672V270.22H200.852V264.62ZM200.852 269.73H201.592C202.962 269.73 204.392 269.63 205.922 269.31L206.022 270.02C204.452 270.34 203.022 270.45 201.592 270.45H200.852V269.73ZM215.591 263.73H216.431V272.79H215.591V263.73ZM216.231 267.3H217.911V268H216.231V267.3ZM209.861 269.84H210.571C212.241 269.84 213.411 269.78 214.761 269.53L214.851 270.23C213.461 270.49 212.271 270.54 210.571 270.54H209.861V269.84ZM209.861 264.61H214.061V265.29H210.681V270.15H209.861V264.61ZM219.481 269.79L219.351 265.56L219.331 264.51H220.251L220.231 265.56L220.101 269.79H219.481ZM219.781 272.14C219.421 272.14 219.131 271.85 219.131 271.44C219.131 271.02 219.421 270.74 219.781 270.74C220.151 270.74 220.451 271.02 220.451 271.44C220.451 271.85 220.151 272.14 219.781 272.14ZM223.649 272.7H233.649V262.7H223.649V272.7Z" fill="#8C8C8C"/>
<path d="M246.479 348.49H247.309V349.86H246.479V348.49ZM246.869 345.15C248.179 345.15 249.099 345.87 249.099 346.94C249.099 348.01 248.179 348.72 246.869 348.72C245.569 348.72 244.649 348.01 244.649 346.94C244.649 345.87 245.569 345.15 246.869 345.15ZM246.869 345.79C246.019 345.79 245.429 346.26 245.429 346.94C245.429 347.63 246.019 348.09 246.869 348.09C247.729 348.09 248.319 347.63 248.319 346.94C248.319 346.26 247.729 345.79 246.869 345.79ZM250.319 344.75H251.149V351.66H250.319V344.75ZM250.799 347.8H252.469V348.49H250.799V347.8ZM245.429 352.89H251.469V353.58H245.429V352.89ZM245.429 351.07H246.259V353.19H245.429V351.07ZM244.239 350.32L244.129 349.64C245.719 349.64 247.919 349.62 249.759 349.34L249.819 349.95C247.929 350.3 245.789 350.32 244.239 350.32ZM255.629 350.04H256.449V352.26H255.629V350.04ZM258.519 350.02H259.329V352.25H258.519V350.02ZM253.349 351.98H261.539V352.67H253.349V351.98ZM254.339 345.41H260.529V348.14H255.189V349.96H254.369V347.48H259.709V346.08H254.339V345.41ZM254.369 349.59H260.739V350.27H254.369V349.59ZM267.164 345.52H267.844V347.14C267.844 349.22 266.724 351.15 265.244 351.9L264.734 351.22C266.074 350.58 267.164 348.85 267.164 347.14V345.52ZM267.304 345.52H267.984V347.14C267.984 348.79 269.064 350.45 270.404 351.07L269.904 351.73C268.434 351.01 267.304 349.15 267.304 347.14V345.52ZM271.344 344.73H272.174V353.79H271.344V344.73ZM279.9 348.31H281.61V348.99H279.9V348.31ZM278.06 347.05H278.7V347.52C278.7 349.32 277.95 351.14 276.63 351.93L276.14 351.3C277.36 350.59 278.06 349 278.06 347.52V347.05ZM278.21 347.05H278.85V347.52C278.85 348.96 279.57 350.45 280.79 351.11L280.32 351.73C278.99 350.99 278.21 349.28 278.21 347.52V347.05ZM276.39 346.4H280.52V347.09H276.39V346.4ZM278.06 345.06H278.86V346.93H278.06V345.06ZM283.09 344.74H283.89V353.78H283.09V344.74ZM281.28 344.95H282.06V353.32H281.28V344.95ZM286.389 345.66H292.129V346.34H286.389V345.66ZM285.419 351.83H293.589V352.53H285.419V351.83ZM291.769 345.66H292.579V346.77C292.579 348.1 292.579 349.33 292.199 351.18L291.379 351.1C291.769 349.36 291.769 348.07 291.769 346.77V345.66ZM291.979 348.16V348.78L286.269 349.09L286.149 348.4L291.979 348.16ZM295.418 350.79L295.288 346.56L295.268 345.51H296.188L296.168 346.56L296.038 350.79H295.418ZM295.718 353.14C295.358 353.14 295.068 352.85 295.068 352.44C295.068 352.02 295.358 351.74 295.718 351.74C296.088 351.74 296.388 352.02 296.388 352.44C296.388 352.85 296.088 353.14 295.718 353.14Z" fill="#8C8C8C"/>
<rect x="229.5" y="344.5" width="9" height="9" rx="2.5" fill="white" stroke="#8C8C8C"/>
<g filter="url(#filter3_d_271_1100)">
<rect x="533" y="72" width="176" height="132" rx="12" fill="white"/>
</g>
<path d="M533 84C533 77.3726 538.373 72 545 72H697C703.627 72 709 77.3726 709 84V95.2222H533V84Z" fill="#FFF2BF"/>
<path d="M700 84C700 83.2666 699.4 82.6666 698.667 82.6666C697.933 82.6666 697.333 83.2666 697.333 84C697.333 84.7333 697.933 85.3333 698.667 85.3333C699.4 85.3333 700 84.7333 700 84ZM690.667 84C690.667 83.2666 690.067 82.6666 689.333 82.6666C688.6 82.6666 688 83.2666 688 84C688 84.7333 688.6 85.3333 689.333 85.3333C690.067 85.3333 690.667 84.7333 690.667 84ZM695.333 84C695.333 83.2666 694.733 82.6666 694 82.6666C693.267 82.6666 692.667 83.2666 692.667 84C692.667 84.7333 693.267 85.3333 694 85.3333C694.733 85.3333 695.333 84.7333 695.333 84Z" fill="#8C8C8C"/>
<path d="M552.175 79.793H553.561V89.979H552.175V79.793ZM548.82 83.269H550.503V84.457H548.82V83.269ZM550.118 79.958H551.482V89.517H550.118V79.958ZM546.62 81.454H547.72V82.499C547.72 84.787 547.093 87.064 545.476 88.076L544.607 86.998C546.103 86.063 546.62 84.237 546.62 82.499V81.454ZM546.95 81.454H548.039V82.499C548.039 84.193 548.545 85.909 550.019 86.767L549.161 87.834C547.544 86.877 546.95 84.743 546.95 82.499V81.454ZM544.992 80.816H549.535V81.993H544.992V80.816ZM556.069 80.189H562.988V83.797H556.069V80.189ZM561.547 81.333H557.499V82.653H561.547V81.333ZM554.936 84.754H564.143V85.909H554.936V84.754ZM558.797 83.533H560.26V85.084H558.797V83.533ZM555.959 86.646H563.032V89.979H561.569V87.801H555.959V86.646ZM572.04 79.782H573.514V90.001H572.04V79.782ZM568.025 80.497C569.565 80.497 570.698 81.905 570.698 84.127C570.698 86.371 569.565 87.779 568.025 87.779C566.485 87.779 565.352 86.371 565.352 84.127C565.352 81.905 566.485 80.497 568.025 80.497ZM568.025 81.828C567.266 81.828 566.749 82.631 566.749 84.127C566.749 85.645 567.266 86.459 568.025 86.459C568.784 86.459 569.29 85.645 569.29 84.127C569.29 82.631 568.784 81.828 568.025 81.828ZM577.677 83.742H586.895V84.897H577.677V83.742ZM578.81 82.048H585.806V83.192H578.81V82.048ZM578.81 79.98H585.718V81.146H580.262V83.038H578.81V79.98ZM578.722 85.469H585.762V88.164H580.174V89.044H578.733V87.13H584.321V86.569H578.722V85.469ZM578.733 88.78H586.026V89.902H578.733V88.78ZM590.579 80.497C592.097 80.497 593.208 81.905 593.208 84.127C593.208 86.371 592.097 87.779 590.579 87.779C589.05 87.779 587.95 86.371 587.95 84.127C587.95 81.905 589.05 80.497 590.579 80.497ZM590.579 81.828C589.842 81.828 589.347 82.631 589.347 84.127C589.347 85.645 589.842 86.459 590.579 86.459C591.327 86.459 591.811 85.645 591.811 84.127C591.811 82.631 591.327 81.828 590.579 81.828ZM594.88 79.782H596.332V90.001H594.88V79.782ZM592.779 83.456H595.496V84.633H592.779V83.456ZM604.46 79.793H605.923V84.875H604.46V79.793ZM605.516 81.806H607.276V83.005H605.516V81.806ZM601.545 80.167H603.162C603.162 82.884 601.446 84.523 598.377 85.15L597.849 83.951C600.434 83.478 601.545 82.312 601.545 81.036V80.167ZM598.355 80.167H602.48V81.333H598.355V80.167ZM599.191 85.271H605.923V88.087H600.665V89.319H599.213V87.009H604.482V86.415H599.191V85.271ZM599.213 88.736H606.22V89.88H599.213V88.736ZM612.804 81.399H613.959V82.543C613.959 84.842 612.991 87.185 611.121 88.065L610.296 86.91C611.979 86.118 612.804 84.215 612.804 82.543V81.399ZM613.112 81.399H614.267V82.543C614.267 84.083 615.059 85.887 616.731 86.657L615.928 87.812C614.058 86.943 613.112 84.71 613.112 82.543V81.399ZM610.692 80.772H616.28V81.971H610.692V80.772ZM617.028 79.793H618.502V89.979H617.028V79.793ZM618.172 83.676H619.976V84.886H618.172V83.676ZM627.653 79.782H629.116V90.001H627.653V79.782ZM621.185 86.437H622.087C623.891 86.437 625.332 86.371 626.949 86.096L627.092 87.273C625.442 87.57 623.946 87.625 622.087 87.625H621.185V86.437ZM621.174 80.651H625.981V84.589H622.67V86.877H621.185V83.434H624.485V81.817H621.174V80.651ZM634.824 83.544H636.496V84.721H634.824V83.544ZM638.113 79.793H639.51V89.979H638.113V79.793ZM636.034 79.947H637.409V89.517H636.034V79.947ZM633.042 80.508C634.395 80.508 635.264 81.905 635.264 84.204C635.264 86.514 634.395 87.911 633.042 87.911C631.7 87.911 630.842 86.514 630.842 84.204C630.842 81.905 631.7 80.508 633.042 80.508ZM633.042 81.883C632.492 81.883 632.173 82.653 632.173 84.204C632.173 85.766 632.492 86.525 633.042 86.525C633.614 86.525 633.933 85.766 633.933 84.204C633.933 82.653 633.614 81.883 633.042 81.883ZM642.908 84.963H644.36V87.823H642.908V84.963ZM646.604 84.963H648.067V87.823H646.604V84.963ZM640.884 87.614H650.102V88.802H640.884V87.614ZM645.482 80.288C647.671 80.288 649.288 81.366 649.288 83.027C649.288 84.688 647.671 85.755 645.482 85.755C643.282 85.755 641.676 84.688 641.676 83.027C641.676 81.366 643.282 80.288 645.482 80.288ZM645.482 81.432C644.063 81.432 643.117 82.015 643.117 83.027C643.117 84.028 644.063 84.622 645.482 84.622C646.901 84.622 647.847 84.028 647.847 83.027C647.847 82.015 646.901 81.432 645.482 81.432ZM652.059 86.228L651.817 82.169L651.773 80.64H653.39L653.346 82.169L653.115 86.228H652.059ZM652.576 89.154C652.004 89.154 651.575 88.703 651.575 88.098C651.575 87.493 652.004 87.053 652.576 87.053C653.159 87.053 653.588 87.493 653.588 88.098C653.588 88.703 653.159 89.154 652.576 89.154Z" fill="#8C8C8C"/>
<path d="M551.711 103.74H552.511V112.78H551.711V103.74ZM550.191 107.42H551.931V108.1H550.191V107.42ZM549.661 103.94H550.441V112.32H549.661V103.94ZM545.281 104.83H546.111V110.05H545.281V104.83ZM545.281 109.72H545.861C546.791 109.72 547.831 109.66 549.011 109.43L549.101 110.15C547.871 110.39 546.831 110.44 545.861 110.44H545.281V109.72ZM556.06 106.8H556.88V108.51H556.06V106.8ZM559.38 106.8H560.2V108.51H559.38V106.8ZM554.04 108.21H562.21V108.88H554.04V108.21ZM558.12 109.56C560.06 109.56 561.22 110.13 561.22 111.16C561.22 112.19 560.06 112.77 558.12 112.77C556.18 112.77 555.02 112.19 555.02 111.16C555.02 110.13 556.18 109.56 558.12 109.56ZM558.12 110.2C556.71 110.2 555.86 110.55 555.86 111.16C555.86 111.78 556.71 112.12 558.12 112.12C559.54 112.12 560.38 111.78 560.38 111.16C560.38 110.55 559.54 110.2 558.12 110.2ZM558.13 103.9C560.09 103.9 561.31 104.53 561.31 105.59C561.31 106.64 560.09 107.26 558.13 107.26C556.16 107.26 554.95 106.64 554.95 105.59C554.95 104.53 556.16 103.9 558.13 103.9ZM558.13 104.55C556.69 104.55 555.8 104.93 555.8 105.59C555.8 106.24 556.69 106.62 558.13 106.62C559.57 106.62 560.46 106.24 560.46 105.59C560.46 104.93 559.57 104.55 558.13 104.55ZM569.809 103.73H570.639V112.79H569.809V103.73ZM565.869 104.43C567.209 104.43 568.169 105.66 568.169 107.58C568.169 109.51 567.209 110.74 565.869 110.74C564.539 110.74 563.579 109.51 563.579 107.58C563.579 105.66 564.539 104.43 565.869 104.43ZM565.869 105.18C564.989 105.18 564.369 106.12 564.369 107.58C564.369 109.05 564.989 110.01 565.869 110.01C566.759 110.01 567.369 109.05 567.369 107.58C567.369 106.12 566.759 105.18 565.869 105.18ZM574.685 107.51H582.855V108.19H574.685V107.51ZM575.765 106.11H581.885V106.78H575.765V106.11ZM575.765 104.03H581.785V104.71H576.585V106.65H575.765V104.03ZM575.665 108.97H581.805V111.1H576.505V112.24H575.685V110.48H580.985V109.62H575.665V108.97ZM575.685 112.02H582.075V112.68H575.685V112.02ZM586.294 104.43C587.604 104.43 588.544 105.66 588.544 107.58C588.544 109.51 587.604 110.74 586.294 110.74C584.974 110.74 584.044 109.51 584.044 107.58C584.044 105.66 584.974 104.43 586.294 104.43ZM586.294 105.18C585.424 105.18 584.834 106.12 584.834 107.58C584.834 109.05 585.424 110.01 586.294 110.01C587.164 110.01 587.754 109.05 587.754 107.58C587.754 106.12 587.164 105.18 586.294 105.18ZM590.504 103.73H591.324V112.79H590.504V103.73ZM588.274 107.18H590.864V107.86H588.274V107.18ZM599.263 103.74H600.093V108.63H599.263V103.74ZM599.863 105.87H601.433V106.57H599.863V105.87ZM596.753 104.28H597.653C597.653 106.56 596.053 108.09 593.413 108.74L593.093 108.06C595.433 107.5 596.753 106.27 596.753 104.69V104.28ZM593.493 104.28H597.253V104.96H593.493V104.28ZM594.383 109.04H595.203V110.17H599.273V109.04H600.093V112.66H594.383V109.04ZM595.203 110.83V111.99H599.273V110.83H595.203ZM608.852 103.74H609.682V112.78H608.852V103.74ZM602.852 104.62H603.672V110.22H602.852V104.62ZM602.852 109.73H603.592C604.962 109.73 606.392 109.63 607.922 109.31L608.022 110.02C606.452 110.34 605.022 110.45 603.592 110.45H602.852V109.73ZM617.591 103.73H618.431V112.79H617.591V103.73ZM618.231 107.3H619.911V108H618.231V107.3ZM611.861 109.84H612.571C614.241 109.84 615.411 109.78 616.761 109.53L616.851 110.23C615.461 110.49 614.271 110.54 612.571 110.54H611.861V109.84ZM611.861 104.61H616.061V105.29H612.681V110.15H611.861V104.61ZM621.481 109.79L621.351 105.56L621.331 104.51H622.251L622.231 105.56L622.101 109.79H621.481ZM621.781 112.14C621.421 112.14 621.131 111.85 621.131 111.44C621.131 111.02 621.421 110.74 621.781 110.74C622.151 110.74 622.451 111.02 622.451 111.44C622.451 111.85 622.151 112.14 621.781 112.14ZM625.649 112.7H635.649V102.7H625.649V112.7Z" fill="#8C8C8C"/>
<path d="M648.479 188.49H649.309V189.86H648.479V188.49ZM648.869 185.15C650.179 185.15 651.099 185.87 651.099 186.94C651.099 188.01 650.179 188.72 648.869 188.72C647.569 188.72 646.649 188.01 646.649 186.94C646.649 185.87 647.569 185.15 648.869 185.15ZM648.869 185.79C648.019 185.79 647.429 186.26 647.429 186.94C647.429 187.63 648.019 188.09 648.869 188.09C649.729 188.09 650.319 187.63 650.319 186.94C650.319 186.26 649.729 185.79 648.869 185.79ZM652.319 184.75H653.149V191.66H652.319V184.75ZM652.799 187.8H654.469V188.49H652.799V187.8ZM647.429 192.89H653.469V193.58H647.429V192.89ZM647.429 191.07H648.259V193.19H647.429V191.07ZM646.239 190.32L646.129 189.64C647.719 189.64 649.919 189.62 651.759 189.34L651.819 189.95C649.929 190.3 647.789 190.32 646.239 190.32ZM657.629 190.04H658.449V192.26H657.629V190.04ZM660.519 190.02H661.329V192.25H660.519V190.02ZM655.349 191.98H663.539V192.67H655.349V191.98ZM656.339 185.41H662.529V188.14H657.189V189.96H656.369V187.48H661.709V186.08H656.339V185.41ZM656.369 189.59H662.739V190.27H656.369V189.59ZM669.164 185.52H669.844V187.14C669.844 189.22 668.724 191.15 667.244 191.9L666.734 191.22C668.074 190.58 669.164 188.85 669.164 187.14V185.52ZM669.304 185.52H669.984V187.14C669.984 188.79 671.064 190.45 672.404 191.07L671.904 191.73C670.434 191.01 669.304 189.15 669.304 187.14V185.52ZM673.344 184.73H674.174V193.79H673.344V184.73ZM681.9 188.31H683.61V188.99H681.9V188.31ZM680.06 187.05H680.7V187.52C680.7 189.32 679.95 191.14 678.63 191.93L678.14 191.3C679.36 190.59 680.06 189 680.06 187.52V187.05ZM680.21 187.05H680.85V187.52C680.85 188.96 681.57 190.45 682.79 191.11L682.32 191.73C680.99 190.99 680.21 189.28 680.21 187.52V187.05ZM678.39 186.4H682.52V187.09H678.39V186.4ZM680.06 185.06H680.86V186.93H680.06V185.06ZM685.09 184.74H685.89V193.78H685.09V184.74ZM683.28 184.95H684.06V193.32H683.28V184.95ZM688.389 185.66H694.129V186.34H688.389V185.66ZM687.419 191.83H695.589V192.53H687.419V191.83ZM693.769 185.66H694.579V186.77C694.579 188.1 694.579 189.33 694.199 191.18L693.379 191.1C693.769 189.36 693.769 188.07 693.769 186.77V185.66ZM693.979 188.16V188.78L688.269 189.09L688.149 188.4L693.979 188.16ZM697.418 190.79L697.288 186.56L697.268 185.51H698.188L698.168 186.56L698.038 190.79H697.418ZM697.718 193.14C697.358 193.14 697.068 192.85 697.068 192.44C697.068 192.02 697.358 191.74 697.718 191.74C698.088 191.74 698.388 192.02 698.388 192.44C698.388 192.85 698.088 193.14 697.718 193.14Z" fill="#8C8C8C"/>
<rect x="631.5" y="184.5" width="9" height="9" rx="2.5" fill="white" stroke="#8C8C8C"/>
<g filter="url(#filter4_d_271_1100)">
<rect x="335" y="232" width="176" height="132" rx="12" fill="white"/>
</g>
<path d="M335 244C335 237.373 340.373 232 347 232H499C505.627 232 511 237.373 511 244V255.222H335V244Z" fill="#FFE1E4"/>
<path d="M502 244C502 243.267 501.4 242.667 500.667 242.667C499.933 242.667 499.333 243.267 499.333 244C499.333 244.733 499.933 245.333 500.667 245.333C501.4 245.333 502 244.733 502 244ZM492.667 244C492.667 243.267 492.067 242.667 491.333 242.667C490.6 242.667 490 243.267 490 244C490 244.733 490.6 245.333 491.333 245.333C492.067 245.333 492.667 244.733 492.667 244ZM497.333 244C497.333 243.267 496.733 242.667 496 242.667C495.267 242.667 494.667 243.267 494.667 244C494.667 244.733 495.267 245.333 496 245.333C496.733 245.333 497.333 244.733 497.333 244Z" fill="#8C8C8C"/>
<path d="M354.175 239.793H355.561V249.979H354.175V239.793ZM350.82 243.269H352.503V244.457H350.82V243.269ZM352.118 239.958H353.482V249.517H352.118V239.958ZM348.62 241.454H349.72V242.499C349.72 244.787 349.093 247.064 347.476 248.076L346.607 246.998C348.103 246.063 348.62 244.237 348.62 242.499V241.454ZM348.95 241.454H350.039V242.499C350.039 244.193 350.545 245.909 352.019 246.767L351.161 247.834C349.544 246.877 348.95 244.743 348.95 242.499V241.454ZM346.992 240.816H351.535V241.993H346.992V240.816ZM358.069 240.189H364.988V243.797H358.069V240.189ZM363.547 241.333H359.499V242.653H363.547V241.333ZM356.936 244.754H366.143V245.909H356.936V244.754ZM360.797 243.533H362.26V245.084H360.797V243.533ZM357.959 246.646H365.032V249.979H363.569V247.801H357.959V246.646ZM374.04 239.782H375.514V250.001H374.04V239.782ZM370.025 240.497C371.565 240.497 372.698 241.905 372.698 244.127C372.698 246.371 371.565 247.779 370.025 247.779C368.485 247.779 367.352 246.371 367.352 244.127C367.352 241.905 368.485 240.497 370.025 240.497ZM370.025 241.828C369.266 241.828 368.749 242.631 368.749 244.127C368.749 245.645 369.266 246.459 370.025 246.459C370.784 246.459 371.29 245.645 371.29 244.127C371.29 242.631 370.784 241.828 370.025 241.828ZM379.677 243.742H388.895V244.897H379.677V243.742ZM380.81 242.048H387.806V243.192H380.81V242.048ZM380.81 239.98H387.718V241.146H382.262V243.038H380.81V239.98ZM380.722 245.469H387.762V248.164H382.174V249.044H380.733V247.13H386.321V246.569H380.722V245.469ZM380.733 248.78H388.026V249.902H380.733V248.78ZM392.579 240.497C394.097 240.497 395.208 241.905 395.208 244.127C395.208 246.371 394.097 247.779 392.579 247.779C391.05 247.779 389.95 246.371 389.95 244.127C389.95 241.905 391.05 240.497 392.579 240.497ZM392.579 241.828C391.842 241.828 391.347 242.631 391.347 244.127C391.347 245.645 391.842 246.459 392.579 246.459C393.327 246.459 393.811 245.645 393.811 244.127C393.811 242.631 393.327 241.828 392.579 241.828ZM396.88 239.782H398.332V250.001H396.88V239.782ZM394.779 243.456H397.496V244.633H394.779V243.456ZM406.46 239.793H407.923V244.875H406.46V239.793ZM407.516 241.806H409.276V243.005H407.516V241.806ZM403.545 240.167H405.162C405.162 242.884 403.446 244.523 400.377 245.15L399.849 243.951C402.434 243.478 403.545 242.312 403.545 241.036V240.167ZM400.355 240.167H404.48V241.333H400.355V240.167ZM401.191 245.271H407.923V248.087H402.665V249.319H401.213V247.009H406.482V246.415H401.191V245.271ZM401.213 248.736H408.22V249.88H401.213V248.736ZM414.804 241.399H415.959V242.543C415.959 244.842 414.991 247.185 413.121 248.065L412.296 246.91C413.979 246.118 414.804 244.215 414.804 242.543V241.399ZM415.112 241.399H416.267V242.543C416.267 244.083 417.059 245.887 418.731 246.657L417.928 247.812C416.058 246.943 415.112 244.71 415.112 242.543V241.399ZM412.692 240.772H418.28V241.971H412.692V240.772ZM419.028 239.793H420.502V249.979H419.028V239.793ZM420.172 243.676H421.976V244.886H420.172V243.676ZM429.653 239.782H431.116V250.001H429.653V239.782ZM423.185 246.437H424.087C425.891 246.437 427.332 246.371 428.949 246.096L429.092 247.273C427.442 247.57 425.946 247.625 424.087 247.625H423.185V246.437ZM423.174 240.651H427.981V244.589H424.67V246.877H423.185V243.434H426.485V241.817H423.174V240.651ZM436.824 243.544H438.496V244.721H436.824V243.544ZM440.113 239.793H441.51V249.979H440.113V239.793ZM438.034 239.947H439.409V249.517H438.034V239.947ZM435.042 240.508C436.395 240.508 437.264 241.905 437.264 244.204C437.264 246.514 436.395 247.911 435.042 247.911C433.7 247.911 432.842 246.514 432.842 244.204C432.842 241.905 433.7 240.508 435.042 240.508ZM435.042 241.883C434.492 241.883 434.173 242.653 434.173 244.204C434.173 245.766 434.492 246.525 435.042 246.525C435.614 246.525 435.933 245.766 435.933 244.204C435.933 242.653 435.614 241.883 435.042 241.883ZM444.908 244.963H446.36V247.823H444.908V244.963ZM448.604 244.963H450.067V247.823H448.604V244.963ZM442.884 247.614H452.102V248.802H442.884V247.614ZM447.482 240.288C449.671 240.288 451.288 241.366 451.288 243.027C451.288 244.688 449.671 245.755 447.482 245.755C445.282 245.755 443.676 244.688 443.676 243.027C443.676 241.366 445.282 240.288 447.482 240.288ZM447.482 241.432C446.063 241.432 445.117 242.015 445.117 243.027C445.117 244.028 446.063 244.622 447.482 244.622C448.901 244.622 449.847 244.028 449.847 243.027C449.847 242.015 448.901 241.432 447.482 241.432ZM454.059 246.228L453.817 242.169L453.773 240.64H455.39L455.346 242.169L455.115 246.228H454.059ZM454.576 249.154C454.004 249.154 453.575 248.703 453.575 248.098C453.575 247.493 454.004 247.053 454.576 247.053C455.159 247.053 455.588 247.493 455.588 248.098C455.588 248.703 455.159 249.154 454.576 249.154Z" fill="#8C8C8C"/>
<path d="M346.376 245.425H456.622V245.975H346.376V245.425Z" fill="#8C8C8C"/>
<path d="M353.711 263.74H354.511V272.78H353.711V263.74ZM352.191 267.42H353.931V268.1H352.191V267.42ZM351.661 263.94H352.441V272.32H351.661V263.94ZM347.281 264.83H348.111V270.05H347.281V264.83ZM347.281 269.72H347.861C348.791 269.72 349.831 269.66 351.011 269.43L351.101 270.15C349.871 270.39 348.831 270.44 347.861 270.44H347.281V269.72ZM358.06 266.8H358.88V268.51H358.06V266.8ZM361.38 266.8H362.2V268.51H361.38V266.8ZM356.04 268.21H364.21V268.88H356.04V268.21ZM360.12 269.56C362.06 269.56 363.22 270.13 363.22 271.16C363.22 272.19 362.06 272.77 360.12 272.77C358.18 272.77 357.02 272.19 357.02 271.16C357.02 270.13 358.18 269.56 360.12 269.56ZM360.12 270.2C358.71 270.2 357.86 270.55 357.86 271.16C357.86 271.78 358.71 272.12 360.12 272.12C361.54 272.12 362.38 271.78 362.38 271.16C362.38 270.55 361.54 270.2 360.12 270.2ZM360.13 263.9C362.09 263.9 363.31 264.53 363.31 265.59C363.31 266.64 362.09 267.26 360.13 267.26C358.16 267.26 356.95 266.64 356.95 265.59C356.95 264.53 358.16 263.9 360.13 263.9ZM360.13 264.55C358.69 264.55 357.8 264.93 357.8 265.59C357.8 266.24 358.69 266.62 360.13 266.62C361.57 266.62 362.46 266.24 362.46 265.59C362.46 264.93 361.57 264.55 360.13 264.55ZM371.809 263.73H372.639V272.79H371.809V263.73ZM367.869 264.43C369.209 264.43 370.169 265.66 370.169 267.58C370.169 269.51 369.209 270.74 367.869 270.74C366.539 270.74 365.579 269.51 365.579 267.58C365.579 265.66 366.539 264.43 367.869 264.43ZM367.869 265.18C366.989 265.18 366.369 266.12 366.369 267.58C366.369 269.05 366.989 270.01 367.869 270.01C368.759 270.01 369.369 269.05 369.369 267.58C369.369 266.12 368.759 265.18 367.869 265.18ZM376.685 267.51H384.855V268.19H376.685V267.51ZM377.765 266.11H383.885V266.78H377.765V266.11ZM377.765 264.03H383.785V264.71H378.585V266.65H377.765V264.03ZM377.665 268.97H383.805V271.1H378.505V272.24H377.685V270.48H382.985V269.62H377.665V268.97ZM377.685 272.02H384.075V272.68H377.685V272.02ZM388.294 264.43C389.604 264.43 390.544 265.66 390.544 267.58C390.544 269.51 389.604 270.74 388.294 270.74C386.974 270.74 386.044 269.51 386.044 267.58C386.044 265.66 386.974 264.43 388.294 264.43ZM388.294 265.18C387.424 265.18 386.834 266.12 386.834 267.58C386.834 269.05 387.424 270.01 388.294 270.01C389.164 270.01 389.754 269.05 389.754 267.58C389.754 266.12 389.164 265.18 388.294 265.18ZM392.504 263.73H393.324V272.79H392.504V263.73ZM390.274 267.18H392.864V267.86H390.274V267.18ZM401.263 263.74H402.093V268.63H401.263V263.74ZM401.863 265.87H403.433V266.57H401.863V265.87ZM398.753 264.28H399.653C399.653 266.56 398.053 268.09 395.413 268.74L395.093 268.06C397.433 267.5 398.753 266.27 398.753 264.69V264.28ZM395.493 264.28H399.253V264.96H395.493V264.28ZM396.383 269.04H397.203V270.17H401.273V269.04H402.093V272.66H396.383V269.04ZM397.203 270.83V271.99H401.273V270.83H397.203ZM410.852 263.74H411.682V272.78H410.852V263.74ZM404.852 264.62H405.672V270.22H404.852V264.62ZM404.852 269.73H405.592C406.962 269.73 408.392 269.63 409.922 269.31L410.022 270.02C408.452 270.34 407.022 270.45 405.592 270.45H404.852V269.73ZM419.591 263.73H420.431V272.79H419.591V263.73ZM420.231 267.3H421.911V268H420.231V267.3ZM413.861 269.84H414.571C416.241 269.84 417.411 269.78 418.761 269.53L418.851 270.23C417.461 270.49 416.271 270.54 414.571 270.54H413.861V269.84ZM413.861 264.61H418.061V265.29H414.681V270.15H413.861V264.61ZM423.481 269.79L423.351 265.56L423.331 264.51H424.251L424.231 265.56L424.101 269.79H423.481ZM423.781 272.14C423.421 272.14 423.131 271.85 423.131 271.44C423.131 271.02 423.421 270.74 423.781 270.74C424.151 270.74 424.451 271.02 424.451 271.44C424.451 271.85 424.151 272.14 423.781 272.14ZM427.649 272.7H437.649V262.7H427.649V272.7Z" fill="#8C8C8C"/>
<path d="M484.515 348.49H485.345V349.86H484.515V348.49ZM484.905 345.15C486.215 345.15 487.135 345.87 487.135 346.94C487.135 348.01 486.215 348.72 484.905 348.72C483.605 348.72 482.685 348.01 482.685 346.94C482.685 345.87 483.605 345.15 484.905 345.15ZM484.905 345.79C484.055 345.79 483.465 346.26 483.465 346.94C483.465 347.63 484.055 348.09 484.905 348.09C485.765 348.09 486.355 347.63 486.355 346.94C486.355 346.26 485.765 345.79 484.905 345.79ZM488.355 344.75H489.185V351.66H488.355V344.75ZM488.835 347.8H490.505V348.49H488.835V347.8ZM483.465 352.89H489.505V353.58H483.465V352.89ZM483.465 351.07H484.295V353.19H483.465V351.07ZM482.275 350.32L482.165 349.64C483.755 349.64 485.955 349.62 487.795 349.34L487.855 349.95C485.965 350.3 483.825 350.32 482.275 350.32ZM493.664 350.04H494.484V352.26H493.664V350.04ZM496.554 350.02H497.364V352.25H496.554V350.02ZM491.384 351.98H499.574V352.67H491.384V351.98ZM492.374 345.41H498.564V348.14H493.224V349.96H492.404V347.48H497.744V346.08H492.374V345.41ZM492.404 349.59H498.774V350.27H492.404V349.59ZM501.383 350.79L501.253 346.56L501.233 345.51H502.153L502.133 346.56L502.003 350.79H501.383ZM501.683 353.14C501.323 353.14 501.033 352.85 501.033 352.44C501.033 352.02 501.323 351.74 501.683 351.74C502.053 351.74 502.353 352.02 502.353 352.44C502.353 352.85 502.053 353.14 501.683 353.14Z" fill="#8C8C8C"/>
<path d="M470 349L472.667 353L478 345" stroke="#8C8C8C"/>
<defs>
<filter id="filter0_d_271_1100" x="124" y="65" width="196" height="152" filterUnits="userSpaceOnUse" color-interpolation-filters="sRGB">
<feFlood flood-opacity="0" result="BackgroundImageFix"/>
<feColorMatrix in="SourceAlpha" type="matrix" values="0 0 0 0 0 0 0 0 0 0 0 0 0 0 0 0 0 0 127 0" result="hardAlpha"/>
<feMorphology radius="2" operator="erode" in="SourceAlpha" result="effect1_dropShadow_271_1100"/>
<feOffset dx="3" dy="3"/>
<feGaussianBlur stdDeviation="6"/>
<feComposite in2="hardAlpha" operator="out"/>
<feColorMatrix type="matrix" values="0 0 0 0 0 0 0 0 0 0 0 0 0 0 0 0 0 0 0.25 0"/>
<feBlend mode="normal" in2="BackgroundImageFix" result="effect1_dropShadow_271_1100"/>
<feBlend mode="normal" in="SourceGraphic" in2="effect1_dropShadow_271_1100" result="shape"/>
</filter>
<filter id="filter1_d_271_1100" x="325" y="65" width="196" height="152" filterUnits="userSpaceOnUse" color-interpolation-filters="sRGB">
<feFlood flood-opacity="0" result="BackgroundImageFix"/>
<feColorMatrix in="SourceAlpha" type="matrix" values="0 0 0 0 0 0 0 0 0 0 0 0 0 0 0 0 0 0 127 0" result="hardAlpha"/>
<feMorphology radius="2" operator="erode" in="SourceAlpha" result="effect1_dropShadow_271_1100"/>
<feOffset dx="3" dy="3"/>
<feGaussianBlur stdDeviation="6"/>
<feComposite in2="hardAlpha" operator="out"/>
<feColorMatrix type="matrix" values="0 0 0 0 0 0 0 0 0 0 0 0 0 0 0 0 0 0 0.25 0"/>
<feBlend mode="normal" in2="BackgroundImageFix" result="effect1_dropShadow_271_1100"/>
<feBlend mode="normal" in="SourceGraphic" in2="effect1_dropShadow_271_1100" result="shape"/>
</filter>
<filter id="filter2_d_271_1100" x="124" y="225" width="196" height="152" filterUnits="userSpaceOnUse" color-interpolation-filters="sRGB">
<feFlood flood-opacity="0" result="BackgroundImageFix"/>
<feColorMatrix in="SourceAlpha" type="matrix" values="0 0 0 0 0 0 0 0 0 0 0 0 0 0 0 0 0 0 127 0" result="hardAlpha"/>
<feMorphology radius="2" operator="erode" in="SourceAlpha" result="effect1_dropShadow_271_1100"/>
<feOffset dx="3" dy="3"/>
<feGaussianBlur stdDeviation="6"/>
<feComposite in2="hardAlpha" operator="out"/>
<feColorMatrix type="matrix" values="0 0 0 0 0 0 0 0 0 0 0 0 0 0 0 0 0 0 0.25 0"/>
<feBlend mode="normal" in2="BackgroundImageFix" result="effect1_dropShadow_271_1100"/>
<feBlend mode="normal" in="SourceGraphic" in2="effect1_dropShadow_271_1100" result="shape"/>
</filter>
<filter id="filter3_d_271_1100" x="526" y="65" width="196" height="152" filterUnits="userSpaceOnUse" color-interpolation-filters="sRGB">
<feFlood flood-opacity="0" result="BackgroundImageFix"/>
<feColorMatrix in="SourceAlpha" type="matrix" values="0 0 0 0 0 0 0 0 0 0 0 0 0 0 0 0 0 0 127 0" result="hardAlpha"/>
<feMorphology radius="2" operator="erode" in="SourceAlpha" result="effect1_dropShadow_271_1100"/>
<feOffset dx="3" dy="3"/>
<feGaussianBlur stdDeviation="6"/>
<feComposite in2="hardAlpha" operator="out"/>
<feColorMatrix type="matrix" values="0 0 0 0 0 0 0 0 0 0 0 0 0 0 0 0 0 0 0.25 0"/>
<feBlend mode="normal" in2="BackgroundImageFix" result="effect1_dropShadow_271_1100"/>
<feBlend mode="normal" in="SourceGraphic" in2="effect1_dropShadow_271_1100" result="shape"/>
</filter>
<filter id="filter4_d_271_1100" x="328" y="225" width="196" height="152" filterUnits="userSpaceOnUse" color-interpolation-filters="sRGB">
<feFlood flood-opacity="0" result="BackgroundImageFix"/>
<feColorMatrix in="SourceAlpha" type="matrix" values="0 0 0 0 0 0 0 0 0 0 0 0 0 0 0 0 0 0 127 0" result="hardAlpha"/>
<feMorphology radius="2" operator="erode" in="SourceAlpha" result="effect1_dropShadow_271_1100"/>
<feOffset dx="3" dy="3"/>
<feGaussianBlur stdDeviation="6"/>
<feComposite in2="hardAlpha" operator="out"/>
<feColorMatrix type="matrix" values="0 0 0 0 0 0 0 0 0 0 0 0 0 0 0 0 0 0 0.25 0"/>
<feBlend mode="normal" in2="BackgroundImageFix" result="effect1_dropShadow_271_1100"/>
<feBlend mode="normal" in="SourceGraphic" in2="effect1_dropShadow_271_1100" result="shape"/>
</filter>
</defs>
</svg>
