<svg width="724" height="400" viewBox="0 0 724 400" fill="none" xmlns="http://www.w3.org/2000/svg">
<rect width="724" height="400" fill="#EFEDED"/>
<path d="M698.314 369.656C698.441 369.788 698.513 369.966 698.513 370.152C698.513 370.338 698.441 370.516 698.314 370.648L696.897 372.115L694.179 369.305L695.596 367.838C695.724 367.706 695.897 367.632 696.077 367.632C696.257 367.632 696.43 367.706 696.557 367.838L698.314 369.655V369.656ZM695.936 373.107L693.218 370.297L683.959 379.871C683.885 379.948 683.828 380.043 683.795 380.146L682.701 383.538C682.681 383.6 682.678 383.666 682.693 383.73C682.707 383.793 682.739 383.851 682.783 383.897C682.828 383.943 682.884 383.976 682.945 383.991C683.006 384.006 683.071 384.003 683.13 383.982L686.411 382.851C686.511 382.817 686.602 382.759 686.677 382.682L695.936 373.107Z" fill="#8C8C8C"/>
<path d="M684.44 367.329C684.547 367.329 684.649 367.373 684.725 367.451C684.8 367.529 684.842 367.635 684.842 367.746V370.243H687.258C687.364 370.243 687.467 370.286 687.542 370.365C687.618 370.443 687.66 370.548 687.66 370.659C687.66 370.769 687.618 370.875 687.542 370.953C687.467 371.031 687.364 371.075 687.258 371.075H684.842V373.572C684.842 373.682 684.8 373.788 684.725 373.866C684.649 373.944 684.547 373.988 684.44 373.988C684.333 373.988 684.231 373.944 684.155 373.866C684.08 373.788 684.037 373.682 684.037 373.572V371.075H681.622C681.515 371.075 681.413 371.031 681.338 370.953C681.262 370.875 681.22 370.769 681.22 370.659C681.22 370.548 681.262 370.443 681.338 370.365C681.413 370.286 681.515 370.243 681.622 370.243H684.037V367.746C684.037 367.635 684.08 367.529 684.155 367.451C684.231 367.373 684.333 367.329 684.44 367.329Z" fill="#8C8C8C"/>
<g filter="url(#filter0_d_272_1699)">
<rect x="53" y="72" width="176" height="132" rx="12" fill="#CFCFCF"/>
</g>
<path d="M53 84C53 77.3726 58.3726 72 65 72H217C223.627 72 229 77.3726 229 84V95.2222H53V84Z" fill="#FFF2BF"/>
<path d="M220 84C220 83.2666 219.4 82.6666 218.667 82.6666C217.933 82.6666 217.333 83.2666 217.333 84C217.333 84.7333 217.933 85.3333 218.667 85.3333C219.4 85.3333 220 84.7333 220 84ZM210.667 84C210.667 83.2666 210.067 82.6666 209.333 82.6666C208.6 82.6666 208 83.2666 208 84C208 84.7333 208.6 85.3333 209.333 85.3333C210.067 85.3333 210.667 84.7333 210.667 84ZM215.333 84C215.333 83.2666 214.733 82.6666 214 82.6666C213.267 82.6666 212.667 83.2666 212.667 84C212.667 84.7333 213.267 85.3333 214 85.3333C214.733 85.3333 215.333 84.7333 215.333 84Z" fill="#8C8C8C"/>
<path d="M72.1755 79.793H73.5615V89.979H72.1755V79.793ZM68.8205 83.269H70.5035V84.457H68.8205V83.269ZM70.1185 79.958H71.4825V89.517H70.1185V79.958ZM66.6205 81.454H67.7205V82.499C67.7205 84.787 67.0935 87.064 65.4765 88.076L64.6075 86.998C66.1035 86.063 66.6205 84.237 66.6205 82.499V81.454ZM66.9505 81.454H68.0395V82.499C68.0395 84.193 68.5455 85.909 70.0195 86.767L69.1615 87.834C67.5445 86.877 66.9505 84.743 66.9505 82.499V81.454ZM64.9925 80.816H69.5355V81.993H64.9925V80.816ZM76.0686 80.189H82.9876V83.797H76.0686V80.189ZM81.5466 81.333H77.4986V82.653H81.5466V81.333ZM74.9356 84.754H84.1426V85.909H74.9356V84.754ZM78.7966 83.533H80.2596V85.084H78.7966V83.533ZM75.9586 86.646H83.0316V89.979H81.5686V87.801H75.9586V86.646ZM92.0397 79.782H93.5137V90.001H92.0397V79.782ZM88.0247 80.497C89.5647 80.497 90.6977 81.905 90.6977 84.127C90.6977 86.371 89.5647 87.779 88.0247 87.779C86.4847 87.779 85.3517 86.371 85.3517 84.127C85.3517 81.905 86.4847 80.497 88.0247 80.497ZM88.0247 81.828C87.2657 81.828 86.7487 82.631 86.7487 84.127C86.7487 85.645 87.2657 86.459 88.0247 86.459C88.7837 86.459 89.2897 85.645 89.2897 84.127C89.2897 82.631 88.7837 81.828 88.0247 81.828ZM97.6771 83.742H106.895V84.897H97.6771V83.742ZM98.8101 82.048H105.806V83.192H98.8101V82.048ZM98.8101 79.98H105.718V81.146H100.262V83.038H98.8101V79.98ZM98.7221 85.469H105.762V88.164H100.174V89.044H98.7331V87.13H104.321V86.569H98.7221V85.469ZM98.7331 88.78H106.026V89.902H98.7331V88.78ZM110.579 80.497C112.097 80.497 113.208 81.905 113.208 84.127C113.208 86.371 112.097 87.779 110.579 87.779C109.05 87.779 107.95 86.371 107.95 84.127C107.95 81.905 109.05 80.497 110.579 80.497ZM110.579 81.828C109.842 81.828 109.347 82.631 109.347 84.127C109.347 85.645 109.842 86.459 110.579 86.459C111.327 86.459 111.811 85.645 111.811 84.127C111.811 82.631 111.327 81.828 110.579 81.828ZM114.88 79.782H116.332V90.001H114.88V79.782ZM112.779 83.456H115.496V84.633H112.779V83.456ZM124.46 79.793H125.923V84.875H124.46V79.793ZM125.516 81.806H127.276V83.005H125.516V81.806ZM121.545 80.167H123.162C123.162 82.884 121.446 84.523 118.377 85.15L117.849 83.951C120.434 83.478 121.545 82.312 121.545 81.036V80.167ZM118.355 80.167H122.48V81.333H118.355V80.167ZM119.191 85.271H125.923V88.087H120.665V89.319H119.213V87.009H124.482V86.415H119.191V85.271ZM119.213 88.736H126.22V89.88H119.213V88.736ZM132.804 81.399H133.959V82.543C133.959 84.842 132.991 87.185 131.121 88.065L130.296 86.91C131.979 86.118 132.804 84.215 132.804 82.543V81.399ZM133.112 81.399H134.267V82.543C134.267 84.083 135.059 85.887 136.731 86.657L135.928 87.812C134.058 86.943 133.112 84.71 133.112 82.543V81.399ZM130.692 80.772H136.28V81.971H130.692V80.772ZM137.028 79.793H138.502V89.979H137.028V79.793ZM138.172 83.676H139.976V84.886H138.172V83.676ZM147.653 79.782H149.116V90.001H147.653V79.782ZM141.185 86.437H142.087C143.891 86.437 145.332 86.371 146.949 86.096L147.092 87.273C145.442 87.57 143.946 87.625 142.087 87.625H141.185V86.437ZM141.174 80.651H145.981V84.589H142.67V86.877H141.185V83.434H144.485V81.817H141.174V80.651ZM154.824 83.544H156.496V84.721H154.824V83.544ZM158.113 79.793H159.51V89.979H158.113V79.793ZM156.034 79.947H157.409V89.517H156.034V79.947ZM153.042 80.508C154.395 80.508 155.264 81.905 155.264 84.204C155.264 86.514 154.395 87.911 153.042 87.911C151.7 87.911 150.842 86.514 150.842 84.204C150.842 81.905 151.7 80.508 153.042 80.508ZM153.042 81.883C152.492 81.883 152.173 82.653 152.173 84.204C152.173 85.766 152.492 86.525 153.042 86.525C153.614 86.525 153.933 85.766 153.933 84.204C153.933 82.653 153.614 81.883 153.042 81.883ZM162.908 84.963H164.36V87.823H162.908V84.963ZM166.604 84.963H168.067V87.823H166.604V84.963ZM160.884 87.614H170.102V88.802H160.884V87.614ZM165.482 80.288C167.671 80.288 169.288 81.366 169.288 83.027C169.288 84.688 167.671 85.755 165.482 85.755C163.282 85.755 161.676 84.688 161.676 83.027C161.676 81.366 163.282 80.288 165.482 80.288ZM165.482 81.432C164.063 81.432 163.117 82.015 163.117 83.027C163.117 84.028 164.063 84.622 165.482 84.622C166.901 84.622 167.847 84.028 167.847 83.027C167.847 82.015 166.901 81.432 165.482 81.432ZM172.059 86.228L171.817 82.169L171.773 80.64H173.39L173.346 82.169L173.115 86.228H172.059ZM172.576 89.154C172.004 89.154 171.575 88.703 171.575 88.098C171.575 87.493 172.004 87.053 172.576 87.053C173.159 87.053 173.588 87.493 173.588 88.098C173.588 88.703 173.159 89.154 172.576 89.154Z" fill="#8C8C8C"/>
<path d="M71.7106 103.74H72.5106V112.78H71.7106V103.74ZM70.1906 107.42H71.9306V108.1H70.1906V107.42ZM69.6606 103.94H70.4406V112.32H69.6606V103.94ZM65.2806 104.83H66.1106V110.05H65.2806V104.83ZM65.2806 109.72H65.8606C66.7906 109.72 67.8306 109.66 69.0106 109.43L69.1006 110.15C67.8706 110.39 66.8306 110.44 65.8606 110.44H65.2806V109.72ZM76.0598 106.8H76.8798V108.51H76.0598V106.8ZM79.3798 106.8H80.1998V108.51H79.3798V106.8ZM74.0398 108.21H82.2098V108.88H74.0398V108.21ZM78.1198 109.56C80.0598 109.56 81.2198 110.13 81.2198 111.16C81.2198 112.19 80.0598 112.77 78.1198 112.77C76.1798 112.77 75.0198 112.19 75.0198 111.16C75.0198 110.13 76.1798 109.56 78.1198 109.56ZM78.1198 110.2C76.7098 110.2 75.8598 110.55 75.8598 111.16C75.8598 111.78 76.7098 112.12 78.1198 112.12C79.5398 112.12 80.3798 111.78 80.3798 111.16C80.3798 110.55 79.5398 110.2 78.1198 110.2ZM78.1298 103.9C80.0898 103.9 81.3098 104.53 81.3098 105.59C81.3098 106.64 80.0898 107.26 78.1298 107.26C76.1598 107.26 74.9498 106.64 74.9498 105.59C74.9498 104.53 76.1598 103.9 78.1298 103.9ZM78.1298 104.55C76.6898 104.55 75.7998 104.93 75.7998 105.59C75.7998 106.24 76.6898 106.62 78.1298 106.62C79.5698 106.62 80.4598 106.24 80.4598 105.59C80.4598 104.93 79.5698 104.55 78.1298 104.55ZM89.809 103.73H90.639V112.79H89.809V103.73ZM85.869 104.43C87.209 104.43 88.169 105.66 88.169 107.58C88.169 109.51 87.209 110.74 85.869 110.74C84.539 110.74 83.579 109.51 83.579 107.58C83.579 105.66 84.539 104.43 85.869 104.43ZM85.869 105.18C84.989 105.18 84.369 106.12 84.369 107.58C84.369 109.05 84.989 110.01 85.869 110.01C86.759 110.01 87.369 109.05 87.369 107.58C87.369 106.12 86.759 105.18 85.869 105.18ZM94.6846 107.51H102.855V108.19H94.6846V107.51ZM95.7646 106.11H101.885V106.78H95.7646V106.11ZM95.7646 104.03H101.785V104.71H96.5846V106.65H95.7646V104.03ZM95.6646 108.97H101.805V111.1H96.5046V112.24H95.6846V110.48H100.985V109.62H95.6646V108.97ZM95.6846 112.02H102.075V112.68H95.6846V112.02ZM106.294 104.43C107.604 104.43 108.544 105.66 108.544 107.58C108.544 109.51 107.604 110.74 106.294 110.74C104.974 110.74 104.044 109.51 104.044 107.58C104.044 105.66 104.974 104.43 106.294 104.43ZM106.294 105.18C105.424 105.18 104.834 106.12 104.834 107.58C104.834 109.05 105.424 110.01 106.294 110.01C107.164 110.01 107.754 109.05 107.754 107.58C107.754 106.12 107.164 105.18 106.294 105.18ZM110.504 103.73H111.324V112.79H110.504V103.73ZM108.274 107.18H110.864V107.86H108.274V107.18ZM119.263 103.74H120.093V108.63H119.263V103.74ZM119.863 105.87H121.433V106.57H119.863V105.87ZM116.753 104.28H117.653C117.653 106.56 116.053 108.09 113.413 108.74L113.093 108.06C115.433 107.5 116.753 106.27 116.753 104.69V104.28ZM113.493 104.28H117.253V104.96H113.493V104.28ZM114.383 109.04H115.203V110.17H119.273V109.04H120.093V112.66H114.383V109.04ZM115.203 110.83V111.99H119.273V110.83H115.203ZM128.852 103.74H129.682V112.78H128.852V103.74ZM122.852 104.62H123.672V110.22H122.852V104.62ZM122.852 109.73H123.592C124.962 109.73 126.392 109.63 127.922 109.31L128.022 110.02C126.452 110.34 125.022 110.45 123.592 110.45H122.852V109.73ZM137.591 103.73H138.431V112.79H137.591V103.73ZM138.231 107.3H139.911V108H138.231V107.3ZM131.861 109.84H132.571C134.241 109.84 135.411 109.78 136.761 109.53L136.851 110.23C135.461 110.49 134.271 110.54 132.571 110.54H131.861V109.84ZM131.861 104.61H136.061V105.29H132.681V110.15H131.861V104.61ZM141.481 109.79L141.351 105.56L141.331 104.51H142.251L142.231 105.56L142.101 109.79H141.481ZM141.781 112.14C141.421 112.14 141.131 111.85 141.131 111.44C141.131 111.02 141.421 110.74 141.781 110.74C142.151 110.74 142.451 111.02 142.451 111.44C142.451 111.85 142.151 112.14 141.781 112.14ZM145.649 112.7H155.649V102.7H145.649V112.7Z" fill="#8C8C8C"/>
<path d="M168.479 188.49H169.309V189.86H168.479V188.49ZM168.869 185.15C170.179 185.15 171.099 185.87 171.099 186.94C171.099 188.01 170.179 188.72 168.869 188.72C167.569 188.72 166.649 188.01 166.649 186.94C166.649 185.87 167.569 185.15 168.869 185.15ZM168.869 185.79C168.019 185.79 167.429 186.26 167.429 186.94C167.429 187.63 168.019 188.09 168.869 188.09C169.729 188.09 170.319 187.63 170.319 186.94C170.319 186.26 169.729 185.79 168.869 185.79ZM172.319 184.75H173.149V191.66H172.319V184.75ZM172.799 187.8H174.469V188.49H172.799V187.8ZM167.429 192.89H173.469V193.58H167.429V192.89ZM167.429 191.07H168.259V193.19H167.429V191.07ZM166.239 190.32L166.129 189.64C167.719 189.64 169.919 189.62 171.759 189.34L171.819 189.95C169.929 190.3 167.789 190.32 166.239 190.32ZM177.629 190.04H178.449V192.26H177.629V190.04ZM180.519 190.02H181.329V192.25H180.519V190.02ZM175.349 191.98H183.539V192.67H175.349V191.98ZM176.339 185.41H182.529V188.14H177.189V189.96H176.369V187.48H181.709V186.08H176.339V185.41ZM176.369 189.59H182.739V190.27H176.369V189.59ZM189.164 185.52H189.844V187.14C189.844 189.22 188.724 191.15 187.244 191.9L186.734 191.22C188.074 190.58 189.164 188.85 189.164 187.14V185.52ZM189.304 185.52H189.984V187.14C189.984 188.79 191.064 190.45 192.404 191.07L191.904 191.73C190.434 191.01 189.304 189.15 189.304 187.14V185.52ZM193.344 184.73H194.174V193.79H193.344V184.73ZM201.9 188.31H203.61V188.99H201.9V188.31ZM200.06 187.05H200.7V187.52C200.7 189.32 199.95 191.14 198.63 191.93L198.14 191.3C199.36 190.59 200.06 189 200.06 187.52V187.05ZM200.21 187.05H200.85V187.52C200.85 188.96 201.57 190.45 202.79 191.11L202.32 191.73C200.99 190.99 200.21 189.28 200.21 187.52V187.05ZM198.39 186.4H202.52V187.09H198.39V186.4ZM200.06 185.06H200.86V186.93H200.06V185.06ZM205.09 184.74H205.89V193.78H205.09V184.74ZM203.28 184.95H204.06V193.32H203.28V184.95ZM208.389 185.66H214.129V186.34H208.389V185.66ZM207.419 191.83H215.589V192.53H207.419V191.83ZM213.769 185.66H214.579V186.77C214.579 188.1 214.579 189.33 214.199 191.18L213.379 191.1C213.769 189.36 213.769 188.07 213.769 186.77V185.66ZM213.979 188.16V188.78L208.269 189.09L208.149 188.4L213.979 188.16ZM217.418 190.79L217.288 186.56L217.268 185.51H218.188L218.168 186.56L218.038 190.79H217.418ZM217.718 193.14C217.358 193.14 217.068 192.85 217.068 192.44C217.068 192.02 217.358 191.74 217.718 191.74C218.088 191.74 218.388 192.02 218.388 192.44C218.388 192.85 218.088 193.14 217.718 193.14Z" fill="#8C8C8C"/>
<rect x="151.5" y="184.5" width="9" height="9" rx="2.5" fill="white" stroke="#8C8C8C"/>
<g filter="url(#filter1_d_272_1699)">
<rect x="274" y="72" width="176" height="132" rx="12" fill="#CFCFCF"/>
</g>
<path d="M274 84C274 77.3726 279.373 72 286 72H438C444.627 72 450 77.3726 450 84V95.2222H274V84Z" fill="#FFF2BF"/>
<path d="M441 84C441 83.2666 440.4 82.6666 439.667 82.6666C438.933 82.6666 438.333 83.2666 438.333 84C438.333 84.7333 438.933 85.3333 439.667 85.3333C440.4 85.3333 441 84.7333 441 84ZM431.667 84C431.667 83.2666 431.067 82.6666 430.333 82.6666C429.6 82.6666 429 83.2666 429 84C429 84.7333 429.6 85.3333 430.333 85.3333C431.067 85.3333 431.667 84.7333 431.667 84ZM436.333 84C436.333 83.2666 435.733 82.6666 435 82.6666C434.267 82.6666 433.667 83.2666 433.667 84C433.667 84.7333 434.267 85.3333 435 85.3333C435.733 85.3333 436.333 84.7333 436.333 84Z" fill="#8C8C8C"/>
<path d="M293.175 79.793H294.561V89.979H293.175V79.793ZM289.82 83.269H291.503V84.457H289.82V83.269ZM291.118 79.958H292.482V89.517H291.118V79.958ZM287.62 81.454H288.72V82.499C288.72 84.787 288.093 87.064 286.476 88.076L285.607 86.998C287.103 86.063 287.62 84.237 287.62 82.499V81.454ZM287.95 81.454H289.039V82.499C289.039 84.193 289.545 85.909 291.019 86.767L290.161 87.834C288.544 86.877 287.95 84.743 287.95 82.499V81.454ZM285.992 80.816H290.535V81.993H285.992V80.816ZM297.069 80.189H303.988V83.797H297.069V80.189ZM302.547 81.333H298.499V82.653H302.547V81.333ZM295.936 84.754H305.143V85.909H295.936V84.754ZM299.797 83.533H301.26V85.084H299.797V83.533ZM296.959 86.646H304.032V89.979H302.569V87.801H296.959V86.646ZM313.04 79.782H314.514V90.001H313.04V79.782ZM309.025 80.497C310.565 80.497 311.698 81.905 311.698 84.127C311.698 86.371 310.565 87.779 309.025 87.779C307.485 87.779 306.352 86.371 306.352 84.127C306.352 81.905 307.485 80.497 309.025 80.497ZM309.025 81.828C308.266 81.828 307.749 82.631 307.749 84.127C307.749 85.645 308.266 86.459 309.025 86.459C309.784 86.459 310.29 85.645 310.29 84.127C310.29 82.631 309.784 81.828 309.025 81.828ZM318.677 83.742H327.895V84.897H318.677V83.742ZM319.81 82.048H326.806V83.192H319.81V82.048ZM319.81 79.98H326.718V81.146H321.262V83.038H319.81V79.98ZM319.722 85.469H326.762V88.164H321.174V89.044H319.733V87.13H325.321V86.569H319.722V85.469ZM319.733 88.78H327.026V89.902H319.733V88.78ZM331.579 80.497C333.097 80.497 334.208 81.905 334.208 84.127C334.208 86.371 333.097 87.779 331.579 87.779C330.05 87.779 328.95 86.371 328.95 84.127C328.95 81.905 330.05 80.497 331.579 80.497ZM331.579 81.828C330.842 81.828 330.347 82.631 330.347 84.127C330.347 85.645 330.842 86.459 331.579 86.459C332.327 86.459 332.811 85.645 332.811 84.127C332.811 82.631 332.327 81.828 331.579 81.828ZM335.88 79.782H337.332V90.001H335.88V79.782ZM333.779 83.456H336.496V84.633H333.779V83.456ZM345.46 79.793H346.923V84.875H345.46V79.793ZM346.516 81.806H348.276V83.005H346.516V81.806ZM342.545 80.167H344.162C344.162 82.884 342.446 84.523 339.377 85.15L338.849 83.951C341.434 83.478 342.545 82.312 342.545 81.036V80.167ZM339.355 80.167H343.48V81.333H339.355V80.167ZM340.191 85.271H346.923V88.087H341.665V89.319H340.213V87.009H345.482V86.415H340.191V85.271ZM340.213 88.736H347.22V89.88H340.213V88.736ZM353.804 81.399H354.959V82.543C354.959 84.842 353.991 87.185 352.121 88.065L351.296 86.91C352.979 86.118 353.804 84.215 353.804 82.543V81.399ZM354.112 81.399H355.267V82.543C355.267 84.083 356.059 85.887 357.731 86.657L356.928 87.812C355.058 86.943 354.112 84.71 354.112 82.543V81.399ZM351.692 80.772H357.28V81.971H351.692V80.772ZM358.028 79.793H359.502V89.979H358.028V79.793ZM359.172 83.676H360.976V84.886H359.172V83.676ZM368.653 79.782H370.116V90.001H368.653V79.782ZM362.185 86.437H363.087C364.891 86.437 366.332 86.371 367.949 86.096L368.092 87.273C366.442 87.57 364.946 87.625 363.087 87.625H362.185V86.437ZM362.174 80.651H366.981V84.589H363.67V86.877H362.185V83.434H365.485V81.817H362.174V80.651ZM375.824 83.544H377.496V84.721H375.824V83.544ZM379.113 79.793H380.51V89.979H379.113V79.793ZM377.034 79.947H378.409V89.517H377.034V79.947ZM374.042 80.508C375.395 80.508 376.264 81.905 376.264 84.204C376.264 86.514 375.395 87.911 374.042 87.911C372.7 87.911 371.842 86.514 371.842 84.204C371.842 81.905 372.7 80.508 374.042 80.508ZM374.042 81.883C373.492 81.883 373.173 82.653 373.173 84.204C373.173 85.766 373.492 86.525 374.042 86.525C374.614 86.525 374.933 85.766 374.933 84.204C374.933 82.653 374.614 81.883 374.042 81.883ZM383.908 84.963H385.36V87.823H383.908V84.963ZM387.604 84.963H389.067V87.823H387.604V84.963ZM381.884 87.614H391.102V88.802H381.884V87.614ZM386.482 80.288C388.671 80.288 390.288 81.366 390.288 83.027C390.288 84.688 388.671 85.755 386.482 85.755C384.282 85.755 382.676 84.688 382.676 83.027C382.676 81.366 384.282 80.288 386.482 80.288ZM386.482 81.432C385.063 81.432 384.117 82.015 384.117 83.027C384.117 84.028 385.063 84.622 386.482 84.622C387.901 84.622 388.847 84.028 388.847 83.027C388.847 82.015 387.901 81.432 386.482 81.432ZM393.059 86.228L392.817 82.169L392.773 80.64H394.39L394.346 82.169L394.115 86.228H393.059ZM393.576 89.154C393.004 89.154 392.575 88.703 392.575 88.098C392.575 87.493 393.004 87.053 393.576 87.053C394.159 87.053 394.588 87.493 394.588 88.098C394.588 88.703 394.159 89.154 393.576 89.154Z" fill="#8C8C8C"/>
<path d="M292.711 103.74H293.511V112.78H292.711V103.74ZM291.191 107.42H292.931V108.1H291.191V107.42ZM290.661 103.94H291.441V112.32H290.661V103.94ZM286.281 104.83H287.111V110.05H286.281V104.83ZM286.281 109.72H286.861C287.791 109.72 288.831 109.66 290.011 109.43L290.101 110.15C288.871 110.39 287.831 110.44 286.861 110.44H286.281V109.72ZM297.06 106.8H297.88V108.51H297.06V106.8ZM300.38 106.8H301.2V108.51H300.38V106.8ZM295.04 108.21H303.21V108.88H295.04V108.21ZM299.12 109.56C301.06 109.56 302.22 110.13 302.22 111.16C302.22 112.19 301.06 112.77 299.12 112.77C297.18 112.77 296.02 112.19 296.02 111.16C296.02 110.13 297.18 109.56 299.12 109.56ZM299.12 110.2C297.71 110.2 296.86 110.55 296.86 111.16C296.86 111.78 297.71 112.12 299.12 112.12C300.54 112.12 301.38 111.78 301.38 111.16C301.38 110.55 300.54 110.2 299.12 110.2ZM299.13 103.9C301.09 103.9 302.31 104.53 302.31 105.59C302.31 106.64 301.09 107.26 299.13 107.26C297.16 107.26 295.95 106.64 295.95 105.59C295.95 104.53 297.16 103.9 299.13 103.9ZM299.13 104.55C297.69 104.55 296.8 104.93 296.8 105.59C296.8 106.24 297.69 106.62 299.13 106.62C300.57 106.62 301.46 106.24 301.46 105.59C301.46 104.93 300.57 104.55 299.13 104.55ZM310.809 103.73H311.639V112.79H310.809V103.73ZM306.869 104.43C308.209 104.43 309.169 105.66 309.169 107.58C309.169 109.51 308.209 110.74 306.869 110.74C305.539 110.74 304.579 109.51 304.579 107.58C304.579 105.66 305.539 104.43 306.869 104.43ZM306.869 105.18C305.989 105.18 305.369 106.12 305.369 107.58C305.369 109.05 305.989 110.01 306.869 110.01C307.759 110.01 308.369 109.05 308.369 107.58C308.369 106.12 307.759 105.18 306.869 105.18ZM315.685 107.51H323.855V108.19H315.685V107.51ZM316.765 106.11H322.885V106.78H316.765V106.11ZM316.765 104.03H322.785V104.71H317.585V106.65H316.765V104.03ZM316.665 108.97H322.805V111.1H317.505V112.24H316.685V110.48H321.985V109.62H316.665V108.97ZM316.685 112.02H323.075V112.68H316.685V112.02ZM327.294 104.43C328.604 104.43 329.544 105.66 329.544 107.58C329.544 109.51 328.604 110.74 327.294 110.74C325.974 110.74 325.044 109.51 325.044 107.58C325.044 105.66 325.974 104.43 327.294 104.43ZM327.294 105.18C326.424 105.18 325.834 106.12 325.834 107.58C325.834 109.05 326.424 110.01 327.294 110.01C328.164 110.01 328.754 109.05 328.754 107.58C328.754 106.12 328.164 105.18 327.294 105.18ZM331.504 103.73H332.324V112.79H331.504V103.73ZM329.274 107.18H331.864V107.86H329.274V107.18ZM340.263 103.74H341.093V108.63H340.263V103.74ZM340.863 105.87H342.433V106.57H340.863V105.87ZM337.753 104.28H338.653C338.653 106.56 337.053 108.09 334.413 108.74L334.093 108.06C336.433 107.5 337.753 106.27 337.753 104.69V104.28ZM334.493 104.28H338.253V104.96H334.493V104.28ZM335.383 109.04H336.203V110.17H340.273V109.04H341.093V112.66H335.383V109.04ZM336.203 110.83V111.99H340.273V110.83H336.203ZM349.852 103.74H350.682V112.78H349.852V103.74ZM343.852 104.62H344.672V110.22H343.852V104.62ZM343.852 109.73H344.592C345.962 109.73 347.392 109.63 348.922 109.31L349.022 110.02C347.452 110.34 346.022 110.45 344.592 110.45H343.852V109.73ZM358.591 103.73H359.431V112.79H358.591V103.73ZM359.231 107.3H360.911V108H359.231V107.3ZM352.861 109.84H353.571C355.241 109.84 356.411 109.78 357.761 109.53L357.851 110.23C356.461 110.49 355.271 110.54 353.571 110.54H352.861V109.84ZM352.861 104.61H357.061V105.29H353.681V110.15H352.861V104.61ZM362.481 109.79L362.351 105.56L362.331 104.51H363.251L363.231 105.56L363.101 109.79H362.481ZM362.781 112.14C362.421 112.14 362.131 111.85 362.131 111.44C362.131 111.02 362.421 110.74 362.781 110.74C363.151 110.74 363.451 111.02 363.451 111.44C363.451 111.85 363.151 112.14 362.781 112.14ZM366.649 112.7H376.649V102.7H366.649V112.7Z" fill="#8C8C8C"/>
<path d="M389.479 188.49H390.309V189.86H389.479V188.49ZM389.869 185.15C391.179 185.15 392.099 185.87 392.099 186.94C392.099 188.01 391.179 188.72 389.869 188.72C388.569 188.72 387.649 188.01 387.649 186.94C387.649 185.87 388.569 185.15 389.869 185.15ZM389.869 185.79C389.019 185.79 388.429 186.26 388.429 186.94C388.429 187.63 389.019 188.09 389.869 188.09C390.729 188.09 391.319 187.63 391.319 186.94C391.319 186.26 390.729 185.79 389.869 185.79ZM393.319 184.75H394.149V191.66H393.319V184.75ZM393.799 187.8H395.469V188.49H393.799V187.8ZM388.429 192.89H394.469V193.58H388.429V192.89ZM388.429 191.07H389.259V193.19H388.429V191.07ZM387.239 190.32L387.129 189.64C388.719 189.64 390.919 189.62 392.759 189.34L392.819 189.95C390.929 190.3 388.789 190.32 387.239 190.32ZM398.629 190.04H399.449V192.26H398.629V190.04ZM401.519 190.02H402.329V192.25H401.519V190.02ZM396.349 191.98H404.539V192.67H396.349V191.98ZM397.339 185.41H403.529V188.14H398.189V189.96H397.369V187.48H402.709V186.08H397.339V185.41ZM397.369 189.59H403.739V190.27H397.369V189.59ZM410.164 185.52H410.844V187.14C410.844 189.22 409.724 191.15 408.244 191.9L407.734 191.22C409.074 190.58 410.164 188.85 410.164 187.14V185.52ZM410.304 185.52H410.984V187.14C410.984 188.79 412.064 190.45 413.404 191.07L412.904 191.73C411.434 191.01 410.304 189.15 410.304 187.14V185.52ZM414.344 184.73H415.174V193.79H414.344V184.73ZM422.9 188.31H424.61V188.99H422.9V188.31ZM421.06 187.05H421.7V187.52C421.7 189.32 420.95 191.14 419.63 191.93L419.14 191.3C420.36 190.59 421.06 189 421.06 187.52V187.05ZM421.21 187.05H421.85V187.52C421.85 188.96 422.57 190.45 423.79 191.11L423.32 191.73C421.99 190.99 421.21 189.28 421.21 187.52V187.05ZM419.39 186.4H423.52V187.09H419.39V186.4ZM421.06 185.06H421.86V186.93H421.06V185.06ZM426.09 184.74H426.89V193.78H426.09V184.74ZM424.28 184.95H425.06V193.32H424.28V184.95ZM429.389 185.66H435.129V186.34H429.389V185.66ZM428.419 191.83H436.589V192.53H428.419V191.83ZM434.769 185.66H435.579V186.77C435.579 188.1 435.579 189.33 435.199 191.18L434.379 191.1C434.769 189.36 434.769 188.07 434.769 186.77V185.66ZM434.979 188.16V188.78L429.269 189.09L429.149 188.4L434.979 188.16ZM438.418 190.79L438.288 186.56L438.268 185.51H439.188L439.168 186.56L439.038 190.79H438.418ZM438.718 193.14C438.358 193.14 438.068 192.85 438.068 192.44C438.068 192.02 438.358 191.74 438.718 191.74C439.088 191.74 439.388 192.02 439.388 192.44C439.388 192.85 439.088 193.14 438.718 193.14Z" fill="#8C8C8C"/>
<rect x="372.5" y="184.5" width="9" height="9" rx="2.5" fill="white" stroke="#8C8C8C"/>
<g filter="url(#filter2_d_272_1699)">
<rect x="53" y="232" width="176" height="132" rx="12" fill="#CFCFCF"/>
</g>
<path d="M53 244C53 237.373 58.3726 232 65 232H217C223.627 232 229 237.373 229 244V255.222H53V244Z" fill="#FFF2BF"/>
<path d="M220 244C220 243.267 219.4 242.667 218.667 242.667C217.933 242.667 217.333 243.267 217.333 244C217.333 244.733 217.933 245.333 218.667 245.333C219.4 245.333 220 244.733 220 244ZM210.667 244C210.667 243.267 210.067 242.667 209.333 242.667C208.6 242.667 208 243.267 208 244C208 244.733 208.6 245.333 209.333 245.333C210.067 245.333 210.667 244.733 210.667 244ZM215.333 244C215.333 243.267 214.733 242.667 214 242.667C213.267 242.667 212.667 243.267 212.667 244C212.667 244.733 213.267 245.333 214 245.333C214.733 245.333 215.333 244.733 215.333 244Z" fill="#8C8C8C"/>
<path d="M72.1755 239.793H73.5615V249.979H72.1755V239.793ZM68.8205 243.269H70.5035V244.457H68.8205V243.269ZM70.1185 239.958H71.4825V249.517H70.1185V239.958ZM66.6205 241.454H67.7205V242.499C67.7205 244.787 67.0935 247.064 65.4765 248.076L64.6075 246.998C66.1035 246.063 66.6205 244.237 66.6205 242.499V241.454ZM66.9505 241.454H68.0395V242.499C68.0395 244.193 68.5455 245.909 70.0195 246.767L69.1615 247.834C67.5445 246.877 66.9505 244.743 66.9505 242.499V241.454ZM64.9925 240.816H69.5355V241.993H64.9925V240.816ZM76.0686 240.189H82.9876V243.797H76.0686V240.189ZM81.5466 241.333H77.4986V242.653H81.5466V241.333ZM74.9356 244.754H84.1426V245.909H74.9356V244.754ZM78.7966 243.533H80.2596V245.084H78.7966V243.533ZM75.9586 246.646H83.0316V249.979H81.5686V247.801H75.9586V246.646ZM92.0397 239.782H93.5137V250.001H92.0397V239.782ZM88.0247 240.497C89.5647 240.497 90.6977 241.905 90.6977 244.127C90.6977 246.371 89.5647 247.779 88.0247 247.779C86.4847 247.779 85.3517 246.371 85.3517 244.127C85.3517 241.905 86.4847 240.497 88.0247 240.497ZM88.0247 241.828C87.2657 241.828 86.7487 242.631 86.7487 244.127C86.7487 245.645 87.2657 246.459 88.0247 246.459C88.7837 246.459 89.2897 245.645 89.2897 244.127C89.2897 242.631 88.7837 241.828 88.0247 241.828ZM97.6771 243.742H106.895V244.897H97.6771V243.742ZM98.8101 242.048H105.806V243.192H98.8101V242.048ZM98.8101 239.98H105.718V241.146H100.262V243.038H98.8101V239.98ZM98.7221 245.469H105.762V248.164H100.174V249.044H98.7331V247.13H104.321V246.569H98.7221V245.469ZM98.7331 248.78H106.026V249.902H98.7331V248.78ZM110.579 240.497C112.097 240.497 113.208 241.905 113.208 244.127C113.208 246.371 112.097 247.779 110.579 247.779C109.05 247.779 107.95 246.371 107.95 244.127C107.95 241.905 109.05 240.497 110.579 240.497ZM110.579 241.828C109.842 241.828 109.347 242.631 109.347 244.127C109.347 245.645 109.842 246.459 110.579 246.459C111.327 246.459 111.811 245.645 111.811 244.127C111.811 242.631 111.327 241.828 110.579 241.828ZM114.88 239.782H116.332V250.001H114.88V239.782ZM112.779 243.456H115.496V244.633H112.779V243.456ZM124.46 239.793H125.923V244.875H124.46V239.793ZM125.516 241.806H127.276V243.005H125.516V241.806ZM121.545 240.167H123.162C123.162 242.884 121.446 244.523 118.377 245.15L117.849 243.951C120.434 243.478 121.545 242.312 121.545 241.036V240.167ZM118.355 240.167H122.48V241.333H118.355V240.167ZM119.191 245.271H125.923V248.087H120.665V249.319H119.213V247.009H124.482V246.415H119.191V245.271ZM119.213 248.736H126.22V249.88H119.213V248.736ZM132.804 241.399H133.959V242.543C133.959 244.842 132.991 247.185 131.121 248.065L130.296 246.91C131.979 246.118 132.804 244.215 132.804 242.543V241.399ZM133.112 241.399H134.267V242.543C134.267 244.083 135.059 245.887 136.731 246.657L135.928 247.812C134.058 246.943 133.112 244.71 133.112 242.543V241.399ZM130.692 240.772H136.28V241.971H130.692V240.772ZM137.028 239.793H138.502V249.979H137.028V239.793ZM138.172 243.676H139.976V244.886H138.172V243.676ZM147.653 239.782H149.116V250.001H147.653V239.782ZM141.185 246.437H142.087C143.891 246.437 145.332 246.371 146.949 246.096L147.092 247.273C145.442 247.57 143.946 247.625 142.087 247.625H141.185V246.437ZM141.174 240.651H145.981V244.589H142.67V246.877H141.185V243.434H144.485V241.817H141.174V240.651ZM154.824 243.544H156.496V244.721H154.824V243.544ZM158.113 239.793H159.51V249.979H158.113V239.793ZM156.034 239.947H157.409V249.517H156.034V239.947ZM153.042 240.508C154.395 240.508 155.264 241.905 155.264 244.204C155.264 246.514 154.395 247.911 153.042 247.911C151.7 247.911 150.842 246.514 150.842 244.204C150.842 241.905 151.7 240.508 153.042 240.508ZM153.042 241.883C152.492 241.883 152.173 242.653 152.173 244.204C152.173 245.766 152.492 246.525 153.042 246.525C153.614 246.525 153.933 245.766 153.933 244.204C153.933 242.653 153.614 241.883 153.042 241.883ZM162.908 244.963H164.36V247.823H162.908V244.963ZM166.604 244.963H168.067V247.823H166.604V244.963ZM160.884 247.614H170.102V248.802H160.884V247.614ZM165.482 240.288C167.671 240.288 169.288 241.366 169.288 243.027C169.288 244.688 167.671 245.755 165.482 245.755C163.282 245.755 161.676 244.688 161.676 243.027C161.676 241.366 163.282 240.288 165.482 240.288ZM165.482 241.432C164.063 241.432 163.117 242.015 163.117 243.027C163.117 244.028 164.063 244.622 165.482 244.622C166.901 244.622 167.847 244.028 167.847 243.027C167.847 242.015 166.901 241.432 165.482 241.432ZM172.059 246.228L171.817 242.169L171.773 240.64H173.39L173.346 242.169L173.115 246.228H172.059ZM172.576 249.154C172.004 249.154 171.575 248.703 171.575 248.098C171.575 247.493 172.004 247.053 172.576 247.053C173.159 247.053 173.588 247.493 173.588 248.098C173.588 248.703 173.159 249.154 172.576 249.154Z" fill="#8C8C8C"/>
<path d="M71.7106 263.74H72.5106V272.78H71.7106V263.74ZM70.1906 267.42H71.9306V268.1H70.1906V267.42ZM69.6606 263.94H70.4406V272.32H69.6606V263.94ZM65.2806 264.83H66.1106V270.05H65.2806V264.83ZM65.2806 269.72H65.8606C66.7906 269.72 67.8306 269.66 69.0106 269.43L69.1006 270.15C67.8706 270.39 66.8306 270.44 65.8606 270.44H65.2806V269.72ZM76.0598 266.8H76.8798V268.51H76.0598V266.8ZM79.3798 266.8H80.1998V268.51H79.3798V266.8ZM74.0398 268.21H82.2098V268.88H74.0398V268.21ZM78.1198 269.56C80.0598 269.56 81.2198 270.13 81.2198 271.16C81.2198 272.19 80.0598 272.77 78.1198 272.77C76.1798 272.77 75.0198 272.19 75.0198 271.16C75.0198 270.13 76.1798 269.56 78.1198 269.56ZM78.1198 270.2C76.7098 270.2 75.8598 270.55 75.8598 271.16C75.8598 271.78 76.7098 272.12 78.1198 272.12C79.5398 272.12 80.3798 271.78 80.3798 271.16C80.3798 270.55 79.5398 270.2 78.1198 270.2ZM78.1298 263.9C80.0898 263.9 81.3098 264.53 81.3098 265.59C81.3098 266.64 80.0898 267.26 78.1298 267.26C76.1598 267.26 74.9498 266.64 74.9498 265.59C74.9498 264.53 76.1598 263.9 78.1298 263.9ZM78.1298 264.55C76.6898 264.55 75.7998 264.93 75.7998 265.59C75.7998 266.24 76.6898 266.62 78.1298 266.62C79.5698 266.62 80.4598 266.24 80.4598 265.59C80.4598 264.93 79.5698 264.55 78.1298 264.55ZM89.809 263.73H90.639V272.79H89.809V263.73ZM85.869 264.43C87.209 264.43 88.169 265.66 88.169 267.58C88.169 269.51 87.209 270.74 85.869 270.74C84.539 270.74 83.579 269.51 83.579 267.58C83.579 265.66 84.539 264.43 85.869 264.43ZM85.869 265.18C84.989 265.18 84.369 266.12 84.369 267.58C84.369 269.05 84.989 270.01 85.869 270.01C86.759 270.01 87.369 269.05 87.369 267.58C87.369 266.12 86.759 265.18 85.869 265.18ZM94.6846 267.51H102.855V268.19H94.6846V267.51ZM95.7646 266.11H101.885V266.78H95.7646V266.11ZM95.7646 264.03H101.785V264.71H96.5846V266.65H95.7646V264.03ZM95.6646 268.97H101.805V271.1H96.5046V272.24H95.6846V270.48H100.985V269.62H95.6646V268.97ZM95.6846 272.02H102.075V272.68H95.6846V272.02ZM106.294 264.43C107.604 264.43 108.544 265.66 108.544 267.58C108.544 269.51 107.604 270.74 106.294 270.74C104.974 270.74 104.044 269.51 104.044 267.58C104.044 265.66 104.974 264.43 106.294 264.43ZM106.294 265.18C105.424 265.18 104.834 266.12 104.834 267.58C104.834 269.05 105.424 270.01 106.294 270.01C107.164 270.01 107.754 269.05 107.754 267.58C107.754 266.12 107.164 265.18 106.294 265.18ZM110.504 263.73H111.324V272.79H110.504V263.73ZM108.274 267.18H110.864V267.86H108.274V267.18ZM119.263 263.74H120.093V268.63H119.263V263.74ZM119.863 265.87H121.433V266.57H119.863V265.87ZM116.753 264.28H117.653C117.653 266.56 116.053 268.09 113.413 268.74L113.093 268.06C115.433 267.5 116.753 266.27 116.753 264.69V264.28ZM113.493 264.28H117.253V264.96H113.493V264.28ZM114.383 269.04H115.203V270.17H119.273V269.04H120.093V272.66H114.383V269.04ZM115.203 270.83V271.99H119.273V270.83H115.203ZM128.852 263.74H129.682V272.78H128.852V263.74ZM122.852 264.62H123.672V270.22H122.852V264.62ZM122.852 269.73H123.592C124.962 269.73 126.392 269.63 127.922 269.31L128.022 270.02C126.452 270.34 125.022 270.45 123.592 270.45H122.852V269.73ZM137.591 263.73H138.431V272.79H137.591V263.73ZM138.231 267.3H139.911V268H138.231V267.3ZM131.861 269.84H132.571C134.241 269.84 135.411 269.78 136.761 269.53L136.851 270.23C135.461 270.49 134.271 270.54 132.571 270.54H131.861V269.84ZM131.861 264.61H136.061V265.29H132.681V270.15H131.861V264.61ZM141.481 269.79L141.351 265.56L141.331 264.51H142.251L142.231 265.56L142.101 269.79H141.481ZM141.781 272.14C141.421 272.14 141.131 271.85 141.131 271.44C141.131 271.02 141.421 270.74 141.781 270.74C142.151 270.74 142.451 271.02 142.451 271.44C142.451 271.85 142.151 272.14 141.781 272.14ZM145.649 272.7H155.649V262.7H145.649V272.7Z" fill="#8C8C8C"/>
<path d="M168.479 348.49H169.309V349.86H168.479V348.49ZM168.869 345.15C170.179 345.15 171.099 345.87 171.099 346.94C171.099 348.01 170.179 348.72 168.869 348.72C167.569 348.72 166.649 348.01 166.649 346.94C166.649 345.87 167.569 345.15 168.869 345.15ZM168.869 345.79C168.019 345.79 167.429 346.26 167.429 346.94C167.429 347.63 168.019 348.09 168.869 348.09C169.729 348.09 170.319 347.63 170.319 346.94C170.319 346.26 169.729 345.79 168.869 345.79ZM172.319 344.75H173.149V351.66H172.319V344.75ZM172.799 347.8H174.469V348.49H172.799V347.8ZM167.429 352.89H173.469V353.58H167.429V352.89ZM167.429 351.07H168.259V353.19H167.429V351.07ZM166.239 350.32L166.129 349.64C167.719 349.64 169.919 349.62 171.759 349.34L171.819 349.95C169.929 350.3 167.789 350.32 166.239 350.32ZM177.629 350.04H178.449V352.26H177.629V350.04ZM180.519 350.02H181.329V352.25H180.519V350.02ZM175.349 351.98H183.539V352.67H175.349V351.98ZM176.339 345.41H182.529V348.14H177.189V349.96H176.369V347.48H181.709V346.08H176.339V345.41ZM176.369 349.59H182.739V350.27H176.369V349.59ZM189.164 345.52H189.844V347.14C189.844 349.22 188.724 351.15 187.244 351.9L186.734 351.22C188.074 350.58 189.164 348.85 189.164 347.14V345.52ZM189.304 345.52H189.984V347.14C189.984 348.79 191.064 350.45 192.404 351.07L191.904 351.73C190.434 351.01 189.304 349.15 189.304 347.14V345.52ZM193.344 344.73H194.174V353.79H193.344V344.73ZM201.9 348.31H203.61V348.99H201.9V348.31ZM200.06 347.05H200.7V347.52C200.7 349.32 199.95 351.14 198.63 351.93L198.14 351.3C199.36 350.59 200.06 349 200.06 347.52V347.05ZM200.21 347.05H200.85V347.52C200.85 348.96 201.57 350.45 202.79 351.11L202.32 351.73C200.99 350.99 200.21 349.28 200.21 347.52V347.05ZM198.39 346.4H202.52V347.09H198.39V346.4ZM200.06 345.06H200.86V346.93H200.06V345.06ZM205.09 344.74H205.89V353.78H205.09V344.74ZM203.28 344.95H204.06V353.32H203.28V344.95ZM208.389 345.66H214.129V346.34H208.389V345.66ZM207.419 351.83H215.589V352.53H207.419V351.83ZM213.769 345.66H214.579V346.77C214.579 348.1 214.579 349.33 214.199 351.18L213.379 351.1C213.769 349.36 213.769 348.07 213.769 346.77V345.66ZM213.979 348.16V348.78L208.269 349.09L208.149 348.4L213.979 348.16ZM217.418 350.79L217.288 346.56L217.268 345.51H218.188L218.168 346.56L218.038 350.79H217.418ZM217.718 353.14C217.358 353.14 217.068 352.85 217.068 352.44C217.068 352.02 217.358 351.74 217.718 351.74C218.088 351.74 218.388 352.02 218.388 352.44C218.388 352.85 218.088 353.14 217.718 353.14Z" fill="#8C8C8C"/>
<rect x="151.5" y="344.5" width="9" height="9" rx="2.5" fill="white" stroke="#8C8C8C"/>
<g filter="url(#filter3_d_272_1699)">
<rect x="274" y="232" width="176" height="132" rx="12" fill="#CFCFCF"/>
</g>
<path d="M274 244C274 237.373 279.373 232 286 232H438C444.627 232 450 237.373 450 244V255.222H274V244Z" fill="#FFE1E4"/>
<path d="M441 244C441 243.267 440.4 242.667 439.667 242.667C438.933 242.667 438.333 243.267 438.333 244C438.333 244.733 438.933 245.333 439.667 245.333C440.4 245.333 441 244.733 441 244ZM431.667 244C431.667 243.267 431.067 242.667 430.333 242.667C429.6 242.667 429 243.267 429 244C429 244.733 429.6 245.333 430.333 245.333C431.067 245.333 431.667 244.733 431.667 244ZM436.333 244C436.333 243.267 435.733 242.667 435 242.667C434.267 242.667 433.667 243.267 433.667 244C433.667 244.733 434.267 245.333 435 245.333C435.733 245.333 436.333 244.733 436.333 244Z" fill="#8C8C8C"/>
<path d="M293.175 239.793H294.561V249.979H293.175V239.793ZM289.82 243.269H291.503V244.457H289.82V243.269ZM291.118 239.958H292.482V249.517H291.118V239.958ZM287.62 241.454H288.72V242.499C288.72 244.787 288.093 247.064 286.476 248.076L285.607 246.998C287.103 246.063 287.62 244.237 287.62 242.499V241.454ZM287.95 241.454H289.039V242.499C289.039 244.193 289.545 245.909 291.019 246.767L290.161 247.834C288.544 246.877 287.95 244.743 287.95 242.499V241.454ZM285.992 240.816H290.535V241.993H285.992V240.816ZM297.069 240.189H303.988V243.797H297.069V240.189ZM302.547 241.333H298.499V242.653H302.547V241.333ZM295.936 244.754H305.143V245.909H295.936V244.754ZM299.797 243.533H301.26V245.084H299.797V243.533ZM296.959 246.646H304.032V249.979H302.569V247.801H296.959V246.646ZM313.04 239.782H314.514V250.001H313.04V239.782ZM309.025 240.497C310.565 240.497 311.698 241.905 311.698 244.127C311.698 246.371 310.565 247.779 309.025 247.779C307.485 247.779 306.352 246.371 306.352 244.127C306.352 241.905 307.485 240.497 309.025 240.497ZM309.025 241.828C308.266 241.828 307.749 242.631 307.749 244.127C307.749 245.645 308.266 246.459 309.025 246.459C309.784 246.459 310.29 245.645 310.29 244.127C310.29 242.631 309.784 241.828 309.025 241.828ZM318.677 243.742H327.895V244.897H318.677V243.742ZM319.81 242.048H326.806V243.192H319.81V242.048ZM319.81 239.98H326.718V241.146H321.262V243.038H319.81V239.98ZM319.722 245.469H326.762V248.164H321.174V249.044H319.733V247.13H325.321V246.569H319.722V245.469ZM319.733 248.78H327.026V249.902H319.733V248.78ZM331.579 240.497C333.097 240.497 334.208 241.905 334.208 244.127C334.208 246.371 333.097 247.779 331.579 247.779C330.05 247.779 328.95 246.371 328.95 244.127C328.95 241.905 330.05 240.497 331.579 240.497ZM331.579 241.828C330.842 241.828 330.347 242.631 330.347 244.127C330.347 245.645 330.842 246.459 331.579 246.459C332.327 246.459 332.811 245.645 332.811 244.127C332.811 242.631 332.327 241.828 331.579 241.828ZM335.88 239.782H337.332V250.001H335.88V239.782ZM333.779 243.456H336.496V244.633H333.779V243.456ZM345.46 239.793H346.923V244.875H345.46V239.793ZM346.516 241.806H348.276V243.005H346.516V241.806ZM342.545 240.167H344.162C344.162 242.884 342.446 244.523 339.377 245.15L338.849 243.951C341.434 243.478 342.545 242.312 342.545 241.036V240.167ZM339.355 240.167H343.48V241.333H339.355V240.167ZM340.191 245.271H346.923V248.087H341.665V249.319H340.213V247.009H345.482V246.415H340.191V245.271ZM340.213 248.736H347.22V249.88H340.213V248.736ZM353.804 241.399H354.959V242.543C354.959 244.842 353.991 247.185 352.121 248.065L351.296 246.91C352.979 246.118 353.804 244.215 353.804 242.543V241.399ZM354.112 241.399H355.267V242.543C355.267 244.083 356.059 245.887 357.731 246.657L356.928 247.812C355.058 246.943 354.112 244.71 354.112 242.543V241.399ZM351.692 240.772H357.28V241.971H351.692V240.772ZM358.028 239.793H359.502V249.979H358.028V239.793ZM359.172 243.676H360.976V244.886H359.172V243.676ZM368.653 239.782H370.116V250.001H368.653V239.782ZM362.185 246.437H363.087C364.891 246.437 366.332 246.371 367.949 246.096L368.092 247.273C366.442 247.57 364.946 247.625 363.087 247.625H362.185V246.437ZM362.174 240.651H366.981V244.589H363.67V246.877H362.185V243.434H365.485V241.817H362.174V240.651ZM375.824 243.544H377.496V244.721H375.824V243.544ZM379.113 239.793H380.51V249.979H379.113V239.793ZM377.034 239.947H378.409V249.517H377.034V239.947ZM374.042 240.508C375.395 240.508 376.264 241.905 376.264 244.204C376.264 246.514 375.395 247.911 374.042 247.911C372.7 247.911 371.842 246.514 371.842 244.204C371.842 241.905 372.7 240.508 374.042 240.508ZM374.042 241.883C373.492 241.883 373.173 242.653 373.173 244.204C373.173 245.766 373.492 246.525 374.042 246.525C374.614 246.525 374.933 245.766 374.933 244.204C374.933 242.653 374.614 241.883 374.042 241.883ZM383.908 244.963H385.36V247.823H383.908V244.963ZM387.604 244.963H389.067V247.823H387.604V244.963ZM381.884 247.614H391.102V248.802H381.884V247.614ZM386.482 240.288C388.671 240.288 390.288 241.366 390.288 243.027C390.288 244.688 388.671 245.755 386.482 245.755C384.282 245.755 382.676 244.688 382.676 243.027C382.676 241.366 384.282 240.288 386.482 240.288ZM386.482 241.432C385.063 241.432 384.117 242.015 384.117 243.027C384.117 244.028 385.063 244.622 386.482 244.622C387.901 244.622 388.847 244.028 388.847 243.027C388.847 242.015 387.901 241.432 386.482 241.432ZM393.059 246.228L392.817 242.169L392.773 240.64H394.39L394.346 242.169L394.115 246.228H393.059ZM393.576 249.154C393.004 249.154 392.575 248.703 392.575 248.098C392.575 247.493 393.004 247.053 393.576 247.053C394.159 247.053 394.588 247.493 394.588 248.098C394.588 248.703 394.159 249.154 393.576 249.154Z" fill="#8C8C8C"/>
<path d="M285.376 245.425H395.622V245.975H285.376V245.425Z" fill="#8C8C8C"/>
<path d="M292.711 263.74H293.511V272.78H292.711V263.74ZM291.191 267.42H292.931V268.1H291.191V267.42ZM290.661 263.94H291.441V272.32H290.661V263.94ZM286.281 264.83H287.111V270.05H286.281V264.83ZM286.281 269.72H286.861C287.791 269.72 288.831 269.66 290.011 269.43L290.101 270.15C288.871 270.39 287.831 270.44 286.861 270.44H286.281V269.72ZM297.06 266.8H297.88V268.51H297.06V266.8ZM300.38 266.8H301.2V268.51H300.38V266.8ZM295.04 268.21H303.21V268.88H295.04V268.21ZM299.12 269.56C301.06 269.56 302.22 270.13 302.22 271.16C302.22 272.19 301.06 272.77 299.12 272.77C297.18 272.77 296.02 272.19 296.02 271.16C296.02 270.13 297.18 269.56 299.12 269.56ZM299.12 270.2C297.71 270.2 296.86 270.55 296.86 271.16C296.86 271.78 297.71 272.12 299.12 272.12C300.54 272.12 301.38 271.78 301.38 271.16C301.38 270.55 300.54 270.2 299.12 270.2ZM299.13 263.9C301.09 263.9 302.31 264.53 302.31 265.59C302.31 266.64 301.09 267.26 299.13 267.26C297.16 267.26 295.95 266.64 295.95 265.59C295.95 264.53 297.16 263.9 299.13 263.9ZM299.13 264.55C297.69 264.55 296.8 264.93 296.8 265.59C296.8 266.24 297.69 266.62 299.13 266.62C300.57 266.62 301.46 266.24 301.46 265.59C301.46 264.93 300.57 264.55 299.13 264.55ZM310.809 263.73H311.639V272.79H310.809V263.73ZM306.869 264.43C308.209 264.43 309.169 265.66 309.169 267.58C309.169 269.51 308.209 270.74 306.869 270.74C305.539 270.74 304.579 269.51 304.579 267.58C304.579 265.66 305.539 264.43 306.869 264.43ZM306.869 265.18C305.989 265.18 305.369 266.12 305.369 267.58C305.369 269.05 305.989 270.01 306.869 270.01C307.759 270.01 308.369 269.05 308.369 267.58C308.369 266.12 307.759 265.18 306.869 265.18ZM315.685 267.51H323.855V268.19H315.685V267.51ZM316.765 266.11H322.885V266.78H316.765V266.11ZM316.765 264.03H322.785V264.71H317.585V266.65H316.765V264.03ZM316.665 268.97H322.805V271.1H317.505V272.24H316.685V270.48H321.985V269.62H316.665V268.97ZM316.685 272.02H323.075V272.68H316.685V272.02ZM327.294 264.43C328.604 264.43 329.544 265.66 329.544 267.58C329.544 269.51 328.604 270.74 327.294 270.74C325.974 270.74 325.044 269.51 325.044 267.58C325.044 265.66 325.974 264.43 327.294 264.43ZM327.294 265.18C326.424 265.18 325.834 266.12 325.834 267.58C325.834 269.05 326.424 270.01 327.294 270.01C328.164 270.01 328.754 269.05 328.754 267.58C328.754 266.12 328.164 265.18 327.294 265.18ZM331.504 263.73H332.324V272.79H331.504V263.73ZM329.274 267.18H331.864V267.86H329.274V267.18ZM340.263 263.74H341.093V268.63H340.263V263.74ZM340.863 265.87H342.433V266.57H340.863V265.87ZM337.753 264.28H338.653C338.653 266.56 337.053 268.09 334.413 268.74L334.093 268.06C336.433 267.5 337.753 266.27 337.753 264.69V264.28ZM334.493 264.28H338.253V264.96H334.493V264.28ZM335.383 269.04H336.203V270.17H340.273V269.04H341.093V272.66H335.383V269.04ZM336.203 270.83V271.99H340.273V270.83H336.203ZM349.852 263.74H350.682V272.78H349.852V263.74ZM343.852 264.62H344.672V270.22H343.852V264.62ZM343.852 269.73H344.592C345.962 269.73 347.392 269.63 348.922 269.31L349.022 270.02C347.452 270.34 346.022 270.45 344.592 270.45H343.852V269.73ZM358.591 263.73H359.431V272.79H358.591V263.73ZM359.231 267.3H360.911V268H359.231V267.3ZM352.861 269.84H353.571C355.241 269.84 356.411 269.78 357.761 269.53L357.851 270.23C356.461 270.49 355.271 270.54 353.571 270.54H352.861V269.84ZM352.861 264.61H357.061V265.29H353.681V270.15H352.861V264.61ZM362.481 269.79L362.351 265.56L362.331 264.51H363.251L363.231 265.56L363.101 269.79H362.481ZM362.781 272.14C362.421 272.14 362.131 271.85 362.131 271.44C362.131 271.02 362.421 270.74 362.781 270.74C363.151 270.74 363.451 271.02 363.451 271.44C363.451 271.85 363.151 272.14 362.781 272.14ZM366.649 272.7H376.649V262.7H366.649V272.7Z" fill="#8C8C8C"/>
<g filter="url(#filter4_d_272_1699)">
<rect x="495" y="72" width="176" height="132" rx="12" fill="#CFCFCF"/>
</g>
<path d="M495 84C495 77.3726 500.373 72 507 72H659C665.627 72 671 77.3726 671 84V95.2222H495V84Z" fill="#FFF2BF"/>
<path d="M662 84C662 83.2666 661.4 82.6666 660.667 82.6666C659.933 82.6666 659.333 83.2666 659.333 84C659.333 84.7333 659.933 85.3333 660.667 85.3333C661.4 85.3333 662 84.7333 662 84ZM652.667 84C652.667 83.2666 652.067 82.6666 651.333 82.6666C650.6 82.6666 650 83.2666 650 84C650 84.7333 650.6 85.3333 651.333 85.3333C652.067 85.3333 652.667 84.7333 652.667 84ZM657.333 84C657.333 83.2666 656.733 82.6666 656 82.6666C655.267 82.6666 654.667 83.2666 654.667 84C654.667 84.7333 655.267 85.3333 656 85.3333C656.733 85.3333 657.333 84.7333 657.333 84Z" fill="#8C8C8C"/>
<path d="M514.175 79.793H515.561V89.979H514.175V79.793ZM510.82 83.269H512.503V84.457H510.82V83.269ZM512.118 79.958H513.482V89.517H512.118V79.958ZM508.62 81.454H509.72V82.499C509.72 84.787 509.093 87.064 507.476 88.076L506.607 86.998C508.103 86.063 508.62 84.237 508.62 82.499V81.454ZM508.95 81.454H510.039V82.499C510.039 84.193 510.545 85.909 512.019 86.767L511.161 87.834C509.544 86.877 508.95 84.743 508.95 82.499V81.454ZM506.992 80.816H511.535V81.993H506.992V80.816ZM518.069 80.189H524.988V83.797H518.069V80.189ZM523.547 81.333H519.499V82.653H523.547V81.333ZM516.936 84.754H526.143V85.909H516.936V84.754ZM520.797 83.533H522.26V85.084H520.797V83.533ZM517.959 86.646H525.032V89.979H523.569V87.801H517.959V86.646ZM534.04 79.782H535.514V90.001H534.04V79.782ZM530.025 80.497C531.565 80.497 532.698 81.905 532.698 84.127C532.698 86.371 531.565 87.779 530.025 87.779C528.485 87.779 527.352 86.371 527.352 84.127C527.352 81.905 528.485 80.497 530.025 80.497ZM530.025 81.828C529.266 81.828 528.749 82.631 528.749 84.127C528.749 85.645 529.266 86.459 530.025 86.459C530.784 86.459 531.29 85.645 531.29 84.127C531.29 82.631 530.784 81.828 530.025 81.828ZM539.677 83.742H548.895V84.897H539.677V83.742ZM540.81 82.048H547.806V83.192H540.81V82.048ZM540.81 79.98H547.718V81.146H542.262V83.038H540.81V79.98ZM540.722 85.469H547.762V88.164H542.174V89.044H540.733V87.13H546.321V86.569H540.722V85.469ZM540.733 88.78H548.026V89.902H540.733V88.78ZM552.579 80.497C554.097 80.497 555.208 81.905 555.208 84.127C555.208 86.371 554.097 87.779 552.579 87.779C551.05 87.779 549.95 86.371 549.95 84.127C549.95 81.905 551.05 80.497 552.579 80.497ZM552.579 81.828C551.842 81.828 551.347 82.631 551.347 84.127C551.347 85.645 551.842 86.459 552.579 86.459C553.327 86.459 553.811 85.645 553.811 84.127C553.811 82.631 553.327 81.828 552.579 81.828ZM556.88 79.782H558.332V90.001H556.88V79.782ZM554.779 83.456H557.496V84.633H554.779V83.456ZM566.46 79.793H567.923V84.875H566.46V79.793ZM567.516 81.806H569.276V83.005H567.516V81.806ZM563.545 80.167H565.162C565.162 82.884 563.446 84.523 560.377 85.15L559.849 83.951C562.434 83.478 563.545 82.312 563.545 81.036V80.167ZM560.355 80.167H564.48V81.333H560.355V80.167ZM561.191 85.271H567.923V88.087H562.665V89.319H561.213V87.009H566.482V86.415H561.191V85.271ZM561.213 88.736H568.22V89.88H561.213V88.736ZM574.804 81.399H575.959V82.543C575.959 84.842 574.991 87.185 573.121 88.065L572.296 86.91C573.979 86.118 574.804 84.215 574.804 82.543V81.399ZM575.112 81.399H576.267V82.543C576.267 84.083 577.059 85.887 578.731 86.657L577.928 87.812C576.058 86.943 575.112 84.71 575.112 82.543V81.399ZM572.692 80.772H578.28V81.971H572.692V80.772ZM579.028 79.793H580.502V89.979H579.028V79.793ZM580.172 83.676H581.976V84.886H580.172V83.676ZM589.653 79.782H591.116V90.001H589.653V79.782ZM583.185 86.437H584.087C585.891 86.437 587.332 86.371 588.949 86.096L589.092 87.273C587.442 87.57 585.946 87.625 584.087 87.625H583.185V86.437ZM583.174 80.651H587.981V84.589H584.67V86.877H583.185V83.434H586.485V81.817H583.174V80.651ZM596.824 83.544H598.496V84.721H596.824V83.544ZM600.113 79.793H601.51V89.979H600.113V79.793ZM598.034 79.947H599.409V89.517H598.034V79.947ZM595.042 80.508C596.395 80.508 597.264 81.905 597.264 84.204C597.264 86.514 596.395 87.911 595.042 87.911C593.7 87.911 592.842 86.514 592.842 84.204C592.842 81.905 593.7 80.508 595.042 80.508ZM595.042 81.883C594.492 81.883 594.173 82.653 594.173 84.204C594.173 85.766 594.492 86.525 595.042 86.525C595.614 86.525 595.933 85.766 595.933 84.204C595.933 82.653 595.614 81.883 595.042 81.883ZM604.908 84.963H606.36V87.823H604.908V84.963ZM608.604 84.963H610.067V87.823H608.604V84.963ZM602.884 87.614H612.102V88.802H602.884V87.614ZM607.482 80.288C609.671 80.288 611.288 81.366 611.288 83.027C611.288 84.688 609.671 85.755 607.482 85.755C605.282 85.755 603.676 84.688 603.676 83.027C603.676 81.366 605.282 80.288 607.482 80.288ZM607.482 81.432C606.063 81.432 605.117 82.015 605.117 83.027C605.117 84.028 606.063 84.622 607.482 84.622C608.901 84.622 609.847 84.028 609.847 83.027C609.847 82.015 608.901 81.432 607.482 81.432ZM614.059 86.228L613.817 82.169L613.773 80.64H615.39L615.346 82.169L615.115 86.228H614.059ZM614.576 89.154C614.004 89.154 613.575 88.703 613.575 88.098C613.575 87.493 614.004 87.053 614.576 87.053C615.159 87.053 615.588 87.493 615.588 88.098C615.588 88.703 615.159 89.154 614.576 89.154Z" fill="#8C8C8C"/>
<path d="M513.711 103.74H514.511V112.78H513.711V103.74ZM512.191 107.42H513.931V108.1H512.191V107.42ZM511.661 103.94H512.441V112.32H511.661V103.94ZM507.281 104.83H508.111V110.05H507.281V104.83ZM507.281 109.72H507.861C508.791 109.72 509.831 109.66 511.011 109.43L511.101 110.15C509.871 110.39 508.831 110.44 507.861 110.44H507.281V109.72ZM518.06 106.8H518.88V108.51H518.06V106.8ZM521.38 106.8H522.2V108.51H521.38V106.8ZM516.04 108.21H524.21V108.88H516.04V108.21ZM520.12 109.56C522.06 109.56 523.22 110.13 523.22 111.16C523.22 112.19 522.06 112.77 520.12 112.77C518.18 112.77 517.02 112.19 517.02 111.16C517.02 110.13 518.18 109.56 520.12 109.56ZM520.12 110.2C518.71 110.2 517.86 110.55 517.86 111.16C517.86 111.78 518.71 112.12 520.12 112.12C521.54 112.12 522.38 111.78 522.38 111.16C522.38 110.55 521.54 110.2 520.12 110.2ZM520.13 103.9C522.09 103.9 523.31 104.53 523.31 105.59C523.31 106.64 522.09 107.26 520.13 107.26C518.16 107.26 516.95 106.64 516.95 105.59C516.95 104.53 518.16 103.9 520.13 103.9ZM520.13 104.55C518.69 104.55 517.8 104.93 517.8 105.59C517.8 106.24 518.69 106.62 520.13 106.62C521.57 106.62 522.46 106.24 522.46 105.59C522.46 104.93 521.57 104.55 520.13 104.55ZM531.809 103.73H532.639V112.79H531.809V103.73ZM527.869 104.43C529.209 104.43 530.169 105.66 530.169 107.58C530.169 109.51 529.209 110.74 527.869 110.74C526.539 110.74 525.579 109.51 525.579 107.58C525.579 105.66 526.539 104.43 527.869 104.43ZM527.869 105.18C526.989 105.18 526.369 106.12 526.369 107.58C526.369 109.05 526.989 110.01 527.869 110.01C528.759 110.01 529.369 109.05 529.369 107.58C529.369 106.12 528.759 105.18 527.869 105.18ZM536.685 107.51H544.855V108.19H536.685V107.51ZM537.765 106.11H543.885V106.78H537.765V106.11ZM537.765 104.03H543.785V104.71H538.585V106.65H537.765V104.03ZM537.665 108.97H543.805V111.1H538.505V112.24H537.685V110.48H542.985V109.62H537.665V108.97ZM537.685 112.02H544.075V112.68H537.685V112.02ZM548.294 104.43C549.604 104.43 550.544 105.66 550.544 107.58C550.544 109.51 549.604 110.74 548.294 110.74C546.974 110.74 546.044 109.51 546.044 107.58C546.044 105.66 546.974 104.43 548.294 104.43ZM548.294 105.18C547.424 105.18 546.834 106.12 546.834 107.58C546.834 109.05 547.424 110.01 548.294 110.01C549.164 110.01 549.754 109.05 549.754 107.58C549.754 106.12 549.164 105.18 548.294 105.18ZM552.504 103.73H553.324V112.79H552.504V103.73ZM550.274 107.18H552.864V107.86H550.274V107.18ZM561.263 103.74H562.093V108.63H561.263V103.74ZM561.863 105.87H563.433V106.57H561.863V105.87ZM558.753 104.28H559.653C559.653 106.56 558.053 108.09 555.413 108.74L555.093 108.06C557.433 107.5 558.753 106.27 558.753 104.69V104.28ZM555.493 104.28H559.253V104.96H555.493V104.28ZM556.383 109.04H557.203V110.17H561.273V109.04H562.093V112.66H556.383V109.04ZM557.203 110.83V111.99H561.273V110.83H557.203ZM570.852 103.74H571.682V112.78H570.852V103.74ZM564.852 104.62H565.672V110.22H564.852V104.62ZM564.852 109.73H565.592C566.962 109.73 568.392 109.63 569.922 109.31L570.022 110.02C568.452 110.34 567.022 110.45 565.592 110.45H564.852V109.73ZM579.591 103.73H580.431V112.79H579.591V103.73ZM580.231 107.3H581.911V108H580.231V107.3ZM573.861 109.84H574.571C576.241 109.84 577.411 109.78 578.761 109.53L578.851 110.23C577.461 110.49 576.271 110.54 574.571 110.54H573.861V109.84ZM573.861 104.61H578.061V105.29H574.681V110.15H573.861V104.61ZM583.481 109.79L583.351 105.56L583.331 104.51H584.251L584.231 105.56L584.101 109.79H583.481ZM583.781 112.14C583.421 112.14 583.131 111.85 583.131 111.44C583.131 111.02 583.421 110.74 583.781 110.74C584.151 110.74 584.451 111.02 584.451 111.44C584.451 111.85 584.151 112.14 583.781 112.14ZM587.649 112.7H597.649V102.7H587.649V112.7Z" fill="#8C8C8C"/>
<path d="M610.479 188.49H611.309V189.86H610.479V188.49ZM610.869 185.15C612.179 185.15 613.099 185.87 613.099 186.94C613.099 188.01 612.179 188.72 610.869 188.72C609.569 188.72 608.649 188.01 608.649 186.94C608.649 185.87 609.569 185.15 610.869 185.15ZM610.869 185.79C610.019 185.79 609.429 186.26 609.429 186.94C609.429 187.63 610.019 188.09 610.869 188.09C611.729 188.09 612.319 187.63 612.319 186.94C612.319 186.26 611.729 185.79 610.869 185.79ZM614.319 184.75H615.149V191.66H614.319V184.75ZM614.799 187.8H616.469V188.49H614.799V187.8ZM609.429 192.89H615.469V193.58H609.429V192.89ZM609.429 191.07H610.259V193.19H609.429V191.07ZM608.239 190.32L608.129 189.64C609.719 189.64 611.919 189.62 613.759 189.34L613.819 189.95C611.929 190.3 609.789 190.32 608.239 190.32ZM619.629 190.04H620.449V192.26H619.629V190.04ZM622.519 190.02H623.329V192.25H622.519V190.02ZM617.349 191.98H625.539V192.67H617.349V191.98ZM618.339 185.41H624.529V188.14H619.189V189.96H618.369V187.48H623.709V186.08H618.339V185.41ZM618.369 189.59H624.739V190.27H618.369V189.59ZM631.164 185.52H631.844V187.14C631.844 189.22 630.724 191.15 629.244 191.9L628.734 191.22C630.074 190.58 631.164 188.85 631.164 187.14V185.52ZM631.304 185.52H631.984V187.14C631.984 188.79 633.064 190.45 634.404 191.07L633.904 191.73C632.434 191.01 631.304 189.15 631.304 187.14V185.52ZM635.344 184.73H636.174V193.79H635.344V184.73ZM643.9 188.31H645.61V188.99H643.9V188.31ZM642.06 187.05H642.7V187.52C642.7 189.32 641.95 191.14 640.63 191.93L640.14 191.3C641.36 190.59 642.06 189 642.06 187.52V187.05ZM642.21 187.05H642.85V187.52C642.85 188.96 643.57 190.45 644.79 191.11L644.32 191.73C642.99 190.99 642.21 189.28 642.21 187.52V187.05ZM640.39 186.4H644.52V187.09H640.39V186.4ZM642.06 185.06H642.86V186.93H642.06V185.06ZM647.09 184.74H647.89V193.78H647.09V184.74ZM645.28 184.95H646.06V193.32H645.28V184.95ZM650.389 185.66H656.129V186.34H650.389V185.66ZM649.419 191.83H657.589V192.53H649.419V191.83ZM655.769 185.66H656.579V186.77C656.579 188.1 656.579 189.33 656.199 191.18L655.379 191.1C655.769 189.36 655.769 188.07 655.769 186.77V185.66ZM655.979 188.16V188.78L650.269 189.09L650.149 188.4L655.979 188.16ZM659.418 190.79L659.288 186.56L659.268 185.51H660.188L660.168 186.56L660.038 190.79H659.418ZM659.718 193.14C659.358 193.14 659.068 192.85 659.068 192.44C659.068 192.02 659.358 191.74 659.718 191.74C660.088 191.74 660.388 192.02 660.388 192.44C660.388 192.85 660.088 193.14 659.718 193.14Z" fill="#8C8C8C"/>
<rect x="593.5" y="184.5" width="9" height="9" rx="2.5" fill="white" stroke="#8C8C8C"/>
<rect width="724" height="48" fill="#CFCFCF"/>
<path d="M343.514 33.308C340.588 33.308 339.466 31.46 339.466 28.71V23.232H337.75V20.834L339.664 20.702L340.016 17.358H342.7V20.702H345.758V23.232H342.7V28.71C342.7 30.118 343.294 30.778 344.372 30.778C344.79 30.778 345.252 30.624 345.604 30.492L346.132 32.846C345.472 33.066 344.614 33.308 343.514 33.308ZM352.897 33.308C349.795 33.308 346.979 30.932 346.979 26.862C346.979 22.77 349.795 20.394 352.897 20.394C355.977 20.394 358.793 22.77 358.793 26.862C358.793 30.932 355.977 33.308 352.897 33.308ZM352.897 30.69C354.569 30.69 355.493 29.172 355.493 26.862C355.493 24.53 354.569 23.034 352.897 23.034C351.203 23.034 350.279 24.53 350.279 26.862C350.279 29.172 351.203 30.69 352.897 30.69ZM365.854 33.308C362.774 33.308 360.794 30.91 360.794 26.862C360.794 22.836 363.324 20.394 365.964 20.394C367.35 20.394 368.208 20.9 369.11 21.714L368.978 19.778V15.466H372.212V33H369.572L369.33 31.724H369.264C368.362 32.626 367.13 33.308 365.854 33.308ZM366.668 30.646C367.548 30.646 368.274 30.294 368.978 29.392V23.98C368.252 23.298 367.46 23.034 366.69 23.034C365.304 23.034 364.116 24.354 364.116 26.818C364.116 29.392 365.062 30.646 366.668 30.646ZM380.826 33.308C377.724 33.308 374.908 30.932 374.908 26.862C374.908 22.77 377.724 20.394 380.826 20.394C383.906 20.394 386.722 22.77 386.722 26.862C386.722 30.932 383.906 33.308 380.826 33.308ZM380.826 30.69C382.498 30.69 383.422 29.172 383.422 26.862C383.422 24.53 382.498 23.034 380.826 23.034C379.132 23.034 378.208 24.53 378.208 26.862C378.208 29.172 379.132 30.69 380.826 30.69Z" fill="white"/>
<path d="M17.293 16.8284H32.593V18.587H17.293V16.8284ZM17.293 22.9835H32.593V24.7422H17.293V22.9835ZM17.293 29.1387H32.593V30.8973H17.293V29.1387Z" fill="#8C8C8C"/>
<path d="M423.515 348.49H424.345V349.86H423.515V348.49ZM423.905 345.15C425.215 345.15 426.135 345.87 426.135 346.94C426.135 348.01 425.215 348.72 423.905 348.72C422.605 348.72 421.685 348.01 421.685 346.94C421.685 345.87 422.605 345.15 423.905 345.15ZM423.905 345.79C423.055 345.79 422.465 346.26 422.465 346.94C422.465 347.63 423.055 348.09 423.905 348.09C424.765 348.09 425.355 347.63 425.355 346.94C425.355 346.26 424.765 345.79 423.905 345.79ZM427.355 344.75H428.185V351.66H427.355V344.75ZM427.835 347.8H429.505V348.49H427.835V347.8ZM422.465 352.89H428.505V353.58H422.465V352.89ZM422.465 351.07H423.295V353.19H422.465V351.07ZM421.275 350.32L421.165 349.64C422.755 349.64 424.955 349.62 426.795 349.34L426.855 349.95C424.965 350.3 422.825 350.32 421.275 350.32ZM432.664 350.04H433.484V352.26H432.664V350.04ZM435.554 350.02H436.364V352.25H435.554V350.02ZM430.384 351.98H438.574V352.67H430.384V351.98ZM431.374 345.41H437.564V348.14H432.224V349.96H431.404V347.48H436.744V346.08H431.374V345.41ZM431.404 349.59H437.774V350.27H431.404V349.59ZM440.383 350.79L440.253 346.56L440.233 345.51H441.153L441.133 346.56L441.003 350.79H440.383ZM440.683 353.14C440.323 353.14 440.033 352.85 440.033 352.44C440.033 352.02 440.323 351.74 440.683 351.74C441.053 351.74 441.353 352.02 441.353 352.44C441.353 352.85 441.053 353.14 440.683 353.14Z" fill="#8C8C8C"/>
<path d="M409 349L411.667 353L417 345" stroke="#8C8C8C"/>
<g filter="url(#filter5_d_272_1699)">
<rect x="142" y="89" width="80" height="49" rx="10" fill="white"/>
<path d="M173.076 106V98.6H177.616V99.83H174.556V101.54H177.146V102.79H174.556V104.76H177.726V106H173.076ZM180.912 106.14C179.512 106.14 178.612 105.05 178.612 103.21C178.612 101.38 179.762 100.27 180.962 100.27C181.592 100.27 181.982 100.5 182.392 100.87L182.332 99.99V98.03H183.802V106H182.602L182.492 105.42H182.462C182.052 105.83 181.492 106.14 180.912 106.14ZM181.282 104.93C181.682 104.93 182.012 104.77 182.332 104.36V101.9C182.002 101.59 181.642 101.47 181.292 101.47C180.662 101.47 180.122 102.07 180.122 103.19C180.122 104.36 180.552 104.93 181.282 104.93ZM185.378 106V100.41H186.848V106H185.378ZM186.108 99.5C185.598 99.5 185.258 99.18 185.258 98.69C185.258 98.21 185.598 97.9 186.108 97.9C186.618 97.9 186.968 98.21 186.968 98.69C186.968 99.18 186.618 99.5 186.108 99.5ZM190.455 106.14C189.125 106.14 188.615 105.3 188.615 104.05V101.56H187.835V100.47L188.705 100.41L188.865 98.89H190.085V100.41H191.475V101.56H190.085V104.05C190.085 104.69 190.355 104.99 190.845 104.99C191.035 104.99 191.245 104.92 191.405 104.86L191.645 105.93C191.345 106.03 190.955 106.14 190.455 106.14Z" fill="#8C8C8C"/>
<path d="M167.148 128V120.6H169.178C171.438 120.6 172.828 121.77 172.828 124.27C172.828 126.76 171.438 128 169.258 128H167.148ZM168.628 126.81H169.078C170.468 126.81 171.318 126.07 171.318 124.27C171.318 122.47 170.468 121.78 169.078 121.78H168.628V126.81ZM176.607 128.14C175.037 128.14 173.817 127.06 173.817 125.21C173.817 123.39 175.097 122.27 176.417 122.27C177.967 122.27 178.757 123.39 178.757 124.94C178.757 125.22 178.727 125.48 178.697 125.62H175.237C175.367 126.54 175.967 127.01 176.797 127.01C177.247 127.01 177.647 126.87 178.057 126.62L178.547 127.53C177.997 127.91 177.297 128.14 176.607 128.14ZM175.217 124.64H177.507C177.507 123.88 177.167 123.4 176.447 123.4C175.857 123.4 175.337 123.82 175.217 124.64ZM181.358 128.14C180.328 128.14 179.978 127.47 179.978 126.43V120.03H181.448V126.49C181.448 126.84 181.598 126.95 181.738 126.95C181.788 126.95 181.827 126.95 181.928 126.93L182.108 128.02C181.938 128.08 181.708 128.14 181.358 128.14ZM185.572 128.14C184.002 128.14 182.782 127.06 182.782 125.21C182.782 123.39 184.062 122.27 185.382 122.27C186.932 122.27 187.722 123.39 187.722 124.94C187.722 125.22 187.692 125.48 187.662 125.62H184.202C184.332 126.54 184.932 127.01 185.762 127.01C186.212 127.01 186.612 126.87 187.022 126.62L187.512 127.53C186.962 127.91 186.262 128.14 185.572 128.14ZM184.182 124.64H186.472C186.472 123.88 186.132 123.4 185.412 123.4C184.822 123.4 184.302 123.82 184.182 124.64ZM190.816 128.14C189.486 128.14 188.976 127.3 188.976 126.05V123.56H188.196V122.47L189.066 122.41L189.226 120.89H190.446V122.41H191.836V123.56H190.446V126.05C190.446 126.69 190.716 126.99 191.206 126.99C191.396 126.99 191.606 126.92 191.766 126.86L192.006 127.93C191.706 128.03 191.316 128.14 190.816 128.14ZM195.181 128.14C193.611 128.14 192.391 127.06 192.391 125.21C192.391 123.39 193.671 122.27 194.991 122.27C196.541 122.27 197.331 123.39 197.331 124.94C197.331 125.22 197.301 125.48 197.271 125.62H193.811C193.941 126.54 194.541 127.01 195.371 127.01C195.821 127.01 196.221 126.87 196.631 126.62L197.121 127.53C196.571 127.91 195.871 128.14 195.181 128.14ZM193.791 124.64H196.081C196.081 123.88 195.741 123.4 195.021 123.4C194.431 123.4 193.911 123.82 193.791 124.64Z" fill="#8C8C8C"/>
<line x1="142" y1="112.5" x2="222" y2="112.5" stroke="#8C8C8C"/>
</g>
<path d="M0 0H724V400H0V0Z" fill="#36332E" fill-opacity="0.5"/>
<g filter="url(#filter6_d_272_1699)">
<rect x="264" y="131" width="196" height="147" rx="10" fill="white"/>
</g>
<path d="M312.795 191.257H314.731V192.445H312.795V191.257ZM314.335 188.793H315.798V194.843H314.335V188.793ZM312.344 195.063C314.5 195.063 315.831 195.8 315.831 197.032C315.831 198.275 314.5 198.99 312.344 198.99C310.188 198.99 308.857 198.275 308.857 197.032C308.857 195.8 310.188 195.063 312.344 195.063ZM312.344 196.174C311.024 196.174 310.32 196.449 310.32 197.032C310.32 197.604 311.024 197.879 312.344 197.879C313.675 197.879 314.379 197.604 314.379 197.032C314.379 196.449 313.675 196.174 312.344 196.174ZM309.627 189.816H310.815V190.454C310.815 192.401 309.913 194.183 307.966 194.843L307.218 193.688C308.901 193.116 309.627 191.763 309.627 190.454V189.816ZM309.935 189.816H311.112V190.454C311.112 191.653 311.805 192.896 313.411 193.435L312.696 194.59C310.804 193.963 309.935 192.269 309.935 190.454V189.816ZM307.614 189.409H313.092V190.575H307.614V189.409ZM323.948 188.793H325.411V193.875H323.948V188.793ZM324.817 190.74H326.753V191.939H324.817V190.74ZM317.689 189.266H322.54V193.501H317.689V189.266ZM321.099 190.41H319.13V192.357H321.099V190.41ZM318.679 194.282H325.411V197.076H320.153V198.286H318.701V196.02H323.97V195.404H318.679V194.282ZM318.701 197.725H325.708V198.869H318.701V197.725ZM332.291 189.321H333.479V190.245C333.479 192.203 332.599 193.919 330.63 194.568L329.893 193.402C331.587 192.863 332.291 191.565 332.291 190.245V189.321ZM332.588 189.321H333.765V190.377C333.765 191.598 334.447 192.786 336.053 193.292L335.338 194.436C333.446 193.831 332.588 192.214 332.588 190.377V189.321ZM336.559 188.793H338.022V194.942H336.559V188.793ZM337.615 191.268H339.375V192.478H337.615V191.268ZM331.224 195.371H338.022V198.979H336.559V196.548H331.224V195.371ZM347.482 188.793H348.868V198.979H347.482V188.793ZM344.127 192.269H345.81V193.457H344.127V192.269ZM345.425 188.958H346.789V198.517H345.425V188.958ZM341.927 190.454H343.027V191.499C343.027 193.787 342.4 196.064 340.783 197.076L339.914 195.998C341.41 195.063 341.927 193.237 341.927 191.499V190.454ZM342.257 190.454H343.346V191.499C343.346 193.193 343.852 194.909 345.326 195.767L344.468 196.834C342.851 195.877 342.257 193.743 342.257 191.499V190.454ZM340.299 189.816H344.842V190.993H340.299V189.816ZM356.776 188.793H358.228V198.979H356.776V188.793ZM357.898 192.764H359.702V193.985H357.898V192.764ZM350.198 190.3H356.127V191.466H350.198V190.3ZM353.179 192.038C354.664 192.038 355.764 193.05 355.764 194.469C355.764 195.888 354.664 196.9 353.179 196.9C351.694 196.9 350.594 195.888 350.594 194.469C350.594 193.05 351.694 192.038 353.179 192.038ZM353.179 193.226C352.486 193.226 351.991 193.688 351.991 194.469C351.991 195.25 352.486 195.712 353.179 195.712C353.872 195.712 354.367 195.25 354.367 194.469C354.367 193.688 353.872 193.226 353.179 193.226ZM352.442 188.958H353.905V190.74H352.442V188.958ZM362.847 189.574H364.035V191.059C364.035 193.677 363.133 196.042 361.109 196.977L360.24 195.767C362.011 194.997 362.847 193.039 362.847 191.059V189.574ZM363.133 189.574H364.321V191.059C364.321 192.94 365.124 194.81 366.862 195.558L366.004 196.735C364.035 195.833 363.133 193.567 363.133 191.059V189.574ZM367.346 188.782H368.82V199.001H367.346V188.782ZM373.472 189.486H374.946C374.946 192.06 373.802 193.798 371.195 194.876L370.48 193.809C372.603 192.973 373.472 191.741 373.472 190.014V189.486ZM371.008 189.486H374.044V190.663H371.008V189.486ZM377.773 188.793H379.159V194.579H377.773V188.793ZM373.758 191.444H375.914V192.599H373.758V191.444ZM375.705 188.991H377.069V194.447H375.705V188.991ZM372.834 194.898H373.923V195.349C373.923 196.9 373.241 198.319 371.646 198.902L370.931 197.835C372.262 197.373 372.834 196.35 372.834 195.349V194.898ZM373.197 194.898H374.242V195.349C374.242 196.35 374.737 197.395 375.991 197.923L375.397 198.99C373.78 198.385 373.197 196.856 373.197 195.349V194.898ZM376.53 194.898H377.575V195.349C377.575 196.768 376.981 198.363 375.397 198.99L374.781 197.923C376.035 197.351 376.53 196.251 376.53 195.349V194.898ZM376.871 194.898H377.971V195.349C377.971 196.416 378.532 197.417 379.863 197.835L379.159 198.902C377.542 198.341 376.871 196.966 376.871 195.349V194.898ZM381.677 194.898H383.118V195.756H387.199V194.898H388.651V198.869H381.677V194.898ZM383.118 196.845V197.725H387.199V196.845H383.118ZM380.599 193.237H389.806V194.392H380.599V193.237ZM384.46 188.903H385.714V189.211C385.714 190.982 384.196 192.445 381.567 192.786L381.05 191.653C383.349 191.378 384.46 190.245 384.46 189.211V188.903ZM384.702 188.903H385.956V189.211C385.956 190.234 387.067 191.378 389.355 191.653L388.838 192.786C386.209 192.445 384.702 190.971 384.702 189.211V188.903ZM397.769 188.793H399.232V198.979H397.769V188.793ZM391.257 189.761H392.709V196.086H391.257V189.761ZM391.257 195.228H392.159C393.644 195.228 395.294 195.118 396.977 194.788L397.142 195.998C395.393 196.361 393.71 196.471 392.159 196.471H391.257V195.228ZM407.47 188.793H408.933V198.979H407.47V188.793ZM408.482 192.775H410.253V193.985H408.482V192.775ZM402.476 189.827H403.84C403.84 192.654 403.576 194.821 401.772 196.845L400.628 196.02C402.201 194.282 402.476 192.588 402.476 190.003V189.827ZM401.079 189.827H403.048V191.015H401.079V189.827ZM405.281 189.827H406.645C406.645 192.786 406.403 195.283 404.632 197.494L403.488 196.68C405.028 194.733 405.281 192.775 405.281 189.992V189.827ZM404.181 189.827H405.886V191.015H404.181V189.827ZM412.453 195.228C412.189 193.457 414.07 192.753 414.07 191.708C414.07 191.147 413.707 190.806 413.135 190.806C412.651 190.806 412.266 191.048 411.903 191.422L411.012 190.597C411.584 189.948 412.365 189.497 413.322 189.497C414.653 189.497 415.621 190.179 415.621 191.598C415.621 193.16 413.707 193.677 413.872 195.228H412.453ZM413.168 198.154C412.585 198.154 412.167 197.703 412.167 197.098C412.167 196.493 412.585 196.053 413.168 196.053C413.74 196.053 414.18 196.493 414.18 197.098C414.18 197.703 413.74 198.154 413.168 198.154Z" fill="#8C8C8C"/>
<rect x="277.5" y="232.5" width="76.7563" height="23.7406" rx="11.8703" fill="white" stroke="#8C8C8C"/>
<rect x="369.482" y="232" width="77.7563" height="24.7406" rx="12.3703" fill="#8C8C8C"/>
<path d="M303.122 247.263C301.252 247.263 299.742 245.923 299.742 243.453C299.742 241.013 301.302 239.593 303.182 239.593C304.122 239.593 304.872 240.033 305.352 240.533L304.572 241.483C304.192 241.113 303.772 240.863 303.202 240.863C302.092 240.863 301.252 241.823 301.252 243.403C301.252 245.023 302.002 245.983 303.182 245.983C303.812 245.983 304.312 245.683 304.702 245.253L305.482 246.183C304.872 246.893 304.082 247.263 303.122 247.263ZM307.924 247.263C306.924 247.263 306.274 246.563 306.274 245.603C306.274 244.413 307.244 243.783 309.494 243.533C309.464 242.983 309.234 242.573 308.544 242.573C308.024 242.573 307.514 242.793 307.004 243.103L306.474 242.123C307.134 241.723 307.924 241.393 308.814 241.393C310.234 241.393 310.964 242.233 310.964 243.863V247.123H309.764L309.654 246.533H309.614C309.124 246.953 308.564 247.263 307.924 247.263ZM308.404 246.113C308.824 246.113 309.134 245.923 309.494 245.573V244.443C308.124 244.613 307.674 244.983 307.674 245.493C307.674 245.923 307.974 246.113 308.404 246.113ZM312.462 247.123V241.533H313.652L313.772 242.273H313.802C314.282 241.793 314.862 241.393 315.622 241.393C316.822 241.393 317.352 242.233 317.352 243.633V247.123H315.882V243.823C315.882 242.943 315.632 242.653 315.092 242.653C314.632 242.653 314.342 242.873 313.932 243.273V247.123H312.462ZM321.239 247.263C319.699 247.263 318.519 246.183 318.519 244.333C318.519 242.473 319.849 241.393 321.369 241.393C322.069 241.393 322.589 241.653 322.999 242.013L322.309 242.953C322.029 242.713 321.759 242.593 321.459 242.593C320.589 242.593 320.019 243.273 320.019 244.333C320.019 245.383 320.599 246.073 321.399 246.073C321.809 246.073 322.189 245.873 322.499 245.623L323.079 246.593C322.549 247.053 321.859 247.263 321.239 247.263ZM326.23 247.263C324.66 247.263 323.44 246.183 323.44 244.333C323.44 242.513 324.72 241.393 326.04 241.393C327.59 241.393 328.38 242.513 328.38 244.063C328.38 244.343 328.35 244.603 328.32 244.743H324.86C324.99 245.663 325.59 246.133 326.42 246.133C326.87 246.133 327.27 245.993 327.68 245.743L328.17 246.653C327.62 247.033 326.92 247.263 326.23 247.263ZM324.84 243.763H327.13C327.13 243.003 326.79 242.523 326.07 242.523C325.48 242.523 324.96 242.943 324.84 243.763ZM330.981 247.263C329.951 247.263 329.601 246.593 329.601 245.553V239.153H331.071V245.613C331.071 245.963 331.221 246.073 331.361 246.073C331.411 246.073 331.451 246.073 331.551 246.053L331.731 247.143C331.561 247.203 331.331 247.263 330.981 247.263Z" fill="#8C8C8C"/>
<path d="M396.373 247.853C394.503 247.853 392.993 246.513 392.993 244.043C392.993 241.603 394.553 240.183 396.433 240.183C397.373 240.183 398.123 240.623 398.603 241.123L397.823 242.073C397.443 241.703 397.023 241.453 396.453 241.453C395.343 241.453 394.503 242.413 394.503 243.993C394.503 245.613 395.253 246.573 396.433 246.573C397.063 246.573 397.563 246.273 397.953 245.843L398.733 246.773C398.123 247.483 397.333 247.853 396.373 247.853ZM399.805 247.713V242.123H400.995L401.115 243.113H401.145C401.545 242.373 402.155 241.983 402.735 241.983C403.035 241.983 403.215 242.023 403.385 242.103L403.135 243.363C402.935 243.313 402.785 243.273 402.545 243.273C402.115 243.273 401.585 243.573 401.275 244.383V247.713H399.805ZM406.445 247.853C404.875 247.853 403.655 246.773 403.655 244.923C403.655 243.103 404.935 241.983 406.255 241.983C407.805 241.983 408.595 243.103 408.595 244.653C408.595 244.933 408.565 245.193 408.535 245.333H405.075C405.205 246.253 405.805 246.723 406.635 246.723C407.085 246.723 407.485 246.583 407.895 246.333L408.385 247.243C407.835 247.623 407.135 247.853 406.445 247.853ZM405.055 244.353H407.345C407.345 243.593 407.005 243.113 406.285 243.113C405.695 243.113 405.175 243.533 405.055 244.353ZM410.99 247.853C409.99 247.853 409.34 247.153 409.34 246.193C409.34 245.003 410.31 244.373 412.56 244.123C412.53 243.573 412.3 243.163 411.61 243.163C411.09 243.163 410.58 243.383 410.07 243.693L409.54 242.713C410.2 242.313 410.99 241.983 411.88 241.983C413.3 241.983 414.03 242.823 414.03 244.453V247.713H412.83L412.72 247.123H412.68C412.19 247.543 411.63 247.853 410.99 247.853ZM411.47 246.703C411.89 246.703 412.2 246.513 412.56 246.163V245.033C411.19 245.203 410.74 245.573 410.74 246.083C410.74 246.513 411.04 246.703 411.47 246.703ZM417.324 247.853C415.994 247.853 415.484 247.013 415.484 245.763V243.273H414.704V242.183L415.574 242.123L415.734 240.603H416.954V242.123H418.344V243.273H416.954V245.763C416.954 246.403 417.224 246.703 417.714 246.703C417.904 246.703 418.114 246.633 418.274 246.573L418.514 247.643C418.214 247.743 417.824 247.853 417.324 247.853ZM421.689 247.853C420.119 247.853 418.899 246.773 418.899 244.923C418.899 243.103 420.179 241.983 421.499 241.983C423.049 241.983 423.839 243.103 423.839 244.653C423.839 244.933 423.809 245.193 423.779 245.333H420.319C420.449 246.253 421.049 246.723 421.879 246.723C422.329 246.723 422.729 246.583 423.139 246.333L423.629 247.243C423.079 247.623 422.379 247.853 421.689 247.853ZM420.299 244.353H422.589C422.589 243.593 422.249 243.113 421.529 243.113C420.939 243.113 420.419 243.533 420.299 244.353Z" fill="white"/>
<defs>
<filter id="filter0_d_272_1699" x="46" y="65" width="196" height="152" filterUnits="userSpaceOnUse" color-interpolation-filters="sRGB">
<feFlood flood-opacity="0" result="BackgroundImageFix"/>
<feColorMatrix in="SourceAlpha" type="matrix" values="0 0 0 0 0 0 0 0 0 0 0 0 0 0 0 0 0 0 127 0" result="hardAlpha"/>
<feMorphology radius="2" operator="erode" in="SourceAlpha" result="effect1_dropShadow_272_1699"/>
<feOffset dx="3" dy="3"/>
<feGaussianBlur stdDeviation="6"/>
<feComposite in2="hardAlpha" operator="out"/>
<feColorMatrix type="matrix" values="0 0 0 0 0 0 0 0 0 0 0 0 0 0 0 0 0 0 0.25 0"/>
<feBlend mode="normal" in2="BackgroundImageFix" result="effect1_dropShadow_272_1699"/>
<feBlend mode="normal" in="SourceGraphic" in2="effect1_dropShadow_272_1699" result="shape"/>
</filter>
<filter id="filter1_d_272_1699" x="267" y="65" width="196" height="152" filterUnits="userSpaceOnUse" color-interpolation-filters="sRGB">
<feFlood flood-opacity="0" result="BackgroundImageFix"/>
<feColorMatrix in="SourceAlpha" type="matrix" values="0 0 0 0 0 0 0 0 0 0 0 0 0 0 0 0 0 0 127 0" result="hardAlpha"/>
<feMorphology radius="2" operator="erode" in="SourceAlpha" result="effect1_dropShadow_272_1699"/>
<feOffset dx="3" dy="3"/>
<feGaussianBlur stdDeviation="6"/>
<feComposite in2="hardAlpha" operator="out"/>
<feColorMatrix type="matrix" values="0 0 0 0 0 0 0 0 0 0 0 0 0 0 0 0 0 0 0.25 0"/>
<feBlend mode="normal" in2="BackgroundImageFix" result="effect1_dropShadow_272_1699"/>
<feBlend mode="normal" in="SourceGraphic" in2="effect1_dropShadow_272_1699" result="shape"/>
</filter>
<filter id="filter2_d_272_1699" x="46" y="225" width="196" height="152" filterUnits="userSpaceOnUse" color-interpolation-filters="sRGB">
<feFlood flood-opacity="0" result="BackgroundImageFix"/>
<feColorMatrix in="SourceAlpha" type="matrix" values="0 0 0 0 0 0 0 0 0 0 0 0 0 0 0 0 0 0 127 0" result="hardAlpha"/>
<feMorphology radius="2" operator="erode" in="SourceAlpha" result="effect1_dropShadow_272_1699"/>
<feOffset dx="3" dy="3"/>
<feGaussianBlur stdDeviation="6"/>
<feComposite in2="hardAlpha" operator="out"/>
<feColorMatrix type="matrix" values="0 0 0 0 0 0 0 0 0 0 0 0 0 0 0 0 0 0 0.25 0"/>
<feBlend mode="normal" in2="BackgroundImageFix" result="effect1_dropShadow_272_1699"/>
<feBlend mode="normal" in="SourceGraphic" in2="effect1_dropShadow_272_1699" result="shape"/>
</filter>
<filter id="filter3_d_272_1699" x="267" y="225" width="196" height="152" filterUnits="userSpaceOnUse" color-interpolation-filters="sRGB">
<feFlood flood-opacity="0" result="BackgroundImageFix"/>
<feColorMatrix in="SourceAlpha" type="matrix" values="0 0 0 0 0 0 0 0 0 0 0 0 0 0 0 0 0 0 127 0" result="hardAlpha"/>
<feMorphology radius="2" operator="erode" in="SourceAlpha" result="effect1_dropShadow_272_1699"/>
<feOffset dx="3" dy="3"/>
<feGaussianBlur stdDeviation="6"/>
<feComposite in2="hardAlpha" operator="out"/>
<feColorMatrix type="matrix" values="0 0 0 0 0 0 0 0 0 0 0 0 0 0 0 0 0 0 0.25 0"/>
<feBlend mode="normal" in2="BackgroundImageFix" result="effect1_dropShadow_272_1699"/>
<feBlend mode="normal" in="SourceGraphic" in2="effect1_dropShadow_272_1699" result="shape"/>
</filter>
<filter id="filter4_d_272_1699" x="488" y="65" width="196" height="152" filterUnits="userSpaceOnUse" color-interpolation-filters="sRGB">
<feFlood flood-opacity="0" result="BackgroundImageFix"/>
<feColorMatrix in="SourceAlpha" type="matrix" values="0 0 0 0 0 0 0 0 0 0 0 0 0 0 0 0 0 0 127 0" result="hardAlpha"/>
<feMorphology radius="2" operator="erode" in="SourceAlpha" result="effect1_dropShadow_272_1699"/>
<feOffset dx="3" dy="3"/>
<feGaussianBlur stdDeviation="6"/>
<feComposite in2="hardAlpha" operator="out"/>
<feColorMatrix type="matrix" values="0 0 0 0 0 0 0 0 0 0 0 0 0 0 0 0 0 0 0.25 0"/>
<feBlend mode="normal" in2="BackgroundImageFix" result="effect1_dropShadow_272_1699"/>
<feBlend mode="normal" in="SourceGraphic" in2="effect1_dropShadow_272_1699" result="shape"/>
</filter>
<filter id="filter5_d_272_1699" x="138" y="89" width="88" height="57" filterUnits="userSpaceOnUse" color-interpolation-filters="sRGB">
<feFlood flood-opacity="0" result="BackgroundImageFix"/>
<feColorMatrix in="SourceAlpha" type="matrix" values="0 0 0 0 0 0 0 0 0 0 0 0 0 0 0 0 0 0 127 0" result="hardAlpha"/>
<feOffset dy="4"/>
<feGaussianBlur stdDeviation="2"/>
<feComposite in2="hardAlpha" operator="out"/>
<feColorMatrix type="matrix" values="0 0 0 0 0 0 0 0 0 0 0 0 0 0 0 0 0 0 0.25 0"/>
<feBlend mode="normal" in2="BackgroundImageFix" result="effect1_dropShadow_272_1699"/>
<feBlend mode="normal" in="SourceGraphic" in2="effect1_dropShadow_272_1699" result="shape"/>
</filter>
<filter id="filter6_d_272_1699" x="257" y="124" width="216" height="167" filterUnits="userSpaceOnUse" color-interpolation-filters="sRGB">
<feFlood flood-opacity="0" result="BackgroundImageFix"/>
<feColorMatrix in="SourceAlpha" type="matrix" values="0 0 0 0 0 0 0 0 0 0 0 0 0 0 0 0 0 0 127 0" result="hardAlpha"/>
<feMorphology radius="2" operator="erode" in="SourceAlpha" result="effect1_dropShadow_272_1699"/>
<feOffset dx="3" dy="3"/>
<feGaussianBlur stdDeviation="6"/>
<feComposite in2="hardAlpha" operator="out"/>
<feColorMatrix type="matrix" values="0 0 0 0 0 0 0 0 0 0 0 0 0 0 0 0 0 0 0.25 0"/>
<feBlend mode="normal" in2="BackgroundImageFix" result="effect1_dropShadow_272_1699"/>
<feBlend mode="normal" in="SourceGraphic" in2="effect1_dropShadow_272_1699" result="shape"/>
</filter>
</defs>
</svg>
