<svg width="120" height="120" viewBox="0 0 120 120" fill="none" xmlns="http://www.w3.org/2000/svg">
    <path d="M59.4506 52.7063L55.1681 56.1937H57.9647V67.5338L59.4506 66.3375V52.7063ZM60.6844 65.325L65.0428 61.7484H62.1675V50.6672L60.6853 51.7003L60.6844 65.325ZM114.623 54.7425C115.117 54.9994 115.472 55.2169 115.689 55.3941L117.23 52.4616C116.46 51.9872 115.531 51.5634 114.445 51.1875C113.378 50.8125 112.223 50.625 110.979 50.625C109.794 50.625 108.698 50.8219 107.692 51.2175C106.703 51.6122 105.914 52.1953 105.322 52.965C104.749 53.7356 104.463 54.6928 104.463 55.8384C104.463 57.1228 104.867 58.11 105.677 58.8009C106.507 59.4722 107.77 60.0253 109.469 60.4603C110.831 60.8147 111.927 61.1409 112.757 61.4372C113.606 61.7137 114.031 62.1778 114.031 62.8294C114.031 63.7969 113.122 64.2806 111.306 64.2806C110.396 64.2806 109.538 64.1728 108.728 63.9553C107.99 63.7654 107.276 63.4973 106.596 63.1556C106.003 62.8397 105.578 62.5528 105.321 62.2959L103.722 65.4066C104.749 66.0581 105.923 66.5719 107.247 66.9469C108.57 67.3219 109.903 67.5094 111.246 67.5094C112.411 67.5094 113.498 67.3519 114.504 67.0359C115.511 66.7003 116.321 66.1669 116.933 65.4366C117.565 64.6866 117.881 63.6984 117.881 62.4741C117.881 61.4672 117.644 60.6572 117.171 60.045C116.716 59.4131 116.055 58.9097 115.186 58.5338C114.337 58.1588 113.33 57.8231 112.164 57.5269C110.842 57.2109 109.834 56.925 109.143 56.6681C108.472 56.4112 108.136 55.9772 108.136 55.365C108.136 54.3178 109.064 53.7947 110.92 53.7947C111.611 53.7947 112.283 53.8931 112.934 54.0909C113.587 54.2691 114.149 54.4856 114.623 54.7425ZM83.4497 67.4213C82.1466 67.4213 80.9616 67.1934 79.8947 66.7397C78.863 66.2901 77.9273 65.6466 77.1384 64.8441C76.3816 64.0543 75.779 63.13 75.3619 62.1188C74.9516 61.133 74.74 60.0759 74.7394 59.0081C74.7394 57.9216 74.9569 56.8753 75.3919 55.8675C75.8226 54.8666 76.4471 53.9607 77.2294 53.2022C78.0281 52.4065 78.9733 51.7729 80.0128 51.3366C81.0788 50.8819 82.2441 50.655 83.5078 50.655C84.8109 50.655 85.9969 50.9016 87.0638 51.3956C88.0943 51.844 89.0219 52.4991 89.7891 53.3203C90.5496 54.0961 91.1529 55.0117 91.5656 56.0166C91.9741 56.9924 92.1857 58.0393 92.1881 59.0972C92.1894 60.1778 91.9676 61.247 91.5366 62.2378C91.096 63.2333 90.4728 64.1373 89.6991 64.9031C88.9081 65.6874 87.9727 66.311 86.9447 66.7397C85.8788 67.1934 84.7134 67.4213 83.4497 67.4213ZM78.3534 59.0381C78.3534 59.9269 78.5616 60.7753 78.9769 61.5853C79.3834 62.367 79.9851 63.0303 80.7234 63.5109C81.4941 64.0041 82.4119 64.2516 83.4788 64.2516C84.5644 64.2516 85.4831 63.9947 86.2331 63.4809C86.9623 62.9729 87.553 62.2906 87.9516 61.4963C88.3381 60.7236 88.5412 59.8721 88.545 59.0081C88.545 58.1194 88.3369 57.2803 87.9225 56.49C87.5144 55.7072 86.8993 55.0515 86.1441 54.5944C85.3941 54.1003 84.4959 53.8538 83.4497 53.8538C82.3631 53.8538 81.4341 54.1106 80.6644 54.6244C79.9324 55.1166 79.3403 55.79 78.9459 56.5791C78.5577 57.3407 78.3547 58.1832 78.3534 59.0381ZM1.875 67.3031L9.10313 50.7431H12.0356L19.2338 67.3022H15.4425L13.7831 63.4219H7.35563L5.69625 67.3031H1.875ZM10.5844 55.0978L8.15531 60.3113H12.9244L10.5844 55.0978ZM33.2391 50.7431L37.8009 56.6091L42.3628 50.7431H46.2431L39.6966 59.1263L46.0359 67.3022H42.1547L37.8009 61.6744L33.4753 67.3022H29.5359L35.9044 59.1272L29.3288 50.7431H33.2391Z" fill="#CCCCCC"/>
</svg>
