<svg width="120" height="120" viewBox="0 0 120 120" fill="none" xmlns="http://www.w3.org/2000/svg">
    <g clip-path="url(#clip0_56_153)">
        <path d="M117.735 54.6526L65.3401 2.26505C64.6227 1.54731 63.7709 0.977951 62.8334 0.589495C61.8959 0.201038 60.8911 0.00109863 59.8763 0.00109863C58.8615 0.00109863 57.8567 0.201038 56.9192 0.589495C55.9817 0.977951 55.1299 1.54731 54.4126 2.26505L43.5376 13.14L57.3376 26.94C58.9651 26.3844 60.7161 26.2974 62.3906 26.6892C64.0652 27.0809 65.5959 27.9355 66.8081 29.1555C68.0202 30.3755 68.865 31.9116 69.2459 33.5887C69.6269 35.2658 69.5287 37.0161 68.9626 38.6401L82.2601 51.9451C84.2274 51.2524 86.372 51.2503 88.3407 51.9391C90.3094 52.6279 91.9848 53.9666 93.0911 55.7348C94.1974 57.503 94.6686 59.5951 94.4271 61.6668C94.1856 63.7385 93.2459 65.6662 91.7626 67.1325C90.2599 68.6385 88.2816 69.5767 86.1647 69.7875C84.0478 69.9983 81.9233 69.4685 80.1532 68.2884C78.3831 67.1084 77.077 65.3511 76.4574 63.316C75.8377 61.2808 75.9429 59.0938 76.7551 57.1276L64.3426 44.7225V77.37C66.227 78.3028 67.7348 79.8533 68.6147 81.763C69.4945 83.6727 69.6933 85.8263 69.1779 87.8648C68.6624 89.9033 67.4639 91.7036 65.782 92.9655C64.1001 94.2275 62.0366 94.8749 59.9352 94.7999C57.8339 94.7248 55.8218 93.9318 54.2343 92.5531C52.6467 91.1744 51.5796 89.2932 51.2109 87.2232C50.8422 85.1531 51.1941 83.0191 52.208 81.1771C53.2218 79.335 54.8364 77.896 56.7826 77.1V44.1526C55.6597 43.6925 54.6391 43.0147 53.7794 42.1583C52.9198 41.3019 52.2381 40.2838 51.7738 39.1627C51.3095 38.0416 51.0716 36.8397 51.074 35.6262C51.0764 34.4128 51.3189 33.2118 51.7876 32.0925L38.1976 18.4875L2.27257 54.4126C0.824857 55.8624 0.0117187 57.8275 0.0117188 59.8763C0.0117187 61.9252 0.824857 63.8902 2.27257 65.34L54.6676 117.735C55.3849 118.453 56.2367 119.022 57.1742 119.411C58.1117 119.799 59.1165 119.999 60.1313 119.999C61.1461 119.999 62.1509 119.799 63.0884 119.411C64.0259 119.022 64.8777 118.453 65.5951 117.735L117.743 65.5875C118.461 64.87 119.032 64.0178 119.421 63.0796C119.81 62.1414 120.01 61.1357 120.01 60.12C120.01 59.1044 119.81 58.0987 119.421 57.1605C119.032 56.2223 118.461 55.3701 117.743 54.6526" fill="black"/>
    </g>
    <defs>
        <clipPath id="clip0_56_153">
            <rect width="120" height="120" fill="white"/>
        </clipPath>
    </defs>
</svg>
