<svg width="120" height="120" viewBox="0 0 120 120" fill="none" xmlns="http://www.w3.org/2000/svg">
    <path fill-rule="evenodd" clip-rule="evenodd" d="M60.03 10C48.1023 10.0054 36.5821 14.3405 27.61 22.2C18.5132 30.1765 12.5084 41.0958 10.645 53.05C8.74035 65.0546 11.0682 77.3479 17.23 87.825C23.3016 98.1778 32.8797 106.014 44.23 109.915C46.75 110.39 47.645 108.8 47.645 107.445C47.645 106.22 47.595 102.185 47.575 97.905C33.675 101.005 30.745 91.855 30.745 91.855C29.8408 88.777 27.8742 86.1195 25.195 84.355C20.66 81.17 25.545 81.25 25.545 81.25C27.13 81.47 28.645 82.065 29.97 82.98C31.3 83.895 32.405 85.11 33.205 86.53C33.88 87.795 34.795 88.91 35.895 89.805C37.5329 91.1606 39.5471 91.9814 41.666 92.1566C43.7849 92.3318 45.9066 91.8531 47.745 90.785C47.97 88.185 49.095 85.755 50.92 83.935C39.825 82.64 28.15 78.245 28.15 58.585C28.0737 53.5157 29.9149 48.6047 33.305 44.835C31.775 40.4106 31.9461 35.5752 33.785 31.27C33.785 31.27 37.98 29.895 47.53 36.52C55.7119 34.2239 64.368 34.2239 72.55 36.52C82.08 29.895 86.25 31.27 86.25 31.27C88.1 35.56 88.28 40.41 86.755 44.835C90.1436 48.6049 91.9815 53.5166 91.9 58.585C91.9 78.28 80.205 82.61 69.08 83.875C70.2804 85.1288 71.2032 86.6215 71.7882 88.2557C72.3731 89.89 72.6071 91.6292 72.475 93.36C72.475 100.22 72.415 105.745 72.415 107.43C72.415 108.79 73.315 110.39 75.85 109.89C87.1793 105.971 96.7342 98.1309 102.79 87.785C108.94 77.3162 111.26 65.0359 109.355 53.045C107.49 41.1018 101.491 30.1924 92.405 22.22C83.4487 14.3646 71.948 10.023 60.035 10H60.03Z" fill="black"/>
</svg>
