<svg width="120" height="120" viewBox="0 0 120 120" fill="none" xmlns="http://www.w3.org/2000/svg">
    <g clip-path="url(#clip0_136_3)">
        <path d="M91.875 0H28.125C12.592 0 0 12.592 0 28.125V91.875C0 107.408 12.592 120 28.125 120H91.875C107.408 120 120 107.408 120 91.875V28.125C120 12.592 107.408 0 91.875 0Z" fill="#F4F2ED"/>
        <path d="M47.641 85.6026C47.641 85.6026 44.041 87.7935 50.1465 88.4203C57.519 89.3596 61.4171 89.2026 69.556 87.6384C69.556 87.6384 71.7469 89.0488 74.7216 90.1434C56.4052 97.9696 33.2387 89.6737 47.641 85.6026ZM45.293 75.4284C45.293 75.4284 41.379 78.4031 47.484 79.0279C55.4658 79.8103 61.7297 79.9673 72.5307 77.7778C72.5307 77.7778 73.9411 79.3439 76.2877 80.1262C54.2176 86.7004 29.483 80.751 45.293 75.4298V75.4284ZM88.4977 93.2737C88.4977 93.2737 91.1583 95.4646 85.523 97.1878C75.0343 100.318 41.536 101.259 32.1437 97.1878C28.8582 95.7773 35.1188 93.7415 37.1527 93.4307C39.188 92.961 40.283 92.961 40.283 92.961C36.683 90.456 16.3322 98.1267 29.9513 100.334C67.3637 106.44 98.2027 97.6734 88.4963 93.2896L88.4977 93.2737ZM49.3627 64.7826C49.3627 64.7826 32.2993 68.8537 43.2558 70.2609C47.9522 70.8857 57.1876 70.7306 65.7976 70.1038C72.8419 69.4785 79.9022 68.2256 79.9022 68.2256C79.9022 68.2256 77.3968 69.3215 75.6755 70.4165C58.2854 74.9601 24.9427 72.9248 34.4921 68.2284C42.6343 64.3143 49.3627 64.7826 49.3627 64.7826ZM79.8858 81.8456C97.4204 72.7659 89.2782 64.0003 83.6429 65.0967C82.2324 65.4093 81.6076 65.722 81.6076 65.722C81.6076 65.722 82.0768 64.7826 83.1732 64.4718C94.2868 60.5578 103.054 76.2121 79.5737 82.3171C79.5737 82.3171 79.7307 82.1601 79.8858 81.8474V81.8456ZM51.084 106.577C67.9904 107.673 93.819 105.952 94.4457 97.9663C94.4457 97.9663 93.1955 101.097 80.5144 103.445C66.1135 106.106 48.2663 105.793 37.7794 104.07C37.7794 104.07 39.9704 105.948 51.0854 106.575L51.084 106.577Z" fill="#4E7896"/>
        <path d="M69.2274 13.125C69.2274 13.125 78.9324 22.987 59.9921 37.8563C44.8074 49.9088 56.5463 56.7975 59.9921 64.6223C51.0695 56.6405 44.6537 49.5947 49.0342 43.02C55.4677 33.3202 73.1542 28.6237 69.2274 13.125ZM64.2188 58.0509C68.7577 63.2166 62.9687 67.913 62.9687 67.913C62.9687 67.913 74.552 61.9664 69.2307 54.6066C64.3773 47.5622 60.6207 44.1178 80.971 32.3761C80.971 32.3761 48.8799 40.358 64.2221 58.0477L64.2188 58.0509Z" fill="#F58219"/>
    </g>
    <defs>
        <clipPath id="clip0_136_3">
            <rect width="120" height="120" fill="white"/>
        </clipPath>
    </defs>
</svg>
