<svg width="120" height="120" viewBox="0 0 120 120" fill="none" xmlns="http://www.w3.org/2000/svg">
    <g clip-path="url(#clip0_56_205)">
        <path d="M114.683 0H57.05C57.05 6.90002 59.7911 13.5174 64.6701 18.3965C69.5492 23.2755 76.1666 26.0166 83.0666 26.0166H93.6833V36.2672C93.6927 50.6227 105.328 62.258 119.683 62.2674V4.99969C119.683 2.23922 117.445 0 114.683 0Z" fill="#2684FF"/>
        <path d="M86.1665 28.7166H28.5337C28.5426 43.072 40.1774 54.7073 54.5334 54.7167H65.1501V65.0001C65.1684 79.3556 76.8112 90.983 91.1667 90.983V33.7172C91.1667 30.9558 88.9279 28.7166 86.1665 28.7166Z" fill="url(#paint0_linear_56_205)"/>
        <path d="M57.6333 57.4167H0C0 71.7853 11.6484 83.4333 26.0166 83.4333H36.6666V93.6835C36.6759 108.026 48.2906 119.656 62.6334 119.683V62.4169C62.6334 59.6555 60.3947 57.4167 57.6333 57.4167Z" fill="url(#paint1_linear_56_205)"/>
    </g>
    <defs>
        <linearGradient id="paint0_linear_56_205" x1="6168.51" y1="38.7415" x2="3731.78" y2="2581.36" gradientUnits="userSpaceOnUse">
            <stop offset="0.18" stop-color="#0052CC"/>
            <stop offset="1" stop-color="#2684FF"/>
        </linearGradient>
        <linearGradient id="paint1_linear_56_205" x1="6304.99" y1="85.748" x2="3486.31" y2="2858.97" gradientUnits="userSpaceOnUse">
            <stop offset="0.18" stop-color="#0052CC"/>
            <stop offset="1" stop-color="#2684FF"/>
        </linearGradient>
        <clipPath id="clip0_56_205">
            <rect width="120" height="120" fill="white"/>
        </clipPath>
    </defs>
</svg>
