<svg width="120" height="120" viewBox="0 0 120 120" fill="none" xmlns="http://www.w3.org/2000/svg">
    <g clip-path="url(#clip0_56_101)">
        <path d="M89.0588 112.519C88.6125 112.755 88.65 112.83 89.0775 112.612C89.2093 112.559 89.33 112.481 89.4338 112.384C89.4338 112.305 89.4338 112.305 89.0588 112.519ZM89.9588 112.031C89.745 112.207 89.745 112.207 90 112.091C90.0942 112.047 90.1804 111.988 90.255 111.915C90.255 111.814 90.195 111.836 89.9588 112.031ZM90.5438 111.679C90.33 111.855 90.33 111.855 90.585 111.739C90.6796 111.694 90.7659 111.633 90.84 111.559C90.84 111.465 90.78 111.484 90.5438 111.679ZM91.1363 111.33C90.9225 111.506 90.9225 111.506 91.17 111.386C91.3088 111.311 91.425 111.232 91.425 111.21C91.425 111.116 91.365 111.135 91.1363 111.33ZM91.935 110.801C91.5263 111.075 91.3838 111.251 91.7588 111.056C92.01 110.902 92.4375 110.565 92.3625 110.565C92.2013 110.625 92.0663 110.726 91.9313 110.801H91.935ZM56.0738 0.0412345C55.8 0.0599845 54.9788 0.134984 54.2588 0.194984C37.2038 1.73998 21.2475 10.92 11.1338 25.0612C5.54462 32.8172 1.91159 41.8084 0.54375 51.27C0.06 54.57 0 55.545 0 60.0187C0 64.4887 0.06 65.4487 0.54375 68.7487C3.81 91.29 19.845 110.212 41.58 117.225C45.4913 118.474 49.59 119.336 54.2588 119.865C56.0738 120.06 63.9225 120.06 65.7375 119.865C73.8075 118.965 80.6213 116.974 87.3638 113.535C88.3988 113.01 88.5938 112.871 88.455 112.755C85.1658 108.407 81.9045 104.038 78.6713 99.6487L69.0825 86.7L57.0713 68.9062C53.0759 62.9485 49.0396 57.0184 44.9625 51.1162C44.9213 51.1162 44.8688 59.025 44.8463 68.67C44.805 85.5637 44.805 86.25 44.5913 86.64C44.3863 87.1111 44.019 87.493 43.5563 87.7162C43.185 87.8925 42.8513 87.93 41.0775 87.93H39.0488L38.52 87.6C38.1888 87.3875 37.9197 87.0913 37.74 86.7412L37.485 86.2125L37.5038 62.6962L37.545 39.18L37.9163 38.7112C38.1534 38.423 38.4452 38.1847 38.775 38.01C39.2663 37.7737 39.4613 37.7362 41.49 37.7362C43.8713 37.7362 44.265 37.83 44.8913 38.5162C49.757 45.7533 54.5808 53.0184 59.3625 60.3112C67.1588 72.1312 77.8013 88.26 83.0325 96.1725L92.5463 110.569L93.015 110.257C97.5872 107.219 101.73 103.58 105.334 99.4387C112.892 90.7878 117.797 80.1416 119.46 68.775C119.944 65.475 120.004 64.4962 120.004 60.0262C120.004 55.5525 119.944 54.5962 119.46 51.2962C116.194 28.755 100.159 9.83249 78.4238 2.81623C74.3617 1.52969 70.1807 0.654051 65.9438 0.202484C64.8075 0.0862345 57.0525 -0.0525155 56.0775 0.0487345L56.0738 0.0412345ZM80.625 36.33C80.904 36.467 81.1528 36.6583 81.3569 36.8927C81.5611 37.1271 81.7164 37.3998 81.8138 37.695C81.915 38.01 81.9338 44.5312 81.915 59.22L81.8738 80.31L78.165 74.61L74.4338 68.9062V53.595C74.4338 43.6687 74.475 38.1037 74.5275 37.83C74.7111 37.2023 75.1321 36.6709 75.7013 36.3487C76.1663 36.1125 76.3463 36.0937 78.2025 36.0937C79.9388 36.0937 80.235 36.1125 80.625 36.33Z" fill="black"/>
    </g>
    <defs>
        <clipPath id="clip0_56_101">
            <rect width="120" height="120" fill="white"/>
        </clipPath>
    </defs>
</svg>
