<svg width="120" height="120" viewBox="0 0 120 120" fill="none" xmlns="http://www.w3.org/2000/svg">
    <path d="M0 60.0001C0 77.431 26.8631 91.5629 60 91.5629C93.1369 91.5629 120 77.431 120 60.0001C120 42.5691 93.1359 28.4373 60 28.4373C26.8631 28.4373 0 42.5691 0 60.0001Z" fill="url(#paint0_radial_56_111)"/>
    <path d="M60 89.2191C91.8422 89.2191 117.656 76.1363 117.656 60.0001C117.656 43.8619 91.8422 30.781 60 30.781C28.1578 30.781 2.34375 43.8619 2.34375 60.0001C2.34375 76.1363 28.1578 89.2191 60 89.2191Z" fill="#777BB3"/>
    <path d="M32.5988 63.6225C35.2172 63.6225 37.1709 63.1397 38.4075 62.1882C39.6319 61.2451 40.4766 59.6129 40.92 57.3366C41.3325 55.2085 41.175 53.7235 40.4513 52.921C39.7125 52.1016 38.1141 51.6863 35.7009 51.6863H31.5159L29.1975 63.6225H32.5988ZM18.9122 78.3254C18.8162 78.3252 18.7214 78.3039 18.6346 78.2628C18.5478 78.2217 18.4712 78.1619 18.4103 78.0877C18.3493 78.0135 18.3056 77.9267 18.2821 77.8336C18.2587 77.7405 18.2562 77.6433 18.2747 77.5491L24.4219 45.9197C24.4509 45.7719 24.5303 45.6387 24.6466 45.5428C24.7628 45.4469 24.9087 45.3942 25.0594 45.3938H38.31C42.4744 45.3938 45.5738 46.5244 47.5228 48.7547C49.4803 50.9954 50.0859 54.1304 49.32 58.0688C49.0078 59.6729 48.4716 61.1626 47.7263 62.4976C46.9504 63.8707 45.9605 65.1113 44.7938 66.1726C43.3584 67.5151 41.7338 68.4901 39.9684 69.0629C38.2322 69.6291 36.0009 69.916 33.3403 69.916H27.9741L26.4422 77.7985C26.4133 77.9468 26.3337 78.0805 26.217 78.1766C26.1004 78.2728 25.954 78.3253 25.8028 78.3254H18.9122Z" fill="black"/>
    <path d="M32.0531 52.3369H35.7009C38.6138 52.3369 39.6253 52.9763 39.9694 53.3578C40.5384 53.9897 40.6472 55.3238 40.2797 57.2128C39.8681 59.3288 39.105 60.8297 38.0109 61.6716C36.8916 62.5341 35.0691 62.9709 32.5988 62.9709H29.9869L32.0531 52.3369ZM38.31 44.7431H25.0603C24.7582 44.7432 24.4654 44.8482 24.2321 45.0402C23.9989 45.2323 23.8396 45.4994 23.7816 45.7959L17.6344 77.4262C17.5981 77.6147 17.6038 77.8088 17.6512 77.9947C17.6986 78.1806 17.7865 78.3538 17.9086 78.5018C18.0306 78.6499 18.1839 78.7691 18.3574 78.8511C18.5309 78.933 18.7203 78.9757 18.9122 78.9759H25.8028C26.1049 78.9757 26.3976 78.8704 26.6307 78.6782C26.8638 78.486 27.0228 78.2187 27.0806 77.9222L28.5103 70.5666H33.3394C36.0694 70.5666 38.3681 70.2684 40.1709 69.6816C42.0244 69.0797 43.7297 68.0587 45.2391 66.6469C46.4544 65.5399 47.4857 64.2465 48.2944 62.8153C49.0734 61.4212 49.6341 59.865 49.9584 58.1925C50.7647 54.0459 50.1094 50.7263 48.0122 48.3263C45.9347 45.9478 42.6703 44.7422 38.31 44.7422V44.7431ZM28.4072 64.2722H32.5988C35.3766 64.2722 37.4456 63.75 38.805 62.7019C40.1653 61.6556 41.0813 59.9081 41.5594 57.4603C42.0141 55.1091 41.8069 53.4506 40.9359 52.4841C40.0631 51.5184 38.3194 51.0347 35.7009 51.0347H30.9797L28.4072 64.2722ZM38.3109 46.0425C42.2972 46.0425 45.2044 47.0897 47.0325 49.1813C48.8606 51.2738 49.41 54.1941 48.6825 57.9431C48.3806 59.4881 47.8734 60.9 47.1591 62.1787C46.4428 63.4594 45.5091 64.6294 44.355 65.6916C42.9788 66.9788 41.4516 67.8966 39.7688 68.4431C38.0869 68.9906 35.9438 69.2634 33.3403 69.2634H27.4378L25.8038 77.6728H18.9131L25.0613 46.0425H38.3109Z" fill="white"/>
    <path d="M65.1179 69.9159C65.0219 69.9161 64.9269 69.8949 64.84 69.854C64.7531 69.813 64.6763 69.7534 64.6152 69.6793C64.554 69.6051 64.5101 69.5184 64.4865 69.4253C64.4628 69.3321 64.4601 69.2349 64.4786 69.1406L67.1973 55.1456C67.457 53.8144 67.3932 52.86 67.0192 52.455C66.7895 52.2084 66.1014 51.795 64.0661 51.795H59.1386L55.7204 69.39C55.6911 69.5382 55.6112 69.6715 55.4944 69.7673C55.3776 69.8631 55.2312 69.9153 55.0801 69.915H48.2457C48.1497 69.9151 48.0549 69.8939 47.968 69.853C47.8811 69.8122 47.8044 69.7526 47.7432 69.6786C47.682 69.6046 47.6379 69.5181 47.6141 69.425C47.5903 69.332 47.5873 69.2349 47.6054 69.1406L53.7536 37.5103C53.7827 37.3621 53.8624 37.2287 53.979 37.1327C54.0956 37.0368 54.2419 36.9844 54.3929 36.9844H61.2273C61.3233 36.9843 61.4181 37.0055 61.505 37.0463C61.5919 37.0872 61.6687 37.1467 61.7299 37.2207C61.7911 37.2947 61.8351 37.3813 61.8589 37.4743C61.8828 37.5673 61.8857 37.6645 61.8676 37.7588L60.3845 45.3937H65.6842C69.722 45.3937 72.4595 46.1044 74.0542 47.5697C75.6789 49.0631 76.187 51.4509 75.5617 54.6694L72.7014 69.39C72.6721 69.538 72.5923 69.6712 72.4757 69.767C72.3591 69.8627 72.2129 69.915 72.062 69.915L65.1179 69.9159Z" fill="black"/>
    <path d="M61.2281 36.3328H54.3928C54.0905 36.3328 53.7976 36.438 53.5643 36.6302C53.3311 36.8225 53.1719 37.0898 53.114 37.3865L46.9668 69.0159C46.9304 69.2044 46.936 69.3986 46.9833 69.5846C47.0307 69.7707 47.1185 69.944 47.2406 70.0921C47.3627 70.2403 47.516 70.3596 47.6896 70.4416C47.8631 70.5236 48.0527 70.5663 48.2446 70.5665H55.08C55.3822 70.5664 55.6751 70.4613 55.9084 70.2691C56.1417 70.0768 56.3009 69.8095 56.3587 69.5128L59.6746 52.4456H64.064C66.0965 52.4456 66.524 52.8796 66.54 52.8993C66.6637 53.0306 66.8259 53.6446 66.5578 55.0218L63.839 69.0159C63.8025 69.2044 63.8082 69.3987 63.8556 69.5848C63.903 69.771 63.9909 69.9443 64.1131 70.0925C64.2353 70.2406 64.3887 70.36 64.5624 70.4419C64.7361 70.5239 64.9257 70.5664 65.1178 70.5665H72.0628C72.3649 70.5662 72.6575 70.461 72.8906 70.2688C73.1237 70.0765 73.2828 69.8093 73.3406 69.5128L76.2009 54.794C76.8712 51.3384 76.2975 48.7471 74.4946 47.0906C72.7734 45.5099 69.8915 44.7421 65.684 44.7421H61.1746L62.5068 37.8843C62.5435 37.6957 62.5379 37.5013 62.4906 37.3151C62.4433 37.1288 62.3554 36.9554 62.2332 36.8071C62.111 36.6588 61.9575 36.5394 61.7838 36.4574C61.61 36.3754 61.4202 36.3328 61.2281 36.3328ZM61.2281 37.6359L59.594 46.0434H65.684C69.5156 46.0434 72.1593 46.7128 73.6125 48.0496C75.0684 49.3865 75.5034 51.5512 74.9231 54.5465L72.0618 69.2643H65.1178L67.8375 55.2693C68.1468 53.6774 68.0325 52.5918 67.4953 52.0124C66.9581 51.434 65.8143 51.1443 64.0659 51.1443H58.6012L55.08 69.2634H48.2437L54.3918 37.6331H61.2281V37.6359Z" fill="white"/>
    <path d="M86.3776 63.6225C88.996 63.6225 90.9507 63.1397 92.1882 62.1882C93.4107 61.2451 94.2564 59.6129 94.6998 57.3366C95.1123 55.2085 94.9557 53.7235 94.231 52.921C93.4923 52.1016 91.8939 51.6863 89.4807 51.6863H85.2967L82.9764 63.6225H86.3776ZM72.6939 78.3254C72.5977 78.3255 72.5027 78.3043 72.4157 78.2634C72.3286 78.2224 72.2518 78.1626 72.1907 78.0884C72.1295 78.0142 72.0856 77.9273 72.062 77.834C72.0385 77.7408 72.0359 77.6435 72.0545 77.5491L78.2017 45.9197C78.2308 45.7716 78.3105 45.6381 78.4271 45.5422C78.5437 45.4462 78.69 45.3938 78.841 45.3938H92.0907C96.2551 45.3938 99.3545 46.5244 101.303 48.7547C103.261 50.9954 103.866 54.1304 103.1 58.0688C102.807 59.6202 102.269 61.1151 101.507 62.4976C100.731 63.8705 99.741 65.1111 98.5745 66.1726C97.1401 67.5151 95.5135 68.4901 93.7492 69.0629C92.0129 69.6291 89.7817 69.916 87.1201 69.916H81.7548L80.2239 77.7985C80.1949 77.947 80.1152 78.0808 79.9983 78.1769C79.8815 78.2731 79.7348 78.3255 79.5835 78.3254H72.6939Z" fill="black"/>
    <path d="M85.8329 52.3369H89.4807C92.3935 52.3369 93.4051 52.9763 93.7482 53.3578C94.3201 53.9897 94.427 55.3238 94.0604 57.2128C93.6479 59.3288 92.8848 60.8297 91.7907 61.6716C90.6704 62.5341 88.8479 62.9709 86.3785 62.9709H83.7667L85.8329 52.3369ZM92.0898 44.7431H78.8401C78.5381 44.7434 78.2456 44.8485 78.0125 45.0405C77.7794 45.2326 77.6203 45.4996 77.5623 45.7959L71.4142 77.4262C71.3778 77.6147 71.3836 77.8089 71.4311 77.9949C71.4785 78.1809 71.5665 78.3541 71.6886 78.5022C71.8108 78.6503 71.9642 78.7695 72.1378 78.8514C72.3114 78.9333 72.501 78.9758 72.6929 78.9759H79.5835C79.8857 78.9757 80.1783 78.8704 80.4114 78.6782C80.6445 78.486 80.8035 78.2187 80.8613 77.9222L82.291 70.5666H87.1192C89.8482 70.5666 92.1479 70.2684 93.9498 69.6816C95.8042 69.0797 97.5095 68.0587 99.0198 66.6459C100.235 65.5392 101.266 64.2462 102.074 62.8153C102.854 61.4212 103.413 59.865 103.738 58.1925C104.544 54.0459 103.89 50.7263 101.792 48.3263C99.7145 45.9478 96.451 44.7422 92.0888 44.7422L92.0898 44.7431ZM82.187 64.2722H86.3776C89.1564 64.2722 91.2245 63.75 92.5857 62.7019C93.9451 61.6556 94.862 59.9081 95.3382 57.4603C95.7948 55.1091 95.5876 53.4506 94.7148 52.4841C93.8429 51.5184 92.0982 51.0347 89.4807 51.0347H84.7604L82.187 64.2722ZM92.0898 46.0425C96.0751 46.0425 98.9842 47.0897 100.811 49.1813C102.639 51.2738 103.19 54.1941 102.46 57.9431C102.16 59.4881 101.652 60.9 100.938 62.1787C100.223 63.4594 99.2879 64.6294 98.1329 65.6916C96.7576 66.9788 95.2295 67.8966 93.5467 68.4431C91.8657 68.9906 89.7235 69.2634 87.1192 69.2634H81.2176L79.5817 77.6728H72.691L78.8392 46.0425H92.0898Z" fill="white"/>
    <defs>
        <radialGradient id="paint0_radial_56_111" cx="0" cy="0" r="1" gradientUnits="userSpaceOnUse" gradientTransform="translate(36.0244 39.5335) scale(78.7888 78.7888)">
            <stop stop-color="#AEB2D5"/>
            <stop offset="0.3" stop-color="#AEB2D5"/>
            <stop offset="0.75" stop-color="#484C89"/>
            <stop offset="1" stop-color="#484C89"/>
        </radialGradient>
    </defs>
</svg>
