<svg width="120" height="120" viewBox="0 0 120 120" fill="none" xmlns="http://www.w3.org/2000/svg">
    <path d="M91.875 0H28.125C12.592 0 0 12.592 0 28.125V91.875C0 107.408 12.592 120 28.125 120H91.875C107.408 120 120 107.408 120 91.875V28.125C120 12.592 107.408 0 91.875 0Z" fill="#FF6C37"/>
    <path d="M79.2475 41.537L55.5568 65.2281L48.8757 58.5475C72.174 35.2496 74.476 37.2709 79.2475 41.537Z" fill="#EEEEEE"/>
    <path d="M55.5566 65.7891C55.3879 65.7891 55.2758 65.7334 55.1633 65.6209L48.4265 58.9402C48.3732 58.8896 48.3309 58.8286 48.3019 58.7611C48.273 58.6936 48.2581 58.6209 48.2581 58.5474C48.2581 58.4739 48.273 58.4012 48.3019 58.3337C48.3309 58.2662 48.3732 58.2053 48.4265 58.1546C72.1175 34.463 74.5874 36.7088 79.5843 41.1999C79.6968 41.3124 79.7526 41.4249 79.7526 41.5932C79.7526 41.7619 79.6968 41.874 79.5843 41.9855L55.8932 65.6209C55.8374 65.7334 55.6686 65.7891 55.5566 65.7891ZM49.6616 58.5474L55.5566 64.4419L78.4054 41.5932C74.2513 37.8877 71.444 36.7651 49.6616 58.5474Z" fill="#FF6C37"/>
    <path d="M62.3494 72.021L55.8933 65.5649L79.5844 41.8743C85.9285 48.2736 76.4405 58.6597 62.3494 72.021Z" fill="#EEEEEE"/>
    <path d="M62.3493 72.5827C62.1806 72.5827 62.069 72.5265 61.9565 72.414L55.5004 65.9579C55.3879 65.8459 55.3879 65.7334 55.3879 65.5651C55.3879 65.3963 55.4442 65.2843 55.5567 65.1718L79.2473 41.4812C79.298 41.428 79.359 41.3856 79.4266 41.3566C79.4941 41.3277 79.5669 41.3127 79.6404 41.3127C79.7139 41.3127 79.7866 41.3277 79.8542 41.3566C79.9217 41.3856 79.9827 41.428 80.0334 41.4812C80.7502 42.1444 81.3166 42.9536 81.6942 43.8542C82.0719 44.7549 82.2522 45.726 82.2229 46.7021C82.1109 52.9332 75.037 60.849 62.7984 72.414C62.6301 72.5265 62.4614 72.5827 62.3493 72.5827ZM56.6793 65.5651C60.2718 69.2138 61.7882 70.674 62.3493 71.2351C71.7811 62.2529 80.9315 53.0457 80.9878 46.7021C81.044 45.2424 80.4829 43.7827 79.5281 42.6596L56.6793 65.5651Z" fill="#FF6C37"/>
    <path d="M48.9882 58.7156L53.7601 63.4875C53.8721 63.6 53.8721 63.712 53.7601 63.8245C53.7039 63.8808 53.7039 63.8808 53.6481 63.8808L43.7668 66.0141C43.262 66.0703 42.8129 65.7333 42.7004 65.228C42.6442 64.9472 42.7567 64.6669 42.9254 64.4981L48.6512 58.7719C48.7637 58.6594 48.932 58.6031 48.9882 58.7156Z" fill="#EEEEEE"/>
    <path d="M43.5984 66.5756C42.7565 66.5756 42.1387 65.9015 42.1387 65.0591C42.1387 64.6668 42.3074 64.2735 42.5882 63.9927L48.314 58.2665C48.651 57.9857 49.1005 57.9857 49.4371 58.2665L54.209 63.0384C54.5455 63.3191 54.5455 63.8245 54.209 64.161C54.0965 64.2735 53.9845 64.3298 53.8157 64.386L43.9354 66.5193C43.8229 66.5193 43.7104 66.5756 43.5984 66.5756ZM48.8198 59.3329L43.318 64.8346C43.2055 64.9471 43.1493 65.1154 43.2618 65.2837C43.318 65.4524 43.4859 65.5087 43.6546 65.4524L52.9176 63.4312L48.8198 59.3329Z" fill="#FF6C37"/>
    <path d="M91.7668 28.4005C88.1738 24.92 82.3913 25.0321 78.9103 28.6813C75.4299 32.33 75.5424 38.0563 79.1911 41.5372C80.6316 42.9291 82.4922 43.805 84.4828 44.0284C86.4733 44.2519 88.4818 43.8102 90.195 42.7724L83.7947 36.3721L91.7668 28.4005Z" fill="#EEEEEE"/>
    <path d="M85.479 44.625C80.1461 44.625 75.8232 40.3022 75.8232 34.9687C75.8232 29.6353 80.1461 25.3125 85.479 25.3125C87.9493 25.3125 90.3634 26.2669 92.1596 28.0073C92.2721 28.1198 92.3284 28.2323 92.3284 28.4002C92.3284 28.5689 92.2721 28.6814 92.1596 28.7934L84.5809 36.3722L90.5317 42.323C90.7567 42.548 90.7567 42.8845 90.5317 43.1091L90.4197 43.2216C88.96 44.1192 87.2195 44.625 85.479 44.625ZM85.479 26.4919C80.7634 26.4919 76.9459 30.3089 77.0021 35.025C77.0021 39.7406 80.8192 43.5581 85.5353 43.5023C86.8267 43.5023 88.1176 43.2211 89.2965 42.6038L83.402 36.7655C83.2895 36.653 83.2337 36.5405 83.2337 36.3722C83.2337 36.2034 83.2895 36.0914 83.402 35.9794L90.925 28.4564C89.409 27.1655 87.5003 26.4919 85.479 26.4919Z" fill="#FF6C37"/>
    <path d="M91.935 28.5688L91.823 28.4563L83.7947 36.3721L90.1387 42.7161C90.7566 42.3229 91.3734 41.8743 91.8792 41.369C92.7298 40.5358 93.4065 39.5421 93.8702 38.4455C94.3339 37.3489 94.5753 36.1711 94.5805 34.9805C94.5857 33.7899 94.3545 32.6101 93.9004 31.5095C93.4463 30.4089 92.7782 29.4093 91.935 28.5688Z" fill="#EEEEEE"/>
    <path d="M90.195 43.3336C90.0263 43.3336 89.9143 43.2774 89.8018 43.1649L83.4019 36.765C83.2894 36.6525 83.2336 36.5405 83.2336 36.3722C83.2336 36.2035 83.2894 36.091 83.4019 35.979L91.3735 28.0079C91.5985 27.7829 91.935 27.7829 92.1596 28.0079L92.3283 28.1204C96.0896 31.8811 96.0896 37.9444 92.3846 41.7624C91.823 42.3235 91.2052 42.8288 90.5316 43.2216C90.3633 43.2779 90.2513 43.3336 90.195 43.3336ZM84.5808 36.3727L90.2513 42.0427C90.7004 41.7624 91.1494 41.3691 91.486 41.0321C94.6861 37.8319 94.8544 32.6115 91.7668 29.243L84.5808 36.3727Z" fill="#FF6C37"/>
    <path d="M80.2022 42.5471C79.5541 41.9 78.6758 41.5366 77.76 41.5366C76.8442 41.5366 75.9659 41.9 75.3178 42.5471L54.1528 63.7121L57.69 67.2488L80.0897 47.6002C81.5494 46.3646 81.6614 44.175 80.4267 42.7158C80.3142 42.6596 80.258 42.6033 80.2022 42.5471Z" fill="#EEEEEE"/>
    <path d="M57.6338 67.8103C57.4656 67.8103 57.3531 67.754 57.2406 67.642L53.7038 64.1053C53.6506 64.0546 53.6082 63.9936 53.5793 63.926C53.5503 63.8585 53.5354 63.7857 53.5354 63.7122C53.5354 63.6387 53.5503 63.566 53.5793 63.4984C53.6082 63.4309 53.6506 63.3699 53.7038 63.3192L74.8684 42.1542C75.24 41.7806 75.6818 41.4841 76.1683 41.2818C76.6549 41.0795 77.1767 40.9753 77.7036 40.9753C78.2306 40.9753 78.7523 41.0795 79.2389 41.2818C79.7254 41.4841 80.1672 41.7806 80.5388 42.1542C80.9125 42.5258 81.209 42.9675 81.4114 43.4541C81.6137 43.9407 81.7179 44.4625 81.7179 44.9894C81.7179 45.5164 81.6137 46.0382 81.4114 46.5247C81.209 47.0113 80.9125 47.4531 80.5388 47.8247L80.3706 47.9929L57.9704 67.642C57.9146 67.754 57.8021 67.8103 57.6338 67.8103ZM54.939 63.712L57.6901 66.4631L79.697 47.1506C80.9316 46.14 81.0441 44.2875 80.0335 43.0528C79.0229 41.8176 77.1704 41.7056 75.9352 42.7153C75.8795 42.7715 75.8232 42.8278 75.7107 42.884L54.939 63.712Z" fill="#FF6C37"/>
    <path d="M37.9284 87.7968C37.7034 87.9088 37.5914 88.1334 37.6471 88.3579L38.602 92.4004C38.827 92.9615 38.4895 93.6356 37.8721 93.8038C37.4231 93.9721 36.9182 93.8038 36.6375 93.4673L30.4617 87.3477L50.616 67.1934L57.5774 67.3054L62.2931 72.0215C61.1704 72.9759 54.3773 79.544 37.9284 87.7968Z" fill="#EEEEEE"/>
    <path d="M37.4794 94.3645C37.0304 94.3645 36.5813 94.1962 36.3005 93.8596L30.181 87.7401C30.0685 87.6281 30.0127 87.5156 30.0127 87.3473C30.0127 87.179 30.0689 87.0665 30.1814 86.954L50.3354 66.8001C50.4479 66.6876 50.6161 66.6313 50.7286 66.6313L57.69 66.7438C57.8583 66.7438 57.9703 66.8001 58.0824 66.9121L62.7985 71.6278C62.911 71.7403 62.9668 71.9085 62.9668 72.0768C62.9668 72.2456 62.911 72.3576 62.7422 72.4701L62.3494 72.8071C56.3986 78.0276 48.3141 83.249 38.265 88.2454L39.2199 92.2312C39.3882 92.961 39.0511 93.7471 38.3775 94.1399C38.0405 94.3082 37.7602 94.3645 37.4794 94.3645ZM31.3036 87.3473L37.0866 93.0735C37.2544 93.3543 37.5914 93.4663 37.8722 93.2981C38.153 93.1298 38.2655 92.7927 38.0972 92.512L37.1429 88.4699C37.0304 87.9646 37.2544 87.5156 37.7039 87.291C47.6405 82.2946 55.6688 77.1299 61.5633 72.021L57.4093 67.8665L50.9532 67.754L31.3036 87.3473Z" fill="#FF6C37"/>
    <path d="M25.6899 92.1755L30.518 87.3474L37.7039 94.5334L26.2514 93.7477C25.7461 93.6915 25.4091 93.2424 25.4653 92.7366C25.4653 92.5121 25.5211 92.2876 25.6899 92.1755Z" fill="#EEEEEE"/>
    <path d="M37.704 95.0386L26.1953 94.2525C25.3529 94.1962 24.7914 93.4669 24.8476 92.6245C24.9039 92.2875 25.0164 91.9509 25.2972 91.7264L30.1253 86.8983C30.1759 86.8451 30.2369 86.8027 30.3044 86.7737C30.3719 86.7448 30.4446 86.7299 30.5181 86.7299C30.5916 86.7299 30.6643 86.7448 30.7318 86.7737C30.7993 86.8027 30.8602 86.8451 30.9109 86.8983L38.0968 94.0842C38.2656 94.2525 38.3218 94.477 38.2093 94.702C38.0968 94.9265 37.9281 95.0386 37.704 95.0386ZM30.5181 88.1334L26.0832 92.5683C25.9145 92.6808 25.9145 92.9615 26.0832 93.0736C26.1395 93.1298 26.1957 93.1861 26.3078 93.1861L36.2443 93.8597L30.5181 88.1334ZM48.6512 69.7758C48.3142 69.7758 48.0897 69.495 48.0897 69.2142C48.0897 69.0459 48.1459 68.9339 48.2584 68.8214L53.7039 63.3759C53.7545 63.3226 53.8155 63.2802 53.8831 63.2512C53.9506 63.2222 54.0234 63.2073 54.0969 63.2073C54.1704 63.2073 54.2432 63.2222 54.3108 63.2512C54.3783 63.2802 54.4393 63.3226 54.49 63.3759L58.0267 66.9126C58.195 67.0809 58.2512 67.2492 58.195 67.4742C58.1387 67.6425 57.9704 67.8108 57.7464 67.867L48.7637 69.7758H48.6512ZM54.0967 64.5548L50.3917 68.2603L56.4545 66.9684L54.0967 64.5548Z" fill="#FF6C37"/>
    <path d="M57.5776 67.3049L51.4023 68.6526C50.9532 68.7651 50.5037 68.4843 50.3916 68.0352C50.3354 67.7545 50.3916 67.4737 50.6162 67.2492L54.0404 63.8245L57.5776 67.3049Z" fill="#EEEEEE"/>
    <path d="M51.2897 69.2142C51.1049 69.2161 50.9216 69.1811 50.7504 69.1112C50.5793 69.0413 50.4239 68.938 50.2932 68.8073C50.1625 68.6766 50.0592 68.5212 49.9893 68.35C49.9194 68.1789 49.8844 67.9956 49.8863 67.8107C49.8863 67.4179 50.0546 67.0809 50.2791 66.8006L53.7038 63.3759C53.7545 63.3226 53.8154 63.2802 53.883 63.2512C53.9506 63.2222 54.0233 63.2073 54.0968 63.2073C54.1704 63.2073 54.2431 63.2222 54.3107 63.2512C54.3783 63.2802 54.4392 63.3226 54.4899 63.3759L58.0266 66.9126C58.1949 67.0809 58.2511 67.2492 58.1949 67.4742C58.1386 67.6425 57.9704 67.8108 57.7463 67.867L51.5705 69.2142H51.2897ZM54.0966 64.5548L51.0652 67.5862C50.9532 67.6987 50.9532 67.8108 51.009 67.9233C51.0652 68.0353 51.1777 68.0915 51.346 68.0915L56.5107 66.9684L54.0966 64.5548ZM91.9913 33.9576C91.8793 33.6211 91.486 33.4528 91.149 33.5653C90.8124 33.6769 90.6441 34.0701 90.7566 34.4072C90.7566 34.4634 90.8124 34.5197 90.8124 34.5754C91.149 35.2495 91.0374 36.0914 90.5879 36.7087C90.3633 36.99 90.4196 37.3828 90.6441 37.6073C90.9249 37.8314 91.3177 37.7761 91.5422 37.4948C92.3846 36.4279 92.5529 35.0808 91.9913 33.9576Z" fill="#FF6C37"/>
</svg>
