<svg width="120" height="120" viewBox="0 0 120 120" fill="none" xmlns="http://www.w3.org/2000/svg">
    <g clip-path="url(#clip0_56_210)">
        <path d="M25.5515 75.674C25.5515 82.5459 19.9471 88.1587 13.0743 88.1587C6.20245 88.1587 0.590576 82.5459 0.590576 75.674C0.590576 68.8021 6.20339 63.1893 13.0753 63.1893H25.5525L25.5515 75.674ZM31.8412 75.674C31.8412 68.8021 37.454 63.1893 44.3259 63.1893C51.1978 63.1893 56.8106 68.8012 56.8106 75.674V106.926C56.8106 113.797 51.1987 119.41 44.3259 119.41C37.454 119.41 31.8412 113.797 31.8412 106.926V75.674Z" fill="#DE1C59"/>
        <path d="M44.3259 25.5515C37.454 25.5515 31.8412 19.9471 31.8412 13.0743C31.8412 6.20245 37.454 0.590576 44.3259 0.590576C51.1978 0.590576 56.8106 6.20339 56.8106 13.0753V25.5525L44.3259 25.5515ZM44.3259 31.8412C51.1978 31.8412 56.8106 37.454 56.8106 44.3259C56.8106 51.1978 51.1987 56.8106 44.3259 56.8106H13.0743C6.20245 56.8106 0.590576 51.1987 0.590576 44.3259C0.590576 37.454 6.20339 31.8412 13.0753 31.8412H44.3259Z" fill="#35C5F0"/>
        <path d="M94.4485 44.3259C94.4485 37.454 100.053 31.8412 106.926 31.8412C113.798 31.8412 119.41 37.454 119.41 44.3259C119.41 51.1978 113.798 56.8106 106.926 56.8106H94.4485V44.3259ZM88.1588 44.3259C88.1588 51.1978 82.546 56.8106 75.6741 56.8106C68.8023 56.8106 63.1895 51.1987 63.1895 44.3259V13.0743C63.1895 6.20245 68.8013 0.590576 75.6741 0.590576C82.546 0.590576 88.1588 6.20339 88.1588 13.0753V44.3259Z" fill="#2EB57D"/>
        <path d="M75.6741 94.4484C82.546 94.4484 88.1588 100.053 88.1588 106.926C88.1588 113.797 82.546 119.41 75.6741 119.41C68.8023 119.41 63.1895 113.797 63.1895 106.926V94.4484H75.6741ZM75.6741 88.1587C68.8023 88.1587 63.1895 82.5459 63.1895 75.674C63.1895 68.8021 68.8013 63.1893 75.6741 63.1893H106.926C113.798 63.1893 119.41 68.8012 119.41 75.674C119.41 82.5459 113.798 88.1587 106.926 88.1587H75.6741Z" fill="#EBB02E"/>
    </g>
    <defs>
        <clipPath id="clip0_56_210">
            <rect width="120" height="120" fill="white"/>
        </clipPath>
    </defs>
</svg>
