<svg width="120" height="120" viewBox="0 0 120 120" fill="none" xmlns="http://www.w3.org/2000/svg">
    <g clip-path="url(#clip0_56_233)">
        <path d="M91.875 0H28.125C12.592 0 0 12.592 0 28.125V91.875C0 107.408 12.592 120 28.125 120H91.875C107.408 120 120 107.408 120 91.875V28.125C120 12.592 107.408 0 91.875 0Z" fill="#F4F2ED"/>
        <path d="M98.2242 80.5411C86.6859 95.9147 62.0377 90.7252 46.2352 91.4714C46.2352 91.4714 43.4377 91.627 40.62 92.0911C40.62 92.0911 41.6855 91.6364 43.0444 91.1681C54.1434 87.33 59.3883 86.5589 66.1322 83.0948C78.8034 76.6036 91.4147 62.4652 93.9806 47.7773C89.1572 61.9036 74.4886 74.0616 61.132 78.9984C51.9895 82.372 35.4572 85.6552 35.4548 85.6566C35.4623 85.6683 34.7958 85.3106 34.7864 85.3027C23.543 79.8323 23.2186 55.4808 43.6392 47.6311C52.5923 44.1872 61.1559 46.0791 70.8347 43.7752C81.1575 41.3208 93.1134 33.5831 97.973 23.467C103.421 39.6258 109.965 64.9064 98.2242 80.5411ZM98.4249 18.4598C97.0514 21.7233 95.3747 24.6642 93.4425 27.2944C84.9361 18.5644 73.0631 13.125 59.9395 13.125C34.1245 13.125 13.125 34.1269 13.125 59.9372C13.125 73.4677 18.9 85.6706 28.1081 94.2244L29.1333 95.1323C27.4214 93.7364 27.1584 91.2225 28.5459 89.5087C29.9419 87.7945 32.4581 87.5288 34.1709 88.9172C35.8884 90.3084 36.15 92.8289 34.7597 94.5455C33.3741 96.263 30.8531 96.5222 29.138 95.1366L29.8359 95.7544C37.9805 102.612 48.48 106.755 59.9395 106.755C84.6145 106.755 104.876 87.5522 106.611 63.3155C107.895 51.4486 104.39 36.3802 98.4249 18.4598Z" fill="#5FB832"/>
    </g>
    <defs>
        <clipPath id="clip0_56_233">
            <rect width="120" height="120" fill="white"/>
        </clipPath>
    </defs>
</svg>
