<svg width="120" height="120" viewBox="0 0 120 120" fill="none" xmlns="http://www.w3.org/2000/svg">
    <g clip-path="url(#clip0_56_19)">
        <path d="M91.875 0H28.125C12.592 0 0 12.592 0 28.125V91.875C0 107.408 12.592 120 28.125 120H91.875C107.408 120 120 107.408 120 91.875V28.125C120 12.592 107.408 0 91.875 0Z" fill="#007ACC"/>
        <path d="M26.5365 60.3979L26.4985 65.3122H42.1173V109.693H53.1657V65.3122H68.7845V60.493C68.7845 57.8263 68.7278 55.5979 68.6513 55.5407C68.5942 55.4647 59.0893 55.4263 47.5656 55.4455L26.5942 55.5027L26.5365 60.3979ZM96.8284 55.363C99.8757 56.1252 102.2 57.4775 104.333 59.6868C105.438 60.868 107.076 63.0205 107.209 63.5347C107.247 63.6871 102.028 67.1919 98.8665 69.1536C98.7521 69.23 98.2946 68.7346 97.7804 67.9729C96.2378 65.7252 94.6187 64.7535 92.1423 64.5824C88.5043 64.3344 86.1615 66.2394 86.1807 69.4204C86.1807 70.3536 86.3139 70.9058 86.6949 71.668C87.4946 73.325 88.9806 74.3155 93.6474 76.3344C102.238 80.03 105.914 82.468 108.2 85.9344C110.752 89.8011 111.324 95.9727 109.59 100.563C107.686 105.553 102.962 108.944 96.3137 110.068C94.2568 110.43 89.3804 110.373 87.1712 109.973C82.352 109.116 77.7807 106.735 74.9617 103.611C73.8568 102.392 71.7043 99.2108 71.8379 98.9821C71.8946 98.9061 72.3901 98.6014 72.9423 98.2775C73.4757 97.9728 75.4951 96.8108 77.3996 95.706L80.8473 93.7058L81.571 94.7727C82.5807 96.3154 84.7899 98.4299 86.1235 99.1344C89.9518 101.154 95.2093 100.868 97.7996 98.5443C98.9045 97.5346 99.3615 96.4869 99.3615 94.9443C99.3615 93.5535 99.1899 92.9441 98.4662 91.8964C97.5329 90.5633 95.6284 89.4393 90.2185 87.0964C84.0282 84.4297 81.3615 82.7727 78.9235 80.1439C77.514 78.6205 76.1804 76.1821 75.6282 74.1439C75.1712 72.4489 75.0568 68.2011 75.4187 66.4869C76.6946 60.5061 81.2092 56.3347 87.7234 55.0963C89.8379 54.6964 94.7518 54.8488 96.8284 55.363Z" fill="white"/>
    </g>
    <defs>
        <clipPath id="clip0_56_19">
            <rect width="120" height="120" fill="white"/>
        </clipPath>
    </defs>
</svg>
