<svg width="25" height="25" viewBox="0 0 25 25" fill="none" xmlns="http://www.w3.org/2000/svg">
    <path d="M9.37508 3.38542C7.78654 3.38542 6.26307 4.01647 5.13981 5.13973C4.01654 6.26299 3.3855 7.78647 3.3855 9.375V16.7781C3.3855 16.9853 3.46781 17.184 3.61432 17.3306C3.76083 17.4771 3.95955 17.5594 4.16675 17.5594C4.37395 17.5594 4.57266 17.4771 4.71918 17.3306C4.86569 17.184 4.948 16.9853 4.948 16.7781V9.375C4.948 8.20087 5.41442 7.07482 6.24466 6.24458C7.0749 5.41435 8.20095 4.94792 9.37508 4.94792H16.6803C16.8875 4.94792 17.0862 4.86561 17.2327 4.7191C17.3792 4.57259 17.4615 4.37387 17.4615 4.16667C17.4615 3.95947 17.3792 3.76076 17.2327 3.61424C17.0862 3.46773 16.8875 3.38542 16.6803 3.38542H9.37508Z" fill="#787878"/>
    <path fill-rule="evenodd" clip-rule="evenodd" d="M19.1697 7.07604C15.7753 6.69865 12.3496 6.69865 8.95516 7.07604C8.4855 7.12839 8.04735 7.33801 7.71187 7.67084C7.3764 8.00366 7.16332 8.44015 7.10724 8.90937C6.70677 12.3331 6.70677 15.7919 7.10724 19.2156C7.16314 19.6849 7.37616 20.1215 7.71167 20.4544C8.04718 20.7872 8.48544 20.9968 8.95516 21.049C12.3312 21.426 15.7937 21.426 19.1697 21.049C19.6395 20.9968 20.0777 20.7872 20.4132 20.4544C20.7487 20.1215 20.9618 19.6849 21.0177 19.2156C21.4182 15.7919 21.4182 12.3331 21.0177 8.90937C20.9616 8.44015 20.7485 8.00366 20.413 7.67084C20.0776 7.33801 19.6394 7.12839 19.1697 7.07604ZM9.12912 8.62916C12.3895 8.26458 15.7354 8.26458 18.9958 8.62916C19.1145 8.64231 19.2254 8.6951 19.3105 8.77902C19.3955 8.86295 19.4498 8.97309 19.4645 9.09166C19.852 12.3942 19.852 15.7308 19.4645 19.0333C19.4498 19.1519 19.3955 19.262 19.3105 19.346C19.2254 19.4299 19.1145 19.4827 18.9958 19.4958C15.7354 19.8604 12.3895 19.8604 9.12912 19.4958C9.01042 19.4825 8.89966 19.4297 8.81464 19.3458C8.72962 19.2619 8.67528 19.1518 8.66037 19.0333C8.27287 15.7308 8.27287 12.3942 8.66037 9.09166C8.67528 8.97316 8.72962 8.86311 8.81464 8.77923C8.89966 8.69534 9.01042 8.64249 9.12912 8.62916Z" fill="#787878"/>
</svg>
