<svg width="170" height="180" viewBox="0 0 170 180" fill="none" xmlns="http://www.w3.org/2000/svg">
    <rect width="170" height="180" fill="#EFEDED"/>
    <rect y="20" width="42" height="160" fill="white"/>
    <rect width="170" height="23" fill="white"/>
    <g filter="url(#filter0_d_182_1270)">
        <rect x="51" y="29.4545" width="55.6364" height="44.1818" rx="5" fill="white"/>
    </g>
    <path d="M59.3227 41.522H59.5627V44.234H59.3227V41.522ZM58.8847 42.611H59.4037V42.815H58.8847V42.611ZM58.1827 41.87H58.4227C58.4227 42.569 58.1827 43.217 57.4087 43.652L57.2617 43.475C57.9427 43.094 58.1827 42.545 58.1827 41.918V41.87ZM57.3667 41.87H58.2667V42.077H57.3667V41.87ZM58.7197 41.594H58.9567V44.102H58.7197V41.594ZM60.1355 41.633H60.3815V42.023H61.1465V41.633H61.3895V42.818H60.1355V41.633ZM60.3815 42.218V42.617H61.1465V42.218H60.3815ZM61.8785 41.522H62.1275V42.92H61.8785V41.522ZM62.0195 42.104H62.5265V42.311H62.0195V42.104ZM60.4055 43.052H62.1275V43.709H60.6575V44.117H60.4115V43.523H61.8845V43.25H60.4055V43.052ZM60.4115 44.006H62.2265V44.204H60.4115V44.006ZM64.6702 43.232C65.2462 43.232 65.6152 43.421 65.6152 43.733C65.6152 44.042 65.2462 44.228 64.6702 44.228C64.0912 44.228 63.7252 44.042 63.7252 43.733C63.7252 43.421 64.0912 43.232 64.6702 43.232ZM64.6702 43.427C64.2442 43.427 63.9712 43.544 63.9712 43.733C63.9712 43.919 64.2442 44.036 64.6702 44.036C65.0962 44.036 65.3662 43.919 65.3662 43.733C65.3662 43.544 65.0962 43.427 64.6702 43.427ZM63.7462 41.657H65.4922V41.861H63.7462V41.657ZM63.4552 42.785H65.9032V42.986H63.4552V42.785ZM64.4602 42.263H64.7062V42.842H64.4602V42.263ZM65.3482 41.657H65.5912V41.888C65.5912 42.107 65.5912 42.326 65.5192 42.608L65.2732 42.578C65.3482 42.299 65.3482 42.101 65.3482 41.888V41.657ZM66.2119 43.127H68.6719V43.331H66.2119V43.127ZM67.3099 43.223H67.5559V44.234H67.3099V43.223ZM66.5209 41.63H66.7699V42.002H68.1109V41.63H68.3569V42.803H66.5209V41.63ZM66.7699 42.203V42.602H68.1109V42.203H66.7699ZM69.3047 42.335H71.1467V42.539H69.3047V42.335ZM68.9717 42.902H71.4317V43.106H68.9717V42.902ZM69.3047 41.621H69.5507V42.437H69.3047V41.621ZM69.2867 43.964H71.1617V44.168H69.2867V43.964ZM69.2867 43.376H69.5327V44.018H69.2867V43.376ZM72.4024 42.839H74.8534V43.046H72.4024V42.839ZM73.5034 42.998H73.7494V44.234H73.5034V42.998ZM72.6004 41.711H73.3174V41.912H72.6004V41.711ZM73.2334 41.711H73.4764V41.801C73.4764 41.984 73.4764 42.371 73.3294 42.929L73.0834 42.89C73.2334 42.359 73.2334 41.99 73.2334 41.801V41.711ZM73.6744 41.711H74.4394V41.912H73.6744V41.711ZM74.3344 41.711H74.5774V41.834C74.5774 42.038 74.5774 42.401 74.4604 42.926L74.2144 42.89C74.3344 42.386 74.3344 42.038 74.3344 41.834V41.711ZM76.2271 41.777H76.4491V41.858C76.4491 42.317 75.9601 42.638 75.4051 42.722L75.3121 42.521C75.7921 42.458 76.2271 42.188 76.2271 41.858V41.777ZM76.3321 41.777H76.5511V41.858C76.5511 42.188 76.9891 42.458 77.4691 42.521L77.3731 42.722C76.8211 42.638 76.3321 42.317 76.3321 41.858V41.777ZM75.3871 41.657H77.3941V41.858H75.3871V41.657ZM75.1621 42.917H77.6191V43.121H75.1621V42.917ZM76.2841 43.043H76.5331V43.667H76.2841V43.043ZM75.4741 43.97H77.3461V44.174H75.4741V43.97ZM75.4741 43.406H75.7201V44.048H75.4741V43.406ZM79.8929 41.522H80.1419V44.234H79.8929V41.522ZM77.9849 41.96H79.6109V42.161H77.9849V41.96ZM78.8009 42.383C79.1909 42.383 79.4729 42.641 79.4729 43.007C79.4729 43.373 79.1909 43.631 78.8009 43.631C78.4109 43.631 78.1319 43.373 78.1319 43.007C78.1319 42.641 78.4109 42.383 78.8009 42.383ZM78.8009 42.59C78.5519 42.59 78.3689 42.761 78.3689 43.007C78.3689 43.25 78.5519 43.424 78.8009 43.424C79.0499 43.424 79.2329 43.25 79.2329 43.007C79.2329 42.761 79.0499 42.59 78.8009 42.59ZM78.6719 41.549H78.9209V42.083H78.6719V41.549ZM83.4196 41.522H83.6596V44.234H83.4196V41.522ZM82.9906 42.596H83.5096V42.8H82.9906V42.596ZM82.8196 41.579H83.0566V44.099H82.8196V41.579ZM81.4516 41.834H82.4866V43.508H81.4516V41.834ZM82.2526 42.032H81.6856V43.31H82.2526V42.032ZM84.8743 41.621C85.2793 41.621 85.5763 41.867 85.5763 42.224C85.5763 42.578 85.2793 42.824 84.8743 42.824C84.4723 42.824 84.1753 42.578 84.1753 42.224C84.1753 41.867 84.4723 41.621 84.8743 41.621ZM84.8743 41.825C84.6133 41.825 84.4153 41.99 84.4153 42.224C84.4153 42.458 84.6133 42.62 84.8743 42.62C85.1383 42.62 85.3333 42.458 85.3333 42.224C85.3333 41.99 85.1383 41.825 84.8743 41.825ZM86.0863 41.522H86.3383V42.911H86.0863V41.522ZM84.5833 43.043H86.3383V43.703H84.8323V44.111H84.5893V43.517H86.0923V43.244H84.5833V43.043ZM84.5893 44H86.4283V44.198H84.5893V44ZM89.382 41.522H89.631V44.234H89.382V41.522ZM89.571 42.635H90.075V42.845H89.571V42.635ZM87.531 41.954H89.13V42.158H87.531V41.954ZM88.341 42.383C88.725 42.383 89.001 42.641 89.001 43.007C89.001 43.373 88.725 43.631 88.341 43.631C87.96 43.631 87.681 43.373 87.681 43.007C87.681 42.641 87.96 42.383 88.341 42.383ZM88.341 42.59C88.095 42.59 87.918 42.761 87.918 43.007C87.918 43.25 88.095 43.424 88.341 43.424C88.587 43.424 88.764 43.25 88.764 43.007C88.764 42.761 88.587 42.59 88.341 42.59ZM88.212 41.555H88.461V42.047H88.212V41.555ZM90.9748 41.909H91.1728V42.35C91.1728 42.914 90.8278 43.496 90.4048 43.712L90.2608 43.514C90.6478 43.325 90.9748 42.809 90.9748 42.35V41.909ZM91.0198 41.909H91.2178V42.35C91.2178 42.779 91.5238 43.262 91.9168 43.448L91.7758 43.646C91.3468 43.433 91.0198 42.887 91.0198 42.35V41.909ZM90.3568 41.798H91.8178V42.008H90.3568V41.798ZM92.1388 41.522H92.3908V44.234H92.1388V41.522ZM92.3308 42.617H92.8348V42.827H92.3308V42.617ZM93.3055 43.337L93.2665 42.068L93.2605 41.753H93.5365L93.5305 42.068L93.4915 43.337H93.3055ZM93.3955 44.042C93.2875 44.042 93.2005 43.955 93.2005 43.832C93.2005 43.706 93.2875 43.622 93.3955 43.622C93.5065 43.622 93.5965 43.706 93.5965 43.832C93.5965 43.955 93.5065 44.042 93.3955 44.042ZM93.8853 44.21H96.8853V41.21H93.8853V44.21Z" fill="#8C8C8C"/>
    <path d="M51 34.4545C51 31.6931 53.2386 29.4545 56 29.4545H101.636C104.398 29.4545 106.636 31.6931 106.636 34.4545V37.6364H51V34.4545Z" fill="#FFF2BF"/>
    <path d="M104.376 33.5045C104.376 33.167 104.115 32.8908 103.797 32.8908C103.478 32.8908 103.217 33.167 103.217 33.5045C103.217 33.842 103.478 34.1181 103.797 34.1181C104.115 34.1181 104.376 33.842 104.376 33.5045ZM100.319 33.5045C100.319 33.167 100.059 32.8908 99.7399 32.8908C99.4211 32.8908 99.1603 33.167 99.1603 33.5045C99.1603 33.842 99.4211 34.1181 99.7399 34.1181C100.059 34.1181 100.319 33.842 100.319 33.5045ZM102.348 33.5045C102.348 33.167 102.087 32.8908 101.768 32.8908C101.45 32.8908 101.189 33.167 101.189 33.5045C101.189 33.842 101.45 34.1181 101.768 34.1181C102.087 34.1181 102.348 33.842 102.348 33.5045Z" fill="#8C8C8C"/>
    <path d="M96.3058 68.196H96.6378V68.744H96.3058V68.196ZM96.4618 66.86C96.9858 66.86 97.3538 67.148 97.3538 67.576C97.3538 68.004 96.9858 68.288 96.4618 68.288C95.9418 68.288 95.5738 68.004 95.5738 67.576C95.5738 67.148 95.9418 66.86 96.4618 66.86ZM96.4618 67.116C96.1218 67.116 95.8858 67.304 95.8858 67.576C95.8858 67.852 96.1218 68.036 96.4618 68.036C96.8058 68.036 97.0418 67.852 97.0418 67.576C97.0418 67.304 96.8058 67.116 96.4618 67.116ZM97.8418 66.7H98.1738V69.464H97.8418V66.7ZM98.0338 67.92H98.7018V68.196H98.0338V67.92ZM95.8858 69.956H98.3018V70.232H95.8858V69.956ZM95.8858 69.228H96.2178V70.076H95.8858V69.228ZM95.4098 68.928L95.3658 68.656C96.0018 68.656 96.8818 68.648 97.6178 68.536L97.6418 68.78C96.8858 68.92 96.0298 68.928 95.4098 68.928ZM99.9655 68.816H100.294V69.704H99.9655V68.816ZM101.122 68.808H101.446V69.7H101.122V68.808ZM99.0535 69.592H102.33V69.868H99.0535V69.592ZM99.4495 66.964H101.926V68.056H99.7895V68.784H99.4615V67.792H101.598V67.232H99.4495V66.964ZM99.4615 68.636H102.01V68.908H99.4615V68.636ZM103.053 69.116L103.001 67.424L102.993 67.004H103.361L103.353 67.424L103.301 69.116H103.053ZM103.173 70.056C103.029 70.056 102.913 69.94 102.913 69.776C102.913 69.608 103.029 69.496 103.173 69.496C103.321 69.496 103.441 69.608 103.441 69.776C103.441 69.94 103.321 70.056 103.173 70.056Z" fill="#8C8C8C"/>
    <rect x="91.15" y="67.15" width="2.7" height="2.7" rx="0.85" fill="white" stroke="#8C8C8C" stroke-width="0.3"/>
    <path d="M59.5584 32.652H60.0664V36.356H59.5584V32.652ZM59.0904 34.048H59.7024V34.472H59.0904V34.048ZM57.9864 33.104H58.4944C58.4944 34.148 58.1904 34.992 57.1544 35.596L56.8464 35.228C57.6904 34.728 57.9864 34.104 57.9864 33.216V33.104ZM57.0344 33.104H58.1424V33.532H57.0344V33.104ZM58.7384 32.748H59.2344V36.196H58.7384V32.748ZM60.6821 32.816H61.2101V33.252H61.9341V32.816H62.4621V34.436H60.6821V32.816ZM61.2101 33.652V34.02H61.9341V33.652H61.2101ZM62.9581 32.652H63.4901V34.532H62.9581V32.652ZM63.2741 33.364H63.9781V33.796H63.2741V33.364ZM61.0421 34.676H63.4901V35.684H61.5781V36.124H61.0501V35.304H62.9661V35.084H61.0421V34.676ZM61.0501 35.92H63.5981V36.332H61.0501V35.92ZM66.816 34.956C67.616 34.956 68.128 35.22 68.128 35.66C68.128 36.092 67.616 36.356 66.816 36.356C66.016 36.356 65.504 36.092 65.504 35.66C65.504 35.22 66.016 34.956 66.816 34.956ZM66.816 35.356C66.316 35.356 66.032 35.46 66.032 35.66C66.032 35.856 66.316 35.956 66.816 35.956C67.316 35.956 67.6 35.856 67.6 35.66C67.6 35.46 67.316 35.356 66.816 35.356ZM65.544 32.816H67.888V33.236H65.544V32.816ZM65.168 34.304H68.504V34.728H65.168V34.304ZM66.404 33.66H66.932V34.412H66.404V33.66ZM67.58 32.816H68.108V33.12C68.108 33.412 68.108 33.728 68.008 34.112L67.48 34.056C67.58 33.676 67.58 33.408 67.58 33.12V32.816ZM68.8397 34.784H72.1957V35.204H68.8397V34.784ZM70.2397 34.996H70.7677V36.356H70.2397V34.996ZM69.2237 32.792H69.7517V33.212H71.2717V32.792H71.7997V34.432H69.2237V32.792ZM69.7517 33.628V34.008H71.2717V33.628H69.7517ZM73.2656 36.28H77.2656V32.28H73.2656V36.28Z" fill="#8C8C8C"/>
    <g filter="url(#filter1_d_182_1270)">
        <rect x="109.727" y="29.4545" width="55.6364" height="44.1818" rx="5" fill="white"/>
    </g>
    <path d="M114.359 44.21H117.359V41.21H114.359V44.21ZM118.18 43.679H120.637V43.886H118.18V43.679ZM118.393 41.792H120.406V41.996H118.393V41.792ZM118.399 42.938H120.403V43.142H118.399V42.938ZM118.816 41.981H119.065V42.959H118.816V41.981ZM119.74 41.981H119.986V42.959H119.74V41.981ZM120.937 43.07H123.397V43.274H120.937V43.07ZM121.261 44.003H123.139V44.207H121.261V44.003ZM121.261 43.454H121.51V44.063H121.261V43.454ZM122.041 42.68H122.29V43.157H122.041V42.68ZM121.249 41.609H123.079V42.281H121.501V42.647H121.255V42.098H122.836V41.804H121.249V41.609ZM121.255 42.581H123.139V42.776H121.255V42.581ZM124.015 42.983H125.878V43.184H124.015V42.983ZM123.7 43.679H126.157V43.886H123.7V43.679ZM124.015 41.753H125.848V41.957H124.267V43.046H124.015V41.753ZM124.186 42.359H125.791V42.557H124.186V42.359ZM127.612 42.296H128.074V42.5H127.612V42.296ZM127.102 41.732C127.456 41.732 127.717 42.005 127.717 42.392C127.717 42.779 127.456 43.052 127.102 43.052C126.742 43.052 126.484 42.779 126.484 42.392C126.484 42.005 126.742 41.732 127.102 41.732ZM127.102 41.948C126.877 41.948 126.709 42.131 126.709 42.392C126.709 42.653 126.877 42.839 127.102 42.839C127.324 42.839 127.492 42.653 127.492 42.392C127.492 42.131 127.324 41.948 127.102 41.948ZM128.506 41.522H128.743V43.55H128.506V41.522ZM127.993 41.576H128.23V43.472H127.993V41.576ZM126.976 43.97H128.827V44.174H126.976V43.97ZM126.976 43.289H127.225V44.063H126.976V43.289ZM129.528 42.821H131.391V43.025H129.528V42.821ZM129.219 43.661H131.676V43.868H129.219V43.661ZM129.528 41.771H131.364V41.978H129.777V42.911H129.528V41.771ZM133.424 42.956H133.676V43.544H133.424V42.956ZM133.424 42.002H133.625V42.062C133.625 42.536 133.316 42.902 132.86 43.046L132.746 42.851C133.148 42.731 133.424 42.428 133.424 42.062V42.002ZM133.472 42.002H133.673V42.062C133.673 42.413 133.958 42.707 134.357 42.824L134.243 43.016C133.787 42.881 133.472 42.521 133.472 42.062V42.002ZM132.809 41.876H134.3V42.077H132.809V41.876ZM133.424 41.54H133.676V41.963H133.424V41.54ZM134.609 41.519H134.858V44.237H134.609V41.519ZM132.698 43.679L132.662 43.469C133.157 43.469 133.841 43.466 134.432 43.376L134.453 43.559C133.844 43.673 133.181 43.676 132.698 43.679ZM137.381 41.525H137.633V43.511H137.381V41.525ZM135.89 43.97H137.714V44.174H135.89V43.97ZM135.89 43.328H136.136V44.066H135.89V43.328ZM136.115 41.672H136.322V41.948C136.322 42.476 136.022 42.938 135.566 43.124L135.437 42.923C135.845 42.764 136.115 42.368 136.115 41.948V41.672ZM136.16 41.672H136.364V41.948C136.364 42.356 136.637 42.725 137.042 42.872L136.91 43.073C136.46 42.899 136.16 42.464 136.16 41.948V41.672ZM140.814 41.522H141.063V44.234H140.814V41.522ZM140.019 41.813H140.265C140.265 42.599 139.911 43.286 139.005 43.73L138.873 43.529C139.656 43.151 140.019 42.575 140.019 41.855V41.813ZM138.996 41.813H140.127V42.017H138.996V41.813ZM142.698 41.534H142.908V41.633C142.908 42.095 142.38 42.404 141.816 42.476L141.732 42.284C142.224 42.23 142.698 41.969 142.698 41.633V41.534ZM142.74 41.534H142.95V41.633C142.95 41.969 143.424 42.23 143.916 42.284L143.829 42.476C143.268 42.404 142.74 42.095 142.74 41.633V41.534ZM142.698 42.8H142.944V43.214H142.698V42.8ZM141.597 42.653H144.048V42.854H141.597V42.653ZM141.894 43.121H143.736V43.739H142.146V44.066H141.9V43.559H143.49V43.313H141.894V43.121ZM141.9 44.009H143.817V44.204H141.9V44.009ZM145.739 42.794H145.988V43.142H145.739V42.794ZM146.882 41.525H147.131V43.343H146.882V41.525ZM147.026 42.344H147.527V42.551H147.026V42.344ZM145.046 43.265L145.013 43.061C145.499 43.061 146.159 43.061 146.72 42.98L146.741 43.157C146.162 43.259 145.52 43.262 145.046 43.265ZM145.349 43.478H147.131V44.234H146.882V43.676H145.349V43.478ZM145.082 41.768H146.639V41.954H145.082V41.768ZM145.862 42.059C146.243 42.059 146.492 42.212 146.492 42.461C146.492 42.71 146.243 42.863 145.862 42.863C145.478 42.863 145.229 42.71 145.229 42.461C145.229 42.212 145.478 42.059 145.862 42.059ZM145.862 42.23C145.619 42.23 145.463 42.317 145.463 42.461C145.463 42.599 145.619 42.689 145.862 42.689C146.102 42.689 146.258 42.599 146.258 42.461C146.258 42.317 146.102 42.23 145.862 42.23ZM145.739 41.501H145.988V41.858H145.739V41.501ZM131.256 47.525H131.508V49.505H131.256V47.525ZM129.765 49.97H131.589V50.174H129.765V49.97ZM129.765 49.301H130.011V50.039H129.765V49.301ZM130.053 47.711C130.458 47.711 130.758 47.987 130.758 48.38C130.758 48.77 130.458 49.049 130.053 49.049C129.648 49.049 129.345 48.77 129.345 48.38C129.345 47.987 129.648 47.711 130.053 47.711ZM130.053 47.927C129.789 47.927 129.588 48.113 129.588 48.38C129.588 48.644 129.789 48.83 130.053 48.83C130.317 48.83 130.518 48.644 130.518 48.38C130.518 48.113 130.317 47.927 130.053 47.927ZM132.285 49.337L132.246 48.068L132.24 47.753H132.516L132.51 48.068L132.471 49.337H132.285ZM132.375 50.042C132.267 50.042 132.18 49.955 132.18 49.832C132.18 49.706 132.267 49.622 132.375 49.622C132.486 49.622 132.576 49.706 132.576 49.832C132.576 49.955 132.486 50.042 132.375 50.042Z" fill="#8C8C8C"/>
    <path d="M109.727 34.4545C109.727 31.6931 111.966 29.4545 114.727 29.4545H160.364C163.125 29.4545 165.364 31.6931 165.364 34.4545V37.6364H109.727V34.4545Z" fill="#FFF2BF"/>
    <g clip-path="url(#clip0_182_1270)">
        <path d="M163.103 33.5045C163.103 33.167 162.842 32.8908 162.524 32.8908C162.205 32.8908 161.944 33.167 161.944 33.5045C161.944 33.842 162.205 34.1181 162.524 34.1181C162.842 34.1181 163.103 33.842 163.103 33.5045ZM159.046 33.5045C159.046 33.167 158.786 32.8908 158.467 32.8908C158.148 32.8908 157.887 33.167 157.887 33.5045C157.887 33.842 158.148 34.1181 158.467 34.1181C158.786 34.1181 159.046 33.842 159.046 33.5045ZM161.075 33.5045C161.075 33.167 160.814 32.8908 160.495 32.8908C160.177 32.8908 159.916 33.167 159.916 33.5045C159.916 33.842 160.177 34.1181 160.495 34.1181C160.814 34.1181 161.075 33.842 161.075 33.5045Z" fill="#8C8C8C"/>
    </g>
    <path d="M155.306 68.196H155.638V68.744H155.306V68.196ZM155.462 66.86C155.986 66.86 156.354 67.148 156.354 67.576C156.354 68.004 155.986 68.288 155.462 68.288C154.942 68.288 154.574 68.004 154.574 67.576C154.574 67.148 154.942 66.86 155.462 66.86ZM155.462 67.116C155.122 67.116 154.886 67.304 154.886 67.576C154.886 67.852 155.122 68.036 155.462 68.036C155.806 68.036 156.042 67.852 156.042 67.576C156.042 67.304 155.806 67.116 155.462 67.116ZM156.842 66.7H157.174V69.464H156.842V66.7ZM157.034 67.92H157.702V68.196H157.034V67.92ZM154.886 69.956H157.302V70.232H154.886V69.956ZM154.886 69.228H155.218V70.076H154.886V69.228ZM154.41 68.928L154.366 68.656C155.002 68.656 155.882 68.648 156.618 68.536L156.642 68.78C155.886 68.92 155.03 68.928 154.41 68.928ZM158.966 68.816H159.294V69.704H158.966V68.816ZM160.122 68.808H160.446V69.7H160.122V68.808ZM158.054 69.592H161.33V69.868H158.054V69.592ZM158.45 66.964H160.926V68.056H158.79V68.784H158.462V67.792H160.598V67.232H158.45V66.964ZM158.462 68.636H161.01V68.908H158.462V68.636ZM162.053 69.116L162.001 67.424L161.993 67.004H162.361L162.353 67.424L162.301 69.116H162.053ZM162.173 70.056C162.029 70.056 161.913 69.94 161.913 69.776C161.913 69.608 162.029 69.496 162.173 69.496C162.321 69.496 162.441 69.608 162.441 69.776C162.441 69.94 162.321 70.056 162.173 70.056Z" fill="#8C8C8C"/>
    <rect x="150.15" y="67.15" width="2.7" height="2.7" rx="0.85" fill="white" stroke="#8C8C8C" stroke-width="0.3"/>
    <path d="M117.72 32.652H118.256V36.356H117.72V32.652ZM116.628 33.036H117.156C117.156 34.168 116.772 35.096 115.456 35.732L115.18 35.308C116.244 34.796 116.628 34.124 116.628 33.132V33.036ZM115.376 33.036H116.88V33.456H115.376V33.036ZM120.252 32.672H120.7V32.74C120.7 33.36 120.144 33.848 119.188 33.952L119.012 33.552C119.848 33.468 120.252 33.1 120.252 32.74V32.672ZM120.344 32.672H120.796V32.74C120.796 33.1 121.2 33.468 122.032 33.552L121.856 33.952C120.9 33.848 120.344 33.36 120.344 32.74V32.672ZM120.252 34.428H120.784V34.944H120.252V34.428ZM118.848 34.104H122.196V34.52H118.848V34.104ZM119.232 34.76H121.792V35.72H119.76V36.04H119.236V35.352H121.268V35.156H119.232V34.76ZM119.236 35.932H121.888V36.332H119.236V35.932ZM122.531 34.392H125.883V34.816H122.531V34.392ZM123.943 33.836H124.471V34.556H123.943V33.836ZM122.935 33.668H125.503V34.088H122.935V33.668ZM122.935 32.812H125.483V33.228H123.463V33.936H122.935V32.812ZM124.195 35C124.995 35 125.479 35.244 125.479 35.68C125.479 36.116 124.995 36.36 124.195 36.36C123.395 36.36 122.907 36.116 122.907 35.68C122.907 35.244 123.395 35 124.195 35ZM124.195 35.4C123.699 35.4 123.447 35.492 123.447 35.68C123.447 35.872 123.699 35.956 124.195 35.956C124.691 35.956 124.943 35.872 124.943 35.68C124.943 35.492 124.691 35.4 124.195 35.4ZM128.959 33.184H129.599V33.616H128.959V33.184ZM128.959 33.988H129.599V34.42H128.959V33.988ZM128.591 32.652H129.123V35H128.591V32.652ZM127.919 35.04C128.683 35.04 129.163 35.284 129.163 35.7C129.163 36.112 128.683 36.356 127.919 36.356C127.155 36.356 126.675 36.112 126.675 35.7C126.675 35.284 127.155 35.04 127.919 35.04ZM127.919 35.44C127.451 35.44 127.203 35.524 127.203 35.7C127.203 35.876 127.451 35.96 127.919 35.96C128.387 35.96 128.635 35.876 128.635 35.7C128.635 35.524 128.387 35.44 127.919 35.44ZM126.207 33.004H128.387V33.416H126.207V33.004ZM127.299 33.54C127.835 33.54 128.207 33.808 128.207 34.204C128.207 34.604 127.835 34.868 127.299 34.868C126.759 34.868 126.387 34.604 126.387 34.204C126.387 33.808 126.759 33.54 127.299 33.54ZM127.299 33.928C127.059 33.928 126.899 34.024 126.899 34.204C126.899 34.384 127.059 34.48 127.299 34.48C127.535 34.48 127.699 34.384 127.699 34.204C127.699 34.024 127.535 33.928 127.299 33.928ZM127.031 32.628H127.563V33.224H127.031V32.628ZM131.633 34.344H132.165V34.876H131.633V34.344ZM133.201 32.656H133.733V35.176H133.201V32.656ZM133.545 33.712H134.197V34.148H133.545V33.712ZM130.809 35.104L130.749 34.692C131.413 34.692 132.289 34.688 133.037 34.596L133.077 34.96C132.305 35.092 131.457 35.1 130.809 35.104ZM131.221 35.324H133.733V36.356H133.201V35.732H131.221V35.324ZM130.845 32.924H132.945V33.304H130.845V32.924ZM131.897 33.392C132.441 33.392 132.797 33.604 132.797 33.944C132.797 34.284 132.441 34.496 131.897 34.496C131.349 34.496 130.993 34.284 130.993 33.944C130.993 33.604 131.349 33.392 131.897 33.392ZM131.897 33.74C131.645 33.74 131.497 33.804 131.497 33.944C131.497 34.076 131.645 34.148 131.897 34.148C132.145 34.148 132.293 34.076 132.293 33.944C132.293 33.804 132.145 33.74 131.897 33.74ZM131.633 32.624H132.165V33.096H131.633V32.624ZM137.017 32.656H137.553V35.316H137.017V32.656ZM135.085 35.868H137.645V36.292H135.085V35.868ZM135.085 35.048H135.617V36.04H135.085V35.048ZM135.537 32.888C136.105 32.888 136.541 33.28 136.541 33.828C136.541 34.372 136.105 34.768 135.537 34.768C134.969 34.768 134.529 34.372 134.529 33.828C134.529 33.28 134.969 32.888 135.537 32.888ZM135.537 33.348C135.261 33.348 135.049 33.524 135.049 33.828C135.049 34.128 135.261 34.304 135.537 34.304C135.809 34.304 136.021 34.128 136.021 33.828C136.021 33.524 135.809 33.348 135.537 33.348Z" fill="#8C8C8C"/>
    <g filter="url(#filter2_d_182_1270)">
        <rect x="51" y="80.1818" width="55.6364" height="44.1818" rx="5" fill="white"/>
    </g>
    <path d="M57.3092 92.5249H57.5582V94.5589H57.3092V92.5249ZM57.4802 93.4129H57.9602V93.6229H57.4802V93.4129ZM55.4612 92.8519H57.0632V93.0529H55.4612V92.8519ZM56.2622 93.2029C56.6462 93.2029 56.9102 93.4039 56.9102 93.7099C56.9102 94.0129 56.6462 94.2139 56.2622 94.2139C55.8752 94.2139 55.6112 94.0129 55.6112 93.7099C55.6112 93.4039 55.8752 93.2029 56.2622 93.2029ZM56.2622 93.3979C56.0162 93.3979 55.8482 93.5209 55.8482 93.7099C55.8482 93.8959 56.0162 94.0189 56.2622 94.0189C56.5052 94.0189 56.6732 93.8959 56.6732 93.7099C56.6732 93.5209 56.5052 93.3979 56.2622 93.3979ZM56.1362 92.5219H56.3852V92.9569H56.1362V92.5219ZM55.8692 94.9699H57.6812V95.1739H55.8692V94.9699ZM55.8692 94.3969H56.1182V95.0569H55.8692V94.3969ZM58.3349 93.5839H58.5449C59.0909 93.5839 59.4119 93.5659 59.7839 93.4909L59.8139 93.6919C59.4299 93.7699 59.0999 93.7879 58.5449 93.7879H58.3349V93.5839ZM58.3349 92.6779H59.5319V92.8789H58.5809V93.7039H58.3349V92.6779ZM60.0689 92.5219H60.3179V93.8869H60.0689V92.5219ZM60.2489 93.0919H60.7199V93.2989H60.2489V93.0919ZM58.5959 94.0249H60.3179V94.6939H58.8479V95.1139H58.6019V94.5019H60.0749V94.2229H58.5959V94.0249ZM58.6019 94.9969H60.4169V95.1979H58.6019V94.9969ZM62.0727 93.5749H62.5857V93.7819H62.0727V93.5749ZM63.0387 92.5219H63.2787V95.2339H63.0387V92.5219ZM62.5017 92.5789H62.7387V95.0989H62.5017V92.5789ZM61.5837 92.7469C61.9347 92.7469 62.1627 93.1099 62.1627 93.6919C62.1627 94.2739 61.9347 94.6369 61.5837 94.6369C61.2327 94.6369 61.0077 94.2739 61.0077 93.6919C61.0077 93.1099 61.2327 92.7469 61.5837 92.7469ZM61.5837 92.9779C61.3707 92.9779 61.2357 93.2539 61.2357 93.6919C61.2357 94.1299 61.3707 94.4059 61.5837 94.4059C61.7997 94.4059 61.9347 94.1299 61.9347 93.6919C61.9347 93.2539 61.7997 92.9779 61.5837 92.9779ZM64.7414 93.5299H66.5534V93.7339H64.7414V93.5299ZM64.4024 94.0849H66.8624V94.2919H64.4024V94.0849ZM65.5004 94.1989H65.7464V95.2249H65.5004V94.1989ZM64.7414 92.6809H66.5174V92.8849H64.9934V93.6289H64.7414V92.6809ZM67.9091 93.7399H68.1551V94.3969H67.9091V93.7399ZM69.1451 92.5219H69.3941V94.5709H69.1451V92.5219ZM67.5431 94.9699H69.4601V95.1739H67.5431V94.9699ZM67.5431 94.3489H67.7921V95.0329H67.5431V94.3489ZM67.1771 93.7999L67.1441 93.5929C67.6421 93.5929 68.3231 93.5839 68.9021 93.5029L68.9201 93.6829C68.3291 93.7849 67.6691 93.7969 67.1771 93.7999ZM68.5571 93.9979H69.2081V94.1959H68.5571V93.9979ZM67.3901 92.6869H68.5601V92.8879H67.3901V92.6869ZM68.4071 92.6869H68.6531V92.7889C68.6531 92.9539 68.6531 93.2389 68.5811 93.6319L68.3351 93.6139C68.4071 93.2179 68.4071 92.9479 68.4071 92.7889V92.6869ZM69.9219 93.9469H72.3729V94.1509H69.9219V93.9469ZM70.2399 94.9699H72.1029V95.1739H70.2399V94.9699ZM70.2399 94.3879H70.4889V95.0329H70.2399V94.3879ZM71.1489 92.6119C71.7279 92.6119 72.1029 92.8159 72.1029 93.1549C72.1029 93.4909 71.7279 93.6949 71.1489 93.6949C70.5669 93.6949 70.1949 93.4909 70.1949 93.1549C70.1949 92.8159 70.5669 92.6119 71.1489 92.6119ZM71.1489 92.8159C70.7229 92.8159 70.4499 92.9419 70.4499 93.1549C70.4499 93.3679 70.7229 93.4939 71.1489 93.4939C71.5749 93.4939 71.8479 93.3679 71.8479 93.1549C71.8479 92.9419 71.5749 92.8159 71.1489 92.8159ZM75.3296 92.5219H75.5816V93.9259H75.3296V92.5219ZM73.8116 94.0579H75.5816V94.7119H74.0636V95.1199H73.8206V94.5259H75.3326V94.2559H73.8116V94.0579ZM73.8206 95.0059H75.6806V95.2039H73.8206V95.0059ZM73.4756 92.7049H74.9306V92.9029H73.4756V92.7049ZM73.4276 93.8359L73.4006 93.6289C73.8836 93.6289 74.5316 93.6169 75.0596 93.5509L75.0746 93.7339C74.5346 93.8149 73.9046 93.8329 73.4276 93.8359ZM73.7426 92.7949H73.9826V93.7189H73.7426V92.7949ZM74.4206 92.7949H74.6636V93.7189H74.4206V92.7949ZM77.2103 92.6179H77.4293V92.7679C77.4293 93.2869 76.9013 93.6589 76.3373 93.7549L76.2383 93.5539C76.7333 93.4789 77.2103 93.1549 77.2103 92.7679V92.6179ZM77.2553 92.6179H77.4713V92.7679C77.4713 93.1459 77.9543 93.4789 78.4433 93.5539L78.3443 93.7549C77.7863 93.6589 77.2553 93.2809 77.2553 92.7679V92.6179ZM77.2103 94.2019H77.4563V95.2339H77.2103V94.2019ZM76.1153 94.0489H78.5663V94.2559H76.1153V94.0489ZM79.1151 94.3369L79.0761 93.0679L79.0701 92.7529H79.3461L79.3401 93.0679L79.3011 94.3369H79.1151ZM79.2051 95.0419C79.0971 95.0419 79.0101 94.9549 79.0101 94.8319C79.0101 94.7059 79.0971 94.6219 79.2051 94.6219C79.3161 94.6219 79.4061 94.7059 79.4061 94.8319C79.4061 94.9549 79.3161 95.0419 79.2051 95.0419Z" fill="#8C8C8C"/>
    <path d="M51 85.1818C51 82.4204 53.2386 80.1818 56 80.1818H101.636C104.398 80.1818 106.636 82.4204 106.636 85.1818V88.3636H51V85.1818Z" fill="#FFE1E4"/>
    <path d="M104.376 84.2317C104.376 83.8942 104.115 83.6181 103.797 83.6181C103.478 83.6181 103.217 83.8942 103.217 84.2317C103.217 84.5692 103.478 84.8453 103.797 84.8453C104.115 84.8453 104.376 84.5692 104.376 84.2317ZM100.319 84.2317C100.319 83.8942 100.059 83.6181 99.7399 83.6181C99.4211 83.6181 99.1603 83.8942 99.1603 84.2317C99.1603 84.5692 99.4211 84.8453 99.7399 84.8453C100.059 84.8453 100.319 84.5692 100.319 84.2317ZM102.348 84.2317C102.348 83.8942 102.087 83.6181 101.768 83.6181C101.45 83.6181 101.189 83.8942 101.189 84.2317C101.189 84.5692 101.45 84.8453 101.768 84.8453C102.087 84.8453 102.348 84.5692 102.348 84.2317Z" fill="#8C8C8C"/>
    <path d="M56.3982 84.3799H56.7942V84.4959C56.7942 85.0879 56.5542 85.6199 55.9742 85.8359L55.7302 85.4439C56.1982 85.2719 56.3982 84.8919 56.3982 84.4959V84.3799ZM56.5062 84.3799H56.8982V84.4959C56.8982 84.8679 57.1022 85.2239 57.5662 85.3839L57.3302 85.7759C56.7462 85.5759 56.5062 85.0639 56.5062 84.4959V84.3799ZM55.8342 84.0679H57.4582V84.4839H55.8342V84.0679ZM56.3982 83.6879H56.8982V84.2599H56.3982V83.6879ZM58.3862 83.6559H58.8902V85.9239H58.3862V83.6559ZM57.9422 84.5799H58.5302V85.0039H57.9422V84.5799ZM57.6142 83.7119H58.1102V85.9079H57.6142V83.7119ZM56.3462 86.0799H58.8902V87.3559H58.3622V86.5039H56.3462V86.0799ZM62.8642 83.6519H63.4002V85.5639H62.8642V83.6519ZM60.7482 86.9239H60.9922C61.5722 86.9239 61.8722 86.9159 62.2282 86.8439L62.2802 87.2359C61.9082 87.3079 61.5962 87.3159 60.9922 87.3159H60.7482V86.9239ZM60.7442 85.7199H62.0202V86.6839H61.2602V87.1479H60.7482V86.3199H61.5042V86.1119H60.7442V85.7199ZM62.1562 85.7199H63.4002V87.3479H62.8722V86.1439H62.1562V85.7199ZM61.3642 83.7999C61.9282 83.7999 62.3522 84.1559 62.3522 84.6519C62.3522 85.1519 61.9282 85.5039 61.3642 85.5039C60.8002 85.5039 60.3762 85.1519 60.3762 84.6519C60.3762 84.1559 60.8002 83.7999 61.3642 83.7999ZM61.3642 84.2319C61.0922 84.2319 60.8882 84.3879 60.8882 84.6519C60.8882 84.9159 61.0922 85.0759 61.3642 85.0759C61.6362 85.0759 61.8362 84.9159 61.8362 84.6519C61.8362 84.3879 61.6362 84.2319 61.3642 84.2319ZM66.5518 83.6519H67.0878V87.3559H66.5518V83.6519ZM65.4598 84.0359H65.9878C65.9878 85.1679 65.6038 86.0959 64.2878 86.7319L64.0118 86.3079C65.0758 85.7959 65.4598 85.1239 65.4598 84.1319V84.0359ZM64.2078 84.0359H65.7118V84.4559H64.2078V84.0359ZM68.4258 87.2799H72.4258V83.2799H68.4258V87.2799Z" fill="#8C8C8C"/>
    <path d="M55.5742 85.6999H72.4258V85.8999H55.5742V85.6999Z" fill="#8C8C8C"/>
    <path d="M74.2811 17.182C72.5521 17.182 71.8891 16.09 71.8891 14.465V11.228H70.8751V9.811L72.0061 9.733L72.2141 7.757H73.8001V9.733H75.6071V11.228H73.8001V14.465C73.8001 15.297 74.1511 15.687 74.7881 15.687C75.0351 15.687 75.3081 15.596 75.5161 15.518L75.8281 16.909C75.4381 17.039 74.9311 17.182 74.2811 17.182ZM79.8253 17.182C77.9923 17.182 76.3283 15.778 76.3283 13.373C76.3283 10.955 77.9923 9.551 79.8253 9.551C81.6453 9.551 83.3093 10.955 83.3093 13.373C83.3093 15.778 81.6453 17.182 79.8253 17.182ZM79.8253 15.635C80.8133 15.635 81.3593 14.738 81.3593 13.373C81.3593 11.995 80.8133 11.111 79.8253 11.111C78.8243 11.111 78.2783 11.995 78.2783 13.373C78.2783 14.738 78.8243 15.635 79.8253 15.635ZM87.482 17.182C85.662 17.182 84.492 15.765 84.492 13.373C84.492 10.994 85.987 9.551 87.547 9.551C88.366 9.551 88.873 9.85 89.406 10.331L89.328 9.187V6.639H91.239V17H89.679L89.536 16.246H89.497C88.964 16.779 88.236 17.182 87.482 17.182ZM87.963 15.609C88.483 15.609 88.912 15.401 89.328 14.868V11.67C88.899 11.267 88.431 11.111 87.976 11.111C87.157 11.111 86.455 11.891 86.455 13.347C86.455 14.868 87.014 15.609 87.963 15.609ZM96.3293 17.182C94.4963 17.182 92.8323 15.778 92.8323 13.373C92.8323 10.955 94.4963 9.551 96.3293 9.551C98.1493 9.551 99.8133 10.955 99.8133 13.373C99.8133 15.778 98.1493 17.182 96.3293 17.182ZM96.3293 15.635C97.3173 15.635 97.8633 14.738 97.8633 13.373C97.8633 11.995 97.3173 11.111 96.3293 11.111C95.3283 11.111 94.7823 11.995 94.7823 13.373C94.7823 14.738 95.3283 15.635 96.3293 15.635Z" fill="#8C8C8C"/>
    <path d="M163.852 166.77C163.889 166.811 163.909 166.867 163.909 166.925C163.909 166.983 163.889 167.039 163.852 167.08L163.444 167.539L162.661 166.66L163.069 166.201C163.106 166.16 163.156 166.136 163.207 166.136C163.259 166.136 163.309 166.16 163.346 166.201L163.852 166.769V166.77ZM163.167 167.849L162.384 166.97L159.717 169.965C159.695 169.989 159.679 170.019 159.669 170.051L159.354 171.112C159.349 171.132 159.348 171.152 159.352 171.172C159.356 171.192 159.365 171.21 159.378 171.225C159.391 171.239 159.407 171.249 159.425 171.254C159.442 171.259 159.461 171.258 159.478 171.251L160.423 170.897C160.452 170.887 160.478 170.869 160.5 170.845L163.167 167.849Z" fill="#8C8C8C"/>
    <path d="M159.855 166.042C159.886 166.042 159.916 166.055 159.937 166.08C159.959 166.104 159.971 166.137 159.971 166.172V166.953H160.667C160.698 166.953 160.727 166.967 160.749 166.991C160.771 167.015 160.783 167.049 160.783 167.083C160.783 167.118 160.771 167.151 160.749 167.175C160.727 167.2 160.698 167.213 160.667 167.213H159.971V167.994C159.971 168.029 159.959 168.062 159.937 168.086C159.916 168.111 159.886 168.125 159.855 168.125C159.825 168.125 159.795 168.111 159.773 168.086C159.752 168.062 159.739 168.029 159.739 167.994V167.213H159.044C159.013 167.213 158.983 167.2 158.962 167.175C158.94 167.151 158.928 167.118 158.928 167.083C158.928 167.049 158.94 167.015 158.962 166.991C158.983 166.967 159.013 166.953 159.044 166.953H159.739V166.172C159.739 166.137 159.752 166.104 159.773 166.08C159.795 166.055 159.825 166.042 159.855 166.042Z" fill="#8C8C8C"/>
    <path d="M16.4449 62L17.3929 59.04H18.0889L19.0369 62H18.4169L17.9929 60.46C17.9049 60.152 17.8209 59.808 17.7369 59.492H17.7209C17.6409 59.812 17.5569 60.152 17.4689 60.46L17.0449 62H16.4449ZM17.0329 61.24V60.784H18.4409V61.24H17.0329ZM20.2874 62.056C19.6714 62.056 19.1994 61.624 19.1994 60.884C19.1994 60.14 19.7314 59.708 20.3394 59.708C20.6194 59.708 20.8274 59.812 20.9914 59.956L20.7154 60.332C20.6034 60.236 20.4954 60.188 20.3754 60.188C20.0274 60.188 19.7994 60.46 19.7994 60.884C19.7994 61.304 20.0314 61.58 20.3514 61.58C20.5154 61.58 20.6674 61.5 20.7914 61.4L21.0234 61.788C20.8114 61.972 20.5354 62.056 20.2874 62.056ZM22.1984 62.056C21.6664 62.056 21.4624 61.72 21.4624 61.22V60.224H21.1504V59.788L21.4984 59.764L21.5624 59.156H22.0504V59.764H22.6064V60.224H22.0504V61.22C22.0504 61.476 22.1584 61.596 22.3544 61.596C22.4304 61.596 22.5144 61.568 22.5784 61.544L22.6744 61.972C22.5544 62.012 22.3984 62.056 22.1984 62.056ZM23.066 62V59.764H23.654V62H23.066ZM23.358 59.4C23.154 59.4 23.018 59.272 23.018 59.076C23.018 58.884 23.154 58.76 23.358 58.76C23.562 58.76 23.702 58.884 23.702 59.076C23.702 59.272 23.562 59.4 23.358 59.4ZM24.7848 62L24.0168 59.764H24.6128L24.9368 60.88C24.9968 61.1 25.0568 61.328 25.1168 61.556H25.1368C25.1968 61.328 25.2568 61.1 25.3168 60.88L25.6448 59.764H26.2128L25.4648 62H24.7848ZM27.5068 62.056C26.8788 62.056 26.3908 61.624 26.3908 60.884C26.3908 60.156 26.9028 59.708 27.4308 59.708C28.0508 59.708 28.3668 60.156 28.3668 60.776C28.3668 60.888 28.3548 60.992 28.3428 61.048H26.9588C27.0108 61.416 27.2508 61.604 27.5828 61.604C27.7628 61.604 27.9228 61.548 28.0868 61.448L28.2828 61.812C28.0628 61.964 27.7828 62.056 27.5068 62.056ZM26.9508 60.656H27.8668C27.8668 60.352 27.7308 60.16 27.4428 60.16C27.2068 60.16 26.9988 60.328 26.9508 60.656Z" fill="#8C8C8C"/>
    <ellipse cx="8.59093" cy="59.7274" rx="3.86364" ry="4.09091" fill="#FFF2BF"/>
    <path d="M17.441 49L18.389 46.04H19.085L20.033 49H19.413L18.989 47.46C18.901 47.152 18.817 46.808 18.733 46.492H18.717C18.637 46.812 18.553 47.152 18.465 47.46L18.041 49H17.441ZM18.029 48.24V47.784H19.437V48.24H18.029ZM20.8875 49.056C20.4755 49.056 20.3355 48.788 20.3355 48.372V45.812H20.9235V48.396C20.9235 48.536 20.9835 48.58 21.0395 48.58C21.0595 48.58 21.0755 48.58 21.1155 48.572L21.1875 49.008C21.1195 49.032 21.0275 49.056 20.8875 49.056ZM22.1493 49.056C21.7373 49.056 21.5973 48.788 21.5973 48.372V45.812H22.1853V48.396C22.1853 48.536 22.2453 48.58 22.3013 48.58C22.3213 48.58 22.3372 48.58 22.3773 48.572L22.4493 49.008C22.3813 49.032 22.2893 49.056 22.1493 49.056Z" fill="#8C8C8C"/>
    <ellipse cx="8.59093" cy="47.4547" rx="3.86364" ry="4.09091" fill="#B6B6B5"/>
    <path d="M17.7868 74.056C17.0388 74.056 16.4348 73.52 16.4348 72.532C16.4348 71.556 17.0588 70.988 17.8108 70.988C18.1868 70.988 18.4868 71.164 18.6788 71.364L18.3668 71.744C18.2148 71.596 18.0468 71.496 17.8188 71.496C17.3748 71.496 17.0388 71.88 17.0388 72.512C17.0388 73.16 17.3388 73.544 17.8108 73.544C18.0628 73.544 18.2628 73.424 18.4188 73.252L18.7308 73.624C18.4868 73.908 18.1708 74.056 17.7868 74.056ZM20.0958 74.056C19.5318 74.056 19.0198 73.624 19.0198 72.884C19.0198 72.14 19.5318 71.708 20.0958 71.708C20.6558 71.708 21.1678 72.14 21.1678 72.884C21.1678 73.624 20.6558 74.056 20.0958 74.056ZM20.0958 73.58C20.3998 73.58 20.5678 73.304 20.5678 72.884C20.5678 72.46 20.3998 72.188 20.0958 72.188C19.7878 72.188 19.6198 72.46 19.6198 72.884C19.6198 73.304 19.7878 73.58 20.0958 73.58ZM21.6637 74V71.764H22.1397L22.1877 72.06H22.1997C22.3877 71.868 22.5957 71.708 22.8837 71.708C23.2077 71.708 23.3957 71.848 23.4997 72.096C23.7077 71.884 23.9237 71.708 24.2157 71.708C24.6917 71.708 24.9077 72.044 24.9077 72.604V74H24.3197V72.68C24.3197 72.328 24.2237 72.212 24.0077 72.212C23.8797 72.212 23.7397 72.292 23.5797 72.46V74H22.9917V72.68C22.9917 72.328 22.8917 72.212 22.6757 72.212C22.5517 72.212 22.4037 72.292 22.2517 72.46V74H21.6637ZM25.5191 74.86V71.764H25.9951L26.0431 71.996H26.0551C26.2391 71.832 26.4711 71.708 26.7111 71.708C27.2631 71.708 27.5911 72.156 27.5911 72.848C27.5911 73.616 27.1311 74.056 26.6391 74.056C26.4471 74.056 26.2551 73.972 26.0871 73.816L26.1071 74.18V74.86H25.5191ZM26.5111 73.572C26.7791 73.572 26.9871 73.34 26.9871 72.856C26.9871 72.424 26.8551 72.188 26.5431 72.188C26.3951 72.188 26.2591 72.264 26.1071 72.42V73.408C26.2471 73.532 26.3911 73.572 26.5111 73.572ZM28.6453 74.056C28.2333 74.056 28.0933 73.788 28.0933 73.372V70.812H28.6813V73.396C28.6813 73.536 28.7413 73.58 28.7973 73.58C28.8173 73.58 28.8333 73.58 28.8733 73.572L28.9453 74.008C28.8773 74.032 28.7853 74.056 28.6453 74.056ZM30.3311 74.056C29.7031 74.056 29.2151 73.624 29.2151 72.884C29.2151 72.156 29.7271 71.708 30.2551 71.708C30.8751 71.708 31.1911 72.156 31.1911 72.776C31.1911 72.888 31.1791 72.992 31.1671 73.048H29.7831C29.8351 73.416 30.0751 73.604 30.4071 73.604C30.5871 73.604 30.7471 73.548 30.9111 73.448L31.1071 73.812C30.8871 73.964 30.6071 74.056 30.3311 74.056ZM29.7751 72.656H30.6911C30.6911 72.352 30.5551 72.16 30.2671 72.16C30.0311 72.16 29.8231 72.328 29.7751 72.656ZM32.4289 74.056C31.8969 74.056 31.6929 73.72 31.6929 73.22V72.224H31.3809V71.788L31.7289 71.764L31.7929 71.156H32.2809V71.764H32.8369V72.224H32.2809V73.22C32.2809 73.476 32.3889 73.596 32.5849 73.596C32.6609 73.596 32.7449 73.568 32.8089 73.544L32.9049 73.972C32.7849 74.012 32.6289 74.056 32.4289 74.056ZM34.1748 74.056C33.5468 74.056 33.0588 73.624 33.0588 72.884C33.0588 72.156 33.5708 71.708 34.0988 71.708C34.7188 71.708 35.0348 72.156 35.0348 72.776C35.0348 72.888 35.0228 72.992 35.0108 73.048H33.6268C33.6788 73.416 33.9188 73.604 34.2508 73.604C34.4308 73.604 34.5908 73.548 34.7548 73.448L34.9508 73.812C34.7308 73.964 34.4508 74.056 34.1748 74.056ZM33.6188 72.656H34.5348C34.5348 72.352 34.3988 72.16 34.1108 72.16C33.8748 72.16 33.6668 72.328 33.6188 72.656ZM36.311 74.056C35.751 74.056 35.391 73.62 35.391 72.884C35.391 72.152 35.851 71.708 36.331 71.708C36.583 71.708 36.739 71.8 36.903 71.948L36.879 71.596V70.812H37.467V74H36.987L36.943 73.768H36.931C36.767 73.932 36.543 74.056 36.311 74.056ZM36.459 73.572C36.619 73.572 36.751 73.508 36.879 73.344V72.36C36.747 72.236 36.603 72.188 36.463 72.188C36.211 72.188 35.995 72.428 35.995 72.876C35.995 73.344 36.167 73.572 36.459 73.572Z" fill="#8C8C8C"/>
    <ellipse cx="8.59093" cy="72.0001" rx="3.86364" ry="4.09091" fill="#FFE1E4"/>
    <path d="M96.7603 119.196H97.0923V119.744H96.7603V119.196ZM96.9163 117.86C97.4403 117.86 97.8083 118.148 97.8083 118.576C97.8083 119.004 97.4403 119.288 96.9163 119.288C96.3963 119.288 96.0283 119.004 96.0283 118.576C96.0283 118.148 96.3963 117.86 96.9163 117.86ZM96.9163 118.116C96.5763 118.116 96.3403 118.304 96.3403 118.576C96.3403 118.852 96.5763 119.036 96.9163 119.036C97.2603 119.036 97.4963 118.852 97.4963 118.576C97.4963 118.304 97.2603 118.116 96.9163 118.116ZM98.2963 117.7H98.6283V120.464H98.2963V117.7ZM98.4883 118.92H99.1563V119.196H98.4883V118.92ZM96.3403 120.956H98.7563V121.232H96.3403V120.956ZM96.3403 120.228H96.6723V121.076H96.3403V120.228ZM95.8643 119.928L95.8203 119.656C96.4563 119.656 97.3363 119.648 98.0723 119.536L98.0963 119.78C97.3403 119.92 96.4843 119.928 95.8643 119.928ZM100.42 119.816H100.748V120.704H100.42V119.816ZM101.576 119.808H101.9V120.7H101.576V119.808ZM99.508 120.592H102.784V120.868H99.508V120.592ZM99.904 117.964H102.38V119.056H100.244V119.784H99.916V118.792H102.052V118.232H99.904V117.964ZM99.916 119.636H102.464V119.908H99.916V119.636ZM103.508 120.116L103.456 118.424L103.448 118.004H103.816L103.808 118.424L103.756 120.116H103.508ZM103.628 121.056C103.484 121.056 103.368 120.94 103.368 120.776C103.368 120.608 103.484 120.496 103.628 120.496C103.776 120.496 103.896 120.608 103.896 120.776C103.896 120.94 103.776 121.056 103.628 121.056Z" fill="#8C8C8C"/>
    <path d="M93 119.227L93.7727 120.455L95.3182 118" stroke="#8C8C8C" stroke-width="0.3"/>
    <path d="M20.8 163C20.8 164.546 21.8969 165.8 23.25 165.8C23.9354 165.8 24.5552 165.478 24.9998 164.96C25 164.973 25 164.987 25 165C25 167.209 23.433 169 21.5 169C19.567 169 18 167.209 18 165C18 162.791 19.567 161 21.5 161C21.5117 161 21.5234 161 21.5352 161C21.0815 161.508 20.8 162.217 20.8 163ZM18.7 165C18.7 166.767 19.9536 168.2 21.5 168.2C22.5704 168.2 23.5005 167.514 23.9717 166.505C23.7381 166.567 23.4962 166.6 23.25 166.6C21.5103 166.6 20.1 164.988 20.1 163C20.1 162.719 20.1285 162.442 20.1833 162.175C19.3006 162.714 18.7 163.777 18.7 165Z" fill="#8C8C8C"/>
    <path d="M6.95459 7.36363H16.2273V8.37931H6.95459V7.36363ZM6.95459 10.9185H16.2273V11.9342H6.95459V10.9185ZM6.95459 14.4734H16.2273V15.489H6.95459V14.4734Z" fill="#8C8C8C"/>
    <defs>
        <filter id="filter0_d_182_1270" x="44" y="22.4545" width="75.6365" height="64.1818" filterUnits="userSpaceOnUse" color-interpolation-filters="sRGB">
            <feFlood flood-opacity="0" result="BackgroundImageFix"/>
            <feColorMatrix in="SourceAlpha" type="matrix" values="0 0 0 0 0 0 0 0 0 0 0 0 0 0 0 0 0 0 127 0" result="hardAlpha"/>
            <feMorphology radius="2" operator="erode" in="SourceAlpha" result="effect1_dropShadow_182_1270"/>
            <feOffset dx="3" dy="3"/>
            <feGaussianBlur stdDeviation="6"/>
            <feComposite in2="hardAlpha" operator="out"/>
            <feColorMatrix type="matrix" values="0 0 0 0 0 0 0 0 0 0 0 0 0 0 0 0 0 0 0.25 0"/>
            <feBlend mode="normal" in2="BackgroundImageFix" result="effect1_dropShadow_182_1270"/>
            <feBlend mode="normal" in="SourceGraphic" in2="effect1_dropShadow_182_1270" result="shape"/>
        </filter>
        <filter id="filter1_d_182_1270" x="102.727" y="22.4545" width="75.6365" height="64.1818" filterUnits="userSpaceOnUse" color-interpolation-filters="sRGB">
            <feFlood flood-opacity="0" result="BackgroundImageFix"/>
            <feColorMatrix in="SourceAlpha" type="matrix" values="0 0 0 0 0 0 0 0 0 0 0 0 0 0 0 0 0 0 127 0" result="hardAlpha"/>
            <feMorphology radius="2" operator="erode" in="SourceAlpha" result="effect1_dropShadow_182_1270"/>
            <feOffset dx="3" dy="3"/>
            <feGaussianBlur stdDeviation="6"/>
            <feComposite in2="hardAlpha" operator="out"/>
            <feColorMatrix type="matrix" values="0 0 0 0 0 0 0 0 0 0 0 0 0 0 0 0 0 0 0.25 0"/>
            <feBlend mode="normal" in2="BackgroundImageFix" result="effect1_dropShadow_182_1270"/>
            <feBlend mode="normal" in="SourceGraphic" in2="effect1_dropShadow_182_1270" result="shape"/>
        </filter>
        <filter id="filter2_d_182_1270" x="44" y="73.1818" width="75.6365" height="64.1818" filterUnits="userSpaceOnUse" color-interpolation-filters="sRGB">
            <feFlood flood-opacity="0" result="BackgroundImageFix"/>
            <feColorMatrix in="SourceAlpha" type="matrix" values="0 0 0 0 0 0 0 0 0 0 0 0 0 0 0 0 0 0 127 0" result="hardAlpha"/>
            <feMorphology radius="2" operator="erode" in="SourceAlpha" result="effect1_dropShadow_182_1270"/>
            <feOffset dx="3" dy="3"/>
            <feGaussianBlur stdDeviation="6"/>
            <feComposite in2="hardAlpha" operator="out"/>
            <feColorMatrix type="matrix" values="0 0 0 0 0 0 0 0 0 0 0 0 0 0 0 0 0 0 0.25 0"/>
            <feBlend mode="normal" in2="BackgroundImageFix" result="effect1_dropShadow_182_1270"/>
            <feBlend mode="normal" in="SourceGraphic" in2="effect1_dropShadow_182_1270" result="shape"/>
        </filter>
        <clipPath id="clip0_182_1270">
            <rect width="7.36364" height="6.95455" fill="white" transform="translate(163.973 29.8226) rotate(90)"/>
        </clipPath>
    </defs>
</svg>
