<svg width="122" height="120" viewBox="0 0 122 120" fill="none" xmlns="http://www.w3.org/2000/svg">
    <g clip-path="url(#clip0_56_216)">
        <path d="M4.4049 91.3805C3.15071 93.4814 1.74117 95.9195 0.544468 97.8619C0.0295691 98.7554 -0.123417 99.8207 0.118386 100.829C0.360189 101.837 0.977481 102.707 1.83761 103.253L26.9323 119.11C27.3684 119.387 27.8537 119.571 28.36 119.653C28.8663 119.735 29.3834 119.713 29.8811 119.587C30.3789 119.462 30.8473 119.236 31.2591 118.922C31.6709 118.609 32.0179 118.215 32.2797 117.762C33.2836 116.038 34.5767 113.798 35.9858 111.399C45.9271 94.5517 55.9264 96.6131 73.9559 105.453L98.8382 117.603C99.3047 117.831 99.8109 117.961 100.327 117.984C100.843 118.008 101.358 117.924 101.843 117.74C102.327 117.555 102.77 117.272 103.146 116.908C103.522 116.544 103.823 116.107 104.031 115.621L115.98 87.8722C116.386 86.9196 116.411 85.8414 116.05 84.87C115.688 83.8987 114.97 83.1118 114.05 82.679C108.799 80.1419 98.356 75.0878 88.9548 70.4297C55.135 53.5619 26.3917 54.6522 4.4049 91.3805Z" fill="url(#paint0_linear_56_216)"/>
        <path d="M116.928 28.4058C118.183 26.3048 119.592 23.8668 120.789 21.9243C121.304 21.0307 121.457 19.9654 121.215 18.9573C120.973 17.9492 120.356 17.0788 119.495 16.5331L94.4006 0.676031C93.9613 0.372263 93.4658 0.164563 92.9449 0.0658499C92.424 -0.0328636 91.889 -0.0204792 91.373 0.102233C90.857 0.224945 90.3711 0.45536 89.9455 0.779145C89.52 1.10293 89.1638 1.51316 88.8993 1.98432C87.8955 3.70871 86.6023 5.94871 85.1928 8.34676C75.2514 25.1946 65.2521 23.1336 47.2227 14.2931L22.4178 2.20237C21.9513 1.97445 21.4451 1.84496 20.929 1.82155C20.413 1.79815 19.8976 1.88132 19.4134 2.06613C18.9292 2.25094 18.4861 2.53363 18.1102 2.89748C17.7343 3.26132 17.4334 3.6989 17.2252 4.18432L5.27575 31.9341C4.87014 32.8866 4.84517 33.9646 5.20621 34.9359C5.56724 35.9072 6.2854 36.694 7.20596 37.1268C12.4565 39.6643 22.9 44.7185 32.3007 49.3765C66.1975 66.2243 94.9408 65.0946 116.928 28.4058" fill="url(#paint1_linear_56_216)"/>
    </g>
    <defs>
        <linearGradient id="paint0_linear_56_216" x1="11529.7" y1="6795.92" x2="8592.25" y2="233.056" gradientUnits="userSpaceOnUse">
            <stop offset="0.18" stop-color="#0052CC"/>
            <stop offset="1" stop-color="#2684FF"/>
        </linearGradient>
        <linearGradient id="paint1_linear_56_216" x1="112.715" y1="-752.946" x2="3054.74" y2="5812.97" gradientUnits="userSpaceOnUse">
            <stop offset="0.18" stop-color="#0052CC"/>
            <stop offset="1" stop-color="#2684FF"/>
        </linearGradient>
        <clipPath id="clip0_56_216">
            <rect width="121.63" height="120" fill="white"/>
        </clipPath>
    </defs>
</svg>
