<svg width="126" height="120" viewBox="0 0 126 120" fill="none" xmlns="http://www.w3.org/2000/svg">
    <g clip-path="url(#clip0_56_51)">
        <path d="M38.2321 42.9695L62.0419 28.0138C62.3348 27.8298 62.667 27.7329 63.0052 27.7329C63.3434 27.7329 63.6756 27.8298 63.9685 28.0138L87.7783 42.9695C88.0711 43.1536 88.3142 43.4181 88.4833 43.7367C88.6523 44.0553 88.7414 44.4166 88.7416 44.7845V74.6959C88.7416 75.4442 88.3739 76.1359 87.7783 76.5109L63.9685 91.4666C63.6756 91.6506 63.3434 91.7475 63.0052 91.7475C62.667 91.7475 62.3348 91.6506 62.0419 91.4666L38.2321 76.5109C37.9393 76.3269 37.6961 76.0623 37.527 75.7438C37.3579 75.4252 37.2689 75.0638 37.2688 74.6959V44.7839C37.2693 44.0351 37.6365 43.3445 38.2321 42.9695Z" fill="#8080F2"/>
        <path d="M124.732 57.2891L96.253 3.38667C95.2187 1.43787 93.3078 0 91.2391 0H34.2813C32.2126 0 30.3007 1.43787 29.2664 3.38667L0.788219 57.1701C-0.246138 59.1195 -0.246138 61.5797 0.788219 63.5291L29.2664 116.99C30.3007 118.939 32.2126 119.935 34.2813 119.935H91.2386C93.3073 119.935 95.2187 118.969 96.2525 117.019L124.731 63.4715C125.767 61.5232 125.767 59.2379 124.731 57.2891M101.149 83.2091C101.149 84.0011 100.711 84.7344 100.08 85.1312L63.8041 107.901C63.4918 108.096 63.1381 108.198 62.7781 108.198C62.4181 108.198 62.0644 108.096 61.7521 107.901L25.4486 85.1312C24.8177 84.7344 24.376 84.0016 24.376 83.2085V37.6683C24.376 36.8752 24.8113 36.1429 25.4427 35.7461L61.7163 12.976C62.0284 12.781 62.3821 12.6784 62.7421 12.6784C63.102 12.6784 63.4557 12.781 63.7678 12.976L100.073 35.7461C100.705 36.1429 101.149 36.8752 101.149 37.6683V83.2091Z" fill="#4B32C3"/>
    </g>
    <defs>
        <clipPath id="clip0_56_51">
            <rect width="125.52" height="120" fill="white"/>
        </clipPath>
    </defs>
</svg>
