<svg width="120" height="120" viewBox="0 0 120 120" fill="none" xmlns="http://www.w3.org/2000/svg">
    <path d="M9.02335 30.1696C-1.31633 45.0299 -0.0291473 64.3658 7.86929 80.1571C8.05679 80.5358 8.25367 80.908 8.44773 81.2802L8.8171 81.9918L9.04773 82.4014L9.45929 83.1383C9.70492 83.5705 9.95617 84.0008 10.213 84.4311L10.6434 85.1399C10.9284 85.6002 11.2199 86.0549 11.518 86.5086L11.8912 87.0843C12.3027 87.6983 12.7237 88.3115 13.1587 88.9133L13.1952 88.9602L13.409 89.2489C13.7849 89.7674 14.1721 90.2793 14.564 90.7855L14.999 91.3386C15.3487 91.7783 15.704 92.2152 16.0659 92.6502L16.4737 93.1377C16.9602 93.7118 17.4559 94.2782 17.9605 94.8364L17.9915 94.8674L18.0487 94.9311C18.5447 95.4694 19.0485 96.0004 19.5599 96.5239L20.0446 97.0124C20.4412 97.4118 20.8443 97.8046 21.2512 98.1955L21.7452 98.6643C22.289 99.1771 22.8384 99.6796 23.399 100.171L23.4252 100.191L23.713 100.437C24.2071 100.865 24.7096 101.289 25.2159 101.706L25.8384 102.201C26.2518 102.533 26.6699 102.86 27.0909 103.18L27.7602 103.689C28.2252 104.031 28.693 104.368 29.1655 104.697L29.6774 105.06L29.818 105.16C30.2662 105.469 30.7246 105.766 31.183 106.063L31.7737 106.457C32.4768 106.901 33.1893 107.341 33.9102 107.766L34.5009 108.098C35.0305 108.404 35.564 108.704 36.104 108.997C36.3965 109.155 36.6965 109.304 36.9909 109.455C37.3724 109.655 37.7512 109.857 38.1393 110.051L38.4046 110.18L38.8743 110.406C39.4752 110.693 40.0809 110.976 40.693 111.247L41.0774 111.42C41.7792 111.727 42.4865 112.021 43.199 112.302L43.7155 112.506C44.3755 112.76 45.0449 113.011 45.7171 113.247L45.9684 113.334C46.7062 113.592 47.4505 113.831 48.2005 114.065L48.7396 114.226C49.5027 114.456 50.2574 114.73 51.044 114.876C101.049 123.995 115.575 84.8258 115.575 84.8258C103.375 100.719 81.7208 104.912 61.2037 100.244C60.4265 100.069 59.6727 99.8258 58.9143 99.6018L58.3434 99.4283C57.6043 99.2018 56.8692 98.9627 56.1384 98.7111L55.8355 98.6015C55.1838 98.3711 54.5356 98.1307 53.8912 97.8805L53.3455 97.6658C52.6405 97.3874 51.9393 97.0968 51.2465 96.793L50.8274 96.6074C50.234 96.3393 49.6437 96.0646 49.0565 95.7833L48.5446 95.5377C48.0843 95.3136 47.6287 95.0755 47.1749 94.8411C46.8712 94.6808 46.5618 94.5299 46.2609 94.363C45.7084 94.0655 45.1612 93.7586 44.6193 93.4424L44.0652 93.133C43.3456 92.7082 42.633 92.2716 41.9277 91.8233L41.3512 91.439C40.8385 91.1101 40.3312 90.7729 39.8296 90.4274L39.3402 90.0833C38.8572 89.7419 38.3778 89.3953 37.9021 89.0436L37.2655 88.5618C36.8285 88.2295 36.3959 87.8914 35.968 87.5474L35.3896 87.0833C34.8447 86.6366 34.3059 86.1825 33.7734 85.7211L33.5962 85.5721C33.0224 85.0657 32.4561 84.551 31.8974 84.028L31.4184 83.5677C31.0049 83.1739 30.598 82.7774 30.1977 82.3705L29.7196 81.8933C29.2116 81.3735 28.7121 80.8453 28.2215 80.309L28.1474 80.2302C27.6304 79.6632 27.1237 79.0869 26.6277 78.5014L26.2302 78.029C25.8596 77.5831 25.4949 77.1325 25.1362 76.6771L24.7359 76.1783C24.3069 75.6238 23.8859 75.0631 23.473 74.4964C12.0824 58.9583 7.98929 37.5289 17.0934 19.9302M41.1205 17.6483C33.6421 28.4089 34.049 42.8146 39.8821 54.1949C40.8583 56.108 41.9633 57.9525 43.1896 59.7158C44.3099 61.3218 45.5521 63.2324 47.039 64.5224C47.5827 65.1179 48.1423 65.6987 48.7171 66.2643L49.1596 66.7002C49.718 67.2445 50.2894 67.7753 50.8734 68.2921L50.9427 68.3521L50.9596 68.3689C51.6128 68.9378 52.2802 69.4901 52.9612 70.0255L53.4159 70.3799C54.1005 70.9073 54.7986 71.4172 55.5093 71.909L55.5702 71.9549C55.8852 72.1724 56.2059 72.3749 56.5255 72.5849L56.9784 72.8839C57.4884 73.2111 58.0049 73.5299 58.5299 73.8355L58.7502 73.963C59.203 74.2236 59.6615 74.4805 60.1218 74.7299L60.6102 74.9839C60.928 75.1499 61.2459 75.3196 61.5693 75.4808L61.7146 75.5464C62.3737 75.8708 63.0384 76.184 63.7171 76.4793L64.1596 76.6611C64.7024 76.8918 65.2509 77.1168 65.8002 77.3268L66.5034 77.5846C67.003 77.7702 67.5046 77.939 68.0099 78.1086L68.6915 78.3271C69.4105 78.5502 70.1212 78.8324 70.8702 78.9571C109.479 85.3536 118.393 55.6264 118.393 55.6264C110.359 67.198 94.798 72.7199 78.194 68.4093C77.4599 68.2162 76.7307 68.0056 76.0068 67.7774L75.3496 67.5646C74.8366 67.3986 74.3268 67.223 73.8205 67.0377L73.1305 66.7808C72.5781 66.5688 72.0293 66.3475 71.4843 66.1171L71.0409 65.9296C70.362 65.6341 69.6905 65.3218 69.0271 64.993C68.6868 64.8271 68.3521 64.6518 68.0165 64.4793L67.4334 64.1793C67.0032 63.9461 66.5772 63.7055 66.1555 63.4574L65.8499 63.2839C65.3277 62.9794 64.8116 62.6643 64.3021 62.339L63.8352 62.0277C63.4989 61.8102 63.1648 61.5893 62.833 61.3649C62.1253 60.8729 61.4295 60.364 60.7462 59.8386L60.2765 59.4683C53.009 53.7308 47.2471 45.8877 44.5087 36.9955C41.638 27.7743 42.2568 17.4224 47.2302 9.02051M68.1159 8.29395C63.7077 14.7814 63.2746 22.8383 66.3337 30.0027C69.5596 37.6086 76.169 43.5739 83.8837 46.4043C84.2015 46.5214 84.5202 46.6264 84.8418 46.7361L85.2646 46.8702C85.7193 47.0127 86.1702 47.1786 86.6399 47.2677C107.959 51.3871 113.741 36.328 115.28 34.1108C110.215 41.4036 101.703 43.1539 91.258 40.6189C90.433 40.4193 89.5265 40.1211 88.7315 39.8389C87.7102 39.4761 86.7085 39.0602 85.7305 38.593C83.875 37.6996 82.1126 36.6244 80.4693 35.383C71.1234 28.2908 65.3174 14.7636 71.4159 3.74707" fill="#0868AC"/>
</svg>
