<svg width="120" height="120" viewBox="0 0 120 120" fill="none" xmlns="http://www.w3.org/2000/svg">
    <g clip-path="url(#clip0_56_121)">
        <path d="M20 44L22.832 41.168C22.2726 40.6071 21.5592 40.225 20.7823 40.0701C20.0055 39.9152 19.2001 39.9944 18.4683 40.2977C17.7365 40.6011 17.1113 41.1149 16.6718 41.774C16.2324 42.4331 15.9986 43.2078 16 44H20ZM36 60L33.168 62.832L36 65.656L38.832 62.832L36 60ZM52 44H56C56.0014 43.2078 55.7676 42.4331 55.3282 41.774C54.8887 41.1149 54.2635 40.6011 53.5317 40.2977C52.7999 39.9944 51.9945 39.9152 51.2177 40.0701C50.4408 40.225 49.7274 40.6071 49.168 41.168L52 44ZM84 76L81.168 78.832L84 81.656L86.832 78.832L84 76ZM12 24H108V16H12V24ZM112 28V92H120V28H112ZM108 96H12V104H108V96ZM8 92V28H0V92H8ZM12 96C10.9391 96 9.92172 95.5786 9.17157 94.8284C8.42143 94.0783 8 93.0609 8 92H0C0 95.1826 1.26428 98.2348 3.51472 100.485C5.76516 102.736 8.8174 104 12 104V96ZM112 92C112 93.0609 111.579 94.0783 110.828 94.8284C110.078 95.5786 109.061 96 108 96V104C111.183 104 114.235 102.736 116.485 100.485C118.736 98.2348 120 95.1826 120 92H112ZM108 24C109.061 24 110.078 24.4214 110.828 25.1716C111.579 25.9217 112 26.9391 112 28H120C120 24.8174 118.736 21.7652 116.485 19.5147C114.235 17.2643 111.183 16 108 16V24ZM12 16C8.8174 16 5.76516 17.2643 3.51472 19.5147C1.26428 21.7652 0 24.8174 0 28H8C8 26.9391 8.42143 25.9217 9.17157 25.1716C9.92172 24.4214 10.9391 24 12 24V16ZM24 80V44H16V80H24ZM17.168 46.832L33.168 62.832L38.832 57.168L22.832 41.168L17.168 46.832ZM38.832 62.832L54.832 46.832L49.168 41.168L33.168 57.168L38.832 62.832ZM48 44V80H56V44H48ZM80 40V76H88V40H80ZM65.168 62.832L81.168 78.832L86.832 73.168L70.832 57.168L65.168 62.832ZM86.832 78.832L102.832 62.832L97.168 57.168L81.168 73.168L86.832 78.832Z" fill="black"/>
    </g>
    <defs>
        <clipPath id="clip0_56_121">
            <rect width="120" height="120" fill="white"/>
        </clipPath>
    </defs>
</svg>
