<svg width="120" height="120" viewBox="0 0 120 120" fill="none" xmlns="http://www.w3.org/2000/svg">
    <g clip-path="url(#clip0_56_127)">
        <path d="M0 85.606H3.97688V69.9057L10.1325 83.5913C10.8572 85.2507 11.85 85.8328 13.8019 85.8328C15.7538 85.8328 16.7063 85.2507 17.4309 83.5913L23.5866 69.9057V85.605H27.5634V69.9319C27.5634 68.401 26.9522 67.6613 25.6884 67.2807C22.6669 66.3394 20.6419 67.1522 19.7231 69.1922L13.6847 82.7016L7.83656 69.1922C6.95813 67.1522 4.89281 66.3394 1.875 67.2807C0.61125 67.6613 0 68.401 0 69.9319L0 85.606ZM30.8719 72.825H34.845V81.4753C34.8084 81.9441 34.995 83.0466 37.1738 83.0832H45.8203V72.781H49.8047C49.8234 72.781 49.7972 86.8285 49.7972 86.8875C49.8188 90.3516 45.5016 91.1025 43.5094 91.1616H30.9563V88.4878L43.5319 88.4841C46.0912 88.2169 45.7875 86.9419 45.7875 86.5172V85.4738H37.3387C33.4059 85.4372 30.9047 83.7197 30.8719 81.7453C30.8681 81.5663 30.9563 72.9132 30.8719 72.825Z" fill="#00618A"/>
        <path d="M52.8665 85.606H64.2993C65.6361 85.606 66.9365 85.3238 67.9686 84.841C69.6899 84.0535 70.528 82.981 70.528 81.5785V78.6741C70.528 77.5275 69.5755 76.455 67.7005 75.7444C66.7077 75.36 65.4815 75.1585 64.2983 75.1585H59.4786C57.8746 75.1585 57.1096 74.6747 56.9193 73.606C56.8827 73.4775 56.8827 73.3753 56.8827 73.2469V71.4375C56.8827 71.3353 56.8827 71.2322 56.9193 71.1047C57.1096 70.2919 57.5305 70.0613 58.9443 69.9328L59.3286 69.9075H70.6808V67.26H59.5199C57.9158 67.26 57.074 67.3622 56.308 67.59C53.939 68.3297 52.9058 69.5016 52.9058 71.5416V73.86C52.9058 75.6431 54.9308 77.1741 58.333 77.5294L59.4796 77.581H63.6102C63.764 77.581 63.914 77.581 64.0311 77.6063C65.2911 77.7085 65.8255 77.9391 66.2099 78.3975C66.4077 78.5803 66.5211 78.841 66.5136 79.1081V81.4303C66.5136 81.7088 66.3233 82.0678 65.9427 82.3716C65.5986 82.6791 65.024 82.8806 64.2618 82.9322L63.8408 82.9575H52.8665V85.606ZM95.3324 80.9916C95.3324 83.7197 97.3611 85.2469 101.448 85.5544L102.598 85.606H112.958V82.9547H102.521C100.189 82.9547 99.3093 82.3688 99.3093 80.9663V67.2544H95.3361V80.9906L95.3324 80.9916ZM73.0668 81.1303V71.6785C73.0668 69.2794 74.7552 67.8225 78.0871 67.3641C78.4426 67.3127 78.8013 67.287 79.1605 67.2872H86.7046C87.089 67.2872 87.433 67.3125 87.8183 67.3641C91.1511 67.8216 92.8358 69.2794 92.8358 71.6785V81.1303C92.8358 83.0785 92.1215 84.1191 90.4705 84.7997L94.3893 88.3341H89.7711L86.6033 85.4738L83.414 85.6753H79.1624C78.3722 85.6725 77.5862 85.5615 76.8261 85.3453C74.2958 84.6572 73.0686 83.3278 73.0686 81.1303H73.0668ZM77.3586 80.8997C77.3586 81.0281 77.3952 81.1556 77.4355 81.3103C77.6661 82.4091 78.6993 83.0203 80.2696 83.0203H83.8808L80.563 80.025H85.1811L88.0743 82.6397C88.6086 82.3538 88.9565 81.9216 89.0811 81.3619C89.1177 81.2335 89.1177 81.106 89.1177 80.9775V71.9138C89.1177 71.8116 89.1177 71.6831 89.0811 71.5547C88.8505 70.5328 87.8174 69.9469 86.2836 69.9469H80.2705C78.509 69.9469 77.3596 70.7119 77.3596 71.9138L77.3586 80.8997Z" fill="#E48E00"/>
        <path d="M116.455 62.8566C114.013 62.791 112.145 63.0179 110.548 63.6919C110.094 63.8822 109.369 63.886 109.296 64.4541C109.545 64.7175 109.585 65.1094 109.783 65.4282C110.164 66.0469 110.809 66.871 111.383 67.3032L113.328 68.6944C114.521 69.4229 115.858 69.841 117.012 70.5694C117.69 71.0016 118.363 71.5435 119.026 72.031C119.352 72.2691 119.572 72.646 120 72.796V72.7266C119.777 72.4407 119.718 72.0488 119.512 71.7525L118.608 70.8479C117.726 69.676 116.604 68.6466 115.411 67.7897C114.458 67.1082 112.335 66.1857 111.936 65.0794L111.866 65.01C112.54 64.9369 113.332 64.6913 113.95 64.5263C114.997 64.2441 115.931 64.3172 117.008 64.0388L118.47 63.6179V63.3432C117.924 62.7825 117.536 62.0429 116.939 61.5338C115.387 60.2119 113.687 58.8863 111.937 57.78C110.966 57.1688 109.769 56.7732 108.74 56.2529C108.396 56.0775 107.787 55.9894 107.557 55.696C107.018 55.0079 106.725 54.136 106.308 53.3335L103.807 48.0525C103.28 46.8479 102.935 45.6572 102.276 44.5772C99.1228 39.3882 95.7243 36.2569 90.4612 33.181C89.3446 32.5257 87.9928 32.2688 86.5725 31.9322L84.2765 31.7935C83.8115 31.5957 83.3278 31.0247 82.889 30.75C81.1462 29.6475 76.6743 27.2532 75.3815 30.4022C74.5687 32.3907 76.6012 34.3313 77.3296 35.3391C77.8387 36.046 78.494 36.8372 78.8568 37.6313C79.0987 38.1516 79.139 38.6747 79.3443 39.2279C79.8497 40.59 80.2893 42.0694 80.9447 43.3294C81.2747 43.9669 81.6365 44.6372 82.0547 45.2044C82.3106 45.5522 82.7503 45.7097 82.8197 46.2479C82.3912 46.8488 82.3659 47.7788 82.124 48.54C81.0365 51.9638 81.4462 56.2191 83.0287 58.7569C83.5125 59.5332 84.6543 61.2029 86.2256 60.5625C87.599 60.0019 87.2915 58.2704 87.6834 56.7394C87.7753 56.3954 87.72 56.1385 87.8925 55.9079V55.9772L89.145 58.4785C90.0712 59.9691 91.7118 61.5254 93.104 62.5763C93.8287 63.1219 94.3968 64.0669 95.3306 64.3857V64.3125H95.2612C95.0784 64.0341 94.7962 63.9169 94.5656 63.69C94.02 63.1557 93.4153 62.4929 92.969 61.8807C91.7015 60.1632 90.5812 58.2807 89.5631 56.3213C89.0756 55.3875 88.6509 54.3544 88.2412 53.4029C88.0837 53.0363 88.0875 52.4804 87.7575 52.2929C87.3075 52.9885 86.6447 53.5529 86.2959 54.3769C85.739 55.6913 85.6696 57.2991 85.4606 58.9622L85.3218 59.0316C84.3553 58.7972 84.014 57.8016 83.6559 56.9475C82.7437 54.7866 82.5759 51.3038 83.3775 48.8175C83.5828 48.1735 84.5203 46.1438 84.1396 45.5513C83.9606 44.9579 83.3634 44.6138 83.0297 44.16C82.5933 43.5516 82.2204 42.9001 81.9168 42.2157C81.1734 40.5272 80.8256 38.6382 80.0418 36.9347C79.6687 36.1182 79.035 35.2941 78.5146 34.5694C77.9362 33.7679 77.2912 33.1782 76.845 32.2069C76.6875 31.8629 76.4718 31.3097 76.7062 30.9544C76.7793 30.7163 76.889 30.6179 77.1234 30.541C77.5265 30.2297 78.6506 30.6432 79.0678 30.8157C80.1843 31.2807 81.1153 31.7204 82.0593 32.3466C82.5093 32.6466 82.9678 33.2288 83.5171 33.39H84.1434C85.1212 33.6132 86.2162 33.4557 87.1322 33.7341C88.7475 34.2244 90.1978 34.9904 91.5084 35.8219C95.5143 38.3485 98.789 41.9485 101.03 46.2441C101.392 46.936 101.546 47.595 101.865 48.3282C102.506 49.8075 103.312 51.331 103.949 52.7775C104.587 54.2241 105.205 55.6782 106.102 56.8791C106.575 57.5091 108.402 57.8457 109.23 58.1972C109.812 58.4429 110.765 58.6988 111.314 59.0325C112.369 59.6663 113.387 60.42 114.376 61.1166C114.866 61.4682 116.383 62.2304 116.46 62.8557L116.455 62.8566ZM85.3893 36.3797C84.9689 36.3725 84.5492 36.4192 84.1406 36.5185V36.5879H84.21C84.4518 37.0894 84.8803 37.4119 85.1803 37.8404L85.8759 39.2982L85.9453 39.2325C86.3775 38.9288 86.5715 38.4413 86.5715 37.7016C86.3962 37.5188 86.3737 37.2919 86.2237 37.0754C86.0259 36.7857 85.6425 36.6254 85.3893 36.3797Z" fill="#00618A"/>
    </g>
    <defs>
        <clipPath id="clip0_56_127">
            <rect width="120" height="120" fill="white"/>
        </clipPath>
    </defs>
</svg>
