<svg width="120" height="120" viewBox="0 0 120 120" fill="none" xmlns="http://www.w3.org/2000/svg">
    <g clip-path="url(#clip0_56_220)">
        <path fill-rule="evenodd" clip-rule="evenodd" d="M81.94 20.25C83.056 20.1635 84.1687 20.454 85.1 21.075L91.9 25.61L36.91 29.835L31.225 24.15L81.94 20.25ZM25 32.07V76.67C25 77.7518 25.3509 78.8045 26 79.67L30 85V37.07L25 32.07ZM95 90.37L40 94.6V39.63L95 35.4V90.37ZM105 90.37C105 92.8896 104.049 95.3163 102.336 97.1648C100.624 99.0132 98.2772 100.147 95.765 100.34L38.12 104.775C36.443 104.904 34.7607 104.607 33.2286 103.913C31.6965 103.22 30.3642 102.15 29.355 100.805L18 85.665C16.0527 83.0685 15 79.9105 15 76.665V24.63C15.0002 22.1104 15.9515 19.6837 17.6637 17.8352C19.3759 15.9867 21.7228 14.8527 24.235 14.66L81.175 10.28C84.5196 10.0229 87.8539 10.8943 90.645 12.755L100.545 19.355C101.915 20.2679 103.039 21.505 103.816 22.9564C104.593 24.4078 105 26.0286 105 27.675V90.37ZM85 47.5C85 46.1739 84.4732 44.9021 83.5355 43.9644C82.5979 43.0268 81.3261 42.5 80 42.5C78.6739 42.5 77.4021 43.0268 76.4645 43.9644C75.5268 44.9021 75 46.1739 75 47.5V68.9L61.76 47.38C61.3124 46.6524 60.6858 46.0516 59.9401 45.635C59.1943 45.2184 58.3542 44.9997 57.5 45H55C53.6739 45 52.4021 45.5268 51.4645 46.4644C50.5268 47.4021 50 48.6739 50 50V85C50 86.3261 50.5268 87.5978 51.4645 88.5355C52.4021 89.4732 53.6739 90 55 90C56.3261 90 57.5979 89.4732 58.5355 88.5355C59.4732 87.5978 60 86.3261 60 85V63.6L73.24 85.12C73.6876 85.8476 74.3142 86.4483 75.0599 86.865C75.8057 87.2816 76.6458 87.5002 77.5 87.5H80C81.3261 87.5 82.5979 86.9732 83.5355 86.0355C84.4732 85.0978 85 83.8261 85 82.5V47.5Z" fill="black"/>
    </g>
    <defs>
        <clipPath id="clip0_56_220">
            <rect width="120" height="120" fill="white"/>
        </clipPath>
    </defs>
</svg>
