<svg width="132" height="120" viewBox="0 0 132 120" fill="none" xmlns="http://www.w3.org/2000/svg">
    <path d="M22.1234 50V45.602H23.3774C24.3614 45.602 25.0274 45.932 25.0274 46.898C25.0274 47.822 24.3674 48.254 23.4014 48.254H22.6814V50H22.1234ZM22.6814 47.804H23.3354C24.1034 47.804 24.4754 47.522 24.4754 46.898C24.4754 46.256 24.0854 46.058 23.3054 46.058H22.6814V47.804ZM25.8723 50V46.742H26.3163L26.3703 47.336H26.3883C26.6103 46.922 26.9463 46.664 27.3123 46.664C27.4563 46.664 27.5523 46.682 27.6603 46.73L27.5583 47.21C27.4443 47.174 27.3723 47.156 27.2403 47.156C26.9703 47.156 26.6343 47.354 26.4183 47.912V50H25.8723ZM29.4305 50.084C28.5605 50.084 27.8705 49.448 27.8705 48.38C27.8705 47.318 28.5845 46.664 29.3345 46.664C30.1625 46.664 30.6305 47.258 30.6305 48.194C30.6305 48.308 30.6245 48.422 30.6065 48.506H28.4105C28.4525 49.196 28.8725 49.646 29.4965 49.646C29.8085 49.646 30.0665 49.544 30.3065 49.382L30.5045 49.748C30.2165 49.934 29.8745 50.084 29.4305 50.084ZM28.4045 48.11H30.1505C30.1505 47.456 29.8565 47.102 29.3405 47.102C28.8845 47.102 28.4765 47.468 28.4045 48.11ZM32.3767 50.084C31.6807 50.084 31.4527 49.646 31.4527 48.998V47.186H30.9667V46.778L31.4767 46.742L31.5367 45.824H31.9987V46.742H32.8807V47.186H31.9987V49.01C31.9987 49.406 32.1247 49.64 32.5027 49.64C32.6167 49.64 32.7667 49.592 32.8687 49.55L32.9767 49.958C32.7967 50.024 32.5807 50.084 32.3767 50.084ZM34.4861 50.084C33.7901 50.084 33.5621 49.646 33.5621 48.998V47.186H33.0761V46.778L33.5861 46.742L33.6461 45.824H34.1081V46.742H34.9901V47.186H34.1081V49.01C34.1081 49.406 34.2341 49.64 34.6121 49.64C34.7261 49.64 34.8761 49.592 34.9781 49.55L35.0861 49.958C34.9061 50.024 34.6901 50.084 34.4861 50.084ZM35.7278 50V46.742H36.2738V50H35.7278ZM36.0038 46.07C35.7878 46.07 35.6378 45.932 35.6378 45.704C35.6378 45.494 35.7878 45.356 36.0038 45.356C36.2138 45.356 36.3698 45.494 36.3698 45.704C36.3698 45.932 36.2138 46.07 36.0038 46.07ZM38.6941 50.084C37.8241 50.084 37.1341 49.448 37.1341 48.38C37.1341 47.318 37.8481 46.664 38.5981 46.664C39.4261 46.664 39.8941 47.258 39.8941 48.194C39.8941 48.308 39.8881 48.422 39.8701 48.506H37.6741C37.7161 49.196 38.1361 49.646 38.7601 49.646C39.0721 49.646 39.3301 49.544 39.5701 49.382L39.7681 49.748C39.4801 49.934 39.1381 50.084 38.6941 50.084ZM37.6681 48.11H39.4141C39.4141 47.456 39.1201 47.102 38.6041 47.102C38.1481 47.102 37.7401 47.468 37.6681 48.11ZM40.7024 50V46.742H41.1464L41.2004 47.336H41.2184C41.4404 46.922 41.7764 46.664 42.1424 46.664C42.2864 46.664 42.3824 46.682 42.4904 46.73L42.3884 47.21C42.2744 47.174 42.2024 47.156 42.0704 47.156C41.8004 47.156 41.4644 47.354 41.2484 47.912V50H40.7024Z" fill="black"/>
    <g clip-path="url(#clip0_56_98)">
        <path d="M106.799 22.8572H100.058C98.7634 22.8572 97.7141 23.9065 97.7141 25.2009V26.2275C97.7141 27.5219 98.7634 28.5712 100.058 28.5712H106.799C108.093 28.5712 109.143 27.5219 109.143 26.2275V25.2009C109.143 23.9065 108.093 22.8572 106.799 22.8572Z" fill="#56B3B4"/>
        <path d="M43.942 114.286H14.3438C13.0493 114.286 12 115.335 12 116.63V117.656C12 118.951 13.0493 120 14.3438 120H43.942C45.2365 120 46.2858 118.951 46.2858 117.656V116.63C46.2858 115.335 45.2365 114.286 43.942 114.286Z" fill="#EA5E5E"/>
        <path d="M101.085 68.5715H82.9153C81.6209 68.5715 80.5715 69.6209 80.5715 70.9153V71.9418C80.5715 73.2363 81.6209 74.2856 82.9153 74.2856H101.085C102.379 74.2856 103.429 73.2363 103.429 71.9418V70.9153C103.429 69.6209 102.379 68.5715 101.085 68.5715Z" fill="#BF85BF"/>
        <path d="M72.5134 68.5715H48.6296C47.3352 68.5715 46.2859 69.6209 46.2859 70.9153V71.9418C46.2859 73.2363 47.3352 74.2856 48.6296 74.2856H72.5134C73.8078 74.2856 74.8571 73.2363 74.8571 71.9418V70.9153C74.8571 69.6209 73.8078 68.5715 72.5134 68.5715Z" fill="#EA5E5E"/>
        <path d="M38.2275 68.5715H14.3438C13.0493 68.5715 12 69.6209 12 70.9153V71.9418C12 73.2363 13.0493 74.2856 14.3438 74.2856H38.2275C39.5219 74.2856 40.5713 73.2363 40.5713 71.9418V70.9153C40.5713 69.6209 39.5219 68.5715 38.2275 68.5715Z" fill="#56B3B4"/>
        <path d="M43.942 91.4287H14.3438C13.0493 91.4287 12 92.478 12 93.7725V94.799C12 96.0934 13.0493 97.1428 14.3438 97.1428H43.942C45.2365 97.1428 46.2858 96.0934 46.2858 94.799V93.7725C46.2858 92.478 45.2365 91.4287 43.942 91.4287Z" fill="#BF85BF"/>
        <path d="M43.942 45.7144H14.3438C13.0493 45.7144 12 46.7637 12 48.0581V49.0847C12 50.3791 13.0493 51.4284 14.3438 51.4284H43.942C45.2365 51.4284 46.2858 50.3791 46.2858 49.0847V48.0581C46.2858 46.7637 45.2365 45.7144 43.942 45.7144Z" fill="#BF85BF"/>
        <path d="M101.085 11.4287H42.915C41.6206 11.4287 40.5713 12.478 40.5713 13.7725V14.799C40.5713 16.0934 41.6206 17.1428 42.915 17.1428H101.085C102.379 17.1428 103.428 16.0934 103.428 14.799V13.7725C103.428 12.478 102.379 11.4287 101.085 11.4287Z" fill="#F7BA3E"/>
        <path d="M32.5134 11.4287H14.3438C13.0493 11.4287 12 12.478 12 13.7725V14.799C12 16.0934 13.0493 17.1428 14.3438 17.1428H32.5134C33.8079 17.1428 34.8572 16.0934 34.8572 14.799V13.7725C34.8572 12.478 33.8079 11.4287 32.5134 11.4287Z" fill="#EA5E5E"/>
        <path d="M43.942 102.857H37.2009C35.9065 102.857 34.8572 103.907 34.8572 105.201V106.228C34.8572 107.522 35.9065 108.571 37.2009 108.571H43.942C45.2364 108.571 46.2858 107.522 46.2858 106.228V105.201C46.2858 103.907 45.2364 102.857 43.942 102.857Z" fill="#F7BA3E"/>
        <path d="M43.942 34.2859H37.2009C35.9065 34.2859 34.8572 35.3352 34.8572 36.6296V37.6562C34.8572 38.9506 35.9065 40 37.2009 40H43.942C45.2364 40 46.2858 38.9506 46.2858 37.6562V36.6296C46.2858 35.3352 45.2364 34.2859 43.942 34.2859Z" fill="#56B3B4"/>
        <path d="M26.7989 102.857H14.3438C13.0493 102.857 12 103.907 12 105.201V106.228C12 107.522 13.0493 108.571 14.3438 108.571H26.7989C28.0933 108.571 29.1427 107.522 29.1427 106.228V105.201C29.1427 103.907 28.0933 102.857 26.7989 102.857Z" fill="#56B3B4"/>
        <path d="M26.7989 34.2859H14.3438C13.0493 34.2859 12 35.3352 12 36.6296V37.6562C12 38.9506 13.0493 40 14.3438 40H26.7989C28.0933 40 29.1427 38.9506 29.1427 37.6562V36.6296C29.1427 35.3352 28.0933 34.2859 26.7989 34.2859Z" fill="#F7BA3E"/>
        <path opacity="0.5" d="M95.3705 102.857H88.6294C87.335 102.857 86.2856 103.907 86.2856 105.201V106.228C86.2856 107.522 87.335 108.571 88.6294 108.571H95.3705C96.6649 108.571 97.7142 107.522 97.7142 106.228V105.201C97.7142 103.907 96.6649 102.857 95.3705 102.857Z" fill="#D0D4D8"/>
        <path opacity="0.5" d="M78.2273 102.857H54.3435C53.0491 102.857 51.9998 103.907 51.9998 105.201V106.228C51.9998 107.522 53.0491 108.571 54.3435 108.571H78.2273C79.5217 108.571 80.571 107.522 80.571 106.228V105.201C80.571 103.907 79.5217 102.857 78.2273 102.857Z" fill="#D0D4D8"/>
        <path opacity="0.5" d="M129.656 102.857H105.772C104.478 102.857 103.429 103.907 103.429 105.201V106.228C103.429 107.522 104.478 108.571 105.772 108.571H129.656C130.951 108.571 132 107.522 132 106.228V105.201C132 103.907 130.951 102.857 129.656 102.857Z" fill="#D0D4D8"/>
        <path d="M106.799 57.1429H60.0581C58.7637 57.1429 57.7144 58.1923 57.7144 59.4867V60.5133C57.7144 61.8077 58.7637 62.857 60.0581 62.857H106.799C108.093 62.857 109.143 61.8077 109.143 60.5133V59.4867C109.143 58.1923 108.093 57.1429 106.799 57.1429Z" fill="#56B3B4"/>
        <path d="M49.656 57.1429H31.4863C30.1919 57.1429 29.1426 58.1923 29.1426 59.4867V60.5133C29.1426 61.8077 30.1919 62.857 31.4863 62.857H49.656C50.9504 62.857 51.9998 61.8077 51.9998 60.5133V59.4867C51.9998 58.1923 50.9504 57.1429 49.656 57.1429Z" fill="#F7BA3E"/>
        <path d="M21.0848 57.1429H14.3438C13.0493 57.1429 12 58.1923 12 59.4867V60.5133C12 61.8077 13.0493 62.857 14.3438 62.857H21.0848C22.3793 62.857 23.4286 61.8077 23.4286 60.5133V59.4867C23.4286 58.1923 22.3793 57.1429 21.0848 57.1429Z" fill="#EA5E5E"/>
        <path d="M89.656 22.8572H65.7722C64.4778 22.8572 63.4285 23.9065 63.4285 25.2009V26.2275C63.4285 27.5219 64.4778 28.5712 65.7722 28.5712H89.656C90.9504 28.5712 91.9997 27.5219 91.9997 26.2275V25.2009C91.9997 23.9065 90.9504 22.8572 89.656 22.8572Z" fill="#BF85BF"/>
        <path d="M55.3706 22.8572H14.3438C13.0493 22.8572 12 23.9065 12 25.2009V26.2275C12 27.5219 13.0493 28.5712 14.3438 28.5712H55.3706C56.665 28.5712 57.7144 27.5219 57.7144 26.2275V25.2009C57.7144 23.9065 56.665 22.8572 55.3706 22.8572Z" fill="#56B3B4"/>
        <path d="M83.9418 80.0001H31.4863C30.1919 80.0001 29.1426 81.0495 29.1426 82.3439V83.3704C29.1426 84.6648 30.1919 85.7142 31.4863 85.7142H83.9418C85.2362 85.7142 86.2855 84.6648 86.2855 83.3704V82.3439C86.2855 81.0495 85.2362 80.0001 83.9418 80.0001Z" fill="#F7BA3E"/>
        <path d="M21.0848 80.0001H14.3438C13.0493 80.0001 12 81.0495 12 82.3439V83.3704C12 84.6648 13.0493 85.7142 14.3438 85.7142H21.0848C22.3793 85.7142 23.4286 84.6648 23.4286 83.3704V82.3439C23.4286 81.0495 22.3793 80.0001 21.0848 80.0001Z" fill="#BF85BF"/>
        <path d="M112.514 34.2859H82.9153C81.6209 34.2859 80.5715 35.3352 80.5715 36.6296V37.6562C80.5715 38.9506 81.6209 40 82.9153 40H112.514C113.808 40 114.857 38.9506 114.857 37.6562V36.6296C114.857 35.3352 113.808 34.2859 112.514 34.2859Z" fill="#EA5E5E"/>
        <path d="M112.514 45.7144H82.9153C81.6209 45.7144 80.5715 46.7637 80.5715 48.0581V49.0847C80.5715 50.3791 81.6209 51.4284 82.9153 51.4284H112.514C113.808 51.4284 114.857 50.3791 114.857 49.0847V48.0581C114.857 46.7637 113.808 45.7144 112.514 45.7144Z" fill="#F7BA3E"/>
        <path d="M83.9419 0H14.3438C13.0493 0 12 1.04933 12 2.34375V3.37031C12 4.66473 13.0493 5.71406 14.3438 5.71406H83.9419C85.2363 5.71406 86.2856 4.66473 86.2856 3.37031V2.34375C86.2856 1.04933 85.2363 0 83.9419 0Z" fill="#56B3B4"/>
        <path opacity="0.5" d="M129.656 0H94.344C93.0496 0 92.0002 1.04933 92.0002 2.34375V3.37031C92.0002 4.66473 93.0496 5.71406 94.344 5.71406H129.656C130.951 5.71406 132 4.66473 132 3.37031V2.34375C132 1.04933 130.951 0 129.656 0Z" fill="#D0D4D8"/>
        <path opacity="0.5" d="M106.799 80.0001H94.344C93.0496 80.0001 92.0002 81.0495 92.0002 82.3439V83.3704C92.0002 84.6648 93.0496 85.7142 94.344 85.7142H106.799C108.094 85.7142 109.143 84.6648 109.143 83.3704V82.3439C109.143 81.0495 108.094 80.0001 106.799 80.0001Z" fill="#D0D4D8"/>
        <path opacity="0.5" d="M129.656 80.0001H117.201C115.907 80.0001 114.857 81.0495 114.857 82.3439V83.3704C114.857 84.6648 115.907 85.7142 117.201 85.7142H129.656C130.951 85.7142 132 84.6648 132 83.3704V82.3439C132 81.0495 130.951 80.0001 129.656 80.0001Z" fill="#D0D4D8"/>
        <path opacity="0.5" d="M129.656 68.5715H111.487C110.192 68.5715 109.143 69.6209 109.143 70.9153V71.9418C109.143 73.2363 110.192 74.2856 111.487 74.2856H129.656C130.951 74.2856 132 73.2363 132 71.9418V70.9153C132 69.6209 130.951 68.5715 129.656 68.5715Z" fill="#D0D4D8"/>
        <path opacity="0.5" d="M129.656 11.4287H111.487C110.192 11.4287 109.143 12.478 109.143 13.7725V14.799C109.143 16.0934 110.192 17.1428 111.487 17.1428H129.656C130.951 17.1428 132 16.0934 132 14.799V13.7725C132 12.478 130.951 11.4287 129.656 11.4287Z" fill="#D0D4D8"/>
        <path opacity="0.5" d="M129.656 57.1429H117.201C115.907 57.1429 114.857 58.1923 114.857 59.4867V60.5133C114.857 61.8077 115.907 62.857 117.201 62.857H129.656C130.951 62.857 132 61.8077 132 60.5133V59.4867C132 58.1923 130.951 57.1429 129.656 57.1429Z" fill="#D0D4D8"/>
        <path opacity="0.5" d="M129.656 22.8572H117.201C115.907 22.8572 114.857 23.9065 114.857 25.2009V26.2275C114.857 27.5219 115.907 28.5712 117.201 28.5712H129.656C130.951 28.5712 132 27.5219 132 26.2275V25.2009C132 23.9065 130.951 22.8572 129.656 22.8572Z" fill="#D0D4D8"/>
        <path opacity="0.5" d="M129.656 34.2859H122.915C121.621 34.2859 120.571 35.3352 120.571 36.6296V37.6562C120.571 38.9506 121.621 40 122.915 40H129.656C130.951 40 132 38.9506 132 37.6562V36.6296C132 35.3352 130.951 34.2859 129.656 34.2859Z" fill="#D0D4D8"/>
        <path opacity="0.5" d="M129.656 45.7144H122.915C121.621 45.7144 120.571 46.7637 120.571 48.0581V49.0847C120.571 50.3791 121.621 51.4284 122.915 51.4284H129.656C130.951 51.4284 132 50.3791 132 49.0847V48.0581C132 46.7637 130.951 45.7144 129.656 45.7144Z" fill="#D0D4D8"/>
        <path opacity="0.5" d="M129.656 91.4287H77.2007C75.9063 91.4287 74.8569 92.478 74.8569 93.7725V94.799C74.8569 96.0934 75.9063 97.1428 77.2007 97.1428H129.656C130.951 97.1428 132 96.0934 132 94.799V93.7725C132 92.478 130.951 91.4287 129.656 91.4287Z" fill="#D0D4D8"/>
        <path opacity="0.5" d="M66.7987 91.4287H54.3435C53.0491 91.4287 51.9998 92.478 51.9998 93.7725V94.799C51.9998 96.0934 53.0491 97.1428 54.3435 97.1428H66.7987C68.0931 97.1428 69.1424 96.0934 69.1424 94.799V93.7725C69.1424 92.478 68.0931 91.4287 66.7987 91.4287Z" fill="#D0D4D8"/>
        <path opacity="0.5" d="M129.656 114.286H100.058C98.7634 114.286 97.7141 115.335 97.7141 116.63V117.656C97.7141 118.951 98.7634 120 100.058 120H129.656C130.951 120 132 118.951 132 117.656V116.63C132 115.335 130.951 114.286 129.656 114.286Z" fill="#D0D4D8"/>
        <path opacity="0.5" d="M89.6558 114.286H54.3435C53.0491 114.286 51.9998 115.335 51.9998 116.63V117.656C51.9998 118.951 53.0491 120 54.3435 120H89.6558C90.9503 120 91.9996 118.951 91.9996 117.656V116.63C91.9996 115.335 90.9503 114.286 89.6558 114.286Z" fill="#D0D4D8"/>
        <path opacity="0.5" d="M72.5132 34.2859H54.3435C53.0491 34.2859 51.9998 35.3352 51.9998 36.6296V37.6562C51.9998 38.9506 53.0491 40 54.3435 40H72.5132C73.8076 40 74.8569 38.9506 74.8569 37.6562V36.6296C74.8569 35.3352 73.8076 34.2859 72.5132 34.2859Z" fill="#D0D4D8"/>
        <path opacity="0.5" d="M72.5132 45.7144H54.3435C53.0491 45.7144 51.9998 46.7637 51.9998 48.0581V49.0847C51.9998 50.3791 53.0491 51.4284 54.3435 51.4284H72.5132C73.8076 51.4284 74.8569 50.3791 74.8569 49.0847V48.0581C74.8569 46.7637 73.8076 45.7144 72.5132 45.7144Z" fill="#D0D4D8"/>
    </g>
    <defs>
        <clipPath id="clip0_56_98">
            <rect width="120" height="120" fill="white" transform="translate(12)"/>
        </clipPath>
    </defs>
</svg>
