<svg width="120" height="120" viewBox="0 0 120 120" fill="none" xmlns="http://www.w3.org/2000/svg">
    <path d="M91.875 0H28.125C12.592 0 0 12.592 0 28.125V91.875C0 107.408 12.592 120 28.125 120H91.875C107.408 120 120 107.408 120 91.875V28.125C120 12.592 107.408 0 91.875 0Z" fill="#F4F2ED"/>
    <path d="M60.0009 68.8833C64.8309 68.8833 68.7459 64.9678 68.7459 60.1383C68.7459 55.3087 64.8309 51.3933 60.0009 51.3933C55.1713 51.3933 51.2559 55.3087 51.2559 60.1383C51.2559 64.9678 55.1713 68.8833 60.0009 68.8833Z" fill="#00D8FF"/>
    <path d="M60.0009 42.3577C71.7422 42.3577 82.6495 44.0424 90.8737 46.8741C100.783 50.2852 106.875 55.4559 106.875 60.1383C106.875 65.0175 100.418 70.5108 89.7773 74.0363C81.7327 76.7016 71.1464 78.0928 60.0009 78.0928C48.5737 78.0928 37.7527 76.7869 29.617 74.0067C19.3242 70.4888 13.125 64.9247 13.125 60.1383C13.125 55.4939 18.9422 50.363 28.7119 46.957C36.9666 44.0789 48.143 42.3577 59.9991 42.3577H60.0009Z" stroke="#00D8FF" stroke-width="1.04426"/>
    <path d="M44.5231 51.2991C50.3891 41.1281 57.297 32.5209 63.8586 26.8116C71.7636 19.9317 79.287 17.2373 83.3427 19.5759C87.5694 22.0134 89.1027 30.3516 86.8409 41.3306C85.1323 49.6308 81.0477 59.4961 75.4794 69.1514C69.7705 79.0505 63.2337 87.772 56.7617 93.4289C48.5722 100.588 40.6545 103.178 36.5084 100.787C32.4852 98.4689 30.9467 90.8653 32.877 80.7005C34.5078 72.1116 38.6005 61.5698 44.5212 51.2991H44.5231Z" stroke="#00D8FF" stroke-width="1.04426"/>
    <path d="M44.5357 69.1772C38.6534 59.0175 34.6484 48.7322 32.9768 40.1962C30.9645 29.9114 32.3871 22.0481 36.4395 19.7025C40.6625 17.2575 48.6514 20.0934 57.0335 27.5362C63.371 33.1631 69.8787 41.6273 75.4629 51.2733C81.1882 61.163 85.4792 71.1825 87.1484 79.6144C89.2606 90.285 87.551 98.438 83.4087 100.836C79.3896 103.162 72.0345 100.699 64.1918 93.9502C57.5656 88.2483 50.4762 79.4381 44.5357 69.1772Z" stroke="#00D8FF" stroke-width="1.04426"/>
</svg>
