<svg width="60" height="60" viewBox="0 0 60 60" fill="none" xmlns="http://www.w3.org/2000/svg">
    <g clip-path="url(#clip0_56_2)">
        <path d="M45.9375 0H14.0625C6.296 0 0 6.296 0 14.0625V45.9375C0 53.704 6.296 60 14.0625 60H45.9375C53.704 60 60 53.704 60 45.9375V14.0625C60 6.296 53.704 0 45.9375 0Z" fill="#242938"/>
        <path d="M30.0002 34.4415C32.4152 34.4415 34.3727 32.4838 34.3727 30.069C34.3727 27.6543 32.4152 25.6965 30.0002 25.6965C27.5854 25.6965 25.6277 27.6543 25.6277 30.069C25.6277 32.4838 27.5854 34.4415 30.0002 34.4415Z" fill="#00D8FF"/>
        <path d="M30.0005 21.1787C35.8711 21.1787 41.3248 22.0211 45.4369 23.4369C50.3913 25.1425 53.4375 27.7279 53.4375 30.069C53.4375 32.5086 50.2092 35.2553 44.8887 37.018C40.8663 38.3507 35.5732 39.0463 30.0005 39.0463C24.2869 39.0463 18.8763 38.3933 14.8085 37.0032C9.66211 35.2443 6.5625 32.4622 6.5625 30.069C6.5625 27.7468 9.47109 25.1814 14.3559 23.4784C18.4833 22.0393 24.0715 21.1787 29.9995 21.1787H30.0005Z" stroke="#00D8FF" stroke-width="1.39234"/>
        <path d="M22.2611 25.6495C25.194 20.5641 28.648 16.2605 31.9288 13.4058C35.8813 9.96586 39.643 8.61867 41.6708 9.78797C43.7842 11.0067 44.5508 15.1758 43.42 20.6653C42.5657 24.8154 40.5233 29.748 37.7392 34.5757C34.8847 39.5252 31.6164 43.886 28.3804 46.7145C24.2856 50.2938 20.3268 51.5892 18.2537 50.3937C16.2421 49.2344 15.4729 45.4327 16.438 40.3502C17.2534 36.0558 19.2997 30.7849 22.2601 25.6495H22.2611Z" stroke="#00D8FF" stroke-width="1.39234"/>
        <path d="M22.2684 34.5885C19.3272 29.5086 17.3247 24.366 16.4889 20.098C15.4827 14.9556 16.1941 11.024 18.2202 9.85114C20.3317 8.62864 24.3262 10.0466 28.5173 13.768C31.686 16.5815 34.9398 20.8136 37.7319 25.6365C40.5946 30.5814 42.7401 35.5911 43.5747 39.8071C44.6308 45.1424 43.776 49.2189 41.7048 50.4177C39.6953 51.5811 36.0177 50.3495 32.0964 46.975C28.7833 44.124 25.2386 39.719 22.2684 34.5885Z" stroke="#00D8FF" stroke-width="1.39234"/>
    </g>
    <defs>
        <clipPath id="clip0_56_2">
            <rect width="60" height="60" fill="white"/>
        </clipPath>
    </defs>
</svg>
