<svg width="120" height="120" viewBox="0 0 120 120" fill="none" xmlns="http://www.w3.org/2000/svg">
    <g clip-path="url(#clip0_56_228)">
        <path d="M85.45 44.3097C84.8461 41.1565 83.2526 38.2782 80.9012 36.0931C78.5498 33.9081 75.563 32.5301 72.375 32.1597L71.1499 32.0097C69.1463 31.7557 67.3037 30.7807 65.9667 29.267C64.6296 27.7533 63.8896 25.8044 63.885 23.7847V19.5047C66.0408 18.6095 67.8217 16.9979 68.9272 14.9419C70.0326 12.8859 70.3948 10.5115 69.9527 8.21949C69.5106 5.92743 68.2912 3.85811 66.5004 2.3608C64.7095 0.863503 62.4569 0.0299308 60.1228 0.000790713C57.7887 -0.0283494 55.516 0.748727 53.6883 2.20085C51.8607 3.65298 50.59 5.69122 50.0908 7.97152C49.5916 10.2518 49.8945 12.6345 50.9482 14.7175C52.002 16.8004 53.7421 18.4559 55.875 19.4047V23.7747C55.8779 27.7476 57.3294 31.5829 59.9574 34.5617C62.5855 37.5404 66.2095 39.4579 70.1499 39.9547L71.3749 40.1147C75.1949 40.5947 77.095 43.4147 77.605 45.8897C78.105 48.3647 77.455 51.7047 74.115 53.6397C72.5 54.5782 70.6999 55.1532 68.8399 55.3247L50.44 57.0547C47.4269 57.3398 44.5107 58.2709 41.89 59.7847C39.0933 61.3654 36.8737 63.7968 35.5537 66.7254C34.2337 69.6541 33.8821 72.9275 34.55 76.0697C35.1538 79.2229 36.7473 82.1012 39.0987 84.2863C41.4501 86.4713 44.4369 87.8492 47.625 88.2197L48.85 88.3797C50.8528 88.6336 52.6947 89.6078 54.0316 91.1205C55.3686 92.6332 56.1091 94.5809 56.115 96.5997V100.485C53.9585 101.385 52.1789 103.003 51.0767 105.063C49.9744 107.124 49.6171 109.502 50.0649 111.796C50.5128 114.089 51.7384 116.158 53.5349 117.653C55.3313 119.148 57.5886 119.977 59.9254 120C62.2623 120.023 64.5356 119.24 66.3616 117.781C68.1876 116.323 69.4543 114.279 69.9479 111.994C70.4414 109.71 70.1316 107.325 69.0708 105.243C68.0099 103.161 66.263 101.508 64.125 100.565V96.5997C64.1219 92.6261 62.6696 88.7901 60.0406 85.8112C57.4115 82.8324 53.7863 80.9153 49.845 80.4197L48.625 80.2597C44.805 79.7797 42.9 76.9597 42.395 74.4847C41.895 72.0097 42.545 68.6697 45.88 66.7347C47.4979 65.7948 49.3016 65.2197 51.165 65.0497L69.565 63.3247C72.578 63.0396 75.4942 62.1085 78.115 60.5947C80.9089 59.011 83.1261 56.5783 84.4449 53.6493C85.7638 50.7203 86.1158 47.4473 85.45 44.3047V44.3097ZM72.185 67.8497C71.4624 67.9777 70.7352 68.0777 70.005 68.1497L62.29 68.8847L71.9399 79.4797C74.8566 82.6781 76.4723 86.8512 76.47 91.1797H84.5C84.503 84.8527 82.1399 78.7532 77.875 74.0797L72.185 67.8497ZM47.17 52.2997C48.0712 52.1124 48.9828 51.9789 49.9 51.8997L57.035 51.2197L47.345 40.5997C44.4302 37.4006 42.8162 33.2276 42.82 28.8997H34.815C34.815 35.2347 37.165 41.3147 41.435 45.9997L47.17 52.2997Z" fill="black"/>
    </g>
    <defs>
        <clipPath id="clip0_56_228">
            <rect width="120" height="120" fill="white"/>
        </clipPath>
    </defs>
</svg>
