<svg width="120" height="120" viewBox="0 0 120 120" fill="none" xmlns="http://www.w3.org/2000/svg">
    <g clip-path="url(#clip0_56_41)">
        <path d="M91.875 0H28.125C12.592 0 0 12.592 0 28.125V91.875C0 107.408 12.592 120 28.125 120H91.875C107.408 120 120 107.408 120 91.875V28.125C120 12.592 107.408 0 91.875 0Z" fill="url(#paint0_linear_56_41)"/>
        <path d="M5.3846 60.5057L28.9646 70.0607V76.7493L1.05054 63.816V59.8916L5.3846 60.5057ZM28.9646 52.6574L5.41882 62.3484L1.05101 62.8265V58.8679L28.9641 45.9688L28.9646 52.6574ZM113.143 61.8707L88.8802 52.4184V45.9004L118.022 58.7995V62.7923L113.143 61.8707ZM88.8802 70.1971L113.211 60.5399L118.022 59.8232V63.7818L88.8802 76.7151V70.1971Z" fill="white"/>
        <path fill-rule="evenodd" clip-rule="evenodd" d="M82.5361 28.6401C82.4011 30.7804 81.4369 33.0154 81.7055 35.0962C83.3897 38.0746 87.0966 38.5495 90.1547 38.7539C92.2734 39.1326 92.2467 37.7296 92.1047 36.1537L92.1305 28.5956C88.9322 28.6073 85.733 28.5642 82.5361 28.6401ZM57.3169 34.626C52.11 35.5101 46.8319 37.9982 42.5002 40.9935C39.0136 43.7071 45.4931 46.3368 47.8439 46.7765C52.5736 46.8342 56.7684 43.6438 59.8753 40.3326C60.8897 38.9404 62.1567 36.809 60.8822 35.1951C59.9091 34.3514 58.4939 34.5557 57.3169 34.626ZM68.3967 42.1992C64.1156 43.0148 60.0422 44.7792 56.438 47.2359C53.7956 48.0656 51.6178 50.9667 54.892 52.4203C58.3303 55.1601 62.3152 54.4888 65.4816 52.6392C68.3813 50.9156 71.5134 48.7889 72.855 45.5442C74.122 41.9896 70.853 41.8579 68.3967 42.1992ZM80.5416 55.9724C79.7442 59.3024 76.3908 60.8165 74.6067 63.4551C73.148 65.3798 73.8234 67.6471 75.4842 69.1621C76.2928 70.8388 77.7103 71.7759 79.2305 70.3195C83.1455 67.6579 84.2283 62.4735 84.0656 57.9815C84.3548 56.1262 82.2263 57.8034 80.5416 55.9724ZM65.6433 62.227C60.4444 63.1167 55.2445 65.6498 50.9109 68.6404C47.5467 71.3503 53.8828 73.8806 56.2528 74.2818C61.0702 74.2888 65.3672 71.1843 68.4131 67.6584C69.4725 66.2582 70.7564 63.539 68.6588 62.4257C67.7208 62.0282 66.6319 62.1449 65.6433 62.227Z" fill="#B956A6"/>
        <path fill-rule="evenodd" clip-rule="evenodd" d="M42.5002 40.9936C38.5018 42.5934 34.6449 44.5359 30.8358 46.5703C30.128 49.2023 30.6957 52.4616 30.5124 55.3476C30.4983 67.2145 30.5049 79.0819 30.503 90.9487H39.3249C41.1061 89.2716 43.3374 88.0439 45.2724 86.5209C52.7227 81.1777 60.1707 75.8137 67.6111 70.4855C68.1586 70.7316 67.808 67.2647 66.6071 69.6726C63.7613 72.3506 59.9841 74.5533 55.9861 74.3381C53.7174 73.5919 50.0602 72.3258 50.0372 69.5456C51.6343 67.6655 47.0907 70.53 45.8475 70.9402C41.806 72.8808 37.86 75.0478 33.81 76.9523C34.7832 75.907 36.6038 74.9325 37.8947 73.8956C47.1164 67.2759 56.3358 60.6305 65.5796 54.0159C67.3575 52.7677 69.075 51.4059 70.9078 50.2392C71.0752 50.8856 71.3893 47.1487 70.0261 49.4494C67.2474 52.2037 63.4992 54.2541 59.5463 54.2822C57.323 53.6072 52.5877 51.9933 53.6419 49.1226C54.1561 48.1153 48.8663 51.27 51.2035 49.4911C53.6911 47.6733 56.1985 45.8878 58.7053 44.0887C59.9714 43.9936 59.7019 39.2906 57.9816 42.3244C55.0918 44.8636 51.2949 47.1867 47.3147 46.6359C45.0788 45.9923 42.3961 44.7459 41.5833 42.4078C41.3143 41.8462 43.0889 40.9711 42.5002 40.9936ZM59.0653 43.8966C59.4671 43.665 58.8436 44.5308 59.0653 43.8966Z" fill="#FCCC44"/>
        <path fill-rule="evenodd" clip-rule="evenodd" d="M84.3276 37.8515C83.0793 43.8122 81.7148 50.0507 80.5415 55.972C83.9128 60.2207 84.2395 53.2879 84.8292 51.3276C85.7821 47.2303 86.9109 44.1365 87.0304 39.8943C87.2835 38.4464 85.582 37.5698 84.3276 37.8515ZM88.1952 42.5254C88.349 42.6403 88.0898 43.1362 88.1952 42.5254ZM84.2624 55.8914C84.4246 56.2406 84.4246 55.5417 84.2624 55.8914Z" fill="#62777F"/>
        <path fill-rule="evenodd" clip-rule="evenodd" d="M86.5387 38.5265C87.5905 44.4337 84.1063 51.6103 82.9668 57.18C85.5543 55.2759 87.5535 46.6369 88.0645 43.2553C88.1962 42.8686 88.3584 41.8954 88.3935 41.8603C88.5562 41.0395 90.0716 39.6487 90.1546 38.7539C91.0368 38.1314 85.8187 38.0315 86.5387 38.5265ZM84.3932 55.8914C84.2305 56.2406 84.2305 55.5417 84.3932 55.8914Z" fill="#4E5E67"/>
        <path fill-rule="evenodd" clip-rule="evenodd" d="M42.5878 41.0921C41.1291 42.5527 41.6766 42.196 42.7622 40.9814L42.5878 41.0921ZM58.366 41.8154C56.6761 44.3546 50.5824 46.478 49.815 46.6425C53.4806 45.9558 56.8974 43.6753 59.3016 41.0044C58.9196 41.1746 58.6927 41.5744 58.366 41.8154ZM41.5856 42.6399C42.4964 44.8299 45.8081 46.2849 47.4174 46.6243C45.2203 45.9164 42.6342 44.6611 41.5856 42.6399ZM58.9341 43.9064C58.4742 44.4493 56.8364 45.2611 55.973 46.058C54.121 47.4239 52.2052 48.6933 50.3742 50.0935C51.54 50.0433 54.9563 47.4914 53.205 50.0808C54.6891 52.635 57.9202 54.4111 60.8663 54.2489C64.7569 53.6382 68.3447 51.4871 70.9238 48.4955C67.793 51.5935 63.6539 54.5091 59.0738 54.1074C56.8571 53.5955 50.7999 50.4666 54.8517 48.2733C56.2805 47.0982 58.7438 46.4827 59.0227 44.4174C58.9641 44.1596 59.4445 43.9079 58.9341 43.9064ZM47.8439 46.7766C49.3181 46.9693 49.3181 46.5844 47.8439 46.7766ZM70.8141 50.3039C64.9646 54.3793 59.1999 58.6139 53.401 62.7624C46.8291 67.4658 40.2853 72.1866 33.7153 76.8863C36.1856 76.0533 38.6606 74.4268 41.1145 73.3032C44.4942 71.5154 48.0577 70.103 51.2199 67.9313C57.472 64.2507 64.0842 60.7439 68.8931 55.1129C69.9427 53.8819 70.995 51.9005 71.0419 50.5679C70.8905 50.6105 71.0053 50.0349 70.8141 50.3039ZM50.911 68.64C49.8586 69.8293 49.4311 70.6791 50.5233 69.1669C50.5041 69.3422 51.4097 68.228 50.911 68.64ZM66.9216 69.2091C64.1494 72.1322 60.0492 74.2407 56.2022 74.3827C60.6497 74.415 64.6622 71.775 67.6753 68.6607C67.4775 68.4216 67.0767 69.2175 66.9216 69.2091ZM67.7686 70.1279C58.455 76.9079 48.8199 83.9405 39.4749 90.6961C40.9467 91.1579 44.1525 91.3744 45.6155 89.4896C48.728 87.3418 52.2272 85.7625 55.35 83.5857C59.8721 80.6513 64.7138 77.4441 67.2821 72.5124C67.4044 71.851 68.3133 70.6613 67.7686 70.1279ZM50.0438 70.5582C50.476 72.3825 55.8788 74.4764 55.2928 74.0757C53.3006 73.3772 51.3244 72.2888 50.0438 70.5582Z" fill="#DC9624"/>
    </g>
    <defs>
        <linearGradient id="paint0_linear_56_41" x1="0" y1="120" x2="120" y2="0" gradientUnits="userSpaceOnUse">
            <stop stop-color="#DB7093"/>
            <stop offset="1" stop-color="#F3B661"/>
        </linearGradient>
        <clipPath id="clip0_56_41">
            <rect width="120" height="120" fill="white"/>
        </clipPath>
    </defs>
</svg>
