<svg width="30" height="30" viewBox="0 0 30 30" fill="none" xmlns="http://www.w3.org/2000/svg">
    <g clip-path="url(#clip0_52_154)">
        <path d="M29.8234 19.9424C29.8234 25.277 23.1718 29.6017 14.9666 29.6017C6.76143 29.6017 0.109863 25.2771 0.109863 19.9424C0.109863 14.6077 6.76148 10.2831 14.9667 10.2831C23.1718 10.2831 29.8234 14.6077 29.8234 19.9424Z" fill="#BFBCAF"/>
        <path d="M29.8234 18.5979C29.8234 23.9326 23.1718 28.2572 14.9666 28.2572C6.76143 28.2572 0.109863 23.9326 0.109863 18.5979C0.109863 13.2632 6.76148 8.9386 14.9667 8.9386C23.1718 8.9386 29.8234 13.2632 29.8234 18.5979Z" fill="#E3E8E7"/>
        <path d="M27.0692 10.6173V18.923H27.046C26.6649 23.022 21.4321 26.2698 15.0318 26.2698C8.6314 26.2698 3.39868 23.022 3.01753 18.923H2.99438V10.6173H27.0692Z" fill="#FF6E83"/>
        <path d="M27.0626 10.6173C27.0626 14.8421 27.0694 18.923 25.2176 18.923C23.3659 18.923 24.0576 17.7298 22.3769 18.1224C20.6962 18.515 21.1054 22.2316 18.7325 22.2316C16.3807 22.2316 17.1872 19.9835 15.0253 19.9433C12.8711 19.9835 14.1046 22.2316 11.7529 22.2316C9.37996 22.2316 9.35424 18.515 7.67348 18.1224C5.99271 17.7298 6.68447 18.923 4.83279 18.923C2.98105 18.923 2.98779 14.8421 2.98779 10.6173C2.98779 7.60528 10.6347 10.4688 15.0252 12.361C19.4157 10.4688 27.0626 7.60528 27.0626 10.6173Z" fill="#FFA9BA"/>
        <path d="M27.0626 10.6173C27.0626 14.9396 21.6732 18.4435 15.0252 18.4435C8.37713 18.4435 2.98779 14.9396 2.98779 10.6173C2.98779 6.29492 8.37713 2.79102 15.0252 2.79102C21.6732 2.79102 27.0626 6.29492 27.0626 10.6173Z" fill="#FFBDCD"/>
        <path d="M14.9454 8.05462C14.8757 8.05462 14.8088 8.02693 14.7596 7.97765C14.7103 7.92837 14.6826 7.86152 14.6826 7.79183V4.9011C14.6826 4.83141 14.7103 4.76456 14.7596 4.71528C14.8088 4.666 14.8757 4.63831 14.9454 4.63831C15.0151 4.63831 15.0819 4.666 15.1312 4.71528C15.1805 4.76456 15.2082 4.83141 15.2082 4.9011V7.79183C15.2082 7.82634 15.2014 7.86051 15.1882 7.89239C15.175 7.92428 15.1556 7.95325 15.1312 7.97765C15.1068 8.00205 15.0778 8.02141 15.0459 8.03462C15.0141 8.04782 14.9799 8.05462 14.9454 8.05462ZM8.12788 5.19085V3.41587C8.12788 3.38136 8.12108 3.34719 8.10788 3.3153C8.09467 3.28342 8.07531 3.25445 8.05091 3.23005C8.02651 3.20564 7.99754 3.18629 7.96565 3.17308C7.93377 3.15987 7.8996 3.15308 7.86509 3.15308C7.83058 3.15308 7.79641 3.15987 7.76452 3.17308C7.73264 3.18629 7.70367 3.20564 7.67927 3.23005C7.65486 3.25445 7.63551 3.28342 7.6223 3.3153C7.60909 3.34719 7.60229 3.38136 7.60229 3.41587V5.19085C7.60229 5.22536 7.60909 5.25953 7.6223 5.29142C7.63551 5.3233 7.65486 5.35227 7.67927 5.37667C7.70367 5.40108 7.73264 5.42043 7.76452 5.43364C7.79641 5.44685 7.83058 5.45364 7.86509 5.45364C7.8996 5.45364 7.93377 5.44685 7.96565 5.43364C7.99754 5.42043 8.02651 5.40108 8.05091 5.37667C8.07531 5.35227 8.09467 5.3233 8.10788 5.29142C8.12108 5.25953 8.12788 5.22536 8.12788 5.19085ZM22.2028 5.19085V3.41587C22.2014 3.34713 22.173 3.2817 22.1239 3.2336C22.0748 3.1855 22.0088 3.15857 21.94 3.15857C21.8713 3.15857 21.8052 3.1855 21.7561 3.2336C21.707 3.2817 21.6787 3.34713 21.6772 3.41587V5.19085C21.6787 5.25959 21.707 5.32502 21.7561 5.37312C21.8052 5.42121 21.8713 5.44815 21.94 5.44815C22.0088 5.44815 22.0748 5.42121 22.1239 5.37312C22.173 5.32502 22.2014 5.25959 22.2028 5.19085Z" fill="#EBF2F2"/>
        <path d="M14.9454 13.8985C14.5409 13.8985 14.2129 13.5706 14.2129 13.1661V7.41619C14.2129 7.01166 14.5409 6.68376 14.9454 6.68376C15.3499 6.68376 15.6778 7.01166 15.6778 7.41619V13.1661C15.6777 13.5706 15.3499 13.8985 14.9454 13.8985ZM8.55664 10.5651V5.24353C8.55664 4.83906 8.22869 4.51111 7.82422 4.51111C7.41975 4.51111 7.0918 4.83906 7.0918 5.24353V10.5651C7.0918 10.9695 7.41975 11.2975 7.82422 11.2975C8.22869 11.2975 8.55664 10.9696 8.55664 10.5651ZM22.6723 10.5651V5.24353C22.6723 4.83906 22.3444 4.51111 21.9399 4.51111C21.5354 4.51111 21.2075 4.83906 21.2075 5.24353V10.5651C21.2075 10.9695 21.5354 11.2975 21.9399 11.2975C22.3444 11.2975 22.6723 10.9696 22.6723 10.5651Z" fill="#D6E5E5"/>
        <path d="M6.76255 3.00751C6.76255 3.00751 6.75722 2.96404 6.75886 2.88874L6.75997 2.85904C6.77035 2.76911 6.786 2.67988 6.80685 2.59179C6.81452 2.55997 6.82349 2.52329 6.83251 2.49323C6.84095 2.46851 6.85067 2.44331 6.8604 2.41747C6.87974 2.36573 6.90189 2.312 6.92661 2.25698C6.9511 2.20777 6.97905 2.1596 7.00823 2.10927C7.02276 2.08507 7.03788 2.05689 7.05341 2.03556L7.10011 1.97105C7.11587 1.94931 7.13198 1.92739 7.14909 1.90583L7.17452 1.87361L7.19866 1.84624C7.23054 1.80921 7.26581 1.77341 7.30027 1.7365C7.33167 1.70538 7.36618 1.67562 7.39993 1.6448L7.42548 1.62177C7.43327 1.61497 7.44124 1.60876 7.44939 1.60238L7.49825 1.56394L7.54776 1.52515L7.59452 1.49175L7.68757 1.42542L7.86288 1.30413C7.92288 1.26359 7.97099 1.22392 8.02864 1.18191L8.10429 1.11716C8.12989 1.09536 8.15814 1.07404 8.17929 1.05054L8.24872 0.981692C8.27134 0.958664 8.29636 0.936399 8.31452 0.912551L8.42925 0.779016L8.51462 0.664465C8.54131 0.628648 8.56838 0.593119 8.59583 0.557883L8.61089 0.538723C8.63228 0.511449 8.65994 0.489735 8.69151 0.47542C8.72308 0.461106 8.75763 0.454614 8.79224 0.456494C8.82686 0.458374 8.86051 0.468571 8.89034 0.486221C8.92017 0.50387 8.94531 0.528452 8.96362 0.557883C8.96362 0.557883 8.99175 0.603059 9.03435 0.687434C9.05386 0.729621 9.08204 0.781887 9.1056 0.843703C9.12593 0.905637 9.15025 0.977649 9.17251 1.05868C9.19554 1.13966 9.20538 1.22913 9.21968 1.32728C9.23152 1.42495 9.23046 1.52814 9.23028 1.63864C9.22741 1.69226 9.22179 1.74657 9.21657 1.80277C9.2137 1.83072 9.21124 1.85943 9.20755 1.88761L9.19325 1.9697C9.183 2.02419 9.17392 2.0829 9.16062 2.13646L9.12019 2.29695C9.10571 2.35144 9.09083 2.39743 9.07589 2.44829L9.05333 2.52265L9.03177 2.58956L8.98982 2.71736C8.97728 2.75532 8.96609 2.79359 8.95255 2.82933C8.94364 2.86027 8.93626 2.8912 8.92636 2.91956L8.91939 2.94089C8.9178 2.94722 8.91734 2.95243 8.91622 2.95818C8.9145 2.96902 8.91225 2.97978 8.90948 2.9904L8.90193 3.0207C8.89982 3.03054 8.9014 3.03517 8.90052 3.04208C8.9002 3.05355 8.8988 3.06497 8.89636 3.07618C8.89952 3.08193 8.90105 3.08644 8.90075 3.09007C8.90069 3.09189 8.90081 3.0937 8.89999 3.09523C8.90163 3.092 8.90585 3.08198 8.90767 3.07566C8.91253 3.0613 8.91294 3.04677 8.91253 3.03359C8.91233 3.02746 8.91139 3.02138 8.90972 3.01548L8.90655 3.04501C8.8973 3.11972 8.88575 3.16197 8.88575 3.16197C8.72819 3.73988 8.13189 4.08066 7.55398 3.9231C7.11634 3.80374 6.8147 3.4329 6.76249 3.00898L6.76255 3.00751ZM20.8373 3.00904C20.8896 3.43302 21.1912 3.80386 21.6288 3.92316C22.2067 4.08072 22.803 3.73999 22.9606 3.16202C22.9606 3.16202 22.9721 3.11978 22.9814 3.04507L22.9845 3.01554C22.9858 3.01964 22.9872 3.02743 22.9873 3.03364C22.9877 3.04683 22.9873 3.06142 22.9825 3.07572C22.9803 3.0824 22.9778 3.08893 22.9748 3.09529C22.9756 3.09382 22.9755 3.092 22.9756 3.09013C22.9759 3.0865 22.9743 3.08204 22.9712 3.07624C22.9733 3.06687 22.975 3.05462 22.9753 3.04214C22.9763 3.03523 22.9746 3.0306 22.9767 3.02075L22.9843 2.99046C22.9869 2.98015 22.9893 2.96954 22.991 2.95823C22.9921 2.95249 22.9926 2.94728 22.9942 2.94095L23.0012 2.91962C23.0111 2.89126 23.0184 2.86032 23.0274 2.82939C23.0409 2.79364 23.0521 2.75544 23.0646 2.71741L23.1066 2.58962L23.1281 2.52271L23.1507 2.44835C23.1657 2.39749 23.1806 2.35144 23.195 2.297L23.2355 2.13652C23.2488 2.08296 23.2579 2.02425 23.2681 1.96976L23.2824 1.88767C23.286 1.85948 23.2886 1.83072 23.2914 1.80282C23.2966 1.74663 23.3023 1.69226 23.3051 1.6387C23.3053 1.52825 23.3064 1.42507 23.2945 1.32734C23.2802 1.22925 23.2704 1.13978 23.2474 1.05874C23.2252 0.977707 23.2008 0.905637 23.1805 0.843762C23.1569 0.781945 23.1287 0.72968 23.1092 0.687492C23.0666 0.603117 23.0385 0.557942 23.0385 0.557942C23.0202 0.528511 22.995 0.503929 22.9652 0.486279C22.9354 0.46863 22.9017 0.458433 22.8671 0.456553C22.8325 0.454673 22.7979 0.461165 22.7664 0.475479C22.7348 0.489793 22.7071 0.511507 22.6858 0.538781L22.6707 0.557942C22.6707 0.557942 22.6388 0.598606 22.5895 0.664524L22.5041 0.779074L22.3894 0.91261C22.3712 0.936457 22.3462 0.958781 22.3236 0.98175L22.2542 1.0506C22.233 1.07409 22.2048 1.09548 22.1792 1.11722L22.1035 1.18197C22.0459 1.22398 21.9977 1.26364 21.9377 1.30419L21.7624 1.42548L21.6694 1.49181L21.6226 1.52521L21.5731 1.564L21.5242 1.60243C21.516 1.60882 21.508 1.61503 21.5003 1.62183L21.4747 1.64486C21.441 1.67568 21.4065 1.70538 21.3751 1.73655C21.3406 1.77347 21.3053 1.80933 21.2735 1.8463L21.2493 1.87366L21.2239 1.90589C21.2071 1.92727 21.1908 1.94901 21.1749 1.97111L21.1282 2.03562C21.1126 2.057 21.0976 2.08513 21.083 2.10933C21.0538 2.15966 21.0259 2.20782 21.0014 2.25704C20.9767 2.31206 20.9545 2.36579 20.9352 2.41753C20.9255 2.44337 20.9158 2.46857 20.9073 2.49329C20.8979 2.52592 20.8894 2.55878 20.8817 2.59185C20.8608 2.67994 20.8452 2.76917 20.8348 2.85909L20.8337 2.8888C20.8321 2.96409 20.8374 3.00757 20.8374 3.00757L20.8373 3.00904Z" fill="#FFBD03"/>
        <path d="M13.7994 4.98578C13.7994 4.98578 13.795 4.93193 13.7973 4.83835L13.7976 4.82945L13.7995 4.81146L13.8042 4.77238C13.8076 4.74572 13.811 4.71771 13.8158 4.68871C13.8252 4.63064 13.8358 4.56771 13.8508 4.50162C13.8547 4.48257 13.8575 4.47607 13.861 4.46271L13.8713 4.42679L13.8944 4.35238C13.9103 4.30257 13.9279 4.24498 13.9484 4.19951C13.969 4.14912 13.9906 4.09913 14.0131 4.04957C14.0356 3.99742 14.0613 3.9547 14.0869 3.90507C14.1392 3.80476 14.1952 3.71945 14.2564 3.62499C14.3156 3.53939 14.3807 3.44769 14.4455 3.36683C14.4778 3.32483 14.511 3.28344 14.5449 3.24267L14.6439 3.12203L14.839 2.88947C14.8701 2.85162 14.9014 2.81388 14.9338 2.77662L15.0234 2.66652C15.0854 2.59345 15.1377 2.52302 15.1924 2.45388C15.2207 2.41931 15.245 2.38568 15.2685 2.3524L15.3398 2.25496C15.3863 2.19162 15.4237 2.13191 15.4604 2.07701C15.4926 2.02983 15.5228 1.98131 15.5509 1.93158C15.5778 1.88661 15.6052 1.84196 15.6331 1.79763L15.6451 1.77882C15.6645 1.74821 15.6917 1.72332 15.724 1.7067C15.7562 1.69008 15.7923 1.68233 15.8285 1.68425C15.8647 1.68616 15.8998 1.69767 15.9301 1.71759C15.9604 1.73752 15.9848 1.76514 16.0009 1.79763C16.0009 1.79763 16.0286 1.85359 16.0705 1.95742C16.0897 2.00921 16.1183 2.07402 16.1361 2.1482L16.1673 2.26832C16.1774 2.31091 16.1915 2.35726 16.1974 2.40367C16.2119 2.49677 16.2306 2.60289 16.2377 2.71117C16.2448 2.81945 16.2524 2.93775 16.2489 3.05429C16.2485 3.11436 16.2468 3.17441 16.2438 3.23441C16.2404 3.29469 16.236 3.35492 16.2306 3.41505C16.2213 3.53728 16.2041 3.6554 16.1885 3.77476C16.1698 3.89031 16.1527 4.0082 16.1319 4.1149C16.1134 4.21752 16.0928 4.31977 16.0702 4.42158C16.0531 4.51169 16.0294 4.60304 16.016 4.67435C16.0085 4.71039 15.9983 4.74964 15.9927 4.77929C15.9873 4.80953 15.982 4.83847 15.9751 4.8656C15.9671 4.89519 15.9675 4.91265 15.9629 4.93298C15.9611 4.94271 15.9596 4.95232 15.9573 4.96134L15.9539 4.9747C15.9533 4.97763 15.9503 4.98677 15.9519 4.9839C15.955 4.98185 15.9544 4.97886 15.9535 4.97623C15.953 4.97488 15.9516 4.97347 15.9502 4.97224L15.9479 4.97037C15.9475 4.97042 15.9471 4.9689 15.9467 4.97037L15.9458 4.97921C15.9352 5.07226 15.9235 5.12505 15.9235 5.12505L15.9221 5.13144C15.7936 5.71158 15.2191 6.07767 14.639 5.94917C14.1672 5.84458 13.8371 5.44351 13.7994 4.98578Z" fill="#FFD366"/>
    </g>
    <defs>
        <clipPath id="clip0_52_154">
            <rect width="30" height="30" fill="white"/>
        </clipPath>
    </defs>
</svg>
