<svg width="113" height="113" viewBox="0 0 113 113" fill="none" xmlns="http://www.w3.org/2000/svg">
    <path fill-rule="evenodd" clip-rule="evenodd" d="M56.602 9.35857C45.4394 9.3636 34.6581 13.4207 26.2615 20.776C17.7482 28.2408 12.1286 38.4598 10.3847 49.6472C8.60224 60.8818 10.7808 72.3866 16.5473 82.1916C22.2295 91.8804 31.1933 99.2141 41.8155 102.865C44.1738 103.309 45.0114 101.821 45.0114 100.553C45.0114 99.4067 44.9646 95.6305 44.9459 91.6251C31.9375 94.5262 29.1954 85.9631 29.1954 85.9631C28.3492 83.0826 26.5088 80.5955 24.0014 78.9442C19.7573 75.9635 24.329 76.0384 24.329 76.0384C25.8123 76.2443 27.2301 76.8011 28.4702 77.6574C29.7148 78.5137 30.749 79.6508 31.4977 80.9797C32.1294 82.1636 32.9857 83.207 34.0151 84.0446C35.548 85.3133 37.433 86.0814 39.416 86.2454C41.399 86.4094 43.3846 85.9614 45.105 84.9618C45.3156 82.5285 46.3684 80.2544 48.0764 78.5512C37.693 77.3392 26.7669 73.2261 26.7669 54.8272C26.6955 50.0831 28.4186 45.487 31.5912 41.9591C30.1594 37.8185 30.3195 33.2933 32.0404 29.2642C32.0404 29.2642 35.9664 27.9774 44.9038 34.1775C52.5609 32.0287 60.6618 32.0287 68.3189 34.1775C77.2377 27.9774 81.1402 29.2642 81.1402 29.2642C82.8715 33.2791 83.04 37.818 81.6128 41.9591C84.7841 45.4872 86.5041 50.0839 86.4278 54.8272C86.4278 73.2589 75.4829 77.3111 65.0715 78.495C66.195 79.6684 67.0585 81.0653 67.606 82.5948C68.1534 84.1242 68.3724 85.7519 68.2488 87.3716C68.2488 93.7916 68.1926 98.9622 68.1926 100.539C68.1926 101.812 69.0349 103.309 71.4073 102.841C82.0098 99.1737 90.9519 91.8365 96.6193 82.1542C102.374 72.3569 104.546 60.8643 102.763 49.6425C101.018 38.4654 95.4037 28.2558 86.9004 20.7947C78.5186 13.4432 67.7556 9.3801 56.6067 9.35857H56.602Z" fill="#A07D5A"/>
</svg>
