<svg width="113" height="113" viewBox="0 0 113 113" fill="none" xmlns="http://www.w3.org/2000/svg">
    <path d="M87.6408 25.3143L81.6514 29.9935L56.15 48.9441L30.6485 29.8063L24.6592 25.1271C23.2482 23.9599 21.5258 23.2323 19.7053 23.0344C17.8848 22.8365 16.0463 23.1771 14.4175 24.0139C12.7887 24.8507 11.4411 26.147 10.5419 27.7422C9.64259 29.3374 9.23108 31.1613 9.35831 32.9881V87.2197C9.35831 88.9074 10.0288 90.526 11.2222 91.7195C12.4156 92.9129 14.0342 93.5833 15.722 93.5833H30.6485V57.4602L56.15 76.598L81.6514 57.4602V93.5833H96.578C98.2657 93.5833 99.8844 92.9129 101.078 91.7195C102.271 90.526 102.942 88.9074 102.942 87.2197V32.9881C103.03 31.1771 102.589 29.3796 101.675 27.814C100.76 26.2484 99.4104 24.9823 97.7897 24.1694C96.169 23.3566 94.347 23.0321 92.5453 23.2353C90.7436 23.4386 89.0397 24.1608 87.6408 25.3143Z" fill="#A07D5A"/>
</svg>
